<?xml version="1.0" encoding="UTF-8"?>
<svg width="48px" height="48px" viewBox="0 0 48 48" version="1.1" xmlns="http://www.w3.org/2000/svg" xmlns:xlink="http://www.w3.org/1999/xlink">
    <!-- Generator: Sketch 52.2 (67145) - http://www.bohemiancoding.com/sketch -->
    <title>BG Pattern</title>
    <desc>Created with Sketch.</desc>
    <g id="Designs" stroke="none" stroke-width="1" fill="none" fill-rule="evenodd">
        <g id="Home" transform="translate(-120.000000, -3143.000000)" fill="rgba(100, 0, 100, 0.1)" fill-rule="nonzero">
            <g id="BG-Pattern" transform="translate(120.000000, 3143.000000)">
                <rect id="Rectangle" x="9" y="0" width="2" height="1"></rect>
                <rect id="Rectangle-Copy" x="13" y="0" width="2" height="1"></rect>
                <rect id="Rectangle-Copy-3" x="17" y="0" width="2" height="1"></rect>
                <rect id="Rectangle-Copy-4" x="21" y="0" width="2" height="1"></rect>
                <rect id="Rectangle-Copy-5" x="25" y="0" width="2" height="1"></rect>
                <rect id="Rectangle-Copy-7" x="29" y="0" width="2" height="1"></rect>
                <rect id="Rectangle-Copy-8" x="33" y="0" width="2" height="1"></rect>
                <rect id="Rectangle-Copy-9" x="37" y="0" width="2" height="1"></rect>
                <rect id="Rectangle" transform="translate(0.500000, 10.000000) rotate(-270.000000) translate(-0.500000, -10.000000) " x="-0.5" y="9.5" width="2" height="1"></rect>
                <rect id="Rectangle-Copy" transform="translate(0.500000, 14.000000) rotate(-270.000000) translate(-0.500000, -14.000000) " x="-0.5" y="13.5" width="2" height="1"></rect>
                <rect id="Rectangle-Copy-3" transform="translate(0.500000, 18.000000) rotate(-270.000000) translate(-0.500000, -18.000000) " x="-0.5" y="17.5" width="2" height="1"></rect>
                <rect id="Rectangle-Copy-4" transform="translate(0.500000, 22.000000) rotate(-270.000000) translate(-0.500000, -22.000000) " x="-0.5" y="21.5" width="2" height="1"></rect>
                <rect id="Rectangle-Copy-5" transform="translate(0.500000, 26.000000) rotate(-270.000000) translate(-0.500000, -26.000000) " x="-0.5" y="25.5" width="2" height="1"></rect>
                <rect id="Rectangle-Copy-7" transform="translate(0.500000, 30.000000) rotate(-270.000000) translate(-0.500000, -30.000000) " x="-0.5" y="29.5" width="2" height="1"></rect>
                <rect id="Rectangle-Copy-8" transform="translate(0.500000, 34.000000) rotate(-270.000000) translate(-0.500000, -34.000000) " x="-0.5" y="33.5" width="2" height="1"></rect>
                <rect id="Rectangle-Copy-9" transform="translate(0.500000, 38.000000) rotate(-270.000000) translate(-0.500000, -38.000000) " x="-0.5" y="37.5" width="2" height="1"></rect>
                <rect id="Rectangle" transform="translate(47.500000, 10.000000) rotate(-270.000000) translate(-47.500000, -10.000000) " x="46.5" y="9.5" width="2" height="1"></rect>
                <rect id="Rectangle-Copy" transform="translate(47.500000, 14.000000) rotate(-270.000000) translate(-47.500000, -14.000000) " x="46.5" y="13.5" width="2" height="1"></rect>
                <rect id="Rectangle-Copy-3" transform="translate(47.500000, 18.000000) rotate(-270.000000) translate(-47.500000, -18.000000) " x="46.5" y="17.5" width="2" height="1"></rect>
                <rect id="Rectangle-Copy-4" transform="translate(47.500000, 22.000000) rotate(-270.000000) translate(-47.500000, -22.000000) " x="46.5" y="21.5" width="2" height="1"></rect>
                <rect id="Rectangle-Copy-5" transform="translate(47.500000, 26.000000) rotate(-270.000000) translate(-47.500000, -26.000000) " x="46.5" y="25.5" width="2" height="1"></rect>
                <rect id="Rectangle-Copy-7" transform="translate(47.500000, 30.000000) rotate(-270.000000) translate(-47.500000, -30.000000) " x="46.5" y="29.5" width="2" height="1"></rect>
                <rect id="Rectangle-Copy-8" transform="translate(47.500000, 34.000000) rotate(-270.000000) translate(-47.500000, -34.000000) " x="46.5" y="33.5" width="2" height="1"></rect>
                <rect id="Rectangle-Copy-9" transform="translate(47.500000, 38.000000) rotate(-270.000000) translate(-47.500000, -38.000000) " x="46.5" y="37.5" width="2" height="1"></rect>
                <rect id="Rectangle" x="9" y="47" width="2" height="1"></rect>
                <rect id="Rectangle-Copy" x="13" y="47" width="2" height="1"></rect>
                <rect id="Rectangle-Copy-3" x="17" y="47" width="2" height="1"></rect>
                <rect id="Rectangle-Copy-4" x="21" y="47" width="2" height="1"></rect>
                <rect id="Rectangle-Copy-5" x="25" y="47" width="2" height="1"></rect>
                <rect id="Rectangle-Copy-7" x="29" y="47" width="2" height="1"></rect>
                <rect id="Rectangle-Copy-8" x="33" y="47" width="2" height="1"></rect>
                <rect id="Rectangle-Copy-9" x="37" y="47" width="2" height="1"></rect>
                <path d="M1,1 L1,7 L0,7 L0,1 L0,0 L7,0 L7,1 L1,1 Z" id="Combined-Shape"></path>
                <path d="M42,1 L42,7 L41,7 L41,1 L41,0 L48,0 L48,1 L42,1 Z" id="Combined-Shape-Copy" transform="translate(44.500000, 3.500000) rotate(-270.000000) translate(-44.500000, -3.500000) "></path>
                <path d="M42,42 L42,48 L41,48 L41,42 L41,41 L48,41 L48,42 L42,42 Z" id="Combined-Shape-Copy-2" transform="translate(44.500000, 44.500000) rotate(-180.000000) translate(-44.500000, -44.500000) "></path>
                <path d="M1,42 L1,48 L0,48 L0,42 L0,41 L7,41 L7,42 L1,42 Z" id="Combined-Shape-Copy-3" transform="translate(3.500000, 44.500000) rotate(-90.000000) translate(-3.500000, -44.500000) "></path>
            </g>
        </g>
    </g>
</svg>
