<svg height="729" viewBox="0 0 689 729" width="689" xmlns="http://www.w3.org/2000/svg"><g fill="none" fill-rule="evenodd" stroke="#fff" stroke-width="1.4"><path d="m593.474842 153.312198-20.204913 20.204914c45.947988 50.349973 74.013788 117.282247 74.013788 190.652389 0 73.371542-28.0658 140.306615-74.013788 190.656588l20.203514 20.203514c51.113954-55.541125 82.396589-129.606685 82.396589-210.860102 0-81.253416-31.279837-155.317577-82.39519-210.857303z"/><path d="m173.516552 155.074251c50.348574-45.947988 117.282248-74.0137886 190.65239-74.0137886 73.37294 0 140.306614 28.0671996 190.657986 74.0137886l20.204914-20.204913c-55.542524-51.1153535-129.608085-82.3951904-210.8629-82.3951904-81.253417 0-155.316179 31.2784376-210.855904 82.3937904z"/><path d="m155.075231 554.825529c-45.949388-50.348574-74.0137892-117.283647-74.0137892-190.656587 0-73.370142 28.0644012-140.302417 74.0137892-190.65239l-20.206313-20.206313c-51.1153533 55.541125-82.3937909 129.603887-82.3937909 210.858703 0 81.254815 31.2798368 155.320376 82.3951899 210.861501z"/><path d="m554.826508 573.268389c-50.349973 45.949388-117.283646 74.015189-190.657986 74.015189-73.368743 0-140.302417-28.065801-190.65239-74.015189l-20.203514 20.206313c55.539725 51.115353 129.602487 82.39519 210.855904 82.39519 81.254816 0 155.320376-31.281236 210.860102-82.397988z"/><path d="m424.655513 313.300133c-.033582 39.7312-62.398762 35.060563-82.253868 35.052167l.041977-70.22047c19.857904.008395 82.23148-6.272758 82.211891 35.168303zm16.295459 109.243659c-.005597 43.671437-74.784766 38.663585-98.622087 38.67198l.05457-77.423717c23.842918.01819 98.595501-6.797471 98.567517 38.751737zm49.280959-124.924855c-3.980815-41.656543-39.934088-55.639071-85.332178-59.640875l.032182-57.779896-35.172501-.013992-.030783 56.256132c-9.244727-.004198-18.69794.174904-28.088188.356804l.039178-56.628328-35.15431-.019589-.046175 57.763105c-7.614622.149718-15.093518.288242-22.384918.289641l-.005597-.180501-48.512781-.041977-.012593 37.560991s25.975348-.481336 25.542985-.004198c14.248382.012593 18.878441 8.284854 20.223103 15.422338l-.03498 65.822683.001399.249064-.062966 92.209405c-.628255 4.48314-3.268606 11.630418-13.221345 11.643011.449154.397382-25.568171-.020988-25.568171-.020988l-7.012952 41.997955 45.773085.022388c8.517126.013992 16.899927.16371 25.126013.21968l-.019589 58.436136 35.134721.023787.032183-57.819075c9.365061.195893 18.730123.289641 28.097983.282645l-.048974 57.553221 35.171102.013992.047574-58.332593c59.132954-3.360956 100.530639-18.234795 105.702202-73.75633 4.175309-44.70687-16.848156-64.666918-50.410141-72.744685 20.398008-10.37111 33.159006-28.657676 30.195432-59.139951z"/><path d="m364.168802 29.2860708c-184.652482 0-334.8824513 150.2299692-334.8824513 334.8824512 0 184.658079 150.2299693 334.888048 334.8824513 334.888048 184.659478 0 334.889447-150.229969 334.889447-334.888048 0-184.652482-150.229969-334.8824512-334.889447-334.8824512zm0 698.3582132c-200.42043 0-363.47016534-163.053933-363.47016534-363.475762 0-200.42043 163.04973534-363.46876595 363.47016534-363.46876595s363.477161 163.04833595 363.477161 363.46876595c0 200.421829-163.056731 363.475762-363.477161 363.475762z"/></g></svg>