<svg height="472" viewBox="0 0 770 472" width="770" xmlns="http://www.w3.org/2000/svg" xmlns:xlink="http://www.w3.org/1999/xlink"><mask id="a" fill="#fff"><path d="m2.22289437.53390626-2.03665187 1.45801939c.75698565.82201093 1.92851107 1.81502413 2.67348107 1.88702509 2.49925422.23100307 3.69180701.28500379 4.23851887.14100187.21027379-.05400072 3.10003646-1.38001835 3.10003646-1.38001835l-3.25623985-2.16902884c-.05106649-.03600048-.11414863-.05100068-.17422685-.05100068z" fill="#fff" fill-rule="evenodd"/></mask><mask id="b" fill="#fff"><path d="m3.44018067.47090542-3.25924378 2.16902884s2.8927666 1.32601763 3.10003648 1.38001835c.54671186.14400192 1.74226856.0900012 4.23851887-.14100187.74797392-.07200096 1.91949933-1.06501416 2.67648496-1.88702509l-2.03665185-1.45801939-4.54792173-.11400152c-.06007823 0-.12316037.0150002-.17122295.05100068z" fill="#fff" fill-rule="evenodd"/></mask><g fill="none" fill-rule="evenodd" transform="translate(0 -1)"><path d="m6.64254909 141.200576-6.64164792 42.018558h147.84350283l-6.641647-42.018558-67.2816062-23.208309z" fill="#393332"/><path d="m55.4936569 124.415653 11.7482971 13.002172 6.7948474 10.179136 9.9068996-8.97612 8.6092098-14.31019 1.7212412-21.80429-41.0454443 1.413019 2.0757028 20.703275z" fill="#e6c8b7"/><g transform="translate(43.057363 47.283528)"><path d="m12.4362943 62.713633c6.9390351 9.6121278 7.7861381 10.4611391 10.8981902 14.2771899 3.1150561 3.8160507 5.0946336 3.6750488 7.927322 3.3930451 2.8296845-.2850038 4.2475306.2820037 9.0567926-6.3600846 4.8152699-6.6450883 9.2009804-13.0051729 9.2009804-13.0051729z" fill="#231f20" opacity=".15"/><path d="m5.50717205 36.7545879c-3.04296217.8250109-3.07600519.8640115-4.09132722 1.6110214-1.01231811.75001-.97627117 1.2750169-.90117339 2.6610354.07509778 1.3890184.4505867 5.2110693.67588005 6.7110892.22529334 1.5000199.15019556 2.4720329 2.58937155 3.5970478 2.43917599 1.125015 3.07600519 1.425019 5.25384089 1.8390245 2.17483177.4110054 0-16.7192223 0-16.7192223z" fill="#e6c8b7"/><path d="m54.1185677 36.7545879c3.0429622.8250109 3.0760052.8640115 4.0913272 1.6110214 1.0123181.75001.9762712 1.2750169.9011734 2.6610354-.0750978 1.3890184-.4505867 5.2110693-.67588 6.7110892-.2252934 1.5000199-.1501956 2.4720329-2.5893716 3.5970478-2.439176 1.125015-3.0760052 1.425019-5.2538409 1.8390245-2.1748318.4110054 0-16.7192223 0-16.7192223z" fill="#e6c8b7"/><path d="m52.7749182 15.0777996-7.0742112-9.04812027-11.8654497-3.76505006-.1592073-1.36801819-3.3733924.66600886-3.3733924-.66600886-.1592073 1.36801819-19.28511064 10.55114033-2.10574183 22.7043019 2.80865708 20.2172688c.75097783 3.5550472-.18624251 3.3690448 4.31061269 7.4850995 4.4998592 4.1160547 7.3085163 6.3630846 7.3085163 6.3630846 2.9979035 2.6220349 3.1871499 2.8080373 9.3722033 2.8080373.3784928 0 .7539817-.0690009 1.1234628-.2010026.3694811.1320017.74497.2010026 1.1264668.2010026 6.1820495 0 6.3712959-.1860024 9.3691994-2.8080373 0 0 2.808657-2.2470299 7.3085162-6.3630846 4.4968552-4.1160547 3.5596349-3.9300523 4.3106127-7.4850995l2.8086571-20.2172688z" fill="#eac7b3"/><g fill="#231f20"><path d="m30.233868 35.260568 4.0402608 15.2852032h-4.0402608z" opacity=".05"/><path d="m30.2134415 52.1255922 4.0612881-1.5780209h-8.0805215z" opacity=".1"/><path d="m30.233868 58.4316761 1.7602921-.9840131 7.5668526 1.6470219h-9.3271447z" opacity=".1"/><path d="m30.2221528 58.4316761-1.760292-.9840131-7.5668526 1.6470219h9.3271446z" opacity=".1"/><path d="m20.8935062 59.0952849 2.7936375 1.3860184 6.5335071.5370072v-1.9230256z" opacity=".1"/><path d="m39.5625146 59.0952849-2.7936375 1.3860184-6.5335071.5370072v-1.9230256z" opacity=".1"/></g></g><g transform="translate(57.074315 80.283967)"><path d="m-1.17002346 1.78102284c0 3.36604476 2.7335593 6.09608106 6.1039478 6.09608106 3.37038849 0 6.10094386-2.7300363 6.10094386-6.09608106s-2.73055537-6.09608106-6.10094386-6.09608106c-3.3703885 0-6.1039478 2.7300363-6.1039478 6.09608106" fill="#e0c1aa" mask="url(#a)"/><path d="m.223491 1.78102284c0 2.59803455 2.10874575 4.70406255 4.71013295 4.70406255 2.60439111 0 4.71313685-2.106028 4.71313685-4.70406255 0-2.59803454-2.10874574-4.70406255-4.71313685-4.70406255-2.6013872 0-4.71013295 2.10602801-4.71013295 4.70406255" fill="#fff" mask="url(#a)"/><path d="m2.56143518 1.78102284c0 1.31101743 1.06338461 2.37003151 2.37308994 2.37003151 1.31270924 0 2.37308994-1.05901408 2.37308994-2.37003151s-1.0603807-2.37303155-2.37308994-2.37303155c-1.30970533 0-2.37308994 1.06201412-2.37308994 2.37303155" fill="#5f3917" mask="url(#a)"/><path d="m3.88135381 1.78102284c0 .58200774.46861017 1.053014 1.05437287 1.053014.57975489 0 1.05136896-.47100626 1.05136896-1.053014s-.47161407-1.053014-1.05136896-1.053014c-.5857627 0-1.05437287.47100626-1.05437287 1.053014" fill="#231f20" mask="url(#a)"/><path d="m2.98678902.1757015 1.94653454 1.60502134-2.14479268 1.20901607-.40853194-1.35901807z" fill="#fff" mask="url(#a)" opacity=".25"/><path d="m10.6873157 3.25914249-3.47852932-2.33703107-4.75819553.03900052-3.20517337 2.01902684-.20726988-3.2040426 5.32293085-.87901169 7.10124635.14700196z" fill="#231f20" mask="url(#a)" opacity=".2"/></g><g transform="translate(79.104298 80.283967)"><path d="m11.5504408 1.78102284c0 3.36604476-2.73355926 6.09608106-6.10394776 6.09608106s-6.10094388-2.7300363-6.10094388-6.09608106 2.73055538-6.09608106 6.10094388-6.09608106 6.10394776 2.7300363 6.10394776 6.09608106" fill="#e0c1aa" mask="url(#b)"/><path d="m10.1569264 1.78102284c0 2.59803455-2.10874577 4.70406255-4.71013297 4.70406255-2.60439111 0-4.71313686-2.106028-4.71313686-4.70406255 0-2.59803454 2.10874575-4.70406255 4.71313686-4.70406255 2.6013872 0 4.71013297 2.10602801 4.71013297 4.70406255" fill="#fff" mask="url(#b)"/><path d="m7.8189822 1.78102284c0 1.31101743-1.06338461 2.37003151-2.37308994 2.37003151-1.31270925 0-2.37308994-1.05901408-2.37308994-2.37003151s1.06038069-2.37303155 2.37308994-2.37303155c1.30970533 0 2.37308994 1.06201412 2.37308994 2.37303155" fill="#5f3917" mask="url(#b)"/><path d="m6.49876317 1.78102284c0 .58200774-.46861016 1.053014-1.05437287 1.053014-.57975488 0-1.05136896-.47100626-1.05136896-1.053014s.47161408-1.053014 1.05136896-1.053014c.58576271 0 1.05437287.47100626 1.05437287 1.053014" fill="#231f20" mask="url(#b)"/><path d="m3.49785577 3.38364415 1.94653453-1.60502134-2.14479268-1.20901608-.40853194 1.35901807z" fill="#fff" mask="url(#b)" opacity=".25"/><path d="m-.30689831 3.25914249 3.47852931-2.33703107 4.75819552.03900052 3.20517338 2.01902684.2072699-3.2040426-5.32293087-.87901169-7.10124636.14700196z" fill="#231f20" mask="url(#b)" opacity=".2"/></g><g transform="translate(8.020833 .285004)"><path d="m65.2703973 119.201583c.0240313-.006.0480626-.003.0660861-.012.372485.132002.7479739.201003 1.1264667.201003 6.1850534 0 6.3742998-.186003 9.3722033-2.805038 0 0 2.8086571-2.247029 7.3085162-6.366084 4.4968553-4.116055 3.559635-3.930052 4.3106128-7.4851l2.8086571-20.2142685-2.4511917-20.4452718-6.5605423-8.3851115h-15.9808082z" fill="#231f20" opacity=".07"/><path d="m40.4469754 82.5695962-.8260756-21.1772816 9.1168708-15.2462027v2.0700275l5.0405632-4.8300642v1.6590221l3.7999478-3.6570487v3.1050413l2.5563285-4.0020532 2.2078749 1.3110174.8410951-2.2770302 2.2679531 3.5880477-.6908996-4.5540606 7.6659816 6.2760835-.6218096-3.0330404 8.2907952 6.2760835v-1.9320257l10.9132098 16.695222-.8861538 18.9002513s-2.5683442-2.1390284-2.4992542-4.2780569c.0720939-2.1360284.0720939-7.2420963-.3454498-9.4501256-.4145398-2.2050294-.6908996-3.9300523-3.589674-8.346111-2.9017784-4.4130587-3.592678-5.793077-6.2180965-5.4480725-2.6254184.3450046-8.9126048 1.1010147-10.42958 1.5180202-1.5199792.4110055-2.8987745-.0690009-4.5599374-.4830064-1.6581591-.4140055-7.3896219-.9660128-8.8375071-1.1040147-1.4538931-.1410018-2.0036089.4800064-3.523588 2.2080294-1.5199791 1.7220229-6.3562763 7.7941036-6.8399061 9.5851274-.4836297 1.7970239-.8951655 9.6601285-1.1054393 12.2821633-.2072699 2.6190349-1.727249 4.3440578-1.727249 4.3440578" fill="#5f3a16"/><path d="m88.5918636 64.6353577-7.5308057-9.9361321-6.975082-9.105121.4145397 4.5540605-4.0042138-5.7240761 2.0036089 8.346111-5.8756506-9.9331321v7.3800981l-2.8987744-8.0701073-1.1054393 9.3811248-3.0399583-4.4850597-3.9381277 4.9680661v-5.5890743l-13.1901746 18.351244v9.4261253c.2192855-3.2250429.5106649-7.068094.8290795-8.2531097.4836297-1.7940239 5.3199269-7.8661046 6.8369022-9.5881275 1.5199791-1.725023 2.0726988-2.3490312 3.5235879-2.2080294 1.4508892.1380019 7.182352.6900092 8.840511 1.1040147 1.6551552.4140055 3.0369544.8940119 4.5569335.4830064 1.5199791-.4140055 7.8071655-1.1730156 10.432584-1.5180202 2.6254185-.3450045 3.3133142 1.0350138 6.2150925 5.4480725 2.9017784 4.4160587 3.1781382 6.1410816 3.589674 8.346111.3154107 1.6650221.3905085 4.968066.3784929 7.4130985z" fill="#593518"/><path d="m81.4077093 54.3563211-7.3896218-5.3790716v3.378045l-1.7993429-2.1390285-.9642556 1.725023-2.0726988-1.3800184-2.8326883 3.8640514.2763598-2.8290376-3.4394784 3.3810449-.4265555-1.5180202-1.4028265 1.5810211c.4595984.0720009.8501069.1440019 1.1234628.2130028 1.658159.4140055 3.0399582.8970119 4.5599374.4830064 1.5199791-.4140055 7.8041616-1.1730156 10.4295801-1.5180202s3.3163181 1.0350138 6.2180964 5.4510725c2.9017783 4.4130587 3.1751342 6.1380816 3.589674 8.346111.4175437 2.2080293.4175437 7.3110972.3454498 9.4501256-.06909 2.1390285 2.4992542 4.2750569 2.4992542 4.2750569l.8861539-18.9002513-4.6500548-7.1100946-5.5722554-3.9960531z" fill="#4b2e15"/><path d="m69.5152244 76.9943221c1.1414863-.8520114 2.4632073-1.5690209 3.115056-2.0010266.6488449-.4350058 1.5169752-.3240043 2.4121408-.2700036s5.1757392.5400072 5.689408.6480086c.5136689.1080014.5707432.2430032 1.0003025.7020093.4355672.4620062 2.9288136 3.6270483 2.9288136 3.6270483-3.5506232-1.6770223-4.3616793-2.2710302-4.3616793-2.2710302s-.4896375-.2160029-1.6821903-.2460033c-1.1895489-.0270004-3.4124433-.1620022-4.1694289-.1080015-.7599896.0540008-2.0606832.297004-2.8747432.8130109-.8140599.5130068-1.6521512.7860104-1.9225032.3510046-.2733559-.4320057-.7599896-.7800103-.135176-1.2450165" fill="#5f3917"/><path d="m61.5242195 76.9943221c-1.1444902-.8520114-2.4662112-1.5690209-3.1180599-2.0010266-.6488449-.4350058-1.5169753-.3240043-2.4121408-.2700036-.8951656.0540007-5.1727353.5400072-5.6864041.6480086-.5166728.1080014-.5707432.2430032-1.0033064.7020093-.4355672.4620062-2.9288136 3.6270483-2.9288136 3.6270483 3.5506232-1.6770223 4.3616793-2.2710302 4.3616793-2.2710302s.4896375-.2160029 1.6821903-.2460033c1.1895489-.0270004 3.4124433-.1620022 4.1724328-.1080015.7569857.0540008 2.0606832.297004 2.8717392.8130109.81406.5130068 1.6521513.7860104 1.9225033.3510046.2733559-.4320057.7599896-.7800103.1381799-1.2450165" fill="#5f3917"/><path d="m79.8733114 182.933231 4.6590664-58.905784-8.6092098 14.310191-9.9068995 8.973119-6.7948474-10.176135-11.7482972-13.005173-.1922503.210003 5.8696427 58.593779z" fill="#c6eafa"/><path d="m58.3854326 182.933231h15.5362293l-5.0766101-26.574354 5.9447405-11.166148-9.7657157-6.504087-7.927322 7.068094 6.0889283 10.884145z" fill="#2aace2"/><path d="m48.6049977 125.261664 17.5518538 14.559193-13.1631393 13.995187z" fill="#000" opacity=".25"/><path d="m47.4728235 124.130649 17.5518539 14.559193-13.1631394 13.995186z" fill="#fff"/><path d="m85.3121932 127.19219-18.5882032 11.499152 13.8690585 13.851185z" fill="#000" opacity=".25"/><path d="m84.5552076 124.130649-19.5314314 14.559193 13.8690585 13.851185z" fill="#fff"/><path d="m29.5313624 182.933231h23.574696l-5.5722555-59.049785-23.9862318 19.653261 14.8062789 6.924092-17.9934288 14.973199z" fill="#494342"/><path d="m102.273778 182.933231 9.167938-17.499233-17.993429-14.973199 14.806279-6.924092-23.986232-19.653261-5.5722554 59.049785z" fill="#494342"/><path d="m.29309202 198.789042h2.6554576l2.97086829 8.418111h.03003912l2.89877442-8.418111h2.62241455v10.752142h-1.79633894v-8.29811h-.03003911l-2.98588785 8.29811h-1.55302215l-2.98889176-8.29811h-.02703521v8.29811h-1.79633896z" fill="#8e9091"/><path d="m19.7629432 198.789042h7.7530951v1.626021h-5.8666388v2.817038h5.4280678v1.53602h-5.4280678v3.147042h5.9717757v1.626021h-7.858232z" fill="#8e9091"/><path d="m37.1820242 203.683007h3.0880208c.6037862 0 1.0633846-.141002 1.3727875-.429006.3124067-.285004.471614-.71401.471614-1.287017 0-.342005-.0540704-.621008-.1531994-.837011-.0991291-.216003-.237309-.384005-.4145398-.504007-.1742269-.120002-.3784928-.201003-.6007823-.240003-.2282972-.042001-.4626023-.060001-.7029152-.060001h-3.0609856zm-1.8864563-4.893065h5.1426961c1.186545 0 2.0757027.255003 2.6704772.76801.5947744.510007.8891577 1.224016.8891577 2.136028 0 .513007-.0750977.936013-.2252933 1.275017-.1501956.336005-.3274263.606008-.5256845.813011-.204266.207003-.4025241.354005-.6007823.444006-.1922503.090001-.3394419.150002-.4265554.180002v.030001c.1562034.021.3334342.072001.5196767.150002.1832386.081001.3604694.210002.5166727.384005.1652152.177002.2973873.405005.4025242.687009.1051369.279004.1592073.633008.1592073 1.053014 0 .633008.0480625 1.209016.1441877 1.725023.0931212.516007.2403129.885012.4445789 1.107014h-2.0246363c-.1381799-.231003-.2222894-.486006-.2463207-.76801-.0240313-.279003-.0390508-.552007-.0390508-.813011 0-.492006-.0300391-.915012-.0901174-1.272016-.0570743-.357005-.168219-.654009-.3304302-.888012-.1622112-.237003-.3784928-.411006-.6578566-.522007-.2733559-.108002-.6308214-.165002-1.0633846-.165002h-2.7726101v4.428058h-1.8864563z" fill="#8e9091"/><path d="m59.2157137 202.207887c-.0811056-.312004-.1922504-.597008-.3334342-.858011-.1411838-.261004-.3214185-.489007-.540704-.678009-.2222895-.192003-.4806258-.339005-.781017-.444006-.2913794-.105002-.6398331-.159002-1.0333455-.159002-.5707431 0-1.0663885.117001-1.4839322.345004-.4145397.231003-.7569856.543007-1.0183259.927012-.2583364.387006-.4535906.825011-.5797549 1.317018-.1261643.492006-.1862425.996013-.1862425 1.50602 0 .513007.0600782 1.017013.1862425 1.50902s.3214185.930012.5797549 1.317018c.2613403.387005.6037862.696009 1.0183259.927012.4175437.228003.9131891.345004 1.4839322.345004.4235515 0 .7960365-.072 1.120459-.219002.3184146-.144002.5977783-.345005.8290795-.600008.2282972-.258004.4115358-.555008.5437079-.897012.1321721-.342005.2132777-.70801.2553325-1.101015h1.8413976c-.0420547.642009-.1832386 1.230016-.4175436 1.764023-.2343051.531008-.5557236.990014-.9552438 1.377019-.4055281.387005-.8741382.684009-1.4208501.897012-.5437079.210002-1.1384824.315004-1.796339.315004-.8020443 0-1.522983-.147002-2.1598122-.444006-.6398331-.297004-1.1805371-.702009-1.6221121-1.212016-.441575-.513007-.781017-1.110015-1.0183259-1.794024-.237309-.681009-.3544616-1.410019-.3544616-2.184029 0-.76201.1171526-1.48502.3544616-2.166029.2373089-.684009.5767509-1.281017 1.0183259-1.794024.441575-.510006.982279-.918012 1.6221121-1.218016.6368292-.303004 1.3577679-.453006 2.1598122-.453006.6067901 0 1.1745294.084001 1.7092256.249003.5316923.165003 1.0033064.405006 1.4088344.72301.405528.315004.7359583.699009.9882868 1.152015.2493246.450006.405528.969013.4656063 1.551021z" fill="#8e9091"/><path d="m68.8198189 198.789042h1.8864563v4.278056h4.9023833v-4.278056h1.8834524v10.752142h-1.8834524v-4.848064h-4.9023833v4.848064h-1.8864563z" fill="#8e9091"/><path d="m88.0048993 205.265228h3.286279l-1.6131004-4.626062h-.0480625zm.6638644-6.477087h2.0066128l4.1453976 10.755144h-2.0216323l-1.0093142-2.847038h-4.301601l-1.0093142 2.847038h-1.9435306z" fill="#8e9091"/><path d="m101.804267 198.789042h1.988589l4.917403 7.923105h.030039v-7.923105h1.793335v10.752142h-1.988589l-4.905387-7.905105h-.039051v7.905105h-1.796339z" fill="#8e9091"/><path d="m117.771257 198.789042h8.714347v1.626021h-3.418451v9.126121h-1.886456v-9.126121h-3.40944z" fill="#8e9091"/><path d="m569.309894 150.199795h112.983113v-81.559084h-112.983113z" fill="#6b6b6b"/><path d="m539.697337 165.457998h172.292337v-15.258203h-172.292337z" fill="#c4c4c4"/><path d="m539.697337 154.102847h172.292337v-3.900052h-172.292337z" fill="#fff" opacity=".5"/><path d="m527.513472 180.713201h196.657062v-15.258203h-196.657062z" fill="#c4c4c4"/><path d="m527.513472 169.35505h196.657062v-3.900052h-196.657062z" fill="#fff" opacity=".5"/><path d="m539.697337 68.5027092h172.292337v-15.2582029h-172.292337z" fill="#c4c4c4"/><path d="m724.171135 53.1026044h-196.657062v-15.2582029l98.330033-37.1314937 98.327029 37.1314937z" fill="#c4c4c4"/><path d="m527.514674 47.1712255v5.9310789h196.657062v-5.9310789l-98.330033-37.1314937z" fill="#c4c4c4"/><path d="m682.24194 150.199795h22.31005v-81.559084h-22.31005z" fill="#c4c4c4"/><path d="m693.398467 150.199795h11.153523v-81.559084h-11.153523z" fill="#000" opacity=".1"/><path d="m682.292406 68.643111v27.7263687l22.21092-17.1392279v-10.5871408z" fill="#424142" opacity=".25"/><path d="m637.207302 150.199795h22.307045v-81.559084h-22.307045z" fill="#c4c4c4"/><path d="m648.360825 150.199795h11.153522v-81.559084h-11.153522z" fill="#000" opacity=".1"/><path d="m637.254463 68.643111v27.7263687l22.21092-17.1392279v-10.5871408z" fill="#424142" opacity=".25"/><path d="m592.169659 150.199795h22.31005v-81.559084h-22.31005z" fill="#c4c4c4"/><path d="m603.323182 150.199795h11.156527v-81.559084h-11.156527z" fill="#000" opacity=".1"/><path d="m592.219224 68.643111v27.7263687l22.21092-17.1392279v-10.5871408z" fill="#424142" opacity=".25"/><path d="m547.129013 150.199795h22.310049v-81.559084h-22.310049z" fill="#c4c4c4"/><path d="m558.28554 150.199795h11.153523v-81.559084h-11.153523z" fill="#000" opacity=".1"/><path d="m547.180981 68.643111v27.7263687l22.21092-17.1392279v-10.5871408z" fill="#424142" opacity=".25"/><path d="m625.840501 165.454998h82.919968v-11.352151h-82.919968z" fill="#424142" opacity=".1"/><path d="m625.843505 180.707201h94.124557v-11.352151h-94.124557z" fill="#424142" opacity=".1"/><path d="m539.526114 65.484669h6.27517v-9.2251226h-6.27517z" fill="#000" opacity=".1"/><path d="m557.99416 65.484669h6.275171v-9.2251226h-6.275171z" fill="#000" opacity=".1"/><path d="m576.456199 65.484669h6.275171v-9.2251226h-6.275171z" fill="#000" opacity=".1"/><path d="m594.924246 65.484669h6.275171v-9.2251226h-6.275171z" fill="#000" opacity=".1"/><path d="m613.386285 65.484669h6.275171v-9.2251226h-6.275171z" fill="#000" opacity=".1"/><path d="m631.854332 65.484669h6.275171v-9.2251226h-6.275171z" fill="#000" opacity=".1"/><path d="m650.316371 65.484669h6.275171v-9.2251226h-6.275171z" fill="#000" opacity=".1"/><path d="m668.784418 65.484669h6.27517v-9.2251226h-6.27517z" fill="#000" opacity=".1"/><path d="m687.246457 65.484669h6.27517v-9.2251226h-6.27517z" fill="#000" opacity=".1"/><path d="m705.714503 65.484669h6.275171v-9.2251226h-6.275171z" fill="#000" opacity=".1"/><path d="m709.148875 68.4790088v-7.5631005h-169.62186v-7.5601005h172.460556v15.123201z" fill="#424142" opacity=".25"/><path d="m539.697337 68.643711h172.292337v-2.7750369h-172.292337z" fill="#fff" opacity=".5"/><path d="m625.757894.74380821v52.35969619h98.414142v-15.2582029l-98.330033-37.13449373z" fill="#424142" opacity=".1"/><path d="m636.541635 31.7783209c0 5.9010784-4.791238 10.686142-10.699932 10.686142s-10.699932-4.7850636-10.699932-10.686142c0-5.9010785 4.791238-10.6861421 10.699932-10.6861421s10.699932 4.7850636 10.699932 10.6861421" fill="#2aace2"/><path d="m625.842905 21.0921788c-5.911698 0-10.702937 4.7850636-10.702937 10.6861421 0 2.5350337.925205 4.8330642 2.400126 6.6660886l16.866962-13.014173c-1.952543-2.6190349-5.046571-4.3380577-8.564151-4.3380577" fill="#424142" opacity=".25"/><path d="m625.842905 10.0385318-98.32703 37.1314937v5.9310789h196.654059v-5.9310789zm0 6.4140853 81.159675 30.6484075h-162.322355z" fill="#fff" opacity=".75"/><g fill="#8e9091"><path d="m488.909908 207.056551.907181-1.041013 1.309705 1.146015c.34545-.411006.585763-.879012.723943-1.401019.141184-.522007.213277-1.053014.213277-1.596021 0-.513007-.066086-1.014013-.189246-1.50602-.126164-.492007-.318415-.930012-.579755-1.317018-.26134-.387005-.600782-.696009-1.018326-.927012-.420547-.231003-.913189-.348005-1.486936-.348005-.570743 0-1.069392.117002-1.483932.348005-.417544.231003-.756986.540007-1.018326.927012-.26134.387006-.453591.825011-.579755 1.317018s-.189246.993013-.189246 1.50602.063082 1.014013.189246 1.50602.318415.930012.579755 1.317018c.26134.387005.600782.696009 1.018326.927012.41454.231003.913189.345004 1.483932.345004.201262 0 .405528-.018.609794-.06.20727-.039001.405528-.105002.597778-.195003zm4.902383 2.439033-.919197 1.023013-1.568042-1.368018c-.402524.228003-.820068.396006-1.252631.495007s-.859118.153002-1.28267.153002c-.805048 0-1.525987-.150002-2.162816-.447006-.639833-.294004-1.177533-.699009-1.622112-1.212016-.441575-.513007-.784021-1.110015-1.018326-1.791024-.237309-.684009-.354462-1.413019-.354462-2.184029 0-.76201.117153-1.48502.354462-2.169029.234305-.684009.576751-1.281017 1.018326-1.794024.444579-.510006.982279-.918012 1.622112-1.218016.636829-.303004 1.357768-.453006 2.162816-.453006s1.525987.150002 2.16582.453006c.639833.300004 1.177533.70801 1.622112 1.218016.438571.513007.778013 1.110015 1.018326 1.794024.234305.684009.351458 1.407019.351458 2.169029 0 .372005-.030039.74401-.090118 1.122015-.060078.375005-.150195.74401-.270352 1.107015-.120156.360004-.276359.705009-.46861 1.032013-.189246.324005-.420547.615009-.693903.867012z"/><path d="m501.579805 198.787541h1.883452v6.264084c0 .363005.018024.729009.05407 1.101014.033044.372005.135176.70501.300392 1.002014.168219.297004.417543.540007.753981.729009.336438.192003.81406.285004 1.426858.285004s1.087416-.093001 1.423854-.285004c.339442-.189002.588767-.432005.753982-.729009.168219-.297004.267348-.630009.303395-1.002014s.051066-.738009.051066-1.101014v-6.264084h1.883453v6.882092c0 .693009-.105137 1.296017-.315411 1.806024-.210274.513007-.510665.942013-.895165 1.290017-.387505.345005-.853111.606008-1.396819.77401-.540704.171003-1.147494.258004-1.808355.258004-.663864 0-1.26765-.087001-1.811358-.258004-.543708-.168002-1.006311-.429005-1.393815-.77401-.387505-.348004-.684892-.77701-.89817-1.290017-.210273-.510007-.31541-1.113015-.31541-1.806024z"/><path d="m520.838181 205.263728h3.286279l-1.613101-4.626062h-.045059zm.663864-6.477087h2.006613l4.145397 10.755143h-2.021632l-1.009314-2.847037h-4.298597l-1.012318 2.847037h-1.943531z"/><path d="m534.710844 198.787541h1.886456v9.126122h5.473126v1.626021h-7.359582z"/><path d="m549.39997 209.540584h1.886456v-10.752142h-1.886456z"/><path d="m559.624984 198.787541h7.43468v1.626022h-5.548224v2.817038h4.86934v1.53602h-4.86934v4.773063h-1.886456z"/><path d="m574.596778 209.540584h1.886457v-10.752142h-1.886457z"/><path d="m584.823895 198.787541h7.750091v1.626022h-5.863635v2.817038h5.428068v1.53602h-5.428068v3.147042h5.968772v1.626021h-7.855228z"/><path d="m602.242976 208.004564h1.853413c.732954 0 1.33674-.099001 1.802347-.294004.46861-.195002.835087-.465006 1.102435-.813011.264344-.345004.444579-.75301.543708-1.218016.093121-.468006.141184-.972013.141184-1.51502s-.048063-1.047014-.141184-1.51502c-.099129-.465006-.279364-.873012-.543708-1.218016-.267348-.348005-.633825-.618009-1.102435-.813011-.465607-.198003-1.069393-.294004-1.802347-.294004h-1.853413zm-1.886457-9.216122h4.463813c.826075 0 1.538002.141001 2.141788.420005.600783.282004 1.096428.666009 1.477925 1.152015.381496.489007.663864 1.059014.853111 1.710023.183238.654009.276359 1.350018.276359 2.094028s-.093121 1.440019-.276359 2.094028c-.189247.651008-.471615 1.221016-.853111 1.710023-.381497.486006-.877142.870011-1.477925 1.152015-.603786.279004-1.315713.420005-2.141788.420005h-4.463813z"/><path d="m634.769628 202.206387c-.078102-.312004-.189247-.597008-.33043-.858011-.141184-.261004-.321419-.489007-.543708-.678009-.219286-.192003-.480626-.339005-.778013-.444006-.294384-.105002-.639834-.159002-1.033346-.159002-.570743 0-1.066388.117001-1.483932.345004-.41454.231003-.756986.543007-1.018326.927012-.258336.387006-.453591.825011-.579755 1.317018-.126164.492006-.186242.996013-.186242 1.50602 0 .513007.060078 1.017013.186242 1.50902s.321419.930012.579755 1.317018c.26134.387005.603786.696009 1.018326.927012.417544.228003.913189.345004 1.483932.345004.423552 0 .796037-.072001 1.120459-.219002.318415-.144002.597778-.345005.826076-.600008.231301-.258004.414539-.555008.546711-.897012.129169-.342005.213278-.70801.255333-1.101015h1.838394c-.042055.642009-.180235 1.230016-.41454 1.764023-.237309.531008-.555724.990014-.958248 1.377019s-.874138.684009-1.417846.897012c-.543708.210002-1.141486.315004-1.796339.315004-.802044 0-1.522983-.147002-2.159812-.444006-.639833-.297004-1.180537-.702009-1.622112-1.212016-.444579-.513007-.784021-1.110015-1.018326-1.794024-.237309-.681009-.354462-1.410019-.354462-2.184029 0-.76201.117153-1.48502.354462-2.166029.234305-.684009.573747-1.281017 1.018326-1.794024.441575-.510006.982279-.918012 1.622112-1.218016.636829-.303004 1.357768-.453006 2.159812-.453006.60679 0 1.174529.084001 1.706222.249003.534696.165003 1.003306.405006 1.411838.72301.405528.315004.735958.699009.988287 1.152015.249324.450006.402524.969013.465606 1.551021z"/><path d="m644.300738 198.787541h1.886456v6.264084c0 .363005.018024.729009.054071 1.101014.033043.372005.132172.70501.300391 1.002014.165215.297004.417543.540007.753982.729009.336438.192003.81406.285004 1.426857.285004.612798 0 1.087416-.093001 1.42085-.285004.339442-.189002.591771-.432005.753982-.729009.168219-.297004.267348-.630009.303395-1.002014s.051067-.738009.051067-1.101014v-6.264084h1.886456v6.882092c0 .693009-.105137 1.296017-.315411 1.806024-.210273.513007-.510665.942013-.898169 1.290017-.387505.345005-.850107.606008-1.393815.77401-.543708.171003-1.147494.258004-1.808355.258004-.666868 0-1.26765-.087001-1.811358-.258004-.543708-.168002-1.009314-.429005-1.396819-.77401-.387504-.348004-.684892-.77701-.898169-1.290017-.210274-.510007-.315411-1.113015-.315411-1.806024z"/><path d="m662.579238 205.956437c0 .411005.06909.76201.210274 1.056014.141184.291004.339442.528007.588766.714009.252329.186003.540704.321005.868131.408006.324422.084001.678884.126001 1.063384.126001.411536 0 .762994-.048 1.054373-.144001.29138-.096002.528689-.219003.708923-.369005.183239-.150002.312407-.324005.393513-.519007.078101-.195003.120156-.393006.120156-.594008 0-.411006-.093121-.71701-.279364-.912012-.186242-.195003-.390508-.333005-.612798-.414006-.381496-.141002-.823071-.273003-1.333736-.399005-.507661-.126002-1.132475-.288004-1.877445-.489007-.462602-.120001-.844099-.279003-1.153502-.474006-.306399-.195003-.549715-.414005-.72995-.657009-.183239-.240003-.312407-.495006-.384501-.76801-.075098-.270003-.114148-.546007-.114148-.828011 0-.543007.114148-1.011013.339442-1.407019.225293-.396005.525684-.726009.898169-.987013.372485-.261003.793033-.456006 1.267651-.579007.471614-.126002.946232-.189003 1.429861-.189003.564736 0 1.096428.072001 1.592073.219003.49865.144002.934217.363005 1.31271.654009.375489.291004.67588.651008.895165 1.077014.22229.426006.333434.921012.333434 1.48202h-1.886456c-.048063-.693009-.285372-1.182016-.708923-1.46702-.423551-.288004-.958248-.429005-1.6131-.429005-.219286 0-.444579.021-.678884.069-.231302.045001-.441575.120002-.633826.225003-.189246.105002-.348453.249004-.474618.429006-.126164.180003-.186242.408006-.186242.678009 0 .381005.117152.678009.354461.897012.234306.216003.543708.378005.925205.489007.039051.009.198258.051.477622.126001.273356.078001.582759.159002.925205.249004.342446.093001.67588.180002 1.003306.264003.327426.087001.561731.150002.702915.189003.351458.111001.654853.261003.916193.453006.261341.189002.48363.408005.657857.654008.177231.246004.309403.510007.393512.792011.08411.279004.126165.561007.126165.843011 0 .600008-.123161 1.116015-.369482 1.542021-.24632.426005-.570743.77701-.970263 1.047013-.402524.270004-.859119.471007-1.372787.594008-.513669.126002-1.03635.189003-1.571046.189003-.612798 0-1.189549-.075001-1.733257-.225003s-1.015322-.381005-1.417846-.693009c-.39952-.312004-.723943-.71101-.964256-1.197016-.240312-.486007-.366477-1.062014-.378492-1.725023z"/><path d="m676.12057 198.787541h8.71735v1.626022h-3.421455v9.126121h-1.886456v-9.126121h-3.409439z"/><path d="m696.707876 200.067659c-.573747 0-1.066389.117001-1.486936.345004-.417544.231003-.756986.540007-1.018326.927012-.26134.387006-.453591.825011-.579755 1.317018-.12316.492006-.189246.996013-.189246 1.50602 0 .513007.066086 1.017013.189246 1.50902.126164.492007.318415.930012.579755 1.317018.26134.387005.600782.696009 1.018326.927012.420547.228003.913189.345004 1.486936.345004.570743 0 1.066389-.117001 1.483932-.345004.417544-.231003.756986-.540007 1.018326-.927012.26134-.387006.453591-.825011.579755-1.317018s.189246-.996013.189246-1.50902c0-.510007-.063082-1.014014-.189246-1.50602-.126164-.492007-.318415-.930012-.579755-1.317018-.26134-.387005-.600782-.696009-1.018326-.927012-.417543-.228003-.913189-.345004-1.483932-.345004m0-1.536021c.805048 0 1.525987.150002 2.162816.453006.639833.300004 1.177533.70801 1.622112 1.218016.441575.513007.784021 1.110015 1.018326 1.794024.237309.681009.354462 1.404019.354462 2.166029 0 .77401-.117153 1.50302-.354462 2.184029-.234305.684009-.576751 1.281017-1.018326 1.794024-.444579.510007-.982279.915012-1.622112 1.212016-.636829.297004-1.357768.444006-2.162816.444006s-1.525987-.147002-2.16582-.444006-1.177533-.702009-1.622112-1.212016c-.438571-.513007-.781017-1.110015-1.018326-1.794024-.234305-.681009-.351458-1.410019-.351458-2.184029 0-.76201.117153-1.48502.351458-2.166029.237309-.684009.579755-1.281017 1.018326-1.794024.444579-.510006.982279-.918012 1.622112-1.218016.639833-.303004 1.360772-.453006 2.16582-.453006"/><path d="m711.501538 208.004564h1.853414c.735958 0 1.33674-.099001 1.80535-.294004.465607-.195002.832084-.465006 1.099432-.813011.267348-.345004.444579-.75301.543708-1.218016.096125-.468006.141184-.972013.141184-1.51502s-.045059-1.047014-.141184-1.51502c-.099129-.465006-.27636-.873012-.543708-1.218016-.267348-.348005-.633825-.618009-1.099432-.813011-.46861-.198003-1.069392-.294004-1.80535-.294004h-1.853414zm-1.886456-9.216122h4.463812c.826076 0 1.541007.141001 2.141789.420005.603786.282004 1.099432.666009 1.477924 1.152015.381497.489007.666869 1.059014.853111 1.710023.186243.654009.279364 1.350018.279364 2.094028s-.093121 1.440019-.279364 2.094028c-.186242.651008-.471614 1.221016-.853111 1.710023-.378492.486006-.874138.870011-1.477924 1.152015-.600782.279004-1.315713.420005-2.141789.420005h-4.463812z"/><path d="m726.534613 209.540584h1.886456v-10.752142h-1.886456z"/><path d="m738.979517 205.263728h3.286279l-1.613101-4.626062h-.045058zm.663864-6.477087h2.006613l4.145398 10.755143h-2.021633l-1.009314-2.847037h-4.298597l-1.012318 2.847037h-1.943531z"/><path d="m752.775881 198.787541h1.991593l4.917403 7.923106h.030039v-7.923106h1.793335v10.752143h-1.991593l-4.902384-7.905105h-.042054v7.905105h-1.796339z"/><path d="m251.785654 442.918788h1.913492l1.946534 8.223109h.030039l2.171828-8.223109h1.928511l2.11175 8.223109h.030039l2.006613-8.223109h1.916495l-2.973872 10.752143h-1.913492l-2.156808-8.22311h-.030039l-2.201867 8.22311h-1.946535z"/><path d="m274.995675 447.812753h3.088021c.603786 0 1.063385-.141002 1.372788-.429006.312406-.285004.471614-.71401.471614-1.287017 0-.342005-.054071-.621008-.1532-.837011s-.237309-.384005-.41454-.504007c-.174226-.120002-.378492-.201003-.603786-.240003-.225293-.042001-.459598-.060001-.699911-.060001h-3.060986zm-1.886456-4.893065h5.142696c1.186545 0 2.075703.255003 2.670477.76801.591771.510007.889158 1.224016.889158 2.136028 0 .513007-.075098.936013-.228297 1.275017-.147192.336005-.324423.606008-.525685.813011s-.39952.354005-.597778.444006c-.195254.090001-.339442.150002-.426555.180002v.030001c.156203.021.333434.072001.519676.150002.183239.081001.357466.210002.516673.384005.162211.177002.297387.405005.402524.687009.105137.279004.159207.633008.159207 1.053014 0 .633008.048063 1.209016.141184 1.725023.096125.516007.243317.885012.444579 1.107015h-2.021632c-.13818-.231004-.22229-.486007-.249325-.768011-.021027-.279003-.036047-.552007-.036047-.81301 0-.492007-.030039-.915013-.090117-1.272017-.060078-.357005-.171223-.654009-.33043-.888012-.162212-.237003-.381497-.411006-.657857-.522007-.273356-.108002-.630821-.165002-1.063385-.165002h-2.77261v4.428059h-1.886456z"/><path d="m291.974683 449.394974h3.286279l-1.6131-4.626062h-.045059zm.663865-6.477086h2.006612l4.145398 10.755143h-2.021632l-1.009315-2.847038h-4.298597l-1.012318 2.847038h-1.94353z"/><path d="m307.733502 448.008955h2.760595c.210274 0 .426555-.03.648845-.090001.219285-.060001.423551-.159002.609794-.294004.183238-.135002.336438-.315004.450586-.543007.117153-.225003.174227-.510007.174227-.849011 0-.351005-.051066-.645009-.150195-.876012-.099129-.228003-.237309-.411005-.408532-.549007-.168219-.135002-.366477-.228003-.585763-.279004-.222289-.048001-.456594-.075001-.708923-.075001h-2.790634zm-1.886456-5.091067h4.752188c.762993 0 1.387807.111001 1.868433.333004.483629.219003.856114.495007 1.117455.828011.26134.330004.441575.690009.534696 1.083014.096125.393006.144188.75301.144188 1.086015 0 .330004-.048063.690009-.144188 1.074014-.093121.387005-.273356.74701-.534696 1.077014-.261341.333005-.633826.606008-1.117455.822011-.480626.216003-1.10544.324005-1.868433.324005h-2.865732v4.128055h-1.886456z"/><path d="m323.826657 448.008955h2.75759c.210274 0 .42956-.03.648845-.090001.22229-.060001.423552-.159002.612798-.294004.183239-.135002.333434-.315004.450587-.543007.114149-.225003.174227-.510007.174227-.849011 0-.351005-.051067-.645009-.150196-.876012-.102133-.228003-.237309-.411005-.408532-.549007-.171223-.135002-.366477-.228003-.588766-.279004-.219286-.048001-.456595-.075001-.70592-.075001h-2.790633zm-1.886456-5.091067h4.749183c.765998 0 1.387807.111001 1.871437.333004.480626.219003.853111.495007 1.114451.828011.26134.330004.441575.690009.5377 1.083014.093122.393006.144188.75301.144188 1.086015 0 .330004-.051066.690009-.144188 1.074014-.096125.387005-.27636.74701-.5377 1.077014-.26134.333005-.633825.606008-1.114451.822011-.48363.216003-1.105439.324005-1.871437.324005h-2.862727v4.128055h-1.886456z"/><path d="m338.030952 442.918788h7.750091v1.626021h-5.863635v2.817038h5.428068v1.53602h-5.428068v3.147042h5.968772v1.626022h-7.855228z"/><path d="m355.450033 452.13551h1.853413c.732954 0 1.336741-.099001 1.802347-.294004.46861-.195002.835087-.465006 1.102435-.813011.264345-.345004.444579-.75301.543708-1.218016.093122-.468006.141184-.972013.141184-1.51502s-.048062-1.047014-.141184-1.51502c-.099129-.465006-.279363-.873012-.543708-1.218016-.267348-.348005-.633825-.618008-1.102435-.813011-.465606-.198003-1.069393-.294004-1.802347-.294004h-1.853413zm-1.886456-9.216122h4.463812c.826075 0 1.538002.141001 2.141789.420005.600782.282004 1.096427.666009 1.477924 1.152015.381497.489007.663864 1.059015.853111 1.710023.183238.654009.27636 1.350018.27636 2.094028s-.093122 1.440019-.27636 2.094028c-.189247.651009-.471614 1.221016-.853111 1.710023-.381497.486006-.877142.870011-1.477924 1.152015-.603787.279004-1.315714.420006-2.141789.420006h-4.463812z"/><path d="m379.683787 442.918788h8.714347v1.626021h-3.421455v9.126122h-1.883453v-9.126122h-3.409439z"/><path d="m400.268089 444.198905c-.570743 0-1.066388.117001-1.483932.345004-.417544.231003-.756986.540007-1.018326.927013-.26134.387005-.45359.82501-.579755 1.317017-.126164.492007-.189246.996013-.189246 1.50602 0 .513007.063082 1.017014.189246 1.50902.126165.492007.318415.930012.579755 1.317018.26134.387005.600782.696009 1.018326.927012.417544.228003.913189.345005 1.483932.345005.573747 0 1.066389-.117002 1.486936-.345005.417544-.231003.756986-.540007 1.018326-.927012.261341-.387006.453591-.825011.579755-1.317018.123161-.492006.189247-.996013.189247-1.50902 0-.510007-.066086-1.014013-.189247-1.50602-.126164-.492007-.318414-.930012-.579755-1.317017-.26134-.387006-.600782-.69601-1.018326-.927013-.420547-.228003-.913189-.345004-1.486936-.345004m0-1.536021c.805049 0 1.525987.150002 2.16582.453006.639833.300004 1.177534.70801 1.622112 1.218016.438572.513007.781017 1.110015 1.018326 1.794024.234305.681009.351458 1.404019.351458 2.166029 0 .77401-.117153 1.50302-.351458 2.184029-.237309.684009-.579754 1.281017-1.018326 1.794024-.444578.510007-.982279.915012-1.622112 1.212016s-1.360771.444006-2.16582.444006c-.805048 0-1.525987-.147002-2.162816-.444006-.639833-.297004-1.177533-.702009-1.622112-1.212016-.441575-.513007-.784021-1.110015-1.018326-1.794024-.237309-.681009-.354461-1.410019-.354461-2.184029 0-.76201.117152-1.48502.354461-2.166029.234305-.684009.576751-1.281017 1.018326-1.794024.444579-.510006.982279-.918012 1.622112-1.218016.636829-.303004 1.357768-.453006 2.162816-.453006"/><path d="m413.178299 442.918788h1.886457v4.893065l4.794242-4.893065h2.322024l-4.298598 4.293057 4.601993 6.459086h-2.355067l-3.526592-5.133069-1.538002 1.51802v3.615049h-1.886457z"/><path d="m429.538502 442.918788h7.753095v1.626021h-5.866639v2.817038h5.431072v1.53602h-5.431072v3.147042h5.971776v1.626022h-7.858232z"/><path d="m444.998131 442.918788h1.988589l4.917403 7.923105h.033043v-7.923105h1.790331v10.752143h-1.988589l-4.902383-7.905106h-.042055v7.905106h-1.796339z"/><path d="m299.21471 464.411073c-.081105-.312004-.189246-.597008-.33043-.858011-.141184-.261004-.324422-.489007-.543708-.678009-.222289-.192003-.480626-.339005-.778013-.444006-.294383-.105001-.642837-.159002-1.033345-.159002-.573748 0-1.066389.117001-1.486937.345004-.414539.231004-.756985.543008-1.018326.927013-.258336.387005-.45359.825011-.579754 1.317017-.123161.492007-.186243.996014-.186243 1.50602 0 .513007.063082 1.017014.186243 1.50902.126164.492007.321418.930013.579754 1.317018.261341.387005.603787.696009 1.018326.927012.420548.228003.913189.345005 1.486937.345005.423551 0 .793032-.072001 1.117455-.219003.321418-.144002.597778-.345005.829079-.600008.231301-.258003.411536-.555007.543708-.897012s.216282-.708009.255332-1.101015h1.841398c-.042055.642009-.180235 1.230017-.417544 1.764024-.234305.531007-.552719.990013-.955243 1.377018s-.874139.684009-1.417847.897012c-.546711.210003-1.141486.315004-1.796338.315004-.802045 0-1.522984-.147002-2.162817-.444006s-1.180537-.702009-1.622112-1.212016c-.441575-.513007-.781017-1.110015-1.018326-1.794024-.234305-.681009-.351457-1.410018-.351457-2.184029 0-.76201.117152-1.485019.351457-2.166028.237309-.68401.576751-1.281017 1.018326-1.794024.441575-.510007.982279-.918013 1.622112-1.218017.639833-.303004 1.360772-.453006 2.162817-.453006.603786 0 1.171525.084002 1.706221.249004.531692.165002 1.003307.405005 1.408835.723009.405528.315005.735958.69901.988286 1.152016.252329.450006.405528.969013.465607 1.55102z"/><path d="m313.450847 462.272345c-.573747 0-1.066389.117001-1.486936.345004-.417544.231004-.756986.540008-1.018326.927013-.261341.387005-.453591.825011-.579755 1.317017-.123161.492007-.189247.996014-.189247 1.50602 0 .513007.066086 1.017014.189247 1.50902.126164.492007.318414.930013.579755 1.317018.26134.387005.600782.696009 1.018326.927012.420547.228003.913189.345005 1.486936.345005.570743 0 1.066388-.117002 1.483932-.345005.417544-.231003.756986-.540007 1.018326-.927012s.45359-.825011.579755-1.317018c.126164-.492006.189246-.996013.189246-1.50902 0-.510006-.063082-1.014013-.189246-1.50602-.126165-.492006-.318415-.930012-.579755-1.317017s-.600782-.696009-1.018326-.927013c-.417544-.228003-.913189-.345004-1.483932-.345004m0-1.536021c.805048 0 1.525987.150002 2.162816.453007.639833.300003 1.177533.708009 1.622112 1.218016.441575.513007.784021 1.110014 1.018326 1.794024.237309.681009.354461 1.404018.354461 2.166028 0 .774011-.117152 1.50302-.354461 2.184029-.234305.684009-.576751 1.281017-1.018326 1.794024-.444579.510007-.982279.915012-1.622112 1.212016-.636829.297004-1.357768.444006-2.162816.444006s-1.525987-.147002-2.16582-.444006-1.177534-.702009-1.622112-1.212016c-.438571-.513007-.781017-1.110015-1.018326-1.794024-.234305-.681009-.351458-1.410018-.351458-2.184029 0-.76201.117153-1.485019.351458-2.166028.237309-.68401.579755-1.281017 1.018326-1.794024.444578-.510007.982279-.918013 1.622112-1.218016.639833-.303005 1.360772-.453007 2.16582-.453007"/><path d="m326.285058 460.992228h1.988589l4.917403 7.923105h.033043v-7.923105h1.790331v10.752143h-1.988589l-4.902383-7.905105h-.042055v7.905105h-1.796339z"/><path d="m342.255052 460.992228h8.714347v1.626022h-3.421455v9.126121h-1.883453v-9.126121h-3.409439z"/><path d="m360.14064 465.886193h3.088021c.603786 0 1.063385-.141002 1.372788-.429006.312406-.285004.471614-.714009.471614-1.287017 0-.342004-.054071-.621008-.1532-.837011s-.237309-.384005-.41454-.504007c-.174226-.120001-.378492-.201002-.603786-.240003-.225293-.042-.459598-.060001-.699911-.060001h-3.060986zm-1.886456-4.893065h5.142696c1.186545 0 2.075703.255003 2.670477.76801.591771.510007.889158 1.224016.889158 2.136029 0 .513006-.075098.936012-.228297 1.275016-.147192.336005-.324423.606009-.525685.813011-.201262.207003-.39952.354005-.597778.444006-.195254.090001-.339442.150002-.426555.180003v.03c.156203.021.333434.072001.519676.150002.183239.081001.357466.210003.516673.384005.162211.177002.297387.405005.402524.687009.105137.279004.159207.633009.159207 1.053014 0 .633009.048063 1.209016.141184 1.725023.096125.516007.243317.885012.444579 1.107015h-2.021632c-.13818-.231003-.22229-.486007-.249325-.76801-.021027-.279004-.036047-.552008-.036047-.813011 0-.492007-.030039-.915012-.090117-1.272017s-.171223-.654009-.33043-.888012c-.162212-.237003-.381497-.411005-.657857-.522007-.273356-.108001-.630821-.165002-1.063385-.165002h-2.77261v4.428059h-1.886456z"/><path d="m377.119648 467.468414h3.289283l-1.6131-4.626062h-.048063zm.663865-6.477086h2.006612l4.148402 10.755143h-2.021632l-1.009315-2.847038h-4.301601l-1.009314 2.847038h-1.94353z"/><path d="m398.26448 464.411073c-.081105-.312004-.189246-.597008-.33043-.858011-.141184-.261004-.324422-.489007-.543708-.678009-.222289-.192003-.480626-.339005-.778013-.444006-.294383-.105001-.642837-.159002-1.033345-.159002-.573747 0-1.066389.117001-1.486936.345004-.41454.231004-.756986.543008-1.018326.927013-.258337.387005-.453591.825011-.579755 1.317017-.123161.492007-.186243.996014-.186243 1.50602 0 .513007.063082 1.017014.186243 1.50902.126164.492007.321418.930013.579755 1.317018.26134.387005.603786.696009 1.018326.927012.420547.228003.913189.345005 1.486936.345005.423551 0 .793032-.072001 1.117455-.219003.321418-.144002.597778-.345005.829079-.600008.231301-.258003.411536-.555007.543708-.897012s.216282-.708009.255333-1.101015h1.841397c-.042054.642009-.180234 1.230017-.417543 1.764024-.234305.531007-.55272.990013-.955244 1.377018s-.874138.684009-1.417846.897012c-.546712.210003-1.141487.315004-1.796339.315004-.802045 0-1.522983-.147002-2.162816-.444006-.639834-.297004-1.180538-.702009-1.622113-1.212016-.441575-.513007-.781016-1.110015-1.018325-1.794024-.234306-.681009-.351458-1.410018-.351458-2.184029 0-.76201.117152-1.485019.351458-2.166028.237309-.68401.57675-1.281017 1.018325-1.794024.441575-.510007.982279-.918013 1.622113-1.218017.639833-.303004 1.360771-.453006 2.162816-.453006.603786 0 1.171525.084002 1.706221.249004.531693.165002 1.003307.405005 1.408835.723009.405528.315005.735958.69901.988287 1.152016.252328.450006.405528.969013.465606 1.55102z"/><path d="m406.88901 460.992228h8.717351v1.626022h-3.421455v9.126121h-1.886456v-9.126121h-3.40944z"/></g><path d="m410.796498 426.245466h-113.184374c-3.784929 0-6.85793-3.066041-6.85793-6.849091v-151.421014c0-3.78305 3.073001-6.852091 6.85793-6.852091h113.184374c3.790936 0 6.85793 3.069041 6.85793 6.852091v151.421014c0 3.78305-3.066994 6.849091-6.85793 6.849091" fill="#fff"/><path d="m363.672639 379.576545c-1.072396 3.888052-2.814665 7.281097-5.361981 10.404139.294383.078001.588766.156002.88315.231003-.111145-1.080015-.22229-2.163029-.336439-3.243043-.321418.042-.642837.084001-.967259.126001 1.805351 2.556034 4.019233 5.313071 7.413653 5.469073 2.691505.123002 4.893372-1.599021 6.121971-3.891052 2.583364-4.812064 2.189852-14.193188-4.139389-15.966212-6.278175-1.755023-8.200678 5.844078-7.632939 10.53614.384501 3.156042 2.015624 6.342084 5.046571 7.692102 2.018628.897012 4.556933.972013 5.623322-1.224016.297387-.609008-.615802-1.146015-.913189-.534007-2.222894 4.590061-7.569857-1.986026-8.203682-3.75605-.55272-1.53902-.657856-3.234043-.561731-4.854064.087113-1.46702.393512-3.402046 1.177533-4.704063 2.024636-3.378045 6.046873-2.637035 8.200678.069001 2.16582 2.724036 2.204871 7.467099 1.126467 10.701142-.666869 2.001027-2.192856 4.245057-4.418754 4.770064-3.718842.879011-6.15201-2.325031-7.924318-4.842065-.234305-.333004-.880146-.360005-.967259.126002-.267349 1.473019-.20727 2.415032.336438 3.807051.126164.330004.60679.573007.883149.234003 2.66447-3.261044 4.517883-6.816091 5.635338-10.869145.180235-.657009-.838091-.936012-1.02133-.282004" fill="#b3b3b3"/><path d="m372.241296 388.085858c2.288981-.090001 4.247531-.585007 6.314222-1.57202-.258336-.198003-.516673-.399006-.778013-.597008-.039051.228003-.078102.456006-.117153.684009-.057074.321004.13818.684009.510665.669009 6.272167-.243004 16.812892-3.615048 19.519416-10.026134 2.123765-5.037067-2.946837-11.487152-8.206686-8.196109-3.58667 2.24403-4.929418 7.269097-5.839603 11.085148-1.15951 4.848064-2.523286 10.701142-2.021633 15.717209.693904 6.948092 6.32023 3.891051 7.927322-.912012.213278-.648009-.808052-.924013-1.02133-.282004-.474618 2.739036-2.367082 3.555047-5.674388 2.457033-.222289-1.362019-.279364-2.730037-.162211-4.098055.099129-2.601035.540704-5.223069.988287-7.779103.735958-4.218056 1.513971-9.096121 3.965163-12.708169 3.730857-5.496073 12.430185-.873012 8.549131 5.27707-1.177533 1.860025-3.157111 3.075041-5.010524 4.158055-1.991593 1.167016-4.103343 2.22903-6.281178 2.99404-.817064.285004-6.130983 1.392018-6.103948 1.242016.078101-.468006-.34545-.80401-.778013-.597008-2.054676.981014-3.508569 1.338018-5.779526 1.428019-.681888.027001-.684891 1.083015 0 1.056014" fill="#b3b3b3"/><path d="m346.805076 297.731557h-37.765173c-.946232 0-1.715233-.76801-1.715233-1.713023v-.480006c0-.945013.769001-1.713023 1.715233-1.713023h37.765173c.946233 0 1.715234.76801 1.715234 1.713023v.480006c0 .945013-.769001 1.713023-1.715234 1.713023" fill="#b3b3b3"/><path d="m346.805076 305.819065h-37.765173c-.946232 0-1.715233-.765011-1.715233-1.713023v-.477006c0-.948013.769001-1.713023 1.715233-1.713023h37.765173c.946233 0 1.715234.76501 1.715234 1.713023v.477006c0 .948012-.769001 1.713023-1.715234 1.713023" fill="#b3b3b3"/><path d="m399.440812 321.99558h-90.402711c-.943228 0-1.712229-.76801-1.712229-1.713023v-.480006c0-.945013.769001-1.713023 1.712229-1.713023h90.402711c.946232 0 1.71223.76801 1.71223 1.713023v.480006c0 .945013-.765998 1.713023-1.71223 1.713023" fill="#b3b3b3"/><path d="m399.440812 330.083087h-90.402711c-.943228 0-1.712229-.76501-1.712229-1.713023v-.480006c0-.945012.769001-1.713023 1.712229-1.713023h90.402711c.946232 0 1.71223.768011 1.71223 1.713023v.480006c0 .948013-.765998 1.713023-1.71223 1.713023" fill="#b3b3b3"/><path d="m399.440812 338.170595h-90.402711c-.943228 0-1.712229-.76501-1.712229-1.713023v-.477006c0-.948013.769001-1.713023 1.712229-1.713023h90.402711c.946232 0 1.71223.76501 1.71223 1.713023v.477006c0 .948013-.765998 1.713023-1.71223 1.713023" fill="#b3b3b3"/><path d="m399.440812 346.258102h-90.402711c-.943228 0-1.712229-.76501-1.712229-1.713022v-.477007c0-.948012.769001-1.713023 1.712229-1.713023h90.402711c.946232 0 1.71223.765011 1.71223 1.713023v.477007c0 .948012-.765998 1.713022-1.71223 1.713022" fill="#b3b3b3"/><path d="m346.805076 354.34711h-37.765173c-.946232 0-1.715233-.76801-1.715233-1.713023v-.480006c0-.945013.769001-1.713023 1.715233-1.713023h37.765173c.946233 0 1.715234.76801 1.715234 1.713023v.480006c0 .945013-.769001 1.713023-1.715234 1.713023" fill="#b3b3b3"/><path d="m346.805076 362.434617h-37.765173c-.946232 0-1.715233-.76501-1.715233-1.713022v-.480007c0-.945012.769001-1.710022 1.715233-1.710022h37.765173c.946233 0 1.715234.76501 1.715234 1.710022v.480007c0 .948012-.769001 1.713022-1.715234 1.713022" fill="#b3b3b3"/><path d="m399.440812 354.34711h-37.765173c-.949236 0-1.718237-.76801-1.718237-1.713023v-.480006c0-.945013.769001-1.713023 1.718237-1.713023h37.765173c.946232 0 1.71223.76801 1.71223 1.713023v.480006c0 .945013-.765998 1.713023-1.71223 1.713023" fill="#b3b3b3"/><path d="m399.440812 362.434617h-37.765173c-.949236 0-1.718237-.76501-1.718237-1.713022v-.480007c0-.945012.769001-1.710022 1.718237-1.710022h37.765173c.946232 0 1.71223.76501 1.71223 1.710022v.480007c0 .948012-.765998 1.713022-1.71223 1.713022" fill="#b3b3b3"/><path d="m324.965139 379.446044 2.475223 2.193029c.597779.528007 1.387807.78601 2.18084.708009l3.292287-.321004c1.444881-.141002 2.763598.816011 3.079009 2.23203l.711927 3.228043c.171223.77701.66086 1.449019 1.345752 1.851024l2.85672 1.674022c1.249627.73501 1.754284 2.286031 1.174529 3.615048l-1.324725 3.030041c-.318415.729009-.318415 1.55702 0 2.28903l1.324725 3.02704c.579755 1.329018.075098 2.880039-1.174529 3.612048l-2.85672 1.674023c-.684892.405005-1.174529 1.077014-1.345752 1.854024l-.711927 3.228043c-.315411 1.416019-1.634128 2.373032-3.079009 2.23203l-3.292287-.321004c-.793033-.075001-1.583061.180002-2.18084.708009l-2.475223 2.193029c-1.084412.960013-2.71854.960013-3.802952 0l-2.478226-2.193029c-.594775-.528007-1.384803-.78301-2.177836-.708009l-3.295291.321004c-1.444881.141002-2.763598-.816011-3.076005-2.23203l-.711927-3.228043c-.171223-.77701-.66086-1.449019-1.348756-1.854024l-2.853716-1.674023c-1.249627-.732009-1.754284-2.28303-1.174529-3.612048l1.324725-3.02704c.318414-.73201.318414-1.560021 0-2.28903l-1.324725-3.030041c-.579755-1.329017-.075098-2.880038 1.174529-3.615048l2.853716-1.674022c.687896-.402005 1.177533-1.074014 1.348756-1.851024l.711927-3.228043c.312407-1.416019 1.631124-2.373032 3.076005-2.23203l4.53891.441006 3.412443-3.02104c1.084412-.960013 2.71854-.960013 3.802952 0" fill="#000" fill-opacity=".25"/><path d="m323.249005 377.733621 2.478227 2.193029c.594774.528007 1.384803.78601 2.180839.708009l3.292287-.321004c1.444881-.141002 2.763598.819011 3.076005 2.23203l.711927 3.228043c.174227.77701.660861 1.449019 1.348756 1.851024l2.85672 1.674023c1.249627.735009 1.754284 2.28603 1.171525 3.615048l-1.321721 3.03004c-.321418.72901-.321418 1.557021 0 2.28903l1.321721 3.027041c.582759 1.329017.078102 2.880038-1.171525 3.612048l-2.85672 1.674022c-.687895.405005-1.174529 1.077014-1.348756 1.854025l-.711927 3.228043c-.312407 1.416018-1.631124 2.373031-3.076005 2.232029l-3.292287-.321004c-.796036-.075001-1.586065.180002-2.180839.708009l-2.478227 2.193029c-1.081408.960013-2.715536.960013-3.802952 0l-2.475223-2.193029c-.597778-.528007-1.387807-.78301-2.177836-.708009l-3.29529.321004c-1.444882.141002-2.763599-.816011-3.079009-2.232029l-.711927-3.228043c-.168219-.777011-.660861-1.44902-1.345753-1.854025l-2.853715-1.674022c-1.249628-.73201-1.754285-2.283031-1.177534-3.612048l1.327729-3.027041c.315411-.732009.315411-1.56002 0-2.28903l-1.327729-3.03004c-.576751-1.329018-.072094-2.880039 1.177534-3.615048l2.853715-1.674023c.684892-.402005 1.177534-1.074014 1.345753-1.851024l.711927-3.228043c.31541-1.413019 1.634127-2.373032 3.079009-2.23203l4.53891.441006 3.409439-3.02104c1.087416-.960013 2.721544-.960013 3.802952 0" fill="#f09242"/><path d="m317.789696 404.635879c-.366477 0-.732954-.138002-1.012318-.420006l-5.133684-5.127068c-.558728-.558008-.558728-1.46402 0-2.022027.558727-.561008 1.465908-.561008 2.024636 0l4.121366 4.113055 11.240636-11.22315c.558728-.561007 1.465909-.561007 2.024637 0 .561731.558008.561731 1.46402 0 2.025027l-12.252955 12.234163c-.279363.282004-.645841.420006-1.012318.420006" fill="#fff"/><path d="m340.365892 401.260834-1.321721-3.030041c-.321418-.729009-.321418-1.55702 0-2.28903l1.321721-3.03004c.579755-1.326018.075098-2.877039-1.174529-3.612048l-2.853716-1.674023c-.687896-.405005-1.174529-1.074014-1.348756-1.851024l-.711927-3.228043c-.312407-1.416019-1.631124-2.373032-3.076005-2.23203l-3.292287.321004c-.796037.075001-1.586065-.180002-2.18084-.708009l-2.478227-2.193029c-1.087415-.963013-2.718539-.963013-3.802951 0l-3.412444 3.02104-4.535906-.441006c-1.444881-.141002-2.763598.816011-3.079009 2.23203l-.216281.981013 26.446435 26.412351.339442-1.54202c.174227-.774011.66086-1.44602 1.348756-1.851025l2.853716-1.674022c1.249627-.73501 1.754284-2.283031 1.174529-3.612048" fill="#fff" opacity=".25"/><path d="m410.796498 261.12477h-113.184374c-3.784929 0-6.85793 3.066041-6.85793 6.849091v13.48518l126.900234 126.736685v-140.221865c0-3.78305-3.066994-6.849091-6.85793-6.849091" fill="#fff" opacity=".25"/><path d="m382.605391 271.381607c-1.601085 1.599021-4.19346 1.599021-5.797549 0-1.601084-1.599022-1.601084-4.191056 0-5.790077 1.604089-1.599022 4.196464-1.599022 5.797549 0 1.601085 1.599021 1.601085 4.191055 0 5.790077zm35.049637 40.833543v-11.004147h-3.021934v-4.224056l-.62181-.621008h-2.796641v-3.600048l-12.285998-12.270163c3.039958-6.051081 2.033648-13.617181-3.021935-18.669248-.249324-.249004-.516672-.471007-.778013-.70201h-21.309746c-.264345.231003-.531693.453006-.781017.70201-6.314222 6.309084-6.314222 16.53322 0 22.839303 5.058586 5.052068 12.634451 6.057081 18.690336 3.01804l24.565987 24.531327z" fill="#000" opacity=".2"/><path d="m380.892261 269.669184c-1.601085 1.599021-4.196465 1.599021-5.800553 0-1.598081-1.599021-1.598081-4.191056 0-5.790077 1.604088-1.596021 4.199468-1.596021 5.800553 0 1.59808 1.599021 1.59808 4.191056 0 5.790077m-9.567458-9.555127c-6.314222 6.309084-6.314222 16.53322 0 22.839304 5.058587 5.052067 12.631447 6.05708 18.690336 3.01804l24.565987 24.531326h7.194368l.012015-.009v-7.167096l-.59177-.594007h-3.998206v-2.136029l-1.096428-1.098014h-3.181142v-4.224057l-.62181-.618008h-2.799645v-3.603048l-12.285997-12.270163c3.042962-6.05108 2.036652-13.617181-3.018931-18.669248-6.317226-6.306084-16.554555-6.306084-22.868777 0" fill="#f0c362"/><path d="m417.696182 310.503927h2.832688l-25.425105-25.395338-1.417846 1.416019z" fill="#000" opacity=".1"/><path d="m417.197232 302.734124v-2.139029l-1.096427-1.095014h-3.181142v-4.224057l-.62181-.621008h-2.799645v-3.600048l-12.285998-12.273163c3.042962-6.05108 2.036652-13.614181-3.018931-18.666248-6.100943-6.090081-15.854644-6.279084-22.201908-.603008l3.814967 3.807051c1.583062-1.002014 3.703823-.819011 5.085622.561007s1.565038 3.495046.561732 5.079068l40.333517 40.284535v-5.919079l-.591771-.591007z" fill="#fff" opacity=".25"/><path d="m495.527825 120.077595h-327.49242c-.832083 0-1.501956-.672009-1.501956-1.50002s.669873-1.50002 1.501956-1.50002h327.49242c.829079 0 1.501955.672009 1.501955 1.50002s-.672876 1.50002-1.501955 1.50002" fill="#d4d3d7"/><path d="m175.136051 118.577575c0 3.918052-3.181143 7.092094-7.101247 7.092094s-7.101246-3.174042-7.101246-7.092094 3.181142-7.092094 7.101246-7.092094 7.101247 3.174042 7.101247 7.092094" fill="#d4d3d7"/><path d="m489.790054 106.989021v23.175308c0 1.032014 1.52899 1.548021 2.424156.819011l15.196787-12.405165-15.196787-12.408165c-.895166-.72901-2.424156-.213003-2.424156.819011" fill="#fbb040"/><path d="m302.203902 94.8364593h3.331338c.573747 0 1.018326-.150002 1.336741-.4440059.31541-.2970039.474618-.7170095.474618-1.2570167 0-.5340071-.159208-.9450126-.474618-1.2300164-.318415-.2850038-.762994-.4290057-1.336741-.4290057h-3.331338zm0-4.7130627h3.073002c.456594 0 .832083-.1290017 1.132474-.3870051.303395-.2550034.453591-.6240083.453591-1.1040147 0-.5430072-.135176-.9270123-.408532-1.1460152-.270352-.2190029-.663864-.3330044-1.177533-.3330044h-3.073002zm-1.886456-4.5060599h5.232814c.967259 0 1.739264.222003 2.325027.6630088.579755.4410059.874138 1.1100148.874138 2.0010266 0 .5430073-.135176 1.0080135-.402524 1.3950186-.264344.3870051-.645841.6870091-1.138482.8970119v.0300004c.666868.1410019 1.168521.453006 1.507963.9390125.342446.4890065.513669 1.1010146.513669 1.8330244 0 .4200056-.075098.8130108-.225293 1.1820157-.150196.3660049-.387505.6840091-.711927.9480126-.318415.2670036-.732955.4770063-1.234608.6330084-.501653.1530021-1.099431.2340031-1.793335.2340031h-4.947442z" fill="#fbb040"/><path d="m313.755143 96.3730797h1.718237v-7.7881035h-1.718237zm0-9.1261213h1.718237v-1.6290217h-1.718237z" fill="#fbb040"/><path d="m319.576122 88.5843762h1.29769v-2.3340311h1.718237v2.3340311h1.553022v1.281017h-1.553022v4.1550553c0 .1830024.009012.3390045.024032.4680062.015019.1320017.048062.2430032.105136.3300044.054071.0900012.13818.1590021.249325.2040027.108141.0450006.26134.0690009.450587.0690009.120156 0 .240313-.003.360469-.0090001.120157-.0030001.240313-.0210003.363473-.0540007v1.3290176c-.19225.0210003-.375488.0390006-.558727.0570008-.180235.0210003-.366477.0330004-.558728.0330004-.450586 0-.81406-.0450006-1.093423-.1290017-.27636-.0840011-.492642-.2100028-.648845-.378005-.1532-.1650022-.26134-.372005-.315411-.6240083-.05407-.2490033-.087113-.5370071-.096125-.8580114v-4.5930611h-1.29769z" fill="#fbb040"/><path d="m333.659961 91.1917108c-.06909-.4830064-.264345-.8460112-.579755-1.0920145-.318415-.2460032-.717935-.3690049-1.198561-.3690049-.222289 0-.456594.0360005-.708923.1110015s-.480626.2160029-.693904.4200056c-.210273.2100028-.3845.4920065-.525684.8610114s-.213278.8460113-.213278 1.4370191c0 .3210043.039051.6450086.111145.9630128.078102.3240043.198258.6090081.366477.8580114.162211.2520034.375489.4590062.636829.6150082.261341.1530021.579755.2310031.95224.2310031.501653 0 .916193-.1560021 1.24362-.4680062.324422-.3090041.531692-.74701.609794-1.3080174h1.718237c-.156204 1.0140135-.543708 1.7910238-1.153502 2.3250309-.60679.5370071-1.411838.8070107-2.418149.8070107-.612798 0-1.153502-.1020013-1.622112-.3090041-.465606-.2070027-.862122-.4890065-1.183541-.8430112-.321418-.3570047-.564735-.7830104-.72995-1.2750169-.168219-.4920066-.249325-1.0230136-.249325-1.5960213 0-.5790077.078102-1.128015.240313-1.6410218s.402524-.9540127.723943-1.3320177c.321418-.375005.723942-.675009 1.19856-.8880118.477622-.2160029 1.03635-.3240043 1.68219-.3240043.453591 0 .880146.0570007 1.288678.1710023.408532.1170015.769002.2910038 1.084412.5220069.318415.2310031.576751.5220069.778013.8730116.204266.3510047.324423.7680102.36047 1.2510166z" fill="#fbb040"/><path d="m343.372807 95.2261645c.381497 0 .711927-.078001.994295-.2400032s.513669-.3720049.693904-.6330084c.183238-.2610035.31541-.5550074.39952-.8820117.087113-.3240044.129168-.6600088.129168-.9990133 0-.3330045-.042055-.6660089-.129168-.9960133-.08411-.3300044-.216282-.6240083-.39952-.8820117-.180235-.2550034-.411536-.4620061-.693904-.6240083s-.612798-.2400032-.994295-.2400032c-.381496 0-.711927.078001-.994294.2400032-.282368.1620022-.513669.3690049-.693904.6240083-.180234.2580034-.31541.5520073-.39952.8820117-.087113.3300044-.129168.6630088-.129168.9960133 0 .3390045.042055.6750089.129168.9990133.08411.3270043.219286.6210082.39952.8820117.180235.2610035.411536.4710062.693904.6330084.282367.1620022.612798.2400032.994294.2400032m0 1.356018c-.621809 0-1.180537-.1020013-1.66717-.306004-.486634-.2100028-.89817-.4890066-1.237612-.8550114-.333434-.3600048-.59177-.7920105-.769001-1.2930172-.174227-.5010067-.264344-1.0560141-.264344-1.656022 0-.5940079.090117-1.1400152.264344-1.6440219.177231-.5010067.435567-.9330124.769001-1.2930172.339442-.3630048.750978-.6450086 1.237612-.8520113.486633-.2070028 1.045361-.3090041 1.66717-.3090041.624814 0 1.180538.1020013 1.667171.3090041.486634.2070027.89817.4890065 1.237612.8520113.333434.3600048.59177.7920105.769001 1.2930172.174227.5040067.264344 1.050014.264344 1.6440219 0 .6000079-.090117 1.1550153-.264344 1.656022-.177231.5010067-.435567.9330124-.769001 1.2930172-.339442.3660048-.750978.6450086-1.237612.8550114-.486633.2040027-1.042357.306004-1.667171.306004" fill="#fbb040"/><path d="m351.802684 96.3730797h1.718237v-7.7881035h-1.718237zm0-9.1261213h1.718237v-1.6290217h-1.718237z" fill="#fbb040"/><path d="m358.407083 88.5843762h1.62812v1.1460152l.033043.0300004c.26134-.4320057.600782-.7710102 1.024334-1.0170135.420547-.2460033.889158-.3690049 1.399823-.3690049.859118 0 1.52899.2220029 2.021632.6600088.492641.4440059.738962 1.1070147.738962 1.9890264v5.3490711h-1.718237v-4.8960651c-.021028-.6120081-.150196-1.056014-.393513-1.3320177-.240313-.2760036-.615801-.4140055-1.12947-.4140055-.29138 0-.55272.0510007-.784021.1590021-.231301.1050014-.426556.2520034-.588767.4350058-.162211.1860025-.288375.4050054-.375489.6570087-.090117.2490034-.13818.5160069-.13818.7950106v4.5960611h-1.718237z" fill="#fbb040"/><path d="m480.041761 359.384777c-.384501 0-.769002-.147002-1.063385-.438006-.585763-.588008-.585763-1.53602 0-2.124028l120.631071-120.469602c.585762-.588008 1.534998-.588008 2.123765 0 .585763.585008.585763 1.53302 0 2.121028l-120.628067 120.472602c-.294383.291004-.678884.438006-1.063384.438006" fill="#d4d3d7"/><path d="m553.382556 295.187223c0 5.781077-4.69211 10.470139-10.483651 10.470139-5.788537 0-10.480646-4.689062-10.480646-10.470139s4.692109-10.470139 10.480646-10.470139c5.791541 0 10.483651 4.689062 10.483651 10.470139" fill="#fbb040"/><path d="m542.402359 294.066708c.282367.009.561731-.009.844099-.06.282367-.051001.534696-.138002.753982-.264004.219285-.123002.39952-.297004.5377-.519007.135176-.219003.201262-.492006.201262-.813011 0-.453006-.150196-.81301-.459599-1.086014-.306399-.270004-.699911-.405005-1.183541-.405005-.300391 0-.561731.06-.784021.180002-.222289.120002-.405528.285004-.549715.489006-.147192.207003-.255333.438006-.324423.69301-.072094.258003-.099129.522007-.093121.79201h-1.718237c.021027-.513007.117152-.987013.288375-1.425019.171223-.435006.405528-.816011.699911-1.137015.297388-.321004.657857-.570007 1.078405-.75301.420547-.180002.898169-.270004 1.432865-.270004.411536 0 .817064.060001 1.216584.180003.393513.120001.750978.297004 1.069393.528007.315411.231003.567739.525007.759989.882012.189247.357004.288376.76501.288376 1.227016 0 .531007-.120157.996013-.363473 1.392018-.243317.396006-.618806.68401-1.129471.867012v.03c.603786.120002 1.072396.420006 1.408834.897012.339442.477007.504657 1.056014.504657 1.740023 0 .501007-.099129.951013-.300391 1.347018-.201262.396006-.474618.73201-.81406 1.008014-.342446.276003-.738962.489006-1.192552.642008-.453591.150002-.931213.225003-1.432866.225003-.612798 0-1.150498-.087001-1.604089-.264003-.456594-.177003-.841095-.423006-1.147494-.74701-.306399-.318004-.540704-.70501-.699911-1.158016-.162211-.453006-.246321-.954012-.258337-1.50602h1.718238c-.018024.642009.13818 1.176016.474618 1.602022.339442.429005.841095.642008 1.516975.642008.573747 0 1.054373-.162002 1.441877-.489006.384501-.327005.579755-.792011.579755-1.395019 0-.411005-.081105-.73801-.240313-.978013-.162211-.240003-.372485-.423005-.633825-.549007s-.558728-.204003-.88315-.234003c-.324422-.030001-.66086-.039001-1.003306-.030001z" fill="#fff"/><path d="m598.303346 239.777387c-2.775614-2.769037-2.775614-7.260097 0-10.029134 2.77261-2.769037 7.269465-2.769037 10.042075 0 2.772611 2.769037 2.772611 7.260097 0 10.029134-2.77261 2.769036-7.269465 2.769036-10.042075 0" fill="#d4d3d7"/><path d="m495.029175 359.304376-16.407363-16.386218c-.729951-.73201-2.177836-.018-2.291985 1.131015l-1.964558 19.506259 19.531432-1.962026c1.150498-.114001 1.862425-1.560021 1.132474-2.28903" fill="#fbb040"/><path d="m571.077396 296.085135h2.652453l2.970869 8.421112h.033043l2.892766-8.421112h2.625419v10.755143h-1.796339v-8.30111h-.030039l-2.985888 8.30111h-1.550018l-2.988892-8.30111h-.030039v8.30111h-1.793335z" fill="#fbb040"/><path d="m587.336366 306.840878h1.718237v-7.788103h-1.718237zm0-9.126121h1.718237v-1.629022h-1.718237z" fill="#fbb040"/><path d="m593.938362 299.053075h1.62812v1.146015l.030039.03c.264345-.432005.603787-.77101 1.027338-1.017013.420548-.246003.889158-.369005 1.399823-.369005.859118 0 1.528991.222003 2.021632.660009.492642.444006.738962 1.107014.738962 1.989026v5.349071h-1.718237v-4.896065c-.021027-.612008-.150196-1.056014-.393512-1.332018-.240313-.276003-.618806-.414005-1.129471-.414005-.291379 0-.55272.051001-.787025.159002-.228297.105001-.426555.252003-.585762.435006-.162212.186002-.288376.405005-.375489.657009-.093122.249003-.13818.516006-.13818.79501v4.596061h-1.718238z" fill="#fbb040"/><path d="m604.824537 299.053075h1.29769v-2.334031h1.721241v2.334031h1.550018v1.281017h-1.550018v4.155055c0 .183002.009012.339004.021027.468006.018024.132002.051067.243003.105137.330005.057074.090001.141184.159002.252329.204002.108141.045001.258336.069001.450586.069001.117153 0 .240313-.003.36047-.009.120156-.003.240313-.021.360469-.054001v1.329018c-.189246.021-.375489.039001-.555723.057001-.183239.021-.366478.033-.558728.033-.450587 0-.81406-.045-1.093424-.129001-.27636-.084002-.492641-.210003-.648845-.378006-.153199-.165002-.26134-.372004-.31541-.624008-.054071-.249003-.087114-.537007-.099129-.858011v-4.593061h-1.29769z" fill="#fbb040"/><path d="m563.068968 314.158576h1.913492l1.946534 8.223109h.030039l2.171828-8.223109h1.928511l2.11175 8.223109h.030039l2.006613-8.223109h1.913491l-2.970868 10.755143h-1.913491l-2.156809-8.22311h-.030039l-2.201867 8.22311h-1.946534z" fill="#fbb040"/><path d="m583.260359 323.378598h3.331338c.573747 0 1.018325-.150002 1.33674-.444006.315411-.297004.474618-.717009.474618-1.257017 0-.534007-.159207-.945012-.474618-1.230016-.318415-.285004-.762993-.429006-1.33674-.429006h-3.331338zm0-4.713063h3.076005c.453591 0 .82908-.129001 1.129471-.387005.303395-.255003.456594-.624008.456594-1.104014 0-.543008-.13818-.927013-.411536-1.146016-.270352-.219003-.663864-.333004-1.174529-.333004h-3.076005zm-1.886456-4.506059h5.232813c.96726 0 1.739265.222002 2.325027.663008.579755.441006.874139 1.110015.874139 2.001027 0 .543007-.135176 1.008013-.399521 1.395018-.267348.387006-.645841.68701-1.138482.897012v.030001c.663864.141002 1.165518.453006 1.507964.939012.339441.489007.510664 1.101015.510664 1.833025 0 .420005-.075097.81301-.222289 1.182015-.153199.366005-.387505.684009-.711927.948013-.321419.267004-.732954.477006-1.237611.633008-.501654.153002-1.099432.234004-1.793336.234004h-4.947441z" fill="#fbb040"/><path d="m593.98222 314.158576h8.71735v1.629021h-3.424459v9.126122h-1.883452v-9.126122h-3.409439z" fill="#fbb040"/><path d="m614.23519 317.577721c-.081105-.312004-.189246-.594008-.33043-.858011-.141184-.261004-.321418-.486007-.543708-.678009-.222289-.189003-.480626-.339005-.778013-.444006-.294383-.105002-.642837-.159002-1.033345-.159002-.570743 0-1.066389.117001-1.486936.348004-.41454.231003-.756986.540007-1.015322.927012-.261341.387006-.456595.825011-.579755 1.317018-.126165.492007-.186243.993013-.186243 1.50602 0 .510007.060078 1.014014.186243 1.50602.12316.492007.318414.933012.579755 1.320018.258336.387005.600782.693009 1.015322.924012.420547.231003.916193.348005 1.486936.348005.423551 0 .796036-.075001 1.120459-.222003.318414-.144002.597778-.345005.826075-.600008.231301-.258004.411536-.552008.546712-.897012.129168-.342005.213278-.70801.252329-1.098015h1.841397c-.042054.642009-.180234 1.230016-.417543 1.761023-.234305.534008-.55272.993014-.955244 1.380019s-.874138.681009-1.417846.894012c-.543708.210003-1.141487.315004-1.796339.315004-.802045 0-1.522983-.147002-2.159813-.441006-.639833-.297004-1.180537-.702009-1.625116-1.212016-.441575-.513007-.781017-1.113015-1.015322-1.794024-.237309-.684009-.354461-1.410019-.354461-2.184029 0-.76501.117152-1.48502.354461-2.169029.234305-.684009.573747-1.281017 1.015322-1.791024.444579-.513006.985283-.921012 1.625116-1.221016.63683-.303004 1.357768-.453006 2.159813-.453006.603786 0 1.171525.084001 1.706221.249003.534697.165003 1.003307.408006 1.408835.72601.408532.315004.738962.699009.99129 1.149015.249325.453006.402525.972013.462603 1.551021z" fill="#fbb040"/><path d="m229.323907 354.587413c-.3845 0-.769001-.147002-1.063384-.438006l-117.708265-117.559563c-.585763-.585008-.585763-1.53602 0-2.121028.585762-.585008 1.538002-.585008 2.123765 0l117.711269 117.556563c.585763.588008.585763 1.53602 0 2.124028-.294383.291004-.678884.438006-1.063385.438006" fill="#d4d3d7"/><path d="m234.346147 358.10166c2.77261-2.769037 2.77261-7.260097 0-10.029134-2.775615-2.769036-7.27247-2.769036-10.04508 0-2.77261 2.769037-2.77261 7.260097 0 10.029134s7.269465 2.769037 10.04508 0" fill="#d4d3d7"/><path d="m121.625876 229.141045-16.407363 16.386218c-.729951.73201-2.177836.018-2.294989-1.131015l-1.961554-19.506259 19.531432 1.962026c1.147494.114001 1.862425 1.56002 1.132474 2.28903" fill="#fbb040"/><path d="m251.469042 307.626889c-.384501 0-.769001-.147002-1.063385-.438006l-89.609678-89.49419c-.585763-.585008-.585763-1.536021 0-2.121028.588766-.585008 1.538002-.585008 2.123765 0l89.612682 89.49119c.585763.588007.585763 1.53602 0 2.124028-.294383.291004-.678884.438006-1.063384.438006" fill="#d4d3d7"/><path d="m156.836824 211.618112c-2.772611 2.769037-2.772611 7.260097 0 10.029133 2.775614 2.772037 7.269465 2.772037 10.045079 0 2.77261-2.769036 2.77261-7.260096 0-10.029133-2.775614-2.769037-7.269465-2.769037-10.045079 0" fill="#d4d3d7"/><path d="m237.886857 308.949606 16.407363-16.386218c.729951-.732009 2.177836-.018 2.291985 1.131015l1.964558 19.50626-19.531432-1.962026c-1.150498-.114002-1.862425-1.560021-1.132474-2.289031" fill="#f15a29"/><path d="m84.6666527 294.128209h1.9134915l1.9465345 8.22311h.0300391l2.1718279-8.22311h1.9285111l2.1117496 8.22311h.0300392l2.0066127-8.22311h1.9164954l-2.9738722 10.755143h-1.9104876l-2.1598122-8.223109h-.0300391l-2.1988631 8.223109h-1.9495384z" fill="#fbb040"/><path d="m104.861047 303.347932h3.331338c.573747 0 1.015322-.150002 1.333737-.444006.31541-.297004.474618-.71701.474618-1.257017 0-.534007-.159208-.945012-.474618-1.230016-.318415-.285004-.75999-.429006-1.333737-.429006h-3.331338zm0-4.713063h3.073002c.45359 0 .832083-.129002 1.132474-.387005.300391-.255003.453591-.624008.453591-1.104015 0-.543007-.135176-.927012-.408532-1.146015s-.663865-.333004-1.177533-.333004h-3.073002zm-1.88946-4.50606h5.232814c.970263 0 1.742268.222003 2.325027.663009s.874138 1.110015.874138 2.001027c0 .543007-.132172 1.008013-.39952 1.395018-.264344.387005-.645841.687009-1.138482.897012v.03c.663864.141002 1.168521.453007 1.507963.939013.339442.489006.513669 1.101015.513669 1.833024 0 .420006-.075098.813011-.225293 1.182016-.1532.366005-.387505.684009-.711927.948013-.321419.267003-.732955.477006-1.237612.633008-.498649.153002-1.096428.234003-1.790331.234003h-4.950446z" fill="#fbb040"/><path d="m115.580204 294.128209h8.717351v1.629022h-3.421455v9.126121h-1.886456v-9.126121h-3.40944z" fill="#fbb040"/><path d="m135.832875 297.547055c-.078102-.312005-.186243-.594008-.327426-.858012-.141184-.261003-.324423-.486006-.546712-.678009-.219286-.189002-.480626-.339004-.775009-.444006-.297388-.105001-.642837-.159002-1.033346-.159002-.573747 0-1.066388.117002-1.486936.348005-.41454.231003-.756986.540007-1.018326.927012-.258336.387005-.453591.825011-.579755 1.317018-.12316.492006-.186242.993013-.186242 1.50602 0 .510006.063082 1.014013.186242 1.50602.126164.492006.321419.933012.579755 1.320017.26134.387005.603786.693009 1.018326.924013.420548.231003.913189.348004 1.486936.348004.423552 0 .793033-.075001 1.117455-.222003.321419-.144002.597778-.345004.826076-.600008.234305-.258003.414539-.552007.546712-.897012.129168-.342004.216281-.708009.255332-1.098014h1.838394c-.042055.642008-.177231 1.230016-.41454 1.761023-.237309.534007-.55272.993013-.958248 1.380018-.39952.387006-.874138.68101-1.414842.894012-.546712.210003-1.14449.315005-1.796339.315005-.802044 0-1.522983-.147002-2.162816-.441006-.639833-.297004-1.180537-.70201-1.622112-1.212016-.444579-.513007-.784021-1.113015-1.018326-1.794024-.234305-.684009-.351458-1.410019-.351458-2.184029 0-.76501.117153-1.48502.351458-2.169029s.573747-1.281017 1.018326-1.791024c.441575-.513007.982279-.921012 1.622112-1.221016.639833-.303004 1.360772-.453006 2.162816-.453006.603786 0 1.171526.084001 1.703218.249003.534696.165002 1.003306.408006 1.411838.72601.405528.315004.735958.699009.988287 1.149015.252329.453006.402524.972013.465606 1.551021z" fill="#fbb040"/><path d="m79.4332384 312.201649h8.7173506v1.629022h-3.4244589v9.126122h-1.8834524v-9.126122h-3.4094393z" fill="#fbb040"/><path d="m94.0773061 321.811077c.3814967 0 .7119269-.078001.9942946-.240003s.5136688-.372005.6939035-.633008c.1832386-.261004.3124068-.555008.3995202-.882012.0871134-.324004.1291682-.660009.1291682-.999013 0-.333005-.0420548-.666009-.1291682-.996014-.0871134-.330004-.2162816-.624008-.3995202-.882011-.1802347-.255004-.4115358-.462006-.6939035-.624009-.2823677-.162002-.6127979-.240003-.9942946-.240003-.3814968 0-.7149309.078001-.9972986.240003-.2823677.162003-.5106649.369005-.6908996.624009-.1832386.258003-.3154107.552007-.3995202.882011-.0901173.330005-.1291682.663009-.1291682.996014 0 .339004.0390509.675009.1291682.999013.0841095.327004.2162816.621008.3995202.882012.1802347.261003.4085319.471006.6908996.633008s.6158018.240003.9972986.240003m0 1.356018c-.6218097 0-1.1805372-.102001-1.6671708-.306004-.4866337-.210003-.8981695-.489006-1.2376115-.855011-.3334341-.360005-.5917705-.792011-.7690013-1.293017-.1742268-.501007-.2643442-1.056014-.2643442-1.656022 0-.594008.0901174-1.140016.2643442-1.644022.1772308-.501007.4355672-.933013.7690013-1.293017.339442-.363005.7509778-.645009 1.2376115-.852012.4866336-.207002 1.0453611-.309004 1.6671708-.309004.6218096 0 1.1805371.102002 1.6671707.309004.4866337.207003.8981695.489007 1.2376115.852012.3334342.360004.5917705.79201.7690013 1.293017.1742269.504006.2643442 1.050014.2643442 1.644022 0 .600008-.0901173 1.155015-.2643442 1.656022-.1772308.501006-.4355671.933012-.7690013 1.293017-.339442.366005-.7509778.645008-1.2376115.855011-.4866336.204003-1.0453611.306004-1.6671707.306004" fill="#fbb040"/><path d="m102.508384 312.201649h1.718237v6.117082l3.103041-3.150042h2.114753l-2.988892 2.862038 3.274264 4.926066h-2.093726l-2.385106-3.780051-1.024334.993013v2.787038h-1.718237z" fill="#fbb040"/><path d="m118.930166 318.377532c-.021027-.270004-.075097-.531007-.174227-.783011-.096125-.252003-.225293-.468006-.390508-.654008-.168219-.186003-.369481-.339005-.603786-.453007-.237309-.114001-.501653-.171002-.790029-.171002-.303395 0-.576751.051001-.823072.156002-.24632.105002-.456594.252004-.633825.438006-.174227.183003-.315411.405005-.420547.654009-.105137.252003-.165216.522007-.177231.813011zm-4.013225 1.131015c0 .303004.045058.591008.129168.873011.087113.282004.213278.528007.387505.73801.171223.210003.3845.378005.64584.504007.264345.126001.573748.189002.934217.189002.501653 0 .907181-.108001 1.216584-.324004.306399-.216003.534696-.540007.684892-.972013h1.62812c-.090118.423006-.246321.798011-.46861 1.131015-.219286.330004-.486634.609008-.799041.834011-.309403.225003-.657856.396005-1.045361.513007-.387505.114002-.793033.174002-1.216584.174002-.612798 0-1.153502-.102001-1.62812-.303004-.474618-.198002-.874138-.480006-1.198561-.843011-.324422-.360005-.573747-.79201-.735958-1.296017-.171223-.501007-.252328-1.053014-.252328-1.656022 0-.552008.087113-1.077014.264344-1.575021.174227-.495007.426555-.930012.756985-1.308018.324423-.375004.720939-.675008 1.180538-.897011.462602-.222003.985282-.333005 1.571045-.333005.609794 0 1.15951.129002 1.646144.384005.492641.258004.892161.597008 1.216584 1.017014.321418.423005.555723.909012.702915 1.455019.144188.546007.183238 1.113015.111145 1.695023z" fill="#fbb040"/><path d="m124.979143 315.169289h1.625116v1.146015l.033043.030001c.26134-.432006.600782-.771011 1.024333-1.017014.420548-.246003.889158-.369005 1.399823-.369005.859119 0 1.531995.222003 2.024636.660009.492642.444006.738962 1.107015.738962 1.989026v5.349072h-1.718237v-4.896066c-.024031-.612008-.153199-1.056014-.393512-1.332017-.240313-.276004-.618806-.414006-1.132475-.414006-.291379 0-.549716.051001-.784021.159002-.231301.105002-.426555.252004-.588766.435006-.159208.186003-.288376.405005-.375489.657009-.090118.249003-.135176.516007-.135176.79501v4.596062h-1.718237z" fill="#fbb040"/><path d="m137.945225 320.457459c.054071.501007.243317.852012.573747 1.053014.333435.201003.729951.300004 1.192553.300004.162211 0 .34545-.012.549716-.039.20727-.021001.39952-.069001.582759-.138002.180234-.072001.327426-.177002.444579-.312004.111144-.135002.165215-.312004.156203-.534007s-.090117-.399006-.240313-.540008c-.150195-.141001-.342446-.255003-.579755-.342004-.240313-.084001-.504657-.156002-.808052-.219003-.303395-.057001-.609794-.123002-.922201-.192003-.321418-.072-.627817-.156002-.925204-.258003-.297388-.099001-.564736-.234003-.799041-.408005-.237309-.171003-.423551-.387006-.564735-.654009-.141184-.267004-.213278-.594008-.213278-.987013 0-.420006.105137-.777011.309403-1.059014.204266-.288004.46861-.519007.787025-.69601.315411-.174002.666868-.297003 1.054373-.369004.387504-.069001.756985-.105002 1.108443-.105002.39952 0 .787025.045001 1.153502.129002s.699911.222003.994295.414005c.297387.189003.543708.438006.738962.74701.198258.303004.318414.672009.369481 1.107015h-1.793335c-.08411-.414005-.270352-.690009-.564736-.831011-.297387-.138002-.639833-.210003-1.021329-.210003-.120157 0-.264345.009-.426556.030001-.165215.021-.324422.057-.46861.114001s-.270352.135002-.372485.240003c-.099129.105002-.147192.243004-.147192.414006 0 .210003.072094.384005.219286.513007.147192.132001.333434.240003.570743.324004s.504657.159002.808052.216003c.300391.063001.612798.126001.934217.198002.312406.069001.618805.156002.919196.255004.303396.102001.573748.237003.811057.405005.234305.174003.423551.387005.570743.648009.144187.261003.219285.585008.219285.966013 0 .462006-.105137.855011-.31541 1.173015-.213278.324005-.486634.585008-.826076.786011-.336438.198002-.711927.345004-1.123463.435005-.408532.093002-.817064.135002-1.219588.135002-.492641 0-.949236-.054-1.36678-.165002-.417543-.108001-.778013-.279004-1.084412-.504007-.306398-.228003-.546711-.507006-.723942-.846011-.174227-.333004-.267348-.73501-.279364-1.194016z" fill="#fbb040"/><path d="m217.395676 235.358928h1.886456v-10.755143h-1.886456z" fill="#f15a29"/><path d="m224.366252 227.570524h1.62812v1.146015l.030039.030001c.26134-.432006.603786-.77101 1.027338-1.017014.420547-.246003.886154-.369005 1.399822-.369005.856115 0 1.528991.222003 2.021633.660009.492641.444006.738962 1.107015.738962 1.989027v5.349071h-1.718237v-4.896065c-.021028-.612008-.1532-1.056014-.393513-1.332018s-.618806-.414006-1.132474-.414006c-.288376 0-.549716.051001-.784021.159003-.231301.105001-.426556.252003-.585763.435005-.162211.186003-.288375.405006-.378493.657009-.090117.249003-.135176.516007-.135176.795011v4.596061h-1.718237z" fill="#f15a29"/><path d="m236.083008 235.358928h1.718237v-7.788104h-1.718237zm0-9.126122h1.718237v-1.629021h-1.718237z" fill="#f15a29"/><path d="m241.902786 227.570524h1.29769v-2.334031h1.721241v2.334031h1.550018v1.281017h-1.550018v4.155055c0 .183003.006008.339005.021027.468007.01502.132001.048063.243003.105137.330004.05407.090001.13818.159002.249325.204003.111144.045.26134.069001.450586.069001.120157 0 .243317-.003.363474-.009.120156-.003.240313-.021001.360469-.054001v1.329018c-.189246.021-.375489.039-.555724.057-.183238.021001-.366477.033001-.558727.033001-.453591 0-.817064-.045001-1.093424-.129002s-.492641-.210003-.648845-.378005c-.153199-.165002-.26134-.372005-.31541-.624008-.057075-.249004-.087114-.537007-.099129-.858012v-4.593061h-1.29769z" fill="#f15a29"/><path d="m250.772134 235.358928h1.718238v-7.788104h-1.718238zm0-9.126122h1.718238v-1.629021h-1.718238z" fill="#f15a29"/><path d="m262.187899 231.458276c-.264345.171002-.582759.273004-.964256.309004-.384501.033-.765997.087001-1.147494.156002-.183239.03-.357466.075001-.528688.129002-.171223.054001-.321419.129002-.450587.225003-.132172.096001-.234305.222003-.312407.375005-.072094.156002-.111145.348004-.111145.567007 0 .189003.057075.351005.165215.483007.111145.129001.243317.231003.402525.309004.153199.075001.324422.129002.507661.156002.189246.03.357465.045001.507661.045001.19225 0 .396516-.024001.618805-.072001.22229-.054001.42956-.138002.624814-.258004.198258-.120001.360469-.273004.492641-.462006.129169-.183002.195255-.411005.195255-.684009zm1.718237 2.169029c0 .210003.027035.360005.084109.450006.054071.090001.162212.135002.324423.135002h.180234c.06909 0 .150196-.009001.240313-.030001v1.191016c-.060078.021-.13818.042001-.231301.066001-.099129.027-.195254.051001-.294383.069001-.102133.018-.204266.033-.303395.045-.102133.009-.186243.015001-.258337.015001-.351457 0-.642837-.069001-.874138-.210003s-.381496-.387005-.450586-.73801c-.342446.330004-.762994.570008-1.258639.72301-.49865.150002-.979275.225003-1.441878.225003-.351457 0-.687895-.048001-1.009314-.144002-.321418-.093002-.60679-.234003-.853111-.420006-.24632-.186002-.441575-.423006-.588766-.708009-.144188-.285004-.216282-.621009-.216282-1.002014 0-.483006.087113-.873011.264344-1.173015.174227-.303004.405528-.540007.6909-.71101.288375-.168002.609794-.291004.964255-.369005.36047-.075001.717935-.132001 1.081408-.171002.309403-.063001.606791-.102001.889158-.129002.279364-.024.528689-.069001.747974-.126001.213278-.063001.384501-.156002.510665-.279004.126164-.126002.189246-.315004.189246-.564008 0-.225003-.051066-.402005-.159207-.543007-.105137-.141002-.237309-.249003-.390508-.327004-.156204-.075001-.330431-.126002-.519677-.147002-.195254-.027-.372485-.039001-.543708-.039001-.48363 0-.880146.099002-1.192553.303004-.312406.198003-.489637.507007-.528688.930013h-1.718237c.030039-.501007.150195-.918012.363473-1.248017.210274-.330004.477622-.597008.805048-.80101.327426-.198003.696908-.339005 1.108443-.420006.411536-.081001.835088-.120002 1.267651-.120002.381497 0 .756986.039001 1.129471.120002s.708923.210003 1.003306.393005c.297387.180003.534696.411006.714931.69901.183239.288003.273356.636008.273356 1.047013z" fill="#f15a29"/><path d="m267.993258 227.570524h1.297689v-2.334031h1.718238v2.334031h1.553022v1.281017h-1.553022v4.155055c0 .183003.009011.339005.024031.468007.015019.132001.048062.243003.105137.330004.05407.090001.13818.159002.249324.204003.108141.045.261341.069001.450587.069001.120157 0 .240313-.003.360469-.009.120157-.003.240313-.021001.363474-.054001v1.329018c-.192251.021-.375489.039-.558728.057-.180234.021001-.366477.033001-.558727.033001-.450587 0-.81406-.045001-1.093424-.129002-.27636-.084001-.492641-.210003-.648845-.378005-.153199-.165002-.26134-.372005-.315411-.624008-.05407-.249004-.087113-.537007-.096125-.858012v-4.593061h-1.297689z" fill="#f15a29"/><path d="m282.168114 230.778767c-.021027-.270004-.075097-.531007-.174227-.783011-.096125-.252003-.225293-.468006-.390508-.654008-.165215-.186003-.369481-.339005-.603786-.453006-.237309-.114002-.501653-.171003-.790029-.171003-.303395 0-.576751.051001-.823072.156003-.24632.105001-.456594.252003-.633825.438005-.174227.183003-.315411.405006-.420547.654009-.105137.252003-.165216.522007-.174227.813011zm-4.010221 1.131015c0 .303004.042054.591008.126164.873012.087113.282003.213278.528007.387505.738009.171222.210003.3845.378005.648844.504007.261341.126002.570744.189003.931213.189003.504657 0 .910185-.108002 1.216584-.324005s.534696-.540007.684892-.972013h1.62812c-.090118.423006-.246321.798011-.465607 1.131015-.222289.330005-.486633.609008-.802044.834011-.309403.225003-.657856.396006-1.045361.513007-.387505.114002-.793033.174003-1.216584.174003-.612798 0-1.153502-.102002-1.62812-.303004-.471614-.198003-.871134-.480007-1.198561-.843012-.324422-.360004-.573747-.79201-.735958-1.296017-.168219-.501007-.249325-1.053014-.249325-1.656022 0-.552007.087114-1.077014.264345-1.575021.174226-.495006.423551-.930012.753981-1.308017.324423-.375005.720939-.675009 1.180538-.897012.462602-.222003.985282-.333005 1.571045-.333005.612798 0 1.162514.129002 1.649147.384005.489638.258004.892162.597008 1.216585 1.017014.318414.423006.552719.909012.699911 1.455019.144188.546008.183238 1.113015.111145 1.695023z" fill="#f15a29"/><path d="m231.506249 242.676325h2.652453l2.970869 8.421112h.033043l2.89577-8.421112h2.622415v10.755143h-1.796339v-8.30111h-.030039l-2.985888 8.30111h-1.550018l-2.988892-8.30111h-.030039v8.30111h-1.793335z" fill="#f15a29"/><path d="m247.765219 253.431168h1.718237v-7.788103h-1.718237zm0-9.126121h1.718237v-1.629022h-1.718237z" fill="#f15a29"/><path d="m254.367215 245.643965h1.62812v1.146015l.033043.03c.261341-.432006.600783-.77101 1.024334-1.017013.420548-.246004.889158-.369005 1.399823-.369005.859118 0 1.528991.222003 2.021632.660008.492642.444006.738962 1.107015.738962 1.989027v5.349071h-1.718237v-4.896065c-.021027-.612008-.150195-1.056014-.393512-1.332018-.240313-.276003-.615802-.414005-1.129471-.414005-.291379 0-.55272.051-.784021.159002-.231301.105001-.426555.252003-.588766.435006-.162212.186002-.288376.405005-.375489.657008-.090118.249004-.13818.516007-.13818.795011v4.596061h-1.718238z" fill="#f15a29"/><path d="m265.256394 245.643965h1.29769v-2.334032h1.718237v2.334032h1.553022v1.281017h-1.553022v4.155055c0 .183002.009012.339004.024031.468006.01502.132002.048063.243003.105137.330004.054071.090002.13818.159003.249325.204003.108141.045001.26134.069001.450586.069001.120157 0 .240313-.003.36047-.009.120156-.003.240313-.021.363473-.054001v1.329018c-.19225.021-.375489.039-.558727.057001-.180235.021-.366478.033-.558728.033-.450587 0-.81406-.045001-1.093424-.129002-.276359-.084001-.492641-.210002-.648844-.378005-.1532-.165002-.261341-.372005-.315411-.624008-.054071-.249003-.087114-.537007-.096125-.858011v-4.593061h-1.29769z" fill="#f15a29"/><path d="m217.401984 261.12477c0 5.781077-4.692109 10.47014-10.480647 10.47014-5.791541 0-10.48365-4.689063-10.48365-10.47014s4.692109-10.470139 10.48365-10.470139c5.788538 0 10.480647 4.689062 10.480647 10.470139" fill="#f15a29"/><path d="m204.095558 257.420021c.360469 0 .711927-.03 1.054373-.090001.339442-.060001.645841-.159002.922201-.300004.273356-.141002.510665-.321004.705919-.540007s.321418-.489007.3845-.810011h1.393815v10.50014h-1.877444v-7.410099h-2.583364z" fill="#fff"/><path d="m344.654576 118.089768c0 5.781077-4.692109 10.47014-10.480646 10.47014-5.791541 0-10.483651-4.689063-10.483651-10.47014 0-5.781076 4.69211-10.470139 10.483651-10.470139 5.788537 0 10.480646 4.689063 10.480646 10.470139" fill="#fbb040"/><path d="m337.494153 122.381626h-7.209387c.012015-.873012.222289-1.635022.633825-2.289031.411536-.651009.976271-1.221016 1.688198-1.704023.342446-.249003.696908-.492006 1.069393-.729009.375489-.234003.714931-.489007 1.027337-.76201.312407-.270004.56774-.564008.769002-.879012.201262-.318004.306399-.681009.318414-1.092015 0-.192002-.024031-.393005-.06909-.609008-.045058-.216003-.135176-.417005-.264344-.603008-.132172-.186002-.309403-.342004-.540704-.468006-.234305-.126002-.534696-.186002-.907181-.186002-.339442 0-.624814.066001-.850107.201002-.228297.135002-.408532.321005-.543708.558008-.13818.237003-.237309.513007-.303395.834011-.063082.324004-.102133.669009-.114149 1.041014h-1.718237c0-.582008.078102-1.122015.234305-1.620022s.390509-.927012.702915-1.287017c.309403-.360005.6909-.645009 1.135479-.849011.450587-.207003.970263-.309004 1.562034-.309004.645841 0 1.183541.105001 1.6131.315004.435567.210003.784021.477006 1.051369.79801.264344.321005.453591.669009.561731 1.047014.111145.375005.168219.73501.168219 1.077015 0 .420005-.066086.80401-.198258 1.143015-.129168.342004-.303395.657009-.525684.942012-.22229.288004-.474618.552008-.753982.792011-.282368.240003-.573747.465006-.874138.678009-.303395.210003-.603786.411005-.904177.600008-.303395.192002-.579755.384005-.838092.573008-.255332.192002-.480625.390005-.672876.597007-.19225.204003-.318414.423006-.390508.654009h5.142696z" fill="#fff"/><path d="m178.905659 292.266384c0 5.781077-4.69211 10.47014-10.480647 10.47014-5.791541 0-10.48365-4.689063-10.48365-10.47014 0-5.781076 4.692109-10.470139 10.48365-10.470139 5.788537 0 10.480647 4.689063 10.480647 10.470139" fill="#fbb040"/><path d="m165.48208 293.4661h3.196162v-4.638061h-.030039zm6.185054 1.356018h-1.360772v2.499034h-1.62812v-2.499034h-4.52389v-1.704022l4.52389-6.339085h1.62812v6.687089h1.360772z" fill="#fff"/></g></g></svg>