<?xml version="1.0" encoding="UTF-8"?>
<svg width="770px" height="190px" viewBox="0 0 770 190" version="1.1" xmlns="http://www.w3.org/2000/svg" xmlns:xlink="http://www.w3.org/1999/xlink">
    <!-- Generator: Sketch 52.2 (67145) - http://www.bohemiancoding.com/sketch -->
    <title>Group 5</title>
    <desc>Created with Sketch.</desc>
    <defs>
        <path d="M8.0176709,0.696599291 L3.02439664,0.818751773 L0.791604919,2.42324113 C1.61941987,3.32782979 2.90566621,4.42390071 3.7301831,4.50313475 C6.46757915,4.75734397 7.78021003,4.8167695 8.38375639,4.65169858 C8.60802499,4.59227305 11.784064,3.13634752 11.784064,3.13634752 L8.20895881,0.749421986 C8.1594878,0.716407801 8.09682452,0.696599291 8.03086317,0.696599291 C8.0275651,0.696599291 8.02426703,0.696599291 8.0176709,0.696599291 Z" id="path-1"></path>
        <path d="M4.18524771,0.749421986 L0.610142495,3.13634752 C0.610142495,3.13634752 3.78288347,4.59227305 4.01045013,4.65169858 C4.61399649,4.8167695 5.92662737,4.75734397 8.66402342,4.50313475 C9.48854031,4.42390071 10.7747866,3.32782979 11.6058997,2.42324113 L9.36321374,0.818751773 L4.37653562,0.696599291 C4.37323756,0.696599291 4.36664142,0.696599291 4.36334335,0.696599291 C4.297382,0.696599291 4.23801679,0.716407801 4.18524771,0.749421986 Z" id="path-3"></path>
        <polygon id="path-5" points="0 0.597886879 151.584461 0.597886879 151.584461 152.337681 0 152.337681"></polygon>
        <path d="M0,76.4674539 C0,118.369057 33.9338169,152.337351 75.7928901,152.337351 C117.648665,152.337351 151.582482,118.369057 151.582482,76.4674539 C151.582482,34.5658511 117.648665,0.597556738 75.7928901,0.597556738 C33.9338169,0.597556738 0,34.5658511 0,76.4674539 Z" id="path-7"></path>
        <path d="M0,76.4674539 C0,118.369057 33.9338169,152.337351 75.7928901,152.337351 C117.648665,152.337351 151.582482,118.369057 151.582482,76.4674539 C151.582482,34.5658511 117.648665,0.597556738 75.7928901,0.597556738 C33.9338169,0.597556738 0,34.5658511 0,76.4674539 Z" id="path-9"></path>
        <path d="M0,76.4674539 C0,118.369057 33.9338169,152.337351 75.7928901,152.337351 C117.648665,152.337351 151.582482,118.369057 151.582482,76.4674539 C151.582482,34.5658511 117.648665,0.597556738 75.7928901,0.597556738 C33.9338169,0.597556738 0,34.5658511 0,76.4674539 Z" id="path-11"></path>
        <path d="M0,76.4674539 C0,118.369057 33.9338169,152.337351 75.7928901,152.337351 C117.648665,152.337351 151.582482,118.369057 151.582482,76.4674539 C151.582482,34.5658511 117.648665,0.597556738 75.7928901,0.597556738 C33.9338169,0.597556738 0,34.5658511 0,76.4674539 Z" id="path-13"></path>
    </defs>
    <g id="Designs" stroke="none" stroke-width="1" fill="none" fill-rule="evenodd">
        <g id="Home---How-it-works---Receiving" transform="translate(-335.000000, -637.000000)">
            <g id="Group-5" transform="translate(335.000000, 637.000000)">
                <g id="Group-4" transform="translate(188.715596, 108.138298)">
                    <path d="M368.731586,16.4650588 L10.5742057,16.4650588 C9.66420964,16.4650588 8.93161351,15.7283549 8.93161351,14.8206304 C8.93161351,13.9129059 9.66420964,13.1762019 10.5742057,13.1762019 L368.731586,13.1762019 C369.638297,13.1762019 370.374178,13.9129059 370.374178,14.8206304 C370.374178,15.7283549 369.638297,16.4650588 368.731586,16.4650588" id="Fill-165" fill="#D4D3D7"></path>
                    <path d="M363.579431,14.8206304 C363.579431,10.5253833 367.058442,7.04577281 371.345607,7.04577281 C375.636058,7.04577281 379.115069,10.5253833 379.115069,14.8206304 C379.115069,19.1158774 375.636058,22.5954879 371.345607,22.5954879 C367.058442,22.5954879 363.579431,19.1158774 363.579431,14.8206304" id="Fill-167" fill="#D4D3D7"></path>
                    <path d="M19.4626008,27.5231821 L19.4626008,2.11676307 C19.4626008,0.988685179 17.7904419,0.423001803 16.811457,1.22219401 L0.191708764,14.821617 L16.811457,28.42104 C17.7904419,29.2235211 19.4626008,28.6578377 19.4626008,27.5231821" id="Fill-169" fill="#FBB040"></path>
                    <path d="M199.80773,14.6377699 C199.80773,20.9786859 194.676272,26.1158803 188.345721,26.1158803 C182.011885,26.1158803 176.880427,20.9786859 176.880427,14.6377699 C176.880427,8.30014281 182.011885,3.16294843 188.345721,3.16294843 C194.676272,3.16294843 199.80773,8.30014281 199.80773,14.6377699" id="Fill-171" fill="#FBB040"></path>
                    <path d="M192.271845,20.1811381 L184.420254,20.1811381 C184.43011,19.2273696 184.663358,18.392 185.110143,17.6816069 C185.560213,16.967925 186.174543,16.3496199 186.949846,15.8234028 C187.321072,15.5504277 187.708724,15.2840303 188.116087,15.0274995 C188.520164,14.7676798 188.894675,14.4914158 189.233049,14.1954187 C189.574709,13.8994216 189.853949,13.5771136 190.070771,13.2350725 C190.287594,12.8864537 190.40586,12.488502 190.415716,12.0379286 C190.415716,11.8340195 190.39272,11.6103772 190.340157,11.3735795 C190.290879,11.1400707 190.195608,10.9197173 190.054346,10.7158082 C189.909797,10.5151879 189.715972,10.3441673 189.466297,10.2060353 C189.210053,10.0711922 188.88482,9.99883736 188.477457,9.99883736 C188.102946,9.99883736 187.797424,10.0777699 187.551035,10.2257685 C187.301361,10.373767 187.107535,10.5743873 186.959702,10.8309181 C186.811868,11.087449 186.700172,11.3933127 186.627898,11.7452203 C186.558909,12.0938392 186.516202,12.4720577 186.506346,12.8765871 L184.633791,12.8765871 C184.633791,12.2451266 184.719206,11.6531323 184.890036,11.110471 C185.05758,10.5678096 185.313824,10.1007919 185.652198,9.70284025 C185.990572,9.30817743 186.404506,9.00231374 186.890713,8.77538262 C187.380205,8.55174035 187.948542,8.43991922 188.592438,8.43991922 C189.295468,8.43991922 189.876946,8.55502921 190.350012,8.78524919 C190.823079,9.01218031 191.200875,9.30488857 191.493256,9.65679625 C191.782353,10.0054151 191.986034,10.3869225 192.107586,10.7980296 C192.225852,11.2091367 192.288271,11.6037995 192.288271,11.9754403 C192.288271,12.4358803 192.215997,12.8502762 192.074734,13.2252059 C191.930186,13.5968467 191.739645,13.9421767 191.499827,14.2513292 C191.256723,14.5637706 190.984053,14.85319 190.678531,15.1162986 C190.373008,15.3794071 190.054346,15.6260714 189.725827,15.8562914 C189.397309,16.0865114 189.06879,16.3035759 188.740272,16.5140627 C188.411753,16.7212607 188.106231,16.9317476 187.82699,17.1389455 C187.551035,17.3461435 187.304646,17.5632081 187.097679,17.7868503 C186.887428,18.0137815 186.746165,18.2505792 186.670606,18.5038211 L192.271845,18.5038211 L192.271845,20.1811381 Z" id="Fill-173" fill="#FFFFFF"></path>
                    <polygon id="Fill-210" fill="#FBB040" points="116.683693 36.74119 118.776355 36.74119 120.905155 45.7559466 120.938007 45.7559466 123.313195 36.74119 125.422283 36.74119 127.731768 45.7559466 127.76462 45.7559466 129.959123 36.74119 132.055071 36.74119 128.802738 48.5317418 126.713361 48.5317418 124.351313 39.5169852 124.318461 39.5169852 121.913706 48.5317418 119.781622 48.5317418"></polygon>
                    <path d="M138.768674,46.8485049 L142.411943,46.8485049 C143.039414,46.8485049 143.522336,46.684062 143.870565,46.3617541 C144.21551,46.0361572 144.389624,45.5757173 144.389624,44.983723 C144.389624,44.3983065 144.21551,43.9477331 143.870565,43.6352917 C143.522336,43.3228503 143.039414,43.1649852 142.411943,43.1649852 L138.768674,43.1649852 L138.768674,46.8485049 Z M138.768674,41.6817108 L142.129418,41.6817108 C142.62548,41.6817108 143.039414,41.5402899 143.367932,41.2574483 C143.696451,40.9778954 143.863995,40.573366 143.863995,40.0471489 C143.863995,39.4518658 143.716162,39.0308922 143.41721,38.7908056 C143.118258,38.5507191 142.691184,38.4257425 142.129418,38.4257425 L138.768674,38.4257425 L138.768674,41.6817108 Z M136.702293,36.7418478 L142.425084,36.7418478 C143.486199,36.7418478 144.330491,36.9852232 144.967817,37.4686852 C145.605143,37.9521471 145.923806,38.6855622 145.923806,39.6623527 C145.923806,40.2576358 145.779257,40.7674086 145.486876,41.1916711 C145.19778,41.6159336 144.780561,41.9448193 144.241791,42.1750393 L144.241791,42.2079279 C144.967817,42.3625041 145.519728,42.7045453 145.890954,43.2373401 C146.26218,43.7734237 146.45272,44.4443505 146.45272,45.2468316 C146.45272,45.7072715 146.370591,46.1381118 146.206331,46.5426412 C146.038787,46.9438817 145.782543,47.2925005 145.427743,47.5819199 C145.076228,47.8746282 144.626158,48.1048482 144.074247,48.2758687 C143.528906,48.4436004 142.875154,48.5323996 142.116277,48.5323996 L136.702293,48.5323996 L136.702293,36.7418478 Z" id="Fill-211" fill="#FBB040"></path>
                    <polygon id="Fill-212" fill="#FBB040" points="150.491526 36.74119 160.025131 36.74119 160.025131 38.5270393 156.283306 38.5270393 156.283306 48.5317418 154.22021 48.5317418 154.22021 38.5270393 150.491526 38.5270393"></polygon>
                    <path d="M172.640897,40.4891713 C172.555482,40.1471302 172.437215,39.8379776 172.282812,39.5485582 C172.128408,39.2624277 171.928012,39.0157634 171.684908,38.8052766 C171.44509,38.5980786 171.159279,38.4336358 170.83733,38.3185258 C170.512097,38.2034158 170.134301,38.1442164 169.707227,38.1442164 C169.079757,38.1442164 168.540987,38.2724818 168.081061,38.5257238 C167.627705,38.7789657 167.253194,39.117718 166.967383,39.5419805 C166.684857,39.9662431 166.47132,40.4464162 166.333343,40.9857887 C166.19865,41.5251612 166.129661,42.0744003 166.129661,42.6367948 C166.129661,43.1959005 166.19865,43.7484284 166.333343,44.2878009 C166.47132,44.8271735 166.684857,45.3106354 166.967383,45.7348979 C167.253194,46.1591605 167.627705,46.4946239 168.081061,46.7478658 C168.540987,47.0011078 169.079757,47.1293732 169.707227,47.1293732 C170.170438,47.1293732 170.574516,47.0471518 170.929316,46.8859978 C171.28083,46.7281327 171.583067,46.5077793 171.832741,46.2282265 C172.088986,45.9453848 172.286097,45.6230768 172.430645,45.2448583 C172.571908,44.8699286 172.667178,44.4686881 172.709886,44.0411367 L174.720419,44.0411367 C174.674426,44.744952 174.526593,45.389568 174.267063,45.9716956 C174.007533,46.5571122 173.662589,47.0603072 173.219089,47.4845698 C172.78216,47.9088323 172.263101,48.2311403 171.671767,48.4646491 C171.073864,48.6948691 170.420112,48.8099791 169.707227,48.8099791 C168.830083,48.8099791 168.041638,48.6488251 167.341894,48.3265171 C166.64215,48.0009203 166.050817,47.5569246 165.567895,46.997819 C165.081687,46.4354245 164.710461,45.7776531 164.454217,45.0310826 C164.197973,44.2812232 164.06985,43.4853199 164.06985,42.6367948 C164.06985,41.7981363 164.197973,41.0088107 164.454217,40.2589513 C164.710461,39.509092 165.081687,38.8546094 165.567895,38.2955038 C166.050817,37.7331093 166.64215,37.2858247 167.341894,36.9569391 C168.041638,36.6247645 168.830083,36.4603217 169.707227,36.4603217 C170.367549,36.4603217 170.988449,36.5524097 171.569927,36.7332968 C172.154689,36.9141839 172.667178,37.1805813 173.113963,37.5292001 C173.557463,37.8745301 173.918833,38.2955038 174.194789,38.7888323 C174.470744,39.2854497 174.635004,39.8544219 174.703993,40.4891713 L172.640897,40.4891713 Z" id="Fill-213" fill="#FBB040"></path>
                    <polygon id="Fill-214" fill="#FBB040" points="186.66075 36.74119 196.194355 36.74119 196.194355 38.5270393 192.449245 38.5270393 192.449245 48.5317418 190.389434 48.5317418 190.389434 38.5270393 186.66075 38.5270393"></polygon>
                    <path d="M202.676024,47.2757274 C203.093243,47.2757274 203.454613,47.1902171 203.76342,47.0126188 C204.072228,46.8350206 204.325187,46.6048006 204.522298,46.31867 C204.722694,46.0325395 204.863957,45.7102315 204.959227,45.3517461 C205.054498,44.9965496 205.10049,44.6281976 205.10049,44.2565568 C205.10049,43.8914937 205.054498,43.5264306 204.959227,43.1646563 C204.863957,42.8028821 204.722694,42.4805741 204.522298,42.1977324 C204.325187,41.9181796 204.072228,41.6912485 203.76342,41.5136502 C203.454613,41.3360519 203.093243,41.2505417 202.676024,41.2505417 C202.258806,41.2505417 201.89415,41.3360519 201.585343,41.5136502 C201.276536,41.6912485 201.026862,41.9181796 200.829751,42.1977324 C200.629354,42.4805741 200.484806,42.8028821 200.392821,43.1646563 C200.294265,43.5264306 200.251558,43.8914937 200.251558,44.2565568 C200.251558,44.6281976 200.294265,44.9965496 200.392821,45.3517461 C200.484806,45.7102315 200.629354,46.0325395 200.829751,46.31867 C201.026862,46.6048006 201.276536,46.8350206 201.585343,47.0126188 C201.89415,47.1902171 202.258806,47.2757274 202.676024,47.2757274 M202.676024,48.7622907 C201.995991,48.7622907 201.384947,48.6504695 200.852747,48.4268273 C200.320547,48.1966073 199.870477,47.8907436 199.499251,47.4895031 C199.134595,47.0948402 198.852069,46.6212449 198.658244,46.0720058 C198.467703,45.5227667 198.369147,44.9143282 198.369147,44.2565568 C198.369147,43.6053631 198.467703,43.0067912 198.658244,42.4542633 C198.852069,41.9050242 199.134595,41.4314288 199.499251,41.036766 C199.870477,40.6388143 200.320547,40.3296617 200.852747,40.1027306 C201.384947,39.8757995 201.995991,39.7639784 202.676024,39.7639784 C203.356057,39.7639784 203.967102,39.8757995 204.499302,40.1027306 C205.031501,40.3296617 205.481572,40.6388143 205.852798,41.036766 C206.217453,41.4314288 206.499979,41.9050242 206.693805,42.4542633 C206.884346,43.0067912 206.982901,43.6053631 206.982901,44.2565568 C206.982901,44.9143282 206.884346,45.5227667 206.693805,46.0720058 C206.499979,46.6212449 206.217453,47.0948402 205.852798,47.4895031 C205.481572,47.8907436 205.031501,48.1966073 204.499302,48.4268273 C203.967102,48.6504695 203.356057,48.7622907 202.676024,48.7622907" id="Fill-215" fill="#FBB040"></path>
                    <polygon id="Fill-216" fill="#FBB040" points="211.896223 36.74119 213.775348 36.74119 213.775348 43.4471691 217.172229 39.9938695 219.481714 39.9938695 216.21624 43.1314389 219.793806 48.5317418 217.504033 48.5317418 214.898882 44.3877822 213.775348 45.4763938 213.775348 48.5317418 211.896223 48.5317418"></polygon>
                    <path d="M229.855669,43.5116307 C229.832673,43.2156336 229.77354,42.9295031 229.665129,42.6532391 C229.560003,42.3769751 229.41874,42.1401774 229.238055,41.9362683 C229.054084,41.7323592 228.833977,41.5646275 228.577733,41.4396509 C228.318203,41.3146744 228.029107,41.2521861 227.713729,41.2521861 C227.381925,41.2521861 227.082974,41.3080966 226.813589,41.4232066 C226.544203,41.5383166 226.31424,41.6994706 226.120415,41.9033797 C225.929874,42.104 225.77547,42.3473754 225.660489,42.6203505 C225.545507,42.8966145 225.479804,43.1926116 225.466663,43.5116307 L229.855669,43.5116307 Z M225.466663,44.7515298 C225.466663,45.0837043 225.515941,45.3994345 225.607926,45.7085871 C225.703196,46.0177396 225.841174,46.2874259 226.031715,46.5176459 C226.21897,46.7478658 226.452218,46.9320418 226.738029,47.0701738 C227.027126,47.2083058 227.3655,47.2773718 227.759722,47.2773718 C228.308347,47.2773718 228.751847,47.158973 229.090221,46.9221753 C229.42531,46.6853776 229.674984,46.330181 229.839243,45.8565856 L231.619813,45.8565856 C231.521258,46.3203145 231.350428,46.7314216 231.107325,47.0964847 C230.867506,47.4582589 230.575125,47.7641226 230.233466,48.0107869 C229.895092,48.2574511 229.51401,48.444916 229.090221,48.5731814 C228.666433,48.698158 228.222933,48.7639351 227.759722,48.7639351 C227.089544,48.7639351 226.498211,48.652114 225.979152,48.4317605 C225.460093,48.214696 225.023163,47.9055435 224.668363,47.5075918 C224.313563,47.112929 224.040893,46.6393336 223.863493,46.0868056 C223.676237,45.5375665 223.587537,44.9324169 223.587537,44.2713567 C223.587537,43.666207 223.682808,43.0906571 223.876634,42.5447068 C224.067174,42.0020454 224.34313,41.5251612 224.7045,41.1107652 C225.0593,40.6996581 225.492944,40.3707724 225.995578,40.127397 C226.501496,39.8840216 227.073118,39.7623339 227.713729,39.7623339 C228.380622,39.7623339 228.98181,39.9037548 229.51401,40.1833076 C230.05278,40.4661493 230.48971,40.8377901 230.84451,41.2982301 C231.196025,41.7619589 231.452269,42.2947537 231.613243,42.8933256 C231.770932,43.4918976 231.813639,44.1134915 231.734795,44.7515298 L225.466663,44.7515298 Z" id="Fill-217" fill="#FBB040"></path>
                    <path d="M236.471045,39.9945272 L238.24833,39.9945272 L238.24833,41.2508705 L238.284467,41.2837591 C238.570278,40.8101637 238.941504,40.4385229 239.404715,40.1688366 C239.864641,39.8991504 240.37713,39.7643072 240.935611,39.7643072 C241.875174,39.7643072 242.611055,40.0076827 243.149825,40.4878558 C243.688596,40.9746066 243.957981,41.7014439 243.957981,42.6683678 L243.957981,48.5323996 L242.078855,48.5323996 L242.078855,43.1649852 C242.052574,42.4940584 241.911311,42.0073076 241.648496,41.7047328 C241.385681,41.402158 240.971748,41.2508705 240.409981,41.2508705 C240.091319,41.2508705 239.808793,41.3067811 239.552548,41.4251799 C239.299589,41.5402899 239.086052,41.7014439 238.908652,41.9020642 C238.734537,42.1059733 238.593274,42.3460599 238.498004,42.6223238 C238.399449,42.895299 238.350171,43.1880072 238.350171,43.4938709 L238.350171,48.5323996 L236.471045,48.5323996 L236.471045,39.9945272 Z" id="Fill-218" fill="#FBB040"></path>
                    <path d="M250.651215,45.7917952 C250.710349,46.3410343 250.917315,46.7258305 251.278686,46.9461839 C251.643341,47.1665373 252.076986,47.2750696 252.582904,47.2750696 C252.760304,47.2750696 252.9607,47.2619142 253.184093,47.2323145 C253.41077,47.2092925 253.621022,47.1566708 253.821419,47.081027 C254.01853,47.0020945 254.179504,46.8869845 254.307626,46.7389859 C254.429178,46.5909874 254.488311,46.3969448 254.478455,46.1535694 C254.4686,45.910194 254.3799,45.7161515 254.215641,45.5615752 C254.051381,45.4069989 253.84113,45.2820224 253.5816,45.1866455 C253.318785,45.0945575 253.029689,45.015625 252.697885,44.946559 C252.366082,44.8840707 252.030993,44.8117158 251.689334,44.7360721 C251.337819,44.6571396 251.00273,44.5650516 250.677497,44.4532304 C250.352264,44.3446982 250.059882,44.1966996 249.803638,44.0059459 C249.544108,43.8184811 249.340427,43.5816834 249.186023,43.2889751 C249.03162,42.9962669 248.952775,42.6377815 248.952775,42.2069412 C248.952775,41.7465013 249.067757,41.3551273 249.291149,41.0459748 C249.514542,40.7302445 249.803638,40.4770025 250.151867,40.28296 C250.496812,40.0922063 250.881178,39.9573631 251.304967,39.8784306 C251.728756,39.8027869 252.132834,39.7633206 252.5172,39.7633206 C252.95413,39.7633206 253.377919,39.8126534 253.778711,39.9047414 C254.179504,39.9968294 254.544159,40.1481168 254.866107,40.3586037 C255.19134,40.5658017 255.460726,40.8387768 255.674263,41.177529 C255.891085,41.5097036 256.022492,41.914233 256.07834,42.3911172 L254.117085,42.3911172 C254.0251,41.937255 253.821419,41.6346801 253.49947,41.4801039 C253.174237,41.3288164 252.799726,41.2498839 252.382508,41.2498839 C252.2511,41.2498839 252.093411,41.2597505 251.916012,41.2827724 C251.735326,41.3057944 251.561212,41.3452607 251.403523,41.407749 C251.245834,41.4702373 251.107856,41.5557476 250.99616,41.6708576 C250.887749,41.7859675 250.835186,41.937255 250.835186,42.1247198 C250.835186,42.3549398 250.91403,42.5456935 251.075004,42.6871143 C251.235978,42.831824 251.43966,42.9502229 251.699189,43.0423109 C251.958719,43.1343988 252.2511,43.2166203 252.582904,43.2791085 C252.911422,43.3481745 253.253082,43.4172405 253.604596,43.4961731 C253.946256,43.5718168 254.281344,43.6671937 254.609863,43.7757259 C254.941666,43.8875471 255.237333,44.0355456 255.496863,44.2197216 C255.753107,44.4104753 255.960074,44.6439841 256.121048,44.9301147 C256.278736,45.2162452 256.360866,45.5714418 256.360866,45.9891266 C256.360866,46.4956105 256.245885,46.9264508 256.015922,47.2750696 C255.782674,47.6302661 255.483722,47.9163967 255.112496,48.1367501 C254.744555,48.3538146 254.333907,48.5149686 253.883837,48.6136343 C253.437052,48.7155889 252.990267,48.7616329 252.550052,48.7616329 C252.011282,48.7616329 251.511934,48.7024335 251.055293,48.5807458 C250.598653,48.4623469 250.20443,48.2748821 249.869342,48.0282178 C249.534253,47.7782647 249.271438,47.472401 249.077612,47.1007602 C248.887071,46.7356971 248.785231,46.2949903 248.77209,45.7917952 L250.651215,45.7917952 Z" id="Fill-219" fill="#FBB040"></path>
                </g>
                <g id="Group-2" transform="translate(188.715596, 25.265957)">
                    <path d="M366.116908,38.2301103 L7.95952743,38.2301103 C7.04953133,38.2301103 6.31693519,37.4934064 6.31693519,36.5856819 C6.31693519,35.6779574 7.04953133,34.9412535 7.95952743,34.9412535 L366.116908,34.9412535 C367.023619,34.9412535 367.7595,35.6779574 367.7595,36.5856819 C367.7595,37.4934064 367.023619,38.2301103 366.116908,38.2301103" id="Fill-175" fill="#D4D3D7"></path>
                    <path d="M15.7250465,36.5856819 C15.7250465,40.880929 12.2460361,44.3572506 7.95887039,44.3572506 C3.66841948,44.3572506 0.189409135,40.880929 0.189409135,36.5856819 C0.189409135,32.2904349 3.66841948,28.8108244 7.95887039,28.8108244 C12.2460361,28.8108244 15.7250465,32.2904349 15.7250465,36.5856819" id="Fill-177" fill="#D4D3D7"></path>
                    <path d="M359.841877,23.8801702 L359.841877,49.2898781 C359.841877,50.417956 361.514036,50.9836394 362.489736,50.1844472 L379.112769,36.5850242 L362.489736,22.9856012 C361.514036,22.1831201 359.841877,22.7488035 359.841877,23.8801702" id="Fill-179" fill="#F15A29"></path>
                    <path d="M199.80773,36.5856819 C199.80773,42.9233091 194.676272,48.0605034 188.345721,48.0605034 C182.011885,48.0605034 176.880427,42.9233091 176.880427,36.5856819 C176.880427,30.244766 182.011885,25.1075716 188.345721,25.1075716 C194.676272,25.1075716 199.80773,30.244766 199.80773,36.5856819" id="Fill-181" fill="#F15A29"></path>
                    <path d="M185.255348,32.5229571 C185.64957,32.5229571 186.033937,32.4867797 186.408448,32.4242914 C186.779674,32.3552254 187.114762,32.2466931 187.416999,32.0954057 C187.715951,31.9408294 187.975481,31.743498 188.189018,31.5001226 C188.402555,31.2600361 188.540533,30.9640389 188.609521,30.6154201 L190.133847,30.6154201 L190.133847,42.126419 L188.080607,42.126419 L188.080607,33.9996538 L185.255348,33.9996538 L185.255348,32.5229571 Z" id="Fill-183" fill="#FFFFFF"></path>
                    <polygon id="Fill-185" fill="#F15A29" points="84.1524821 0.450025243 86.2122928 0.450025243 86.2122928 5.8174396 91.4587324 0.450025243 93.99818 0.450025243 89.297081 5.15966823 94.3299836 12.240577 91.754399 12.240577 87.8943072 6.61005409 86.2122928 8.27750451 86.2122928 12.240577 84.1524821 12.240577"></polygon>
                    <polygon id="Fill-187" fill="#F15A29" points="101.816919 7.61874648 97.3950607 0.449038586 99.786675 0.449038586 102.90103 5.73423152 105.972677 0.449038586 108.278877 0.449038586 103.87673 7.61874648 103.87673 12.2395903 101.816919 12.2395903"></polygon>
                    <path d="M120.681105,4.19833538 C120.59569,3.85629427 120.477424,3.54714172 120.32302,3.25772232 C120.168616,2.97159178 119.96822,2.72492752 119.725117,2.51444068 C119.485298,2.3072427 119.199487,2.14279986 118.877539,2.02768987 C118.552306,1.91257988 118.174509,1.85338045 117.747435,1.85338045 C117.119965,1.85338045 116.581195,1.98164587 116.121269,2.23488785 C115.667914,2.48812982 115.293403,2.82688208 115.007592,3.25114461 C114.725066,3.67540714 114.511529,4.15558024 114.373551,4.69495276 C114.238858,5.23432528 114.16987,5.78356437 114.16987,6.34595889 C114.16987,6.90506455 114.238858,7.4575925 114.373551,7.99696502 C114.511529,8.53633754 114.725066,9.0197995 115.007592,9.44406203 C115.293403,9.86832456 115.667914,10.203788 116.121269,10.4570299 C116.581195,10.7102719 117.119965,10.8385373 117.747435,10.8385373 C118.210646,10.8385373 118.614724,10.7563159 118.969524,10.5951619 C119.321039,10.4372968 119.623276,10.2169434 119.87295,9.93739055 C120.129194,9.65454886 120.326305,9.33224089 120.470853,8.95402236 C120.612116,8.57909268 120.707387,8.17785215 120.750094,7.75030076 L122.760627,7.75030076 C122.714634,8.45411612 122.566801,9.09873206 122.307272,9.68085972 C122.047742,10.2662762 121.702798,10.7694713 121.259298,11.1937339 C120.822368,11.6179964 120.303309,11.9403044 119.711976,12.1738132 C119.114072,12.4040332 118.460321,12.5191432 117.747435,12.5191432 C116.870291,12.5191432 116.081847,12.3579892 115.382103,12.0356812 C114.682358,11.7100844 114.091025,11.2660887 113.608103,10.7069831 C113.121896,10.1445885 112.75067,9.48681717 112.494426,8.74024666 C112.238181,7.99038731 112.110059,7.19448395 112.110059,6.34595889 C112.110059,5.5073004 112.238181,4.71797476 112.494426,3.9681154 C112.75067,3.21825604 113.121896,2.56377353 113.608103,2.00466787 C114.091025,1.44227335 114.682358,0.994988821 115.382103,0.666103137 C116.081847,0.333928597 116.870291,0.169485755 117.747435,0.169485755 C118.407758,0.169485755 119.028657,0.261573747 119.610135,0.442460873 C120.194898,0.623347999 120.707387,0.889745402 121.154172,1.23836423 C121.597672,1.58369419 121.959042,2.00466787 122.234997,2.49799639 C122.510953,2.99461378 122.675212,3.56358601 122.744201,4.19833538 L120.681105,4.19833538 Z" id="Fill-189" fill="#F15A29"></path>
                    <path d="M127.822439,10.0117187 L130.118783,10.0117187 L130.118783,12.2415636 C130.105642,12.922357 129.895391,13.497907 129.491313,13.9583469 C129.08395,14.4220757 128.55175,14.7180728 127.891428,14.8496271 L127.891428,13.8432369 C128.252798,13.7544378 128.525469,13.5538175 128.709439,13.2380873 C128.886839,12.9256459 128.975539,12.5934713 128.965683,12.2415636 L127.822439,12.2415636 L127.822439,10.0117187 Z" id="Fill-191" fill="#F15A29"></path>
                    <path d="M146.131758,7.55132492 L149.729035,7.55132492 L147.964891,2.48319654 L147.912328,2.48319654 L146.131758,7.55132492 Z M146.857784,0.450683015 L149.052287,0.450683015 L153.585841,12.2412348 L151.378197,12.2412348 L150.274375,9.12010963 L145.569991,9.12010963 L144.466169,12.2412348 L142.33737,12.2412348 L146.857784,0.450683015 Z" id="Fill-193" fill="#F15A29"></path>
                    <polygon id="Fill-195" fill="#F15A29" points="157.972877 0.450025243 160.873695 0.450025243 164.126027 9.68184638 164.158879 9.68184638 167.325797 0.450025243 170.197048 0.450025243 170.197048 12.240577 168.232508 12.240577 168.232508 3.14031013 168.199656 3.14031013 164.934183 12.240577 163.235742 12.240577 159.966984 3.14031013 159.937417 3.14031013 159.937417 12.240577 157.972877 12.240577"></polygon>
                    <polygon id="Fill-197" fill="#F15A29" points="175.964518 0.450025243 178.030899 0.450025243 178.030899 10.4580166 184.016505 10.4580166 184.016505 12.240577 175.964518 12.240577"></polygon>
                    <path d="M200.343543,1.57415651 C199.995314,1.57415651 199.696362,1.69255536 199.453258,1.92935305 C199.210155,2.16615074 199.088603,2.481881 199.088603,2.87654382 C199.088603,3.07716408 199.128025,3.26134006 199.197014,3.42907176 C199.269288,3.60338118 199.357988,3.76782402 199.459829,3.928978 C199.564955,4.08684313 199.679936,4.24470826 199.808058,4.39599567 C199.93618,4.55057194 200.051162,4.6985705 200.159573,4.8432802 C200.340258,4.7215925 200.507802,4.5999048 200.675347,4.47163938 C200.839606,4.34666282 200.987439,4.20853083 201.115562,4.06053228 C201.250254,3.90924486 201.35538,3.74151316 201.430939,3.55733718 C201.506499,3.36987234 201.545921,3.1593855 201.545921,2.92916552 C201.545921,2.54436928 201.43751,2.21877245 201.220687,1.96224162 C200.997295,1.70242193 200.704914,1.57415651 200.343543,1.57415651 Z M199.584666,6.7935723 C199.410551,6.90210458 199.216725,7.01063686 199.006473,7.12245799 C198.799507,7.23427912 198.602395,7.36912225 198.42171,7.53356509 C198.241025,7.69800793 198.086622,7.8986282 197.958499,8.12884818 C197.830377,8.35906816 197.771244,8.65177642 197.771244,9.0036841 C197.771244,9.64172232 197.948644,10.1350508 198.306729,10.4738031 C198.664814,10.8158442 199.118169,10.9835759 199.666795,10.9835759 C200.005169,10.9835759 200.300836,10.9408208 200.540654,10.8454439 C200.783758,10.7533559 200.987439,10.6382459 201.161554,10.5066917 C201.329099,10.3751374 201.473647,10.2337166 201.588628,10.0791403 C201.70361,9.92456401 201.80545,9.78643202 201.89415,9.66474432 L199.584666,6.7935723 Z M202.899417,10.9210876 C202.462487,11.4604602 201.972995,11.8518341 201.440795,12.0984984 C200.90531,12.3451626 200.294265,12.4701392 199.601092,12.4701392 C199.062321,12.4701392 198.562973,12.3912066 198.106333,12.2300527 C197.652977,12.0721875 197.26204,11.8452564 196.930237,11.5459704 C196.598433,11.2499733 196.342189,10.8849102 196.164789,10.4474922 C195.984103,10.0133631 195.892118,9.52332348 195.892118,8.97079553 C195.892118,8.55311071 195.967678,8.17489217 196.122081,7.82956221 C196.276485,7.49080995 196.476881,7.17836855 196.72984,6.89881572 C196.986085,6.61926289 197.271896,6.36930977 197.597129,6.14895636 C197.922362,5.92860296 198.254166,5.73127155 198.595825,5.55367328 C198.441421,5.35305301 198.293588,5.15901046 198.152325,4.9649679 C198.004492,4.77750307 197.88294,4.57359394 197.771244,4.36639596 C197.662833,4.15590912 197.574133,3.93555572 197.508429,3.70204688 C197.43944,3.4718269 197.406588,3.23174035 197.406588,2.97849838 C197.406588,2.54765813 197.482148,2.16286188 197.633266,1.82082077 C197.781099,1.48206852 197.984781,1.1860714 198.247596,0.93940714 C198.51041,0.689454021 198.819218,0.501989181 199.174018,0.370434908 C199.525532,0.238880635 199.896758,0.169814641 200.294265,0.169814641 C200.668776,0.169814641 201.033432,0.229014064 201.391517,0.344124053 C201.749602,0.459234043 202.05841,0.636832312 202.327795,0.873630004 C202.600465,1.10713884 202.817287,1.40313595 202.984832,1.75833249 C203.149091,2.10695132 203.227935,2.52134728 203.227935,2.99494266 C203.227935,3.34685034 203.168802,3.67244717 203.05382,3.96844428 C202.938839,4.2644414 202.784435,4.53741652 202.59718,4.78736964 C202.403354,5.0340339 202.176676,5.25438731 201.917147,5.45500757 C201.660902,5.65233898 201.384947,5.82993725 201.102421,5.98451352 L202.932269,8.19462532 C202.997972,8.00716048 203.066961,7.79338478 203.132665,7.55000938 C203.195083,7.30992283 203.254217,6.99419257 203.296924,6.60939632 L204.946087,6.60939632 C204.890239,7.12574684 204.788398,7.63551965 204.640565,8.12884818 C204.492731,8.62546556 204.285765,9.0793278 204.02295,9.50030148 L206.283157,12.2399192 L203.970387,12.2399192 L202.899417,10.9210876 Z" id="Fill-199" fill="#F15A29"></path>
                    <path d="M220.545457,10.557669 L224.188726,10.557669 C224.819482,10.557669 225.305689,10.3932261 225.653918,10.0709181 C225.998863,9.74532131 226.172978,9.28488136 226.172978,8.69288713 C226.172978,8.10747061 225.998863,7.65689722 225.653918,7.34445582 C225.305689,7.03201442 224.819482,6.8741493 224.188726,6.8741493 L220.545457,6.8741493 L220.545457,10.557669 Z M220.545457,5.39087486 L223.909485,5.39087486 C224.408833,5.39087486 224.819482,5.24945402 225.144715,4.96661233 C225.479804,4.6870595 225.644063,4.28253011 225.644063,3.75631302 C225.644063,3.16102993 225.492944,2.74005626 225.197278,2.49996971 C224.901611,2.25988316 224.471252,2.1349066 223.909485,2.1349066 L220.545457,2.1349066 L220.545457,5.39087486 Z M218.485646,0.4510119 L224.208437,0.4510119 C225.262981,0.4510119 226.107274,0.694387306 226.75117,1.17784926 C227.385211,1.66131122 227.707159,2.39472629 227.707159,3.37151677 C227.707159,3.96679986 227.559325,4.47657266 227.266944,4.9008352 C226.974563,5.32509773 226.560629,5.65398341 226.021859,5.88420339 L226.021859,5.91709196 C226.75117,6.07166823 227.296511,6.41370934 227.671022,6.94650415 C228.045533,7.48258781 228.232788,8.15351461 228.232788,8.95599567 C228.232788,9.41643563 228.147373,9.84727587 227.986399,10.2518053 C227.82214,10.6530458 227.562611,11.0016646 227.207811,11.291084 C226.859581,11.5837923 226.406226,11.8140123 225.8576,11.9850328 C225.305689,12.1527645 224.651937,12.2415636 223.896345,12.2415636 L218.485646,12.2415636 L218.485646,0.4510119 Z" id="Fill-201" fill="#F15A29"></path>
                    <path d="M233.180933,12.2425503 L235.060059,12.2425503 L235.060059,3.70467797 L233.180933,3.70467797 L233.180933,12.2425503 Z M233.180933,2.23455896 L235.060059,2.23455896 L235.060059,0.448709701 L233.180933,0.448709701 L233.180933,2.23455896 Z" id="Fill-203" fill="#F15A29"></path>
                    <path d="M239.544335,3.70369131 L240.963535,3.70369131 L240.963535,1.14496069 L242.845946,1.14496069 L242.845946,3.70369131 L244.541101,3.70369131 L244.541101,5.10803318 L242.845946,5.10803318 L242.845946,9.66309989 C242.845946,9.86372016 242.855801,10.0347407 242.868942,10.1761616 C242.888653,10.3208713 242.92479,10.442559 242.983923,10.5379358 C243.046342,10.6366015 243.138327,10.7122452 243.259879,10.7615781 C243.378146,10.8109109 243.542405,10.8372218 243.752657,10.8372218 C243.880779,10.8372218 244.015471,10.8339329 244.146879,10.8273552 C244.278286,10.8240664 244.409694,10.8043332 244.541101,10.7681558 L244.541101,12.2251194 C244.334134,12.2481414 244.130453,12.2678745 243.933342,12.2876076 C243.732946,12.3106296 243.532549,12.3237851 243.322297,12.3237851 C242.82952,12.3237851 242.432012,12.2744522 242.12649,12.1823642 C241.824253,12.0902762 241.58772,11.9521442 241.41689,11.7679683 C241.249346,11.5870811 241.131079,11.36015 241.071946,11.083886 C241.012813,10.8109109 240.976676,10.4951807 240.963535,10.143273 L240.963535,5.10803318 L239.544335,5.10803318 L239.544335,3.70369131 Z" id="Fill-205" fill="#F15A29"></path>
                    <path d="M254.950208,6.56203678 C254.874649,6.03253083 254.661112,5.63457916 254.316167,5.3648929 C253.967938,5.09520664 253.531008,4.96036351 253.005379,4.96036351 C252.762275,4.96036351 252.506031,4.99982979 252.230075,5.08205121 C251.95412,5.16427263 251.704446,5.3188489 251.471198,5.54249116 C251.241235,5.77271114 251.050694,6.08186369 250.89629,6.48639308 C250.741887,6.89092247 250.663042,7.4138507 250.663042,8.0617555 C250.663042,8.41366318 250.702464,8.76885972 250.784594,9.11747854 C250.870009,9.47267508 251.001416,9.78511648 251.185386,10.0580916 C251.362786,10.3343556 251.596035,10.5612867 251.881846,10.7323072 C252.167657,10.9000389 252.515886,10.9855492 252.923249,10.9855492 C253.471875,10.9855492 253.92523,10.8145287 254.283315,10.4724876 C254.638115,10.1337353 254.861508,9.65356221 254.950208,9.03854598 L256.829333,9.03854598 C256.658504,10.1501796 256.234715,11.0019935 255.567823,11.58741 C254.904215,12.1761154 254.020501,12.4721125 252.923249,12.4721125 C252.249786,12.4721125 251.658453,12.3602914 251.149249,12.1333603 C250.640046,11.9064291 250.206402,11.5972766 249.854887,11.2091915 C249.503372,10.8178175 249.237272,10.3507999 249.053302,9.81142734 C248.872617,9.27205481 248.783917,8.68992715 248.783917,8.0617555 C248.783917,7.42700613 248.869331,6.82514533 249.046731,6.26275081 C249.220846,5.70035629 249.483661,5.21689434 249.835176,4.80249838 C250.189976,4.39139127 250.626905,4.06250559 251.149249,3.82899675 C251.671594,3.59219906 252.282638,3.47380022 252.985668,3.47380022 C253.48173,3.47380022 253.951512,3.5362885 254.398297,3.66126506 C254.841797,3.78953047 255.239304,3.98028417 255.584248,4.23352614 C255.932478,4.48676812 256.215004,4.80578723 256.435111,5.19058348 C256.658504,5.57537973 256.786626,6.03253083 256.829333,6.56203678 L254.950208,6.56203678 Z" id="Fill-206" fill="#F15A29"></path>
                    <path d="M265.572523,10.9848915 C265.989742,10.9848915 266.351112,10.8993812 266.659919,10.7217829 C266.968727,10.5441846 267.221686,10.3139647 267.418797,10.0278341 C267.615908,9.74170357 267.763741,9.4193956 267.855727,9.06091021 C267.950997,8.70571367 267.993704,8.3373617 267.993704,7.96572088 C267.993704,7.60065777 267.950997,7.23559466 267.855727,6.87382041 C267.763741,6.51204616 267.615908,6.18973819 267.418797,5.9068965 C267.221686,5.62734367 266.968727,5.40041255 266.659919,5.22281428 C266.351112,5.04521601 265.989742,4.95970573 265.572523,4.95970573 C265.15202,4.95970573 264.793935,5.04521601 264.485127,5.22281428 C264.17632,5.40041255 263.923361,5.62734367 263.72625,5.9068965 C263.529139,6.18973819 263.381305,6.51204616 263.28932,6.87382041 C263.19405,7.23559466 263.148057,7.60065777 263.148057,7.96572088 C263.148057,8.3373617 263.19405,8.70571367 263.28932,9.06091021 C263.381305,9.4193956 263.529139,9.74170357 263.72625,10.0278341 C263.923361,10.3139647 264.17632,10.5441846 264.485127,10.7217829 C264.793935,10.8993812 265.15202,10.9848915 265.572523,10.9848915 M265.572523,12.4714547 C264.889205,12.4714547 264.281446,12.3596336 263.749246,12.1359913 C263.213761,11.9057714 262.766976,11.5999077 262.39575,11.1986671 C262.027809,10.8040043 261.748569,10.3304089 261.554743,9.78116985 C261.364202,9.23193076 261.265646,8.62349225 261.265646,7.96572088 C261.265646,7.31452723 261.364202,6.71595528 261.554743,6.16342734 C261.748569,5.61418824 262.027809,5.14059286 262.39575,4.74593004 C262.766976,4.34797836 263.213761,4.03882582 263.749246,3.8118947 C264.281446,3.58496358 264.889205,3.47314245 265.572523,3.47314245 C266.255842,3.47314245 266.860316,3.58496358 267.395801,3.8118947 C267.928001,4.03882582 268.378071,4.34797836 268.746012,4.74593004 C269.113952,5.14059286 269.393193,5.61418824 269.587019,6.16342734 C269.777559,6.71595528 269.876115,7.31452723 269.876115,7.96572088 C269.876115,8.62349225 269.777559,9.23193076 269.587019,9.78116985 C269.393193,10.3304089 269.113952,10.8040043 268.746012,11.1986671 C268.378071,11.5999077 267.928001,11.9057714 267.395801,12.1359913 C266.860316,12.3596336 266.255842,12.4714547 265.572523,12.4714547" id="Fill-207" fill="#F15A29"></path>
                    <path d="M274.791079,12.2425503 L276.670205,12.2425503 L276.670205,3.70467797 L274.791079,3.70467797 L274.791079,12.2425503 Z M274.791079,2.23455896 L276.670205,2.23455896 L276.670205,0.448709701 L274.791079,0.448709701 L274.791079,2.23455896 Z" id="Fill-208" fill="#F15A29"></path>
                    <path d="M282.014215,3.70369131 L283.794785,3.70369131 L283.794785,4.96003462 L283.830922,4.99292319 C284.113447,4.5193278 284.487958,4.14768698 284.951169,3.87800072 C285.411095,3.60831446 285.920299,3.47347133 286.482065,3.47347133 C287.418343,3.47347133 288.154224,3.71684674 288.692995,4.19701983 C289.231765,4.68377065 289.50115,5.41060801 289.50115,6.37753191 L289.50115,12.2415636 L287.622024,12.2415636 L287.622024,6.8741493 C287.599028,6.2032225 287.45448,5.71647169 287.191665,5.41389686 C286.92885,5.11132203 286.518202,4.96003462 285.953151,4.96003462 C285.637773,4.96003462 285.351962,5.01594519 285.099003,5.13434403 C284.842758,5.24945402 284.632507,5.41060801 284.455107,5.61122827 C284.277707,5.8151374 284.139729,6.05522395 284.041173,6.33148792 C283.945903,6.60446304 283.89334,6.89717129 283.89334,7.20303498 L283.89334,12.2415636 L282.014215,12.2415636 L282.014215,3.70369131 Z" id="Fill-209" fill="#F15A29"></path>
                </g>
                <g id="Merchant" transform="translate(606.513761, 0.000000)">
                    <g id="Group">
                        <polygon id="Fill-57" fill="#393332" points="163.240429 159.147955 155.948402 112.91159 82.0815834 87.3685152 8.21146672 112.91159 0.916141323 159.147955"></polygon>
                        <polygon id="Fill-59" fill="#E6C8B7" points="61.8472795 94.4385028 74.7460216 108.74685 82.2029523 119.948563 93.0832771 110.070719 102.532241 94.3229532 104.425331 70.328244 59.3605366 71.8832121 61.6395012 94.6663007"></polygon>
                        <path d="M61.8472795,78.5712255 C69.4625174,89.1489702 70.3958705,90.0832716 73.8126685,94.2826759 C77.2327646,98.4820801 79.4061911,98.3269135 82.5162687,98.0165801 C85.6230484,97.7029454 87.1764382,98.3269135 92.4599424,91.017573 C97.7434466,83.7049312 102.561923,76.7059241 102.561923,76.7059241 L61.8472795,78.5712255 Z" id="Fill-61" fill="#231F20" opacity="0.2"></path>
                        <path d="M54.2366588,50.0047121 C50.8990145,50.9126021 50.8594377,50.9522191 49.7479889,51.7775738 C48.6332421,52.6029284 48.6728189,53.1806766 48.7585687,54.7059319 C48.8377223,56.2344887 49.2499807,60.4404957 49.4973358,62.091205 C49.7479889,63.7419142 49.6622392,64.8115738 52.3435681,66.0496057 C55.0183008,67.2876376 55.7207892,67.6177794 58.1118882,68.0700738 C60.4996891,68.5256695 58.1118882,49.6745702 58.1118882,49.6745702 L54.2366588,50.0047121 Z" id="Fill-63" fill="#E6C8B7"></path>
                        <path d="M107.611265,50.0047121 C110.948909,50.9126021 110.988486,50.9522191 112.099935,51.7775738 C113.214681,52.6029284 113.175105,53.1806766 113.092653,54.7059319 C113.010201,56.2344887 112.597943,60.4404957 112.350588,62.091205 C112.099935,63.7419142 112.185684,64.8115738 109.504355,66.0496057 C106.829623,67.2876376 106.127134,67.6177794 103.736035,68.0700738 C101.348234,68.5256695 103.736035,49.6745702 103.736035,49.6745702 L107.611265,50.0047121 Z" id="Fill-65" fill="#E6C8B7"></path>
                        <path d="M106.136039,26.149983 L98.3657919,16.192905 L85.3384251,12.0463234 L85.1669256,10.544178 L81.4631958,11.2770929 L77.7594659,10.544178 L77.5846684,12.0463234 L56.4077767,23.6607135 L54.0958313,48.6458482 L57.1828226,70.8941071 C58.0040414,74.8062879 56.9783424,74.5982986 61.9155495,79.1311461 C66.8527566,83.6606922 69.9397478,86.1334546 69.9397478,86.1334546 C73.2312192,89.0155929 73.4389975,89.2235823 80.2297185,89.2235823 C80.645275,89.2235823 81.0575335,89.1443482 81.4631958,89.0023872 C81.8688581,89.1443482 82.2778185,89.2235823 82.696673,89.2235823 C89.4873941,89.2235823 89.6951724,89.0155929 92.9866438,86.1334546 C92.9866438,86.1334546 96.0703369,83.6606922 101.007544,79.1311461 C105.944751,74.5982986 104.919052,74.8062879 105.743569,70.8941071 L108.827262,48.6458482 L106.136039,26.149983 Z" id="Fill-67" fill="#EAC7B3"></path>
                        <polygon id="Fill-69" fill="#231F20" opacity="0.05" points="81.38767 48.3602755 85.8235709 65.1810025 81.38767 65.1810025"></polygon>
                        <polygon id="Fill-71" fill="#231F20" opacity="0.1" points="81.3619451 66.9178787 85.8242305 65.1813326 76.9491307 65.1813326"></polygon>
                        <polygon id="Fill-73" fill="#231F20" opacity="0.1" points="81.38767 73.8594411 83.3203376 72.7765759 91.6281697 74.5890546 81.38767 74.5890546"></polygon>
                        <polygon id="Fill-75" fill="#231F20" opacity="0.1" points="81.3748076 73.8594411 79.4388419 72.7765759 71.1310098 74.5890546 81.3748076 74.5890546"></polygon>
                        <polygon id="Fill-77" fill="#231F20" opacity="0.1" points="71.1296906 74.5897149 74.2001915 76.1149702 81.3734883 76.7059241 81.3734883 74.5897149"></polygon>
                        <polygon id="Fill-79" fill="#231F20" opacity="0.1" points="91.6298188 74.5897149 88.562616 76.1149702 81.3893191 76.7059241 81.3893191 74.5897149"></polygon>
                        <g id="Group-100" transform="translate(62.993949, 45.640897)">
                            <g id="Group-99">
                                <mask id="mask-2" fill="white">
                                    <use xlink:href="#path-1"></use>
                                </mask>
                                <g id="Clip-98"></g>
                                <path d="M-0.695823541,2.19247199 C-0.695823541,5.89666348 2.30211985,8.90095426 6.00255163,8.90095426 C9.70628148,8.90095426 12.7042249,5.89666348 12.7042249,2.19247199 C12.7042249,-1.5117195 9.70628148,-4.51601028 6.00255163,-4.51601028 C2.30211985,-4.51601028 -0.695823541,-1.5117195 -0.695823541,2.19247199" id="Fill-82" fill="#E0C1AA" mask="url(#mask-2)"></path>
                                <path d="M0.83414999,2.19247199 C0.83414999,5.05150035 3.1493934,7.3690961 6.00222182,7.3690961 C8.86164638,7.3690961 11.1768898,5.05150035 11.1768898,2.19247199 C11.1768898,-0.666556383 8.86164638,-2.98415213 6.00222182,-2.98415213 C3.1493934,-2.98415213 0.83414999,-0.666556383 0.83414999,2.19247199" id="Fill-85" fill="#FFFFFF" mask="url(#mask-2)"></path>
                                <path d="M3.39806769,2.19247199 C3.39806769,3.63519184 4.5655836,4.80059255 6.00354105,4.80059255 C7.44479656,4.80059255 8.61231247,3.63519184 8.61231247,2.19247199 C8.61231247,0.749752128 7.44479656,-0.41895 6.00354105,-0.41895 C4.5655836,-0.41895 3.39806769,0.749752128 3.39806769,2.19247199" id="Fill-88" fill="#5F3917" mask="url(#mask-2)"></path>
                                <path d="M4.84723857,2.19247199 C4.84723857,2.83294716 5.36503517,3.35126986 6.00486028,3.35126986 C6.64468538,3.35126986 7.16248198,2.83294716 7.16248198,2.19247199 C7.16248198,1.55199681 6.64468538,1.03367411 6.00486028,1.03367411 C5.36503517,1.03367411 4.84723857,1.55199681 4.84723857,2.19247199" id="Fill-91" fill="#231F20" mask="url(#mask-2)"></path>
                                <polygon id="Fill-94" fill="#FFFFFF" opacity="0.25" mask="url(#mask-2)" points="3.86507406 0.423902128 6.00222182 2.19016099 3.6474016 3.52063262 3.20216248 2.02509007"></polygon>
                                <polygon id="Fill-97" fill="#231F20" opacity="0.25" mask="url(#mask-2)" points="12.3193404 3.81875071 8.50347624 1.24694574 3.2760392 1.28986418 -0.2397008 3.51171879 -0.46726746 -0.0141960993 5.37690822 -0.981511702 13.1735399 -0.819742199"></polygon>
                            </g>
                        </g>
                        <g id="Group-119" transform="translate(87.360141, 45.640897)">
                            <g id="Group-118">
                                <mask id="mask-4" fill="white">
                                    <use xlink:href="#path-3"></use>
                                </mask>
                                <g id="Clip-117"></g>
                                <path d="M13.0880512,2.19247199 C13.0880512,5.89666348 10.0901078,8.90095426 6.38967605,8.90095426 C2.68924427,8.90095426 -0.311997189,5.89666348 -0.311997189,2.19247199 C-0.311997189,-1.5117195 2.68924427,-4.51601028 6.38967605,-4.51601028 C10.0901078,-4.51601028 13.0880512,-1.5117195 13.0880512,2.19247199" id="Fill-101" fill="#E0C1AA" mask="url(#mask-4)"></path>
                                <path d="M11.5613758,2.19247199 C11.5613758,5.05150035 9.24613234,7.3690961 6.39000586,7.3690961 C3.5305813,7.3690961 1.21533789,5.05150035 1.21533789,2.19247199 C1.21533789,-0.666556383 3.5305813,-2.98415213 6.39000586,-2.98415213 C9.24613234,-2.98415213 11.5613758,-0.666556383 11.5613758,2.19247199" id="Fill-104" fill="#FFFFFF" mask="url(#mask-4)"></path>
                                <path d="M8.99448979,2.19247199 C8.99448979,3.63519184 7.82697388,4.80059255 6.38901644,4.80059255 C4.94776092,4.80059255 3.78354308,3.63519184 3.78354308,2.19247199 C3.78354308,0.749752128 4.94776092,-0.41895 6.38901644,-0.41895 C7.82697388,-0.41895 8.99448979,0.749752128 8.99448979,2.19247199" id="Fill-107" fill="#5F3917" mask="url(#mask-4)"></path>
                                <path d="M7.54531891,2.19247199 C7.54531891,2.83294716 7.02752231,3.35126986 6.38769721,3.35126986 C5.74787211,3.35126986 5.23337357,2.83294716 5.23337357,2.19247199 C5.23337357,1.55199681 5.74787211,1.03367411 6.38769721,1.03367411 C7.02752231,1.03367411 7.54531891,1.55199681 7.54531891,2.19247199" id="Fill-110" fill="#231F20" mask="url(#mask-4)"></path>
                                <polygon id="Fill-113" fill="#FFFFFF" opacity="0.25" mask="url(#mask-4)" points="4.25021964 3.95575957 6.3873674 2.18950071 4.03254718 0.859029078 3.58400999 2.35457163"></polygon>
                                <polygon id="Fill-116" fill="#231F20" opacity="0.25" mask="url(#mask-4)" points="0.0728872926 3.81875071 3.88875143 1.24694574 9.11618848 1.28986418 12.6352265 3.51171879 12.8627932 -0.0141960993 7.01861753 -0.981511702 -0.778014132 -0.819742199"></polygon>
                            </g>
                        </g>
                        <path d="M81.38767,89.0139422 C81.4107565,89.0073394 81.4371411,89.0106408 81.4602275,89.0007365 C81.8691879,89.1459989 82.2781483,89.2219316 82.6937048,89.2219316 C89.4877239,89.2219316 89.6955022,89.0172436 92.9869736,86.1351053 C92.9869736,86.1351053 96.0706667,83.6623429 101.007874,79.1294954 C105.948379,74.5999493 104.919382,74.8046372 105.743899,70.8924564 L108.827592,48.6474989 L106.136369,26.1483323 L98.9333893,16.9208677 L81.38767,16.9208677 L81.38767,89.0139422 Z" id="Fill-120" fill-opacity="0.07" fill="#231F20"></path>
                        <path d="M54.1337591,48.7019723 L53.2234925,25.3972596 L63.2331275,8.61945106 L63.2331275,10.8974298 L68.7672848,5.5821461 L68.7672848,7.40452908 L72.9393402,3.38340142 L72.9393402,6.8003695 L75.7459957,2.3962773 L78.1733734,3.83899716 L79.0968323,1.33322057 L81.5835752,5.28171702 L80.8283178,0.27016383 L89.2449861,7.17673121 L88.5622862,3.83899716 L97.6616545,10.7455645 L97.6616545,8.61945106 L109.643534,26.9918447 L108.673902,47.7907809 C108.673902,47.7907809 105.854054,45.4368695 105.92991,43.0829582 C106.005765,40.7290468 106.005765,35.113334 105.550632,32.6834901 C105.095499,30.2569475 104.788778,28.3586319 101.609441,23.498944 C98.4235081,18.6425574 97.6616545,17.123905 94.7791435,17.5035681 C91.8999305,17.8832312 84.9970752,18.7151887 83.331551,19.1740858 C81.6627289,19.6263801 80.1456178,19.0981532 78.3250845,18.6425574 C76.5045512,18.1836603 70.2118384,17.5795007 68.6188718,17.424334 C67.0259051,17.2724688 66.4190607,17.9558624 64.7502385,19.854178 C63.0814164,21.7524936 57.7748257,28.4345645 57.2405387,30.4055113 C56.7128479,32.3797596 56.2577146,41.0360787 56.030148,43.918217 C55.8025813,46.8036567 54.1337591,48.7019723 54.1337591,48.7019723" id="Fill-122" fill="#5F3A16"></path>
                        <path d="M106.989579,28.9644422 L98.7246217,18.0334457 L91.0665088,8.01364078 L91.5216422,13.0218926 L87.1220201,6.72278617 L89.3218311,15.9073323 L82.8741091,4.97633582 L82.8741091,13.0978252 L79.6914739,4.21700957 L78.474487,14.540545 L75.1401407,9.60822589 L70.8163742,15.0720734 L70.8163742,8.92483227 L56.3345596,29.1163074 L56.3345596,39.4893642 C56.5753185,35.9436408 56.891933,31.7145238 57.2415282,30.4071621 C57.772517,28.4329138 63.0824058,21.7541443 64.7479299,19.8558287 C66.4167521,17.9575131 67.0268946,17.2741195 68.6165631,17.4259848 C70.2128278,17.57785 76.5055407,18.185311 78.3260739,18.6409067 C80.1433092,19.0965025 81.6604202,19.6280309 83.3292424,19.1724351 C84.9980646,18.7168394 91.9009199,17.8815805 94.7801329,17.5019174 C97.6626439,17.1222543 98.4211995,18.6409067 101.607133,23.5005947 C104.789768,28.3569812 105.096488,30.2552968 105.548323,32.6851408 C105.891322,34.5141266 105.977072,38.1489883 105.96388,40.8396443 L106.989579,28.9644422 Z" id="Fill-124" fill="#593518"></path>
                        <path d="M99.1052187,17.6544429 L90.9886744,11.7349996 L90.9886744,15.4523968 L89.0164301,13.0984855 L87.9544523,14.9968011 L85.6820838,13.4781486 L82.5720061,17.7303755 L82.8754283,14.6171379 L79.099141,18.3378365 L78.6275173,16.6673188 L77.0873198,18.4071663 C77.5952222,18.4864004 78.023971,18.5656344 78.3240951,18.641567 C80.1446284,19.0971628 81.6617394,19.6286911 83.3305616,19.1730954 C84.9993838,18.7174996 91.8989411,17.8822408 94.7781541,17.5025777 C97.6639631,17.1229145 98.4225187,18.641567 101.608452,23.501255 C104.791087,28.3576415 105.094509,30.2559571 105.549643,32.6858011 C106.004776,35.115645 106.004776,40.7313578 105.92892,43.0852691 C105.853065,45.4391805 108.672913,47.7897904 108.672913,47.7897904 L109.642544,26.9908543 L104.537136,19.1631911 L98.4225187,14.7690032 L99.1052187,17.6544429 Z" id="Fill-126" fill="#4B2E15"></path>
                        <path d="M86.0448712,42.5666163 C87.3014349,41.6290135 88.7525847,40.8399745 89.4649672,40.3645702 C90.1806479,39.8858645 91.1337894,40.008017 92.1133155,40.0641411 C93.0961396,40.1235667 97.7958858,40.6616979 98.3598554,40.7805489 C98.927123,40.8994 98.9864882,41.0479638 99.46141,41.5530809 C99.9396297,42.0614993 102.673728,45.5444957 102.673728,45.5444957 C98.7754119,43.6990028 97.8849337,43.045322 97.8849337,43.045322 C97.8849337,43.045322 97.3506467,42.8076199 96.0413139,42.7746057 C94.7319811,42.7448929 92.2947092,42.5963291 91.4602981,42.6557546 C90.6291851,42.7151801 89.1978238,42.982595 88.3073455,43.550439 C87.4135692,44.1149816 86.4934084,44.4154106 86.1932842,43.936705 C85.8964582,43.4613007 85.3621712,43.0783362 86.0448712,42.5666163" id="Fill-128" fill="#5F3917"></path>
                        <path d="M77.2716817,42.5666163 C76.0184161,41.6290135 74.5672664,40.8399745 73.8515857,40.3645702 C73.1359051,39.8858645 72.1860616,40.008017 71.2032375,40.0641411 C70.2204134,40.1235667 65.5206671,40.6616979 64.9566976,40.7805489 C64.392728,40.8994 64.3300647,41.0479638 63.855143,41.5530809 C63.3802213,42.0614993 60.6428252,45.5444957 60.6428252,45.5444957 C64.5411411,43.6990028 65.4316193,43.045322 65.4316193,43.045322 C65.4316193,43.045322 65.9659062,42.8076199 67.2785371,42.7746057 C68.5845719,42.7448929 71.0251418,42.5963291 71.8562549,42.6557546 C72.6906659,42.7151801 74.1187292,42.982595 75.0092074,43.550439 C75.9029837,44.1149816 76.8264426,44.4154106 77.1232687,43.936705 C77.4200948,43.4613007 77.9576798,43.0783362 77.2716817,42.5666163" id="Fill-130" fill="#5F3917"></path>
                        <polygon id="Fill-132" fill="#C6EAFA" points="97.4208956 159.147955 102.5329 94.3246039 93.0839368 110.069068 82.2036119 119.946912 74.7466812 108.748501 61.8479391 94.4368521 61.6368628 94.66465 68.0812867 159.147955"></polygon>
                        <polygon id="Fill-134" fill="#2AACE2" points="73.8284992 159.147955 90.8828065 159.147955 85.3090723 129.90399 91.8392461 117.61281 81.1172285 110.458636 72.4136283 118.236778 79.0988112 130.214324"></polygon>
                        <polygon id="Fill-136" fill="#000000" opacity="0.25" points="63.0906509 95.6811567 82.3612596 111.706242 67.9091276 127.104057"></polygon>
                        <polygon id="Fill-138" fill="#FFFFFF" points="61.8472795 94.4385028 81.1178881 110.460287 66.6657562 125.861404"></polygon>
                        <polygon id="Fill-140" fill="#000000" opacity="0.25" points="103.388749 97.8076004 82.9836049 110.461937 98.2107827 125.704586"></polygon>
                        <polygon id="Fill-142" fill="#FFFFFF" points="102.561264 94.4385028 81.1172285 110.460287 96.3444063 125.702935"></polygon>
                        <polygon id="Fill-144" fill="#494342" points="42.1459432 159.147955 68.0324753 159.147955 61.9145601 94.1661358 35.5794908 115.793728 51.8356657 123.413402 32.0802411 139.890781"></polygon>
                        <polygon id="Fill-146" fill="#494342" points="122.011287 159.147955 132.080287 139.890781 112.324863 123.413402 128.581038 115.793728 102.245968 94.1661358 96.124755 159.147955"></polygon>
                    </g>
                    <polygon id="Fill-148" fill="#8E9091" points="10.0478307 176.596612 12.9600244 176.596612 16.2251112 185.860392 16.2580919 185.860392 19.437429 176.596612 22.31994 176.596612 22.31994 188.428895 20.3476956 188.428895 20.3476956 179.297172 20.314715 179.297172 17.0364358 188.428895 15.3313349 188.428895 12.0497577 179.297172 12.0200751 179.297172 12.0200751 188.428895 10.0478307 188.428895"></polygon>
                    <polygon id="Fill-150" fill="#8E9091" points="31.4206276 176.596612 39.9329399 176.596612 39.9329399 178.38598 33.4951121 178.38598 33.4951121 181.486012 39.4547201 181.486012 39.4547201 183.176339 33.4951121 183.176339 33.4951121 186.639527 40.0483723 186.639527 40.0483723 188.428895 31.4206276 188.428895"></polygon>
                    <path d="M50.5457915,181.982546 L53.9395029,181.982546 C54.6024145,181.982546 55.1070189,181.827379 55.4467198,181.510443 C55.7897188,181.196808 55.9645164,180.724705 55.9645164,180.094134 C55.9645164,179.717773 55.9051512,179.410741 55.796315,179.173039 C55.6874787,178.935337 55.5324696,178.750457 55.3378836,178.6184 C55.1465957,178.486344 54.9256251,178.397205 54.6782701,178.354287 C54.430915,178.308067 54.1736657,178.288259 53.9098203,178.288259 L50.5457915,178.288259 L50.5457915,181.982546 Z M48.4779031,176.597932 L54.1208967,176.597932 C55.4236333,176.597932 56.3998613,176.878553 57.0528787,177.443095 C57.7058961,178.004337 58.0324048,178.790074 58.0324048,179.793705 C58.0324048,180.358248 57.946655,180.823748 57.7817516,181.196808 C57.6201463,181.566567 57.4255603,181.863695 57.2045898,182.091493 C56.9803212,182.31929 56.7626488,182.48106 56.5482744,182.580102 C56.3339,182.679145 56.1755927,182.745173 56.0799488,182.778188 L56.0799488,182.811202 C56.2514483,182.834312 56.4460343,182.890436 56.6472164,182.976273 C56.8516966,183.065411 57.0429845,183.207372 57.2177821,183.398854 C57.3958777,183.593638 57.5409927,183.844546 57.6564251,184.154879 C57.7718574,184.461911 57.8312226,184.851478 57.8312226,185.313677 C57.8312226,186.010276 57.8839917,186.644149 57.9895299,187.211993 C58.095068,187.779837 58.2566734,188.185911 58.4776439,188.430216 L56.2580444,188.430216 C56.1063333,188.176007 56.0139874,187.895386 55.9843048,187.585053 C55.9579203,187.278021 55.944728,186.977592 55.944728,186.690368 C55.944728,186.148936 55.9117473,185.683436 55.845786,185.290567 C55.7798246,184.897698 55.6577961,184.570858 55.4797005,184.313347 C55.3049029,184.052535 55.064144,183.861053 54.7574237,183.7389 C54.4572996,183.620049 54.0681276,183.557322 53.5932059,183.557322 L50.5457915,183.557322 L50.5457915,188.430216 L48.4779031,188.430216 L48.4779031,176.597932 Z" id="Fill-152" fill="#8E9091"></path>
                    <path d="M74.736787,180.359238 C74.6510373,180.015891 74.5290088,179.702256 74.3739996,179.415033 C74.2189904,179.127809 74.0178083,178.876901 73.7770494,178.668912 C73.5362905,178.457621 73.2493586,178.295852 72.9228499,178.180302 C72.5996393,178.064752 72.2203615,178.005327 71.7883147,178.005327 C71.1583838,178.005327 70.6175007,178.134082 70.1590693,178.38499 C69.703936,178.639199 69.3279563,178.982547 69.0377263,179.405128 C68.7573906,179.831011 68.5430162,180.313018 68.4011993,180.854451 C68.2659785,181.395884 68.1967191,181.950522 68.1967191,182.511763 C68.1967191,183.076306 68.2659785,183.630944 68.4011993,184.172377 C68.5430162,184.713809 68.7573906,185.195816 69.0377263,185.621699 C69.3279563,186.047582 69.703936,186.387628 70.1590693,186.641838 C70.6175007,186.892745 71.1583838,187.021501 71.7883147,187.021501 C72.2533422,187.021501 72.6590045,186.942267 73.0151958,186.780497 C73.368089,186.622029 73.6715112,186.400834 73.9254624,186.120213 C74.1794136,185.836291 74.3805957,185.509451 74.5224126,185.133089 C74.6675276,184.756728 74.7598735,184.353955 74.8060465,183.921469 L76.8244638,183.921469 C76.7782908,184.627972 76.6265797,185.27505 76.3693305,185.862703 C76.1087831,186.447054 75.759188,186.952171 75.3172469,187.378054 C74.8753059,187.803937 74.3575093,188.130777 73.760559,188.365178 C73.1603108,188.596277 72.5072934,188.711827 71.7883147,188.711827 C70.9077306,188.711827 70.1161944,188.550057 69.413706,188.223217 C68.7112176,187.896377 68.1175655,187.450685 67.6360476,186.889444 C67.1479336,186.324901 66.775252,185.667919 66.5147047,184.915196 C66.2574554,184.165774 66.1288308,183.363529 66.1288308,182.511763 C66.1288308,181.673203 66.2574554,180.877561 66.5147047,180.128139 C66.775252,179.375416 67.1479336,178.718433 67.6360476,178.153891 C68.1175655,177.59265 68.7112176,177.143657 69.413706,176.813515 C70.1161944,176.480072 70.9077306,176.315001 71.7883147,176.315001 C72.4545243,176.315001 73.0778591,176.40744 73.661617,176.589018 C74.245375,176.770596 74.7631716,177.03471 75.2117088,177.38466 C75.6536498,177.731309 76.0164372,178.153891 76.2934749,178.652405 C76.5705126,179.147618 76.738714,179.718763 76.8079735,180.359238 L74.736787,180.359238 Z" id="Fill-154" fill="#8E9091"></path>
                    <polygon id="Fill-156" fill="#8E9091" points="85.2849964 176.596612 87.3528848 176.596612 87.3528848 181.304434 92.735331 181.304434 92.735331 176.596612 94.8065174 176.596612 94.8065174 188.428895 92.735331 188.428895 92.735331 183.093803 87.3528848 183.093803 87.3528848 188.428895 85.2849964 188.428895"></polygon>
                    <path d="M106.345466,183.723384 L109.95685,183.723384 L108.185788,178.632596 L108.133019,178.632596 L106.345466,183.723384 Z M107.074339,176.595621 L109.277448,176.595621 L113.828782,188.431206 L111.61248,188.431206 L110.504329,185.29816 L105.781497,185.29816 L104.673346,188.431206 L102.536198,188.431206 L107.074339,176.595621 Z" id="Fill-158" fill="#8E9091"></path>
                    <polygon id="Fill-160" fill="#8E9091" points="121.496129 176.596612 123.682748 176.596612 129.081684 185.315658 129.114665 185.315658 129.114665 176.596612 131.083611 176.596612 131.083611 188.428895 128.896993 188.428895 123.514546 179.729658 123.468373 179.729658 123.468373 188.428895 121.496129 188.428895"></polygon>
                    <polygon id="Fill-162" fill="#8E9091" points="139.026677 176.596612 148.597669 176.596612 148.597669 178.38598 144.84117 178.38598 144.84117 188.428895 142.769984 188.428895 142.769984 178.38598 139.026677 178.38598"></polygon>
                </g>
                <g id="Customer" transform="translate(0.000000, 4.042553)">
                    <g id="Group-3" transform="translate(0.000000, 0.701181)">
                        <mask id="mask-6" fill="white">
                            <use xlink:href="#path-5"></use>
                        </mask>
                        <g id="Clip-2"></g>
                        <path d="M151.584461,76.467784 C151.584461,118.369387 117.650644,152.337681 75.7915709,152.337681 C33.9324977,152.337681 -0.00131922702,118.369387 -0.00131922702,76.467784 C-0.00131922702,34.5661812 33.9324977,0.597886879 75.7915709,0.597886879 C117.650644,0.597886879 151.584461,34.5661812 151.584461,76.467784" id="Fill-1" fill="#FBB040" mask="url(#mask-6)"></path>
                    </g>
                    <g id="Group-40" transform="translate(0.000000, 0.701181)">
                        <g id="Group-6">
                            <mask id="mask-8" fill="white">
                                <use xlink:href="#path-7"></use>
                            </mask>
                            <g id="Clip-5"></g>
                            <path d="M124.955204,116.416928 C127.306726,117.361134 128.850222,119.642414 128.850222,122.177903 L128.850222,169.632492 L28.0052107,169.632492 L28.0052107,122.177903 C28.0052107,119.642414 29.5421102,117.361134 31.8936323,116.416928 L65.2667777,103.019772 L65.8835164,102.778768 L90.96532,102.778768 L91.5853567,103.019772 L124.955204,116.416928 Z" id="Fill-4" fill="#15B0BF" mask="url(#mask-8)"></path>
                        </g>
                        <g id="Group-9">
                            <mask id="mask-10" fill="white">
                                <use xlink:href="#path-9"></use>
                            </mask>
                            <g id="Clip-8"></g>
                            <path d="M124.955204,116.416928 C127.306726,117.361134 128.850222,119.642414 128.850222,122.177903 L128.850222,169.632492 L122.966469,169.632492 L88.4291061,127.427159 L68.258125,102.778768 L65.2667777,99.1240982 L65.2667777,91.0059103 L91.5820586,91.0059103 L91.5820586,103.019772 L124.955204,116.416928 Z" id="Fill-7" fill="#138491" mask="url(#mask-10)"></path>
                        </g>
                        <g id="Group-12">
                            <mask id="mask-12" fill="white">
                                <use xlink:href="#path-11"></use>
                            </mask>
                            <g id="Clip-11"></g>
                            <path d="M91.5846971,91.0082213 L91.5846971,119.014154 C91.5846971,122.236338 90.3973928,125.177902 88.4284465,127.42947 C86.0901166,130.110221 82.643636,131.803849 78.8079834,131.803849 L78.0461298,131.803849 C70.9882653,131.803849 65.2694162,126.079189 65.2694162,119.014154 L65.2694162,91.0082213 L91.5846971,91.0082213 Z" id="Fill-10" fill="#F7D4B8" mask="url(#mask-12)"></path>
                        </g>
                        <g id="Group-15">
                            <mask id="mask-14" fill="white">
                                <use xlink:href="#path-13"></use>
                            </mask>
                            <g id="Clip-14"></g>
                            <path d="M91.4170385,86.9148936 L91.4170385,118.691046 C91.4170385,122.349018 90.0714269,125.68345 87.8386352,128.238748 L61.559633,96.1258511 L61.559633,86.9148936 L91.4170385,86.9148936 Z" id="Fill-13" fill="#000000" opacity="0.2" mask="url(#mask-14)"></path>
                        </g>
                        <g id="Group-18" transform="translate(71.651376, 88.936170)" fill="#F2EFDC">
                            <polygon id="Fill-16" points="2.88264158 5.97630851 4.12271497 3.82708511 8.4069047 3.82708511 9.64368003 5.97630851 12.3250089 5.97630851 11.3289925 0.964755319 11.3223964 0.89872695 11.302608 0.89872695 11.2993099 0.892124113 11.2960119 0.89872695 1.23030974 0.89872695 1.22371361 0.892124113 0.201312668 5.97630851"></polygon>
                        </g>
                        <g id="Group-21" transform="translate(46.422018, 27.287234)" fill="#F7D4B8">
                            <path d="M61.926756,41.1881461 C61.926756,45.3248234 60.1622899,48.6889688 57.9855653,48.6889688 C57.6722489,48.6889688 57.3655286,48.6130362 57.0720006,48.477678 C53.7970196,64.0306603 43.4015107,75.4106496 31.0733342,75.4106496 C30.868854,75.4106496 30.67097,75.4106496 30.476384,75.4040468 C18.4549278,75.0441922 8.37273535,63.8754936 5.10435042,48.6625574 C5.02849487,48.6757631 4.94934125,48.6889688 4.86688956,48.6889688 C2.68686691,48.6889688 0.922400781,45.3248234 0.922400781,41.1881461 C0.922400781,37.4938589 2.32737755,34.4367454 4.16440117,33.8094759 C5.67161804,15.427178 16.8223844,1.07921348 30.476384,0.673139007 C30.67097,0.659933333 30.868854,0.659933333 31.0733342,0.659933333 C44.9614966,0.659933333 56.405791,15.0970362 57.9723731,33.6906248 L57.9855653,33.6906248 C60.1622899,33.6906248 61.926756,37.044866 61.926756,41.1881461" id="Fill-19"></path>
                        </g>
                        <g id="Group-24" transform="translate(76.697248, 27.287234)" fill="#000000" opacity="0.1">
                            <path d="M31.6515267,41.1881461 C31.6515267,45.3248234 29.8870606,48.6889688 27.710336,48.6889688 C27.3970196,48.6889688 27.0902993,48.6130362 26.7967713,48.477678 C23.5217902,64.0306603 13.1262813,75.4106496 0.79810486,75.4106496 C0.593624673,75.4106496 0.395740621,75.4106496 0.201154636,75.4040468 L0.201154636,0.673139007 C0.395740621,0.659933333 0.593624673,0.659933333 0.79810486,0.659933333 C14.6862673,0.659933333 26.1305616,15.0970362 27.6971437,33.6906248 L27.710336,33.6906248 C29.8870606,33.6906248 31.6515267,37.044866 31.6515267,41.1881461" id="Fill-22"></path>
                        </g>
                        <g id="Group-27" transform="translate(54.495413, 58.617021)" fill="#FBBF0C">
                            <path d="M1.61889768,2.53812376 L1.62549381,2.53152092 L1.73762811,2.53152092 C1.7079455,2.53152092 1.66177256,2.53812376 1.61889768,2.53812376" id="Fill-25"></path>
                        </g>
                        <g id="Group-30" transform="translate(45.412844, 16.170213)" fill="#0E303F">
                            <path d="M62.8297326,22.8132663 C58.9841858,12.403894 51.4843802,14.1371387 49.2318001,14.9327805 C48.8888011,15.0516316 48.5260137,14.8370394 48.4534562,14.4804862 C47.955448,12.0308337 45.7325505,3.99187979 37.6654773,1.37715638 C28.1010814,-1.72617695 20.4561608,5.0153195 16.2214421,7.91396489 C11.9867234,10.8126103 4.01529416,10.621128 1.39333047,20.2909826 C-0.846057388,28.5445287 2.31678938,39.2807415 5.3015405,45.3388443 C5.47963615,45.7053018 5.87540426,45.9099897 6.28436463,45.9099897 L8.31267617,45.9165926 C8.73153074,45.919894 9.10421238,46.1840074 9.24602928,46.5768762 L12.0922616,54.4441564 C12.1483287,54.5927202 12.359405,54.559706 12.3692992,54.4045394 L12.7024041,48.3200252 C12.79475,46.0816635 12.8870958,44.1338266 13.141047,41.809628 C13.18722,41.3606351 13.1641335,40.8984365 13.0157205,40.4692521 C11.4821191,35.9958301 7.1913332,24.8634472 14.4239953,21.3969578 C21.0959859,18.2044862 24.1236119,23.6254152 28.5166379,25.761433 C28.9255983,25.9595181 29.3972219,25.8703798 29.8424611,25.7812415 C30.3833441,25.6755961 30.9011407,25.5303337 31.4057451,25.3553585 C31.84109,25.2034933 32.2566465,24.9955039 32.6359243,24.728089 C33.1834035,24.341823 33.697902,23.9291457 34.1497373,23.6683337 C35.1259653,23.1037911 36.092299,22.5359472 37.0388444,21.9317876 C37.7281405,21.3408337 38.3910521,20.7135642 39.0407714,20.0697876 C39.558568,19.5613691 40.1555183,19.4161067 40.7062955,19.5118479 C41.1152559,19.5844791 41.5703892,19.5778762 41.8639172,19.28405 C42.5268288,18.6237663 43.2589998,18.2573089 44.2748046,18.432284 C48.1929088,19.1057734 56.8668265,28.2507025 53.0179817,45.6656848 C53.0179817,45.675589 53.2422502,50.4989613 53.3247019,52.3114401 C53.3345961,52.5326351 53.6281241,52.5986635 53.7567488,52.413784 L58.7203404,45.3256387 C58.7203404,45.3256387 67.39096,35.1473656 62.8297326,22.8132663" id="Fill-28"></path>
                        </g>
                        <g id="Group-33" transform="translate(52.477064, 26.276596)" fill="#0E303F">
                            <path d="M39.5393499,7.90464007 C39.3579562,7.11560106 39.1402837,6.36617908 38.9028229,5.6893883 C37.296664,1.11362234 22.5279175,-3.68333865 9.82376139,4.57681028 C-4.72731259,14.0320727 2.48556112,33.3849876 2.48556112,33.3849876 L5.78033059,35.613445 C5.63191755,26.7359309 10.2690005,22.1304521 10.2690005,22.1304521 C11.5255642,28.2182677 16.1065801,30.7438528 17.716037,31.4569592 C17.8479597,31.5130833 18.0029689,31.5097819 18.1348916,31.4437535 C18.2635162,31.3777252 18.3558621,31.2555727 18.3888428,31.1103103 C19.9884055,23.6953245 27.4090575,15.9534982 34.4273452,12.9260975 C36.0829751,15.778523 35.5552843,18.1918599 35.004507,19.5058245 C34.9352476,19.6708954 34.9781225,19.8623777 35.1100452,19.9845301 C35.2419679,20.1033812 44.5491145,20.740555 45.9573893,35.5606223 C45.9573893,35.5606223 50.8880003,29.7864415 50.775866,22.1634663 C50.6868182,16.0888564 42.7615619,10.0967819 39.5393499,7.90464007" id="Fill-31"></path>
                        </g>
                        <g id="Group-36" transform="translate(72.660550, 95.000000)" fill="#0E303F">
                            <path d="M9.76442366,9.08811099 C9.76442366,10.0158096 8.9069261,10.768533 7.85154449,10.768533 L2.01396494,10.768533 C0.955285263,10.768533 0.0977877025,10.0158096 0.0977877025,9.08811099 L0.0977877025,2.64044078 C0.0977877025,1.7127422 0.955285263,0.960018794 2.01396494,0.960018794 L7.85154449,0.960018794 C8.9069261,0.960018794 9.76442366,1.7127422 9.76442366,2.64044078 L9.76442366,9.08811099 Z" id="Fill-34"></path>
                        </g>
                        <g id="Group-39" transform="translate(56.513761, 86.914894)" fill="#0E303F">
                            <path d="M25.3828622,5.55387518 C26.5767627,5.55387518 27.665125,6.16133617 28.1367486,7.09563759 L28.9711597,8.73644255 L23.8921357,16.6169284 L18.9120537,16.6169284 L13.8297316,8.73644255 L14.6641427,7.09563759 C15.1390645,6.16133617 16.2241287,5.55387518 17.4213272,5.55387518 L25.3828622,5.55387518 Z M30.9994712,20.314517 C32.9453311,20.314517 32.5198804,20.1065277 42.7306975,0.129644681 L36.6721474,0.129644681 L32.4341306,5.45483262 C31.1247978,3.5532156 28.0147201,1.85298511 25.3828622,1.85298511 L17.4213272,1.85298511 C14.7894693,1.85298511 11.6760935,3.5532156 10.3700588,5.45483262 L6.12874394,0.129644681 L0.0701938708,0.129644681 C10.281011,20.1065277 9.85556026,20.314517 11.8047182,20.314517 L30.9994712,20.314517 Z" id="Fill-37"></path>
                        </g>
                    </g>
                    <path d="M11.6131554,177.551234 C11.5241076,177.207886 11.4053772,176.894251 11.250368,176.607028 C11.0953588,176.319805 10.8941767,176.068897 10.6534178,175.860907 C10.4093608,175.649617 10.125727,175.487847 9.79921827,175.372298 C9.47600765,175.256748 9.09343182,175.197322 8.66468304,175.197322 C8.03475214,175.197322 7.49386906,175.326078 7.03213961,175.576985 C6.57700629,175.831195 6.20102659,176.174542 5.91409471,176.597124 C5.6304609,177.023007 5.41608651,177.505014 5.27756768,178.046446 C5.14234691,178.587879 5.07308749,179.142517 5.07308749,179.703759 C5.07308749,180.268301 5.14234691,180.822939 5.27756768,181.364372 C5.41608651,181.905805 5.6304609,182.387812 5.91409471,182.813695 C6.20102659,183.239578 6.57700629,183.579624 7.03213961,183.833833 C7.49386906,184.084741 8.03475214,184.213496 8.66468304,184.213496 C9.12971056,184.213496 9.53537287,184.134262 9.89156416,183.972493 C10.2444574,183.814024 10.5478796,183.592829 10.8018308,183.312209 C11.055782,183.028287 11.2536661,182.701446 11.398781,182.325085 C11.543896,181.948723 11.6362419,181.54595 11.6791168,181.113464 L13.7008322,181.113464 C13.6546592,181.819968 13.5029481,182.467046 13.2424008,183.054698 C12.9851515,183.639049 12.6355564,184.144166 12.1936153,184.570049 C11.7516743,184.995932 11.2338776,185.322773 10.6369274,185.557173 C10.0366791,185.788273 9.38366176,185.903822 8.66468304,185.903822 C7.784099,185.903822 6.9925628,185.742053 6.29007441,185.415212 C5.58758602,185.088372 4.99393387,184.64268 4.50911794,184.081439 C4.02430201,183.516897 3.65162038,182.859915 3.39107304,182.107191 C3.13382378,181.357769 3.00519914,180.555524 3.00519914,179.703759 C3.00519914,178.865198 3.13382378,178.069556 3.39107304,177.320134 C3.65162038,176.567411 4.02430201,175.910429 4.50911794,175.345886 C4.99393387,174.784645 5.58758602,174.335652 6.29007441,174.00551 C6.9925628,173.672067 7.784099,173.506996 8.66468304,173.506996 C9.32759461,173.506996 9.95092938,173.599436 10.5379854,173.781014 C11.1217434,173.962592 11.63954,174.226705 12.0847791,174.576656 C12.5300182,174.923305 12.8928056,175.345886 13.1698433,175.8444 C13.446881,176.339613 13.6150824,176.910759 13.6810438,177.551234 L11.6131554,177.551234 Z" id="Fill-41" fill="#8E9091"></path>
                    <path d="M22.0772641,173.788607 L24.1451524,173.788607 L24.1451524,180.681969 C24.1451524,181.08144 24.1649409,181.484213 24.2045177,181.893589 C24.2407964,182.302965 24.3529307,182.669423 24.5343244,182.996263 C24.7190162,183.323104 24.9927558,183.590518 25.3621394,183.798508 C25.7315229,184.009799 26.2559157,184.112143 26.9287215,184.112143 C27.6015272,184.112143 28.1226219,184.009799 28.4920055,183.798508 C28.8646871,183.590518 29.1384267,183.323104 29.3198204,182.996263 C29.5045122,182.669423 29.6133484,182.302965 29.6529252,181.893589 C29.692502,181.484213 29.7089924,181.08144 29.7089924,180.681969 L29.7089924,173.788607 L31.7768807,173.788607 L31.7768807,181.362061 C31.7768807,182.124689 31.6614484,182.788274 31.4305836,183.349515 C31.1997189,183.914057 30.8699122,184.38616 30.4477595,184.769125 C30.0223088,185.148788 29.5111083,185.436011 28.9141581,185.620891 C28.320506,185.809072 27.6542963,185.904813 26.9287215,185.904813 C26.1998485,185.904813 25.536937,185.809072 24.9399867,185.620891 C24.3430365,185.436011 23.8351341,185.148788 23.4096834,184.769125 C22.9842327,184.38616 22.657724,183.914057 22.4235612,183.349515 C22.1926965,182.788274 22.0772641,182.124689 22.0772641,181.362061 L22.0772641,173.788607 Z" id="Fill-43" fill="#8E9091"></path>
                    <path d="M42.1460051,181.678007 C42.1460051,182.130301 42.2185626,182.516567 42.3735717,182.840106 C42.5285809,183.160344 42.7462534,183.421156 43.023291,183.625844 C43.3003287,183.830532 43.6136451,183.979095 43.9764326,184.074837 C44.3326239,184.167276 44.7217958,184.213496 45.1406504,184.213496 C45.5924857,184.213496 45.9783596,184.160673 46.3015702,184.055028 C46.6181847,183.949383 46.8820301,183.814024 47.076616,183.648954 C47.2777982,183.483883 47.4229131,183.2924 47.5086629,183.077808 C47.5977107,182.863216 47.6405856,182.645322 47.6405856,182.424127 C47.6405856,181.971833 47.5416436,181.635088 47.3338653,181.420496 C47.1326832,181.205904 46.9051165,181.054039 46.6643576,180.9649 C46.245503,180.809734 45.757389,180.664471 45.2000156,180.525812 C44.6426422,180.387152 43.9566442,180.208876 43.1387234,179.98768 C42.6275229,179.855624 42.2086684,179.680649 41.8722655,179.466056 C41.5325645,179.251464 41.265421,179.010461 41.067537,178.743046 C40.8696529,178.478932 40.727836,178.198312 40.6453843,177.897883 C40.5662307,177.600755 40.5233558,177.297024 40.5233558,176.986691 C40.5233558,176.389134 40.6453843,175.874113 40.8927394,175.438326 C41.1400945,175.002539 41.4699012,174.639383 41.8788616,174.352159 C42.287822,174.064936 42.7528495,173.850344 43.2706461,173.714985 C43.7884427,173.576326 44.3128354,173.506996 44.8405263,173.506996 C45.460563,173.506996 46.0443209,173.58623 46.5918001,173.748 C47.1359813,173.906468 47.6174991,174.147471 48.0297576,174.467709 C48.4453141,174.787946 48.7751208,175.184117 49.0158798,175.652918 C49.2566387,176.12172 49.3786672,176.666454 49.3786672,177.283819 L47.3074808,177.283819 C47.2547117,176.521191 46.9974624,175.98306 46.5324349,175.669425 C46.0674074,175.352489 45.4803514,175.197322 44.7613726,175.197322 C44.5173156,175.197322 44.2699606,175.220432 44.0127113,175.273255 C43.7620582,175.322776 43.5311934,175.405312 43.3201171,175.520861 C43.1090408,175.636411 42.9342432,175.794879 42.7990224,175.992964 C42.6605036,176.191049 42.5912442,176.441957 42.5912442,176.739085 C42.5912442,177.158365 42.7231669,177.485205 42.9804162,177.726209 C43.2409635,177.963911 43.5806645,178.142188 43.999519,178.26434 C44.0423939,178.274244 44.2171915,178.320464 44.5206137,178.403 C44.8240359,178.488837 45.1637369,178.577975 45.5364185,178.677017 C45.9156963,178.779361 46.2817818,178.875102 46.6379731,178.967542 C47.0007605,179.063283 47.2547117,179.132613 47.4097209,179.175532 C47.7955948,179.297684 48.1319977,179.462755 48.4189295,179.674046 C48.7058614,179.882035 48.9499184,180.123039 49.1412063,180.393755 C49.3324942,180.664471 49.4776092,180.954996 49.5699551,181.265329 C49.662301,181.572361 49.711772,181.882695 49.711772,182.193028 C49.711772,182.853312 49.5765512,183.421156 49.3061097,183.889957 C49.0356682,184.358759 48.6761788,184.745024 48.2375358,185.042152 C47.7955948,185.33928 47.2942885,185.560475 46.733617,185.695833 C46.1696475,185.834493 45.5924857,185.903822 45.0087277,185.903822 C44.3359219,185.903822 43.702693,185.821287 43.1057427,185.656216 C42.5087925,185.491145 41.9876978,185.236936 41.5457568,184.893588 C41.1071138,184.550241 40.7542206,184.111152 40.4870771,183.576322 C40.2232317,183.041493 40.0847129,182.40762 40.0748187,181.678007 L42.1460051,181.678007 Z" id="Fill-45" fill="#8E9091"></path>
                    <polygon id="Fill-47" fill="#8E9091" points="57.0130339 173.788607 66.5807279 173.788607 66.5807279 175.577976 62.8242289 175.577976 62.8242289 185.620891 60.7563406 185.620891 60.7563406 175.577976 57.0130339 175.577976"></polygon>
                    <path d="M79.6130417,175.197652 C78.9864089,175.197652 78.4422278,175.326408 77.9837964,175.577316 C77.525365,175.831525 77.1526833,176.171571 76.8657515,176.597454 C76.5788196,177.023337 76.3677433,177.505344 76.2292244,178.046777 C76.0907056,178.588209 76.0214462,179.142848 76.0214462,179.704089 C76.0214462,180.268631 76.0907056,180.82327 76.2292244,181.364702 C76.3677433,181.906135 76.5788196,182.388142 76.8657515,182.814025 C77.1526833,183.239908 77.525365,183.579954 77.9837964,183.834163 C78.4422278,184.085071 78.9864089,184.213826 79.6130417,184.213826 C80.2429726,184.213826 80.7838557,184.085071 81.2455852,183.834163 C81.7040166,183.579954 82.0766982,183.239908 82.3636301,182.814025 C82.6505619,182.388142 82.8616383,181.906135 83.0001571,181.364702 C83.1353779,180.82327 83.2079354,180.268631 83.2079354,179.704089 C83.2079354,179.142848 83.1353779,178.588209 83.0001571,178.046777 C82.8616383,177.505344 82.6505619,177.023337 82.3636301,176.597454 C82.0766982,176.171571 81.7040166,175.831525 81.2455852,175.577316 C80.7838557,175.326408 80.2429726,175.197652 79.6130417,175.197652 M79.6130417,173.507326 C80.4969238,173.507326 81.28846,173.672397 81.9909484,174.00584 C82.6934368,174.335982 83.2837909,174.784975 83.7719049,175.346216 C84.2534228,175.910759 84.6294025,176.567741 84.8899498,177.320465 C85.1471991,178.069887 85.2758237,178.865528 85.2758237,179.704089 C85.2758237,180.555855 85.1471991,181.358099 84.8899498,182.107521 C84.6294025,182.860245 84.2534228,183.517227 83.7719049,184.08177 C83.2837909,184.643011 82.6934368,185.088702 81.9909484,185.415543 C81.28846,185.742383 80.4969238,185.904152 79.6130417,185.904152 C78.7291596,185.904152 77.9376234,185.742383 77.2384331,185.415543 C76.5359447,185.088702 75.9455906,184.643011 75.4574766,184.08177 C74.9726607,183.517227 74.596681,182.860245 74.3394317,182.107521 C74.0788844,181.358099 73.9502598,180.555855 73.9502598,179.704089 C73.9502598,178.865528 74.0788844,178.069887 74.3394317,177.320465 C74.596681,176.567741 74.9726607,175.910759 75.4574766,175.346216 C75.9455906,174.784975 76.5359447,174.335982 77.2384331,174.00584 C77.9376234,173.672397 78.7291596,173.507326 79.6130417,173.507326" id="Fill-49" fill="#8E9091"></path>
                    <polygon id="Fill-51" fill="#8E9091" points="93.7525169 173.788607 96.6680086 173.788607 99.9297974 183.052387 99.9627781 183.052387 103.142115 173.788607 106.024626 173.788607 106.024626 185.620891 104.052382 185.620891 104.052382 176.489167 104.019401 176.489167 100.741122 185.620891 99.0360211 185.620891 95.7544439 176.489167 95.7247613 176.489167 95.7247613 185.620891 93.7525169 185.620891"></polygon>
                    <polygon id="Fill-53" fill="#8E9091" points="115.128612 173.788607 123.640924 173.788607 123.640924 175.577976 117.199798 175.577976 117.199798 178.678008 123.162704 178.678008 123.162704 180.368334 117.199798 180.368334 117.199798 183.831522 123.756357 183.831522 123.756357 185.620891 115.128612 185.620891"></polygon>
                    <path d="M134.253446,179.174541 L137.647157,179.174541 C138.310069,179.174541 138.811375,179.019374 139.154374,178.702438 C139.497373,178.388804 139.668873,177.916701 139.668873,177.28613 C139.668873,176.909768 139.612806,176.602736 139.503969,176.365034 C139.391835,176.127332 139.240124,175.942452 139.045538,175.810396 C138.85425,175.678339 138.63328,175.589201 138.385924,175.546282 C138.138569,175.500062 137.88132,175.480254 137.617475,175.480254 L134.253446,175.480254 L134.253446,179.174541 Z M132.182259,173.789928 L137.828551,173.789928 C139.131288,173.789928 140.107516,174.070548 140.760533,174.635091 C141.41355,175.196332 141.740059,175.98207 141.740059,176.985701 C141.740059,177.550243 141.654309,178.015743 141.489406,178.388804 C141.324503,178.758562 141.129917,179.05569 140.912244,179.283488 C140.687976,179.511286 140.470303,179.673055 140.255929,179.772098 C140.041554,179.87114 139.883247,179.937169 139.784305,179.970183 L139.784305,180.003197 C139.959103,180.026307 140.150391,180.082431 140.354871,180.168268 C140.559351,180.257406 140.750639,180.399367 140.925437,180.59085 C141.103532,180.785633 141.248647,181.036541 141.364079,181.346874 C141.479512,181.653906 141.538877,182.043474 141.538877,182.505672 C141.538877,183.202272 141.591646,183.836144 141.697184,184.403988 C141.799424,184.971832 141.964328,185.377906 142.185298,185.622211 L139.965699,185.622211 C139.813988,185.368002 139.718344,185.087382 139.691959,184.777048 C139.665575,184.470016 139.652382,184.169587 139.652382,183.882364 C139.652382,183.340931 139.619402,182.875431 139.550142,182.482562 C139.487479,182.089694 139.365451,181.762853 139.187355,181.505343 C139.009259,181.24453 138.771798,181.053048 138.465078,180.930896 C138.164954,180.812045 137.772484,180.749318 137.30086,180.749318 L134.253446,180.749318 L134.253446,185.622211 L132.182259,185.622211 L132.182259,173.789928 Z" id="Fill-55" fill="#8E9091"></path>
                </g>
            </g>
        </g>
    </g>
</svg>