<svg height="190" viewBox="0 0 770 190" width="770" xmlns="http://www.w3.org/2000/svg" xmlns:xlink="http://www.w3.org/1999/xlink"><mask id="a" fill="#fff"><path d="m8.0176709.69659929-4.99327426.12215248-2.23279172 1.60448936c.82781495.90458866 2.11406129 2.00065958 2.93857818 2.07989362 2.73739605.25420922 4.05002693.31363475 4.65357329.14856383.2242686-.05942553 3.40030761-1.51535106 3.40030761-1.51535106l-3.57510519-2.38692553c-.04947101-.03301419-.11213429-.0528227-.17809564-.0528227-.00329807 0-.00659614 0-.01319227 0z" fill="#fff" fill-rule="evenodd"/></mask><mask id="b" fill="#fff"><path d="m4.18524771.74942199-3.57510522 2.38692553s3.17274098 1.45592553 3.40030764 1.51535106c.60354636.16507092 1.91617724.10564539 4.65357329-.14856383.82451689-.07923404 2.11076318-1.17530496 2.94187628-2.07989362l-2.24268596-1.60448936-4.98667812-.12215248c-.00329806 0-.0098942 0-.01319227 0-.06596135 0-.12532656.01980851-.17809564.0528227z" fill="#fff" fill-rule="evenodd"/></mask><mask id="c" fill="#fff"><path d="m0 .59788688h151.584461v151.73979412h-151.584461z" fill="#fff" fill-rule="evenodd"/></mask><mask id="d" fill="#fff"><path d="m0 76.4674539c0 41.9016031 33.9338169 75.8698971 75.7928901 75.8698971 41.8557749 0 75.7895919-33.968294 75.7895919-75.8698971 0-41.9016028-33.933817-75.86989716-75.7895919-75.86989716-41.8590732 0-75.7928901 33.96829436-75.7928901 75.86989716z" fill="#fff" fill-rule="evenodd"/></mask><mask id="e" fill="#fff"><path d="m0 76.4674539c0 41.9016031 33.9338169 75.8698971 75.7928901 75.8698971 41.8557749 0 75.7895919-33.968294 75.7895919-75.8698971 0-41.9016028-33.933817-75.86989716-75.7895919-75.86989716-41.8590732 0-75.7928901 33.96829436-75.7928901 75.86989716z" fill="#fff" fill-rule="evenodd"/></mask><mask id="f" fill="#fff"><path d="m0 76.4674539c0 41.9016031 33.9338169 75.8698971 75.7928901 75.8698971 41.8557749 0 75.7895919-33.968294 75.7895919-75.8698971 0-41.9016028-33.933817-75.86989716-75.7895919-75.86989716-41.8590732 0-75.7928901 33.96829436-75.7928901 75.86989716z" fill="#fff" fill-rule="evenodd"/></mask><mask id="g" fill="#fff"><path d="m0 76.4674539c0 41.9016031 33.9338169 75.8698971 75.7928901 75.8698971 41.8557749 0 75.7895919-33.968294 75.7895919-75.8698971 0-41.9016028-33.933817-75.86989716-75.7895919-75.86989716-41.8590732 0-75.7928901 33.96829436-75.7928901 75.86989716z" fill="#fff" fill-rule="evenodd"/></mask><g fill="none" fill-rule="evenodd"><g transform="translate(188.715596 108.138298)"><path d="m368.731586 16.4650588h-358.1573803c-.90999606 0-1.64259219-.7367039-1.64259219-1.6444284s.73259613-1.6444285 1.64259219-1.6444285h358.1573803c.906711 0 1.642592.736704 1.642592 1.6444285s-.735881 1.6444284-1.642592 1.6444284" fill="#d4d3d7"/><path d="m363.579431 14.8206304c0-4.2952471 3.479011-7.77485759 7.766176-7.77485759 4.290451 0 7.769462 3.47961049 7.769462 7.77485759 0 4.295247-3.479011 7.7748575-7.769462 7.7748575-4.287165 0-7.766176-3.4796105-7.766176-7.7748575" fill="#d4d3d7"/><path d="m19.4626008 27.5231821v-25.40641903c0-1.12807789-1.6721589-1.69376127-2.6511438-.89456906l-16.61974824 13.59942299 16.61974824 13.599423c.9789849.8024811 2.6511438.2367977 2.6511438-.8978579" fill="#fbb040"/><path d="m199.80773 14.6377699c0 6.340916-5.131458 11.4781104-11.462009 11.4781104-6.333836 0-11.465294-5.1371944-11.465294-11.4781104 0-6.33762709 5.131458-11.47482147 11.465294-11.47482147 6.330551 0 11.462009 5.13719438 11.462009 11.47482147" fill="#fbb040"/><path d="m192.271845 20.1811381h-7.851591c.009856-.9537685.243104-1.7891381.689889-2.4995312.45007-.7136819 1.0644-1.331987 1.839703-1.8582041.371226-.2729751.758878-.5393725 1.166241-.7959033.404077-.2598197.778588-.5360837 1.116962-.8320808.34166-.2959971.6209-.6183051.837722-.9603462.216823-.3486188.335089-.7465705.344945-1.1971439 0-.2039091-.022996-.4275514-.075559-.6643491-.049278-.2335088-.144549-.4538622-.285811-.6577713-.144549-.2006203-.338374-.3716409-.588049-.5097729-.256244-.1348431-.581477-.20719794-.98884-.20719794-.374511 0-.680033.07893254-.926422.22693114-.249674.1479985-.4435.3486188-.591333.6051496-.147834.2565309-.25953.5623946-.331804.9143022-.068989.3486189-.111696.7268374-.121552 1.1313668h-1.872555c0-.6314605.085415-1.2234548.256245-1.7661161.167544-.5426614.423788-1.0096791.762162-1.40763075.338374-.39466282.752308-.70052651 1.238515-.92745763.489492-.22364227 1.057829-.3354634 1.701725-.3354634.70303 0 1.284508.11510999 1.757574.34532997.473067.22693112.850863.51963938 1.143244.87154706.289097.34861885.492778.73012625.61433 1.14123335.118266.4111071.180685.8057699.180685 1.1774107 0 .46044-.072274.8748359-.213537 1.2497656-.144548.3716408-.335089.7169708-.574907 1.0261233-.243104.3124414-.515774.6018608-.821296.8649694-.305523.2631085-.624185.5097728-.952704.7399928-.328518.23022-.657037.4472845-.985555.6577713-.328519.207198-.634041.4176849-.913282.6248828-.275955.207198-.522344.4242626-.729311.6479048-.210251.2269312-.351514.4637289-.427073.7169708h5.601239z" fill="#fff"/><g fill="#fbb040"><path d="m116.683693 36.74119h2.092662l2.1288 9.0147566h.032852l2.375188-9.0147566h2.109088l2.309485 9.0147566h.032852l2.194503-9.0147566h2.095948l-3.252333 11.7905518h-2.089377l-2.362048-9.0147566h-.032852l-2.404755 9.0147566h-2.132084z"/><path d="m138.768674 46.8485049h3.643269c.627471 0 1.110393-.1644429 1.458622-.4867508.344945-.3255969.519059-.7860368.519059-1.3780311 0-.5854165-.174114-1.0359899-.519059-1.3484313-.348229-.3124414-.831151-.4703065-1.458622-.4703065h-3.643269zm0-5.1667941h3.360744c.496062 0 .909996-.1414209 1.238514-.4242625.328519-.2795529.496063-.6840823.496063-1.2102994 0-.5952831-.147833-1.0162567-.446785-1.2563433-.298952-.2400865-.726026-.3650631-1.287792-.3650631h-3.360744zm-2.066381-4.939863h5.722791c1.061115 0 1.905407.2433754 2.542733.7268374.637326.4834619.955989 1.216877.955989 2.1936675 0 .5952831-.144549 1.1050559-.43693 1.5293184-.289096.4242625-.706315.7531482-1.245085.9833682v.0328886c.726026.1545762 1.277937.4966174 1.649163 1.0294122.371226.5360836.561766 1.2070104.561766 2.0094915 0 .4604399-.082129.8912802-.246389 1.2958096-.167544.4012405-.423788.7498593-.778588 1.0392787-.351515.2927083-.801585.5229283-1.353496.6939488-.545341.1677317-1.199093.2565309-1.95797.2565309h-5.413984z"/><path d="m150.491526 36.74119h9.533605v1.7858493h-3.741825v10.0047025h-2.063096v-10.0047025h-3.728684z"/><path d="m172.640897 40.4891713c-.085415-.3420411-.203682-.6511937-.358085-.9406131-.154404-.2861305-.3548-.5327948-.597904-.7432816-.239818-.207198-.525629-.3716408-.847578-.4867508-.325233-.11511-.703029-.1743094-1.130103-.1743094-.62747 0-1.16624.1282654-1.626166.3815074-.453356.2532419-.827867.5919942-1.113678 1.0162567-.282526.4242626-.496063.9044357-.63404 1.4438082-.134693.5393725-.203682 1.0886116-.203682 1.6510061 0 .5591057.068989 1.1116336.203682 1.6510061.137977.5393726.351514 1.0228345.63404 1.447097.285811.4242626.660322.759726 1.113678 1.0129679.459926.253242.998696.3815074 1.626166.3815074.463211 0 .867289-.0822214 1.222089-.2433754.351514-.1578651.653751-.3782185.903425-.6577713.256245-.2828417.453356-.6051497.597904-.9833682.141263-.3749297.236533-.7761702.279241-1.2037216h2.010533c-.045993.7038153-.193826 1.3484313-.453356 1.9305589-.25953.5854166-.604474 1.0886116-1.047974 1.5128742-.436929.4242625-.955988.7465705-1.547322.9800793-.597903.23022-1.251655.34533-1.96454.34533-.877144 0-1.665589-.161154-2.365333-.483462-.699744-.3255968-1.291077-.7695925-1.773999-1.3286981-.486208-.5623945-.857434-1.2201659-1.113678-1.9667364-.256244-.7498594-.384367-1.5457627-.384367-2.3942878 0-.8386585.128123-1.6279841.384367-2.3778435.256244-.7498593.62747-1.4043419 1.113678-1.9634475.482922-.5623945 1.074255-1.0096791 1.773999-1.3385647.699744-.3321746 1.488189-.4966174 2.365333-.4966174.660322 0 1.281222.092088 1.8627.2729751.584762.1808871 1.097251.4472845 1.544036.7959033.4435.34533.80487.7663037 1.080826 1.2596322.275955.4966174.440215 1.0655896.509204 1.700339z"/><path d="m186.66075 36.74119h9.533605v1.7858493h-3.74511v10.0047025h-2.059811v-10.0047025h-3.728684z"/><path d="m202.676024 47.2757274c.417219 0 .778589-.0855103 1.087396-.2631086.308808-.1775982.561767-.4078182.758878-.6939488.200396-.2861305.341659-.6084385.436929-.9669239.095271-.3551965.141263-.7235485.141263-1.0951893 0-.3650631-.045992-.7301262-.141263-1.0919005-.09527-.3617742-.236533-.6840822-.436929-.9669239-.197111-.2795528-.45007-.5064839-.758878-.6840822-.308807-.1775983-.670177-.2631085-1.087396-.2631085-.417218 0-.781874.0855102-1.090681.2631085s-.558481.4045294-.755592.6840822c-.200397.2828417-.344945.6051497-.43693.9669239-.098556.3617743-.141263.7268374-.141263 1.0919005 0 .3716408.042707.7399928.141263 1.0951893.091985.3584854.236533.6807934.43693.9669239.197111.2861306.446785.5163506.755592.6939488.308807.1775983.673463.2631086 1.090681.2631086m0 1.4865633c-.680033 0-1.291077-.1118212-1.823277-.3354634-.5322-.23022-.98227-.5360837-1.353496-.9373242-.364656-.3946629-.647182-.8682582-.841007-1.4174973-.190541-.5492391-.289097-1.1576776-.289097-1.815449 0-.6511937.098556-1.2497656.289097-1.8022935.193825-.5492391.476351-1.0228345.841007-1.4174973.371226-.3979517.821296-.7071043 1.353496-.9340354s1.143244-.3387522 1.823277-.3387522 1.291078.1118211 1.823278.3387522c.532199.2269311.98227.5360837 1.353496.9340354.364655.3946628.647181.8682582.841007 1.4174973.190541.5525279.289096 1.1510998.289096 1.8022935 0 .6577714-.098555 1.2662099-.289096 1.815449-.193826.5492391-.476352 1.0228344-.841007 1.4174973-.371226.4012405-.821297.7071042-1.353496.9373242-.5322.2236422-1.143245.3354634-1.823278.3354634"/><path d="m211.896223 36.74119h1.879125v6.7059791l3.396881-3.4532996h2.309485l-3.265474 3.1375694 3.577566 5.4003029h-2.289773l-2.605151-4.1439596-1.123534 1.0886116v3.055348h-1.879125z"/><path d="m229.855669 43.5116307c-.022996-.2959971-.082129-.5821276-.19054-.8583916-.105126-.276264-.246389-.5130617-.427074-.7169708-.183971-.2039091-.404078-.3716408-.660322-.4966174-.25953-.1249765-.548626-.1874648-.864004-.1874648-.331804 0-.630755.0559105-.90014.1710205-.269386.11511-.499349.276264-.693174.4801731-.190541.2006203-.344945.4439957-.459926.7169708-.114982.276264-.180685.5722611-.193826.8912802zm-4.389006 1.2398991c0 .3321745.049278.6479047.141263.9570573.09527.3091525.233248.5788388.423789.8090588.187255.2302199.420503.4143959.706314.5525279.289097.138132.627471.207198 1.021693.207198.548625 0 .992125-.1183988 1.330499-.3551965.335089-.2367977.584763-.5919943.749022-1.0655897h1.78057c-.098555.4637289-.269385.874836-.512488 1.2398991-.239819.3617742-.5322.6676379-.873859.9143022-.338374.2466642-.719456.4341291-1.143245.5623945-.423788.1249766-.867288.1907537-1.330499.1907537-.670178 0-1.261511-.1118211-1.78057-.3321746-.519059-.2170645-.955989-.526217-1.310789-.9241687-.3548-.3946628-.62747-.8682582-.80487-1.4207862-.187256-.5492391-.275956-1.1543887-.275956-1.8154489 0-.6051497.095271-1.1806996.289097-1.7266499.19054-.5426614.466496-1.0195456.827866-1.4339416.3548-.4111071.788444-.7399928 1.291078-.9833682.505918-.2433754 1.07754-.3650631 1.718151-.3650631.666893 0 1.268081.1414209 1.800281.4209737.53877.2828417.9757.6544825 1.3305 1.1149225.351515.4637288.607759.9965236.768733 1.5950955.157689.598572.200396 1.2201659.121552 1.8582042z"/><path d="m236.471045 39.9945272h1.777285v1.2563433l.036137.0328886c.285811-.4735954.657037-.8452362 1.120248-1.1149225.459926-.2696862.972415-.4045294 1.530896-.4045294.939563 0 1.675444.2433755 2.214214.7235486.538771.4867508.808156 1.2135881.808156 2.180512v5.8640318h-1.879126v-5.3674144c-.026281-.6709268-.167544-1.1576776-.430359-1.4602524s-.676748-.4538623-1.238515-.4538623c-.318662 0-.601188.0559106-.857433.1743094-.252959.11511-.466496.276264-.643896.4768843-.174115.2039091-.315378.4439957-.410648.7202596-.098555.2729752-.147833.5656834-.147833.8715471v5.0385287h-1.879126z"/><path d="m250.651215 45.7917952c.059134.5492391.2661.9340353.627471 1.1543887.364655.2203534.7983.3288857 1.304218.3288857.1774 0 .377796-.0131554.601189-.0427551.226677-.023022.436929-.0756437.637326-.1512875.197111-.0789325.358085-.1940425.486207-.3420411.121552-.1479985.180685-.3420411.170829-.5854165-.009855-.2433754-.098555-.4374179-.262814-.5919942-.16426-.1545763-.374511-.2795528-.634041-.3749297-.262815-.092088-.551911-.1710205-.883715-.2400865-.331803-.0624883-.666892-.1348432-1.008551-.2104869-.351515-.0789325-.686604-.1710205-1.011837-.2828417-.325233-.1085322-.617615-.2565308-.873859-.4472845-.25953-.1874648-.463211-.4242625-.617615-.7169708-.154403-.2927082-.233248-.6511936-.233248-1.0820339 0-.4604399.114982-.8518139.338374-1.1609664.223393-.3157303.512489-.5689723.860718-.7630148.344945-.1907537.729311-.3255969 1.1531-.4045294.423789-.0756437.827867-.11511 1.212233-.11511.43693 0 .860719.0493328 1.261511.1414208.400793.092088.765448.2433754 1.087396.4538623.325233.207198.594619.4801731.808156.8189253.216822.3321746.348229.736704.404077 1.2135882h-1.961255c-.091985-.4538622-.295666-.7564371-.617615-.9110133-.325233-.1512875-.699744-.23022-1.116962-.23022-.131408 0-.289097.0098666-.466496.0328885-.180686.023022-.3548.0624883-.512489.1249766s-.295667.1479986-.407363.2631086c-.108411.1151099-.160974.2663974-.160974.4538622 0 .23022.078844.4209737.239818.5623945.160974.1447097.364656.2631086.624185.3551966.25953.0920879.551911.1743094.883715.2367976.328518.069066.670178.138132 1.021692.2170646.34166.0756437.676748.1710206 1.005267.2795528.331803.1118212.62747.2598197.887.4439957.256244.1907537.463211.4242625.624185.7103931.157688.2861305.239818.6413271.239818 1.0590119 0 .5064839-.114981.9373242-.344944 1.285943-.233248.3551965-.5322.6413271-.903426.8616805-.367941.2170645-.778589.3782185-1.228659.4768842-.446785.1019546-.89357.1479986-1.333785.1479986-.53877 0-1.038118-.0591994-1.494759-.1808871-.45664-.1183989-.850863-.3058637-1.185951-.552528-.335089-.2499531-.597904-.5558168-.79173-.9274576-.190541-.3650631-.292381-.8057699-.305522-1.308965z"/></g></g><g transform="translate(188.715596 25.265957)"><path d="m366.116908 38.2301103h-358.15738057c-.9099961 0-1.64259224-.7367039-1.64259224-1.6444284s.73259614-1.6444284 1.64259224-1.6444284h358.15738057c.906711 0 1.642592.7367039 1.642592 1.6444284s-.735881 1.6444284-1.642592 1.6444284" fill="#d4d3d7"/><path d="m15.7250465 36.5856819c0 4.2952471-3.4790104 7.7715687-7.76617611 7.7715687-4.29045091 0-7.76946125-3.4763216-7.76946125-7.7715687 0-4.295247 3.47901034-7.7748575 7.76946125-7.7748575 4.28716571 0 7.76617611 3.4796105 7.76617611 7.7748575" fill="#d4d3d7"/><path d="m359.841877 23.8801702v25.4097079c0 1.1280779 1.672159 1.6937613 2.647859.8945691l16.623033-13.599423-16.623033-13.599423c-.9757-.8024811-2.647859-.2367977-2.647859.894569" fill="#f15a29"/><path d="m199.80773 36.5856819c0 6.3376272-5.131458 11.4748215-11.462009 11.4748215-6.333836 0-11.465294-5.1371943-11.465294-11.4748215 0-6.3409159 5.131458-11.4781103 11.465294-11.4781103 6.330551 0 11.462009 5.1371944 11.462009 11.4781103" fill="#f15a29"/><path d="m185.255348 32.5229571c.394222 0 .778589-.0361774 1.1531-.0986657.371226-.069066.706314-.1775983 1.008551-.3288857.298952-.1545763.558482-.3519077.772019-.5952831.213537-.2400865.351515-.5360837.420503-.8847025h1.524326v11.5109989h-2.05324v-8.1267652h-2.825259z" fill="#fff"/><g fill="#f15a29"><path d="m84.1524821.45002524h2.0598107v5.36741436l5.2464396-5.36741436h2.5394476l-4.701099 4.70964299 5.0329026 7.08090877h-2.5755846l-3.8600918-5.63052291-1.6820144 1.66745042v3.96307249h-2.0598107z"/><path d="m101.816919 7.61874648-4.4218583-7.16970789h2.3916143l3.114355 5.28519293 3.071647-5.28519293h2.3062l-4.402147 7.16970789v4.62084382h-2.059811z"/><path d="m120.681105 4.19833538c-.085415-.34204111-.203681-.65119366-.358085-.94061306-.154404-.28613054-.3548-.5327948-.597903-.74328164-.239819-.20719798-.52563-.37164082-.847578-.48675081-.325233-.11510999-.70303-.17430942-1.130104-.17430942-.62747 0-1.16624.12826542-1.626166.3815074-.453355.25324197-.827866.59199423-1.113677 1.01625676-.282526.42426253-.496063.90443563-.634041 1.44380815-.134693.53937252-.203681 1.08861161-.203681 1.65100613 0 .55910566.068988 1.11163361.203681 1.65100613.137978.53937252.351515 1.02283448.634041 1.44709701.285811.42426253.660322.75972597 1.113677 1.01296787.459926.253242.998696.3815074 1.626166.3815074.463211 0 .867289-.0822214 1.222089-.2433754.351515-.1578651.653752-.3782185.903426-.65777135.256244-.28284169.453355-.60514966.597903-.98336819.141263-.37492968.236534-.77617021.279241-1.2037216h2.010533c-.045993.70381536-.193826 1.3484313-.453355 1.93055896-.25953.58541648-.604474 1.08861158-1.047974 1.51287418-.43693.4242625-.955989.7465705-1.547322.9800793-.597904.23022-1.251655.34533-1.964541.34533-.877144 0-1.665588-.161154-2.365332-.483462-.699745-.3255968-1.291078-.7695925-1.774-1.3286981-.486207-.5623946-.857433-1.22016593-1.113677-1.96673644-.256245-.74985935-.384367-1.54576271-.384367-2.39428777 0-.83865849.128122-1.62798413.384367-2.37784349.256244-.74985936.62747-1.40434187 1.113677-1.96344753.482922-.56239452 1.074255-1.00967905 1.774-1.33856473.699744-.33217454 1.488188-.49661738 2.365332-.49661738.660323 0 1.281222.09208799 1.8627.27297511.584763.18088713 1.097252.44728453 1.544037.79590336.4435.34532996.80487.76630364 1.080825 1.25963216.275956.49661739.440215 1.06558962.509204 1.70033899z"/><path d="m127.822439 10.0117187h2.296344v2.2298449c-.013141.6807934-.223392 1.2563434-.62747 1.7167833-.407363.4637288-.939563.7597259-1.599885.8912802v-1.0063902c.36137-.0887991.634041-.2894194.818011-.6051496.1774-.3124414.2661-.644616.256244-.9965237h-1.143244z"/><path d="m146.131758 7.55132492h3.597277l-1.764144-5.06812838h-.052563zm.726026-7.1006419h2.194503l4.533554 11.79055178h-2.207644l-1.103822-3.12112517h-4.704384l-1.103822 3.12112517h-2.128799z"/><path d="m157.972877.45002524h2.900818l3.252332 9.23182114h.032852l3.166918-9.23182114h2.871251v11.79055176h-1.96454v-9.10026687h-.032852l-3.265473 9.10026687h-1.698441l-3.268758-9.10026687h-.029567v9.10026687h-1.96454z"/><path d="m175.964518.45002524h2.066381v10.00799136h5.985606v1.7825604h-8.051987z"/><path d="m200.343543 1.57415651c-.348229 0-.647181.11839885-.890285.35519654-.243103.23679769-.364655.55252795-.364655.94719077 0 .20062026.039422.38479624.108411.55252794.072274.17430942.160974.33875226.262815.49990624.105126.15786513.220107.31573026.348229.46701767.128122.15457627.243104.30257483.351515.44728453.180685-.1216877.348229-.2433754.515774-.37164082.164259-.12497656.312092-.26310855.440215-.4111071.134692-.15128742.239818-.31901912.315377-.5031951.07556-.18746484.114982-.39795168.114982-.62817166 0-.38479624-.108411-.71039307-.325234-.9669239-.223392-.25981969-.515773-.38808511-.877144-.38808511zm-.758877 5.21941579c-.174115.10853228-.367941.21706456-.578193.32888569-.206966.11182113-.404078.24666426-.584763.4111071s-.335088.36506311-.463211.59528309c-.128122.23021998-.187255.52292824-.187255.87483592 0 .63803822.1774 1.1313667.535485 1.470119.358085.3420411.81144.5097728 1.360066.5097728.338374 0 .634041-.0427551.873859-.138132.243104-.092088.446785-.207198.6209-.3387522.167545-.1315543.312093-.2729751.427074-.4275514.114982-.15457629.216822-.29270828.305522-.41439598zm3.314751 4.1275153c-.43693.5393726-.926422.9307465-1.458622 1.1774108-.535485.2466642-1.14653.3716408-1.839703.3716408-.538771 0-1.038119-.0789326-1.494759-.2400865-.453356-.1578652-.844293-.3847963-1.176096-.6840823-.331804-.2959971-.588048-.6610602-.765448-1.0984782-.180686-.4341291-.272671-.92416872-.272671-1.47669667 0-.41768482.07556-.79590336.229963-1.14123332.154404-.33875226.3548-.65119366.607759-.93074649.256245-.27955283.542056-.52950595.867289-.74985936.325233-.2203534.657037-.41768481.998696-.59528308-.154404-.20062027-.302237-.39466282-.4435-.58870538-.147833-.18746483-.269385-.39137396-.381081-.59857194-.108411-.21048684-.197111-.43084024-.262815-.66434908-.068989-.23021998-.101841-.47030653-.101841-.7235485 0-.43084025.07556-.8156365.226678-1.15767761.147833-.33875225.351515-.63474937.61433-.88141363.262814-.24995312.571622-.43741796.926422-.56897223.351514-.13155427.72274-.20062027 1.120247-.20062027.374511 0 .739167.05919942 1.097252.17430941s.666893.29270826.936278.52950595c.27267.23350884.489492.52950595.657037.88470249.164259.34861883.243103.76301479.243103 1.23661017 0 .35190768-.059133.67750451-.174115.97350162-.114981.29599712-.269385.56897224-.45664.81892536-.193826.24666426-.420504.46701767-.680033.66763793-.256245.19733141-.5322.37492968-.814726.52950595l1.829848 2.2101118c.065703-.18746484.134692-.40124054.200396-.64461594.062418-.24008655.121552-.55581681.164259-.94061306h1.649163c-.055848.51635052-.157689 1.02612333-.305522 1.51945186-.147834.49661738-.3548.95047962-.617615 1.3714533l2.260207 2.73961772h-2.31277z"/><path d="m220.545457 10.557669h3.643269c.630756 0 1.116963-.1644429 1.465192-.4867509.344945-.32559679.51906-.78603674.51906-1.37803097 0-.58541652-.174115-1.03598991-.51906-1.34843131-.348229-.3124414-.834436-.47030652-1.465192-.47030652h-3.643269zm0-5.16679414h3.364028c.499348 0 .909997-.14142084 1.23523-.42426253.335089-.27955283.499348-.68408222.499348-1.21029931 0-.59528309-.151119-1.01625676-.446785-1.25634331-.295667-.24008655-.726026-.36506311-1.287793-.36506311h-3.364028zm-2.059811-4.93986296h5.722791c1.054544 0 1.898837.24337541 2.542733.72683736.634041.48346196.955989 1.21687703.955989 2.19366751 0 .59528309-.147834 1.10505589-.440215 1.52931843-.292381.42426253-.706315.75314821-1.245085.98336819v.03288857c.729311.15457627 1.274652.49661738 1.649163 1.02941219.374511.53608366.561766 1.20701046.561766 2.00949152 0 .46043996-.085415.8912802-.246389 1.29580963-.164259.4012405-.423788.7498593-.778588 1.0392787-.34823.2927083-.801585.5229283-1.350211.6939488-.551911.1677317-1.205663.2565308-1.961255.2565308h-5.410699z"/><path d="m233.180933 12.2425503h1.879126v-8.53787233h-1.879126zm0-10.00799134h1.879126v-1.78584926h-1.879126z"/><path d="m239.544335 3.70369131h1.4192v-2.55873062h1.882411v2.55873062h1.695155v1.40434187h-1.695155v4.55506671c0 .20062027.009855.37164081.022996.51306171.019711.1447097.055848.2663974.114981.3617742.062419.0986657.154404.1743094.275956.2236423.118267.0493328.282526.0756437.492778.0756437.128122 0 .262814-.0032889.394222-.0098666.131407-.0032888.262815-.023022.394222-.0591994v1.4569636c-.206967.023022-.410648.0427551-.607759.0624882-.200396.023022-.400793.0361775-.611045.0361775-.492777 0-.890285-.0493329-1.195807-.1414209-.302237-.092088-.53877-.23022-.7096-.4143959-.167544-.1808872-.285811-.4078183-.344944-.6840823-.059133-.2729751-.09527-.5887053-.108411-.940613v-5.03523982h-1.4192z"/><path d="m254.950208 6.56203678c-.075559-.52950595-.289096-.92745762-.634041-1.19714388-.348229-.26968626-.785159-.40452939-1.310788-.40452939-.243104 0-.499348.03946628-.775304.1216877-.275955.08222142-.525629.23679769-.758877.46043995-.229963.23021998-.420504.53937253-.574908.94390192-.154403.40452939-.233248.92745762-.233248 1.57536242 0 .35190768.039422.70710422.121552 1.05572304.085415.35519654.216822.66763794.400792.94061306.1774.276264.410649.5031951.69646.6742156.285811.1677317.63404.253242 1.041403.253242.548626 0 1.001981-.1710205 1.360066-.5130616.3548-.3387523.578193-.81892539.666893-1.43394162h1.879125c-.170829 1.11163362-.594618 1.96344752-1.26151 2.54886402-.663608.5887054-1.547322.8847025-2.644574.8847025-.673463 0-1.264796-.1118211-1.774-.3387522-.509203-.2269312-.942847-.5360837-1.294362-.9241688-.351515-.391374-.617615-.8583916-.801585-1.39776416-.180685-.53937253-.269385-1.12150019-.269385-1.74967184 0-.63474937.085414-1.23661017.262814-1.79900469.174115-.56239452.43693-1.04585647.788445-1.46025243.3548-.41110711.791729-.73999279 1.314073-.97350163.522345-.23679769 1.133389-.35519653 1.836419-.35519653.496062 0 .965844.06248828 1.412629.18746484.4435.12826541.841007.31901911 1.185951.57226108.34823.25324198.630756.57226109.850863.95705734.223393.38479625.351515.84194735.394222 1.3714533z"/><path d="m265.572523 10.9848915c.417219 0 .778589-.0855103 1.087396-.2631086.308808-.1775983.561767-.4078182.758878-.6939488.197111-.28613053.344944-.6084385.43693-.96692389.09527-.35519654.137977-.72354851.137977-1.09518933 0-.36506311-.042707-.73012622-.137977-1.09190047-.091986-.36177425-.239819-.68408222-.43693-.96692391-.197111-.27955283-.45007-.50648395-.758878-.68408222-.308807-.17759827-.670177-.26310855-1.087396-.26310855-.420503 0-.778588.08551028-1.087396.26310855-.308807.17759827-.561766.40452939-.758877.68408222-.197111.28284169-.344945.60514966-.43693.96692391-.09527.36177425-.141263.72683736-.141263 1.09190047 0 .37164082.045993.73999279.141263 1.09518933.091985.35848539.239819.68079336.43693.96692389.197111.2861306.45007.5163505.758877.6939488.308808.1775983.666893.2631086 1.087396.2631086m0 1.4865632c-.683318 0-1.291077-.1118211-1.823277-.3354634-.535485-.2302199-.98227-.5360836-1.353496-.9373242-.367941-.3946628-.647181-.8682582-.841007-1.41749725-.190541-.54923909-.289097-1.1576776-.289097-1.81544897 0-.65119365.098556-1.2497656.289097-1.80229354.193826-.5492391.473066-1.02283448.841007-1.4174973.371226-.39795168.818011-.70710422 1.353496-.93403534.5322-.22693112 1.139959-.33875225 1.823277-.33875225.683319 0 1.287793.11182113 1.823278.33875225.5322.22693112.98227.53608366 1.350211.93403534.36794.39466282.647181.8682582.841007 1.4174973.19054.55252794.289096 1.15109989.289096 1.80229354 0 .65777137-.098556 1.26620988-.289096 1.81544897-.193826.54923905-.473067 1.02283445-.841007 1.41749725-.367941.4012406-.818011.7071043-1.350211.9373242-.535485.2236423-1.139959.3354634-1.823278.3354634"/><path d="m274.791079 12.2425503h1.879126v-8.53787233h-1.879126zm0-10.00799134h1.879126v-1.78584926h-1.879126z"/><path d="m282.014215 3.70369131h1.78057v1.25634331l.036137.03288857c.282525-.47359539.657036-.84523621 1.120247-1.11492247.459926-.26968626.96913-.40452939 1.530896-.40452939.936278 0 1.672159.24337541 2.21093.7235485.53877.48675082.808155 1.21358818.808155 2.18051208v5.86403169h-1.879126v-5.3674143c-.022996-.6709268-.167544-1.15767761-.430359-1.46025244s-.673463-.45386224-1.238514-.45386224c-.315378 0-.601189.05591057-.854148.17430941-.256245.11510999-.466496.27626398-.643896.47688424-.1774.20390913-.315378.44399568-.413934.72025965-.09527.27297512-.147833.56568337-.147833.87154706v5.03852862h-1.879125z"/></g></g><g transform="translate(606.513761)"><path d="m163.240429 159.147955-7.292027-46.236365-73.8668186-25.5430748-73.87011668 25.5430748-7.2953254 46.236365z" fill="#393332"/><path d="m61.8472795 94.4385028 12.8987421 14.3083472 7.4569307 11.201713 10.8803248-9.877844 9.4489639-15.7477658 1.89309-23.9947092-45.0647944 1.5549681 2.2789646 22.7830886z" fill="#e6c8b7"/><path d="m61.8472795 78.5712255c7.6152379 10.5777447 8.548591 11.5120461 11.965389 15.7114504 3.4200961 4.1994042 5.5935226 4.0442376 8.7036002 3.7339042 3.1067797-.3136347 4.6601695.3103334 9.9436737-6.9990071 5.2835042-7.3126418 10.1019806-14.3116489 10.1019806-14.3116489z" fill="#231f20" opacity=".2"/><path d="m54.2366588 50.0047121c-3.3376443.90789-3.3772211.947507-4.4886699 1.7728617-1.1147468.8253546-1.07517 1.4031028-.9894202 2.9283581.0791536 1.5285568.491412 5.7345638.7387671 7.3852731.2506531 1.6507092.1649034 2.7203688 2.8462323 3.9584007 2.6747327 1.2380319 3.3772211 1.5681737 5.7683201 2.0204681 2.3878009.4555957 0-18.3955036 0-18.3955036z" fill="#e6c8b7"/><path d="m107.611265 50.0047121c3.337644.90789 3.377221.947507 4.48867 1.7728617 1.114746.8253546 1.07517 1.4031028.992718 2.9283581-.082452 1.5285568-.49471 5.7345638-.742065 7.3852731-.250653 1.6507092-.164904 2.7203688-2.846233 3.9584007-2.674732 1.2380319-3.377221 1.5681737-5.76832 2.0204681-2.387801.4555957 0-18.3955036 0-18.3955036z" fill="#e6c8b7"/><path d="m106.136039 26.149983-7.7702471-9.957078-13.0273668-4.1465816-.1714995-1.5021454-3.7037298.7329149-3.7037299-.7329149-.1747975 1.5021454-21.1768917 11.6143901-2.3119454 24.9851347 3.0869913 22.2482589c.8212188 3.9121808-.2044802 3.7041915 4.7327269 8.237039 4.9372071 4.5295461 8.0241983 7.0023085 8.0241983 7.0023085 3.2914714 2.8821383 3.4992497 3.0901277 10.2899707 3.0901277.4155565 0 .827815-.0792341 1.2334773-.2211951.4056623.141961.8146227.2211951 1.2334772.2211951 6.7907211 0 6.9984994-.2079894 10.2899708-3.0901277 0 0 3.0836931-2.4727624 8.0209002-7.0023085 4.937207-4.5328475 3.911508-4.3248582 4.736025-8.237039l3.083693-22.2482589z" fill="#eac7b3"/><path d="m81.38767 48.3602755 4.4359009 16.820727h-4.4359009z" fill="#231f20" opacity=".05"/><path d="m81.3619451 66.9178787 4.4622854-1.7365461h-8.8750998z" fill="#231f20" opacity=".1"/><path d="m81.38767 73.8594411 1.9326676-1.0828652 8.3078321 1.8124787h-10.2404997z" fill="#231f20" opacity=".1"/><path d="m81.3748076 73.8594411-1.9359657-1.0828652-8.3078321 1.8124787h10.2437978z" fill="#231f20" opacity=".1"/><path d="m71.1296906 74.5897149 3.0705009 1.5252553 7.1732968.5909539v-2.1162092z" fill="#231f20" opacity=".1"/><path d="m91.6298188 74.5897149-3.0672028 1.5252553-7.1732969.5909539v-2.1162092z" fill="#231f20" opacity=".1"/><g transform="translate(62.993949 45.640897)"><path d="m-.69582354 2.19247199c0 3.70419149 2.99794339 6.70848227 6.69837517 6.70848227 3.70372985 0 6.70167327-3.00429078 6.70167327-6.70848227s-2.99794342-6.70848227-6.70167327-6.70848227c-3.70043178 0-6.69837517 3.00429078-6.69837517 6.70848227" fill="#e0c1aa" mask="url(#a)"/><path d="m.83414999 2.19247199c0 2.85902836 2.31524341 5.17662411 5.16807183 5.17662411 2.85942456 0 5.17466798-2.31759575 5.17466798-5.17662411 0-2.85902837-2.31524342-5.17662412-5.17466798-5.17662412-2.85282842 0-5.16807183 2.31759575-5.16807183 5.17662412" fill="#fff" mask="url(#a)"/><path d="m3.39806769 2.19247199c0 1.44271985 1.16751591 2.60812056 2.60547336 2.60812056 1.44125551 0 2.60877142-1.16540071 2.60877142-2.60812056 0-1.44271986-1.16751591-2.61142199-2.60877142-2.61142199-1.43795745 0-2.60547336 1.16870213-2.60547336 2.61142199" fill="#5f3917" mask="url(#a)"/><path d="m4.84723857 2.19247199c0 .64047517.5177966 1.15879787 1.15762171 1.15879787.6398251 0 1.1576217-.5183227 1.1576217-1.15879787 0-.64047518-.5177966-1.15879788-1.1576217-1.15879788-.63982511 0-1.15762171.5183227-1.15762171 1.15879788" fill="#231f20" mask="url(#a)"/><path d="m3.86507406.42390213 2.13714776 1.76625886-2.35482022 1.33047163-.44523912-1.49554255z" fill="#fff" mask="url(#a)" opacity=".25"/><path d="m12.3193404 3.81875071-3.81586416-2.57180497-5.22743704.04291844-3.51574 2.22185461-.22756666-3.52591489 5.84417568-.9673156 7.79663168.1617695z" fill="#231f20" mask="url(#a)" opacity=".25"/></g><g transform="translate(87.360141 45.640897)"><path d="m13.0880512 2.19247199c0 3.70419149-2.9979434 6.70848227-6.69837515 6.70848227-3.70043178 0-6.70167324-3.00429078-6.70167324-6.70848227s3.00124146-6.70848227 6.70167324-6.70848227c3.70043175 0 6.69837515 3.00429078 6.69837515 6.70848227" fill="#e0c1aa" mask="url(#b)"/><path d="m11.5613758 2.19247199c0 2.85902836-2.31524346 5.17662411-5.17136994 5.17662411-2.85942456 0-5.17466797-2.31759575-5.17466797-5.17662411 0-2.85902837 2.31524341-5.17662412 5.17466797-5.17662412 2.85612648 0 5.17136994 2.31759575 5.17136994 5.17662412" fill="#fff" mask="url(#b)"/><path d="m8.99448979 2.19247199c0 1.44271985-1.16751591 2.60812056-2.60547335 2.60812056-1.44125552 0-2.60547336-1.16540071-2.60547336-2.60812056 0-1.44271986 1.16421784-2.61142199 2.60547336-2.61142199 1.43795744 0 2.60547335 1.16870213 2.60547335 2.61142199" fill="#5f3917" mask="url(#b)"/><path d="m7.54531891 2.19247199c0 .64047517-.5177966 1.15879787-1.1576217 1.15879787s-1.15432364-.5183227-1.15432364-1.15879787c0-.64047518.51449854-1.15879788 1.15432364-1.15879788s1.1576217.5183227 1.1576217 1.15879788" fill="#231f20" mask="url(#b)"/><path d="m4.25021964 3.95575957 2.13714776-1.76625886-2.35482022-1.33047163-.44853719 1.49554255z" fill="#fff" mask="url(#b)" opacity=".25"/><path d="m.07288729 3.81875071 3.81586414-2.57180497 5.22743705.04291844 3.51903802 2.22185461.2275667-3.52591489-5.84417567-.9673156-7.79663166.1617695z" fill="#231f20" mask="url(#b)" opacity=".25"/></g><path d="m81.38767 89.0139422c.0230865-.0066028.0494711-.0033014.0725575-.0132057.4089604.1452624.8179208.2211951 1.2334773.2211951 6.7940191 0 7.0017974-.204688 10.2932688-3.0868263 0 0 3.0836931-2.4727624 8.0209004-7.0056099 4.940505-4.5295461 3.911508-4.3248582 4.736025-8.237039l3.083693-22.2449575-2.691223-22.4991666-7.2029797-9.2274646h-17.5457193z" fill="#231f20" fill-opacity=".07"/><path d="m54.1337591 48.7019723-.9102666-23.3047127 10.009635-16.77780854v2.27797874l5.5341573-5.3152837v1.82238298l4.1720554-4.02112766v3.41696808l2.8066555-4.4040922 2.4273777 1.44271986.9234589-2.50577659 2.4867429 3.94849645-.7552574-5.01155319 8.4166683 6.90656738-.6826999-3.33773405 9.0993683 6.90656734v-2.12611344l11.9818795 18.37239364-.969632 20.7989362s-2.819848-2.3539114-2.743992-4.7078227c.075855-2.3539114.075855-7.9696242-.379278-10.3994681-.455133-2.4265426-.761854-4.3248582-3.941191-9.1845461-3.1859329-4.8563866-3.9477865-6.375039-6.8302975-5.9953759-2.879213.3796631-9.7820683 1.2116206-11.4475925 1.6705177-1.6688221.4522943-3.1859332-.0759326-5.0064665-.5315284-1.8205333-.4588971-8.1132461-1.0630567-9.7062127-1.2182234-1.5929667-.1518652-2.1998111.5315284-3.8686333 2.429844-1.6688221 1.8983156-6.9754128 8.5803865-7.5096998 10.5513333-.5276908 1.9742483-.9828241 10.6305674-1.2103907 13.5127057-.2275667 2.8854397-1.8963889 4.7837553-1.8963889 4.7837553" fill="#5f3a16"/><path d="m106.989579 28.9644422-8.2649573-10.9309965-7.6581129-10.01980492.4551334 5.00825182-4.3996221-6.29910643 2.199811 9.18454613-6.447722-10.93099648v8.12148938l-3.1826352-8.88081563-1.2169869 10.32353543-3.3343463-4.93231911-4.3237665 5.46384751v-6.14724113l-14.4818146 20.19147513v10.3730568c.2407589-3.5457234.5573734-7.7748404.9069686-9.0822021.5309888-1.9742483 5.8408776-8.6530178 7.5064017-10.5513334 1.6688222-1.8983156 2.2789647-2.5817092 3.8686332-2.4298439 1.5962647.1518652 7.8889776.7593262 9.7095108 1.2149219 1.8172353.4555958 3.3343463.9871242 5.0031685.5315284 1.6688222-.4555957 8.5716775-1.2908546 11.4508905-1.6705177 2.882511-.3796631 3.6410666 1.1389893 6.8270001 5.9986773 3.182635 4.8563865 3.489355 6.7547021 3.94119 9.1845461.342999 1.8289858.428749 5.4638475.415557 8.1545035z" fill="#593518"/><path d="m99.1052187 17.6544429-8.1165443-5.9194433v3.7173972l-1.9722443-2.3539113-1.0619778 1.8983156-2.2723685-1.5186525-3.1100777 4.2522269.3034222-3.1132376-3.7762873 3.7206986-.4716237-1.6705177-1.5401975 1.7398475c.5079024.0792341.9366512.1584681 1.2367753.2344007 1.8205333.4555958 3.3376443.9871241 5.0064665.5315284 1.6688222-.4555958 8.5683795-1.2908546 11.4475925-1.6705177 2.885809-.3796632 3.6443646 1.1389893 6.8302979 5.9986773 3.182635 4.8563865 3.486057 6.7547021 3.941191 9.1845461.455133 2.4298439.455133 8.0455567.379277 10.399468-.075855 2.3539114 2.743993 4.7045213 2.743993 4.7045213l.969631-20.7989361-5.105408-7.8276632-6.1146173-4.3941879z" fill="#4b2e15"/><path d="m86.0448712 42.5666163c1.2565637-.9376028 2.7077135-1.7266418 3.420096-2.2020461.7156807-.4787057 1.6688222-.3565532 2.6483483-.3004291.9828241.0594256 5.6825703.5975568 6.2465399.7164078.5672676.1188511.6266328.2674149 1.1015546.772532.4782197.5084184 3.212318 3.9914148 3.212318 3.9914148-3.8983161-1.8454929-4.7887943-2.4991737-4.7887943-2.4991737s-.534287-.2377021-1.8436198-.2707163c-1.3093328-.0297128-3.7466047-.1782766-4.5810158-.1188511-.831113.0594255-2.2624743.3268404-3.1529526.8946844-.8937763.5645426-1.8139371.8649716-2.1140613.386266-.296826-.4754043-.831113-.8583688-.148413-1.3700887" fill="#5f3917"/><path d="m77.2716817 42.5666163c-1.2532656-.9376028-2.7044153-1.7266418-3.420096-2.2020461-.7156806-.4787057-1.6655241-.3565532-2.6483482-.3004291-.9828241.0594256-5.6825704.5975568-6.2465399.7164078-.5639696.1188511-.6266329.2674149-1.1015546.772532-.4749217.5084184-3.2123178 3.9914148-3.2123178 3.9914148 3.8983159-1.8454929 4.7887941-2.4991737 4.7887941-2.4991737s.5342869-.2377021 1.8469178-.2707163c1.3060348-.0297128 3.7466047-.1782766 4.5777178-.1188511.834411.0594255 2.2624743.3268404 3.1529525.8946844.8937763.5645426 1.8172352.8649716 2.1140613.386266.2968261-.4754043.8344111-.8583688.148413-1.3700887" fill="#5f3917"/><path d="m97.4208956 159.147955 5.1120044-64.8233511-9.4489632 15.7444641-10.8803249 9.877844-7.4569307-11.198411-12.8987421-14.3116489-.2110763.2277979 6.4444239 64.483305z" fill="#c6eafa"/><path d="m73.8284992 159.147955h17.0543073l-5.5737342-29.243965 6.5301738-12.29118-10.7220176-7.154174-8.7036002 7.778142 6.6851829 11.977546z" fill="#2aace2"/><path d="m63.0906509 95.6811567 19.2706087 16.0250853-14.452132 15.397815z" fill="#000" opacity=".25"/><path d="m61.8472795 94.4385028 19.2706086 16.0217842-14.4521319 15.401117z" fill="#fff"/><path d="m103.388749 97.8076004-20.4051441 12.6543366 15.2271778 15.242649z" fill="#000" opacity=".25"/><path d="m102.561264 94.4385028-21.4440355 16.0217842 15.2271778 15.242648z" fill="#fff"/><path d="m42.1459432 159.147955h25.8865321l-6.1179152-64.9818192-26.3350693 21.6275922 16.2561749 7.619674-19.7554246 16.477379z" fill="#494342"/><path d="m122.011287 159.147955 10.069-19.257174-19.755424-16.477379 16.256175-7.619674-26.33507-21.6275922-6.121213 64.9818192z" fill="#494342"/><g fill="#8e9091"><path d="m10.0478307 176.596612h2.9121937l3.2650868 9.26378h.0329807l3.1793371-9.26378h2.882511v11.832283h-1.9722444v-9.131723h-.0329806l-3.2782792 9.131723h-1.7051009l-3.2815772-9.131723h-.0296826v9.131723h-1.9722444z"/><path d="m31.4206276 176.596612h8.5123123v1.789368h-6.4378278v3.100032h5.959608v1.690327h-5.959608v3.463188h6.5532602v1.789368h-8.6277447z"/><path d="m50.5457915 181.982546h3.3937114c.6629116 0 1.167516-.155167 1.5072169-.472103.342999-.313635.5177966-.785738.5177966-1.416309 0-.376361-.0593652-.683393-.1682014-.921095-.1088363-.237702-.2638454-.422582-.4584314-.554639-.1912879-.132056-.4122585-.221195-.6596135-.264113-.2473551-.04622-.5046044-.066028-.7684498-.066028h-3.3640288zm-2.0678884-5.384614h5.6429936c1.3027366 0 2.2789646.280621 2.931982.845163.6530174.561242.9795261 1.346979.9795261 2.35061 0 .564543-.0857498 1.030043-.2506532 1.403103-.1616053.369759-.3561913.666887-.5771618.894685-.2242686.227797-.441941.389567-.6563154.488609-.2143744.099043-.3726817.165071-.4683256.198086v.033014c.1714995.02311.3660855.079234.5672676.165071.2044802.089138.3957681.231099.5705657.422581.1780956.194784.3232106.445692.438643.756025.1154323.307032.1747975.696599.1747975 1.158798 0 .696599.0527691 1.330472.1583073 1.898316.1055381.567844.2671435.973918.488114 1.218223h-2.2195995c-.1517111-.254209-.244057-.53483-.2737396-.845163-.0263845-.307032-.0395768-.607461-.0395768-.894685 0-.541432-.0329807-1.006932-.098942-1.399801-.0659614-.392869-.1879899-.719709-.3660855-.97722-.1747976-.260812-.4155565-.452294-.7222768-.574447-.3001241-.118851-.6892961-.181578-1.1642178-.181578h-3.0474144v4.872894h-2.0678884z"/><path d="m74.736787 180.359238c-.0857497-.343347-.2077782-.656982-.3627874-.944205-.1550092-.287224-.3561913-.538132-.5969502-.746121-.2407589-.211291-.5276908-.37306-.8541995-.48861-.3232106-.11555-.7024884-.174975-1.1345352-.174975-.6299309 0-1.170814.128755-1.6292454.379663-.4551333.254209-.831113.597557-1.121343 1.020138-.2803357.425883-.4947101.90789-.636527 1.449323-.1352208.541433-.2044802 1.096071-.2044802 1.657312 0 .564543.0692594 1.119181.2044802 1.660614.1418169.541432.3561913 1.023439.636527 1.449322.29023.425883.6662097.765929 1.121343 1.020139.4584314.250907.9993145.379663 1.6292454.379663.4650275 0 .8706898-.079234 1.2268811-.241004.3528932-.158468.6563154-.379663.9102666-.660284.2539512-.283922.4551333-.610762.5969502-.987124.145115-.376361.2374609-.779134.2836339-1.21162h2.0184173c-.046173.706503-.1978841 1.353581-.4551333 1.941234-.2605474.584351-.6101425 1.089468-1.0520836 1.515351-.441941.425883-.9597376.752723-1.5566879.987124-.6002482.231099-1.2532656.346649-1.9722443.346649-.8805841 0-1.6721203-.16177-2.3746087-.48861s-1.2961405-.772532-1.7776584-1.333773c-.488114-.564543-.8607956-1.221525-1.1213429-1.974248-.2572493-.749422-.3858739-1.551667-.3858739-2.403433 0-.83856.1286246-1.634202.3858739-2.383624.2605473-.752723.6332289-1.409706 1.1213429-1.974248.4815179-.561241 1.07517-1.010234 1.7776584-1.340376.7024884-.333443 1.4940246-.498514 2.3746087-.498514.6662096 0 1.2895444.092439 1.8733023.274017.583758.181578 1.1015546.445692 1.5500918.795642.441941.346649.8047284.769231 1.0817661 1.267745.2770377.495213.4452391 1.066358.5144986 1.706833z"/><path d="m85.2849964 176.596612h2.0678884v4.707822h5.3824462v-4.707822h2.0711864v11.832283h-2.0711864v-5.335092h-5.3824462v5.335092h-2.0678884z"/><path d="m106.345466 183.723384h3.611384l-1.771062-5.090788h-.052769zm.728873-7.127763h2.203109l4.551334 11.835585h-2.216302l-1.108151-3.133046h-4.722832l-1.108151 3.133046h-2.137148z"/><path d="m121.496129 176.596612h2.186619l5.398936 8.719046h.032981v-8.719046h1.968946v11.832283h-2.186618l-5.382447-8.699237h-.046173v8.699237h-1.972244z"/><path d="m139.026677 176.596612h9.570992v1.789368h-3.756499v10.042915h-2.071186v-10.042915h-3.743307z"/></g></g><g transform="translate(0 4.042553)"><path d="m151.584461 76.467784c0 41.901603-33.933817 75.869897-75.7928901 75.869897-41.8590732 0-75.79289013-33.968294-75.79289013-75.869897 0-41.9016028 33.93381693-75.86989712 75.79289013-75.86989712 41.8590731 0 75.7928901 33.96829432 75.7928901 75.86989712" fill="#fbb040" mask="url(#c)" transform="translate(0 .701181)"/><path d="m124.955204 116.416928c2.351522.944206 3.895018 3.225486 3.895018 5.760975v47.454589h-100.8450113v-47.454589c0-2.535489 1.5368995-4.816769 3.8884216-5.760975l33.3731454-13.397156.6167387-.241004h25.0818036l.6200367.241004z" fill="#15b0bf" mask="url(#d)" transform="translate(0 .701181)"/><path d="m124.955204 116.416928c2.351522.944206 3.895018 3.225486 3.895018 5.760975v47.454589h-5.883753l-34.5373629-42.205333-20.1709811-24.648391-2.9913473-3.6546698v-8.1181879h26.3152809v12.0138617z" fill="#138491" mask="url(#e)" transform="translate(0 .701181)"/><path d="m91.5846971 91.0082213v28.0059327c0 3.222184-1.1873043 6.163748-3.1562506 8.415316-2.3383299 2.680751-5.7848105 4.374379-9.6204631 4.374379h-.7618536c-7.0578645 0-12.7767136-5.72466-12.7767136-12.789695v-28.0059327z" fill="#f7d4b8" mask="url(#f)" transform="translate(0 .701181)"/><path d="m91.4170385 86.9148936v31.7761524c0 3.657972-1.3456116 6.992404-3.5784033 9.547702l-26.2790022-32.1128969v-9.2109575z" fill="#000" mask="url(#g)" opacity=".2" transform="translate(0 .701181)"/><path d="m2.88264158 5.97630851 1.24007339-2.1492234h4.28418973l1.23677533 2.1492234h2.68132887l-.9960164-5.01155319-.0065961-.06602837h-.0197884l-.0032981-.00660284-.003298.00660284h-10.06570216l-.00659613-.00660284-1.02240094 5.0841844z" fill="#f2efdc" transform="translate(71.651376 89.637351)"/><path d="m61.926756 41.1881461c0 4.1366773-1.7644661 7.5008227-3.9411907 7.5008227-.3133164 0-.6200367-.0759326-.9135647-.2112908-3.274981 15.5529823-13.6704899 26.9329716-25.9986664 26.9329716-.2044802 0-.4023642 0-.5969502-.0066028-12.0214562-.3598546-22.10364865-11.5285532-25.37203358-26.7414894-.07585555.0132057-.15500917.0264114-.23746086.0264114-2.18002265 0-3.94448878-3.3641454-3.94448878-7.5008227 0-3.6942872 1.40497677-6.7514007 3.24200039-7.3786702 1.50721687-18.3822979 12.65798323-32.73026242 26.31198283-33.13633689.194586-.01320568.39247-.01320568.5969502-.01320568 13.8881624 0 25.3324568 14.43710287 26.8990389 33.03069147h.0131922c2.1767246 0 3.9411907 3.3542412 3.9411907 7.4975213" fill="#f7d4b8" transform="translate(46.422018 27.988415)"/><path d="m31.6515267 41.1881461c0 4.1366773-1.7644661 7.5008227-3.9411907 7.5008227-.3133164 0-.6200367-.0759326-.9135647-.2112908-3.2749811 15.5529823-13.67049 26.9329716-25.99866644 26.9329716-.20448019 0-.40236424 0-.59695022-.0066028v-74.73090779c.19458598-.01320568.39247003-.01320568.59695022-.01320568 13.88816244 0 25.33245674 14.43710287 26.89903884 33.03069147h.0131923c2.1767246 0 3.9411907 3.3542412 3.9411907 7.4975213" fill="#000" opacity=".1" transform="translate(76.697248 27.988415)"/><path d="m1.61889768 2.53812376.00659613-.00660284h.1121343c-.02968261 0-.07585555.00660284-.11873043.00660284" fill="#fbbf0c" transform="translate(54.495413 59.318202)"/><path d="m62.8297326 22.8132663c-3.8455468-10.4093723-11.3453524-8.6761276-13.5979325-7.8804858-.342999.1188511-.7057864-.0957411-.7783439-.4522943-.4980082-2.4496525-2.7209057-10.48860641-10.7879789-13.10332982-9.5643959-3.10333333-17.2093165 3.63816312-21.4440352 6.53680851-4.2347187 2.89864541-12.20614794 2.70716311-14.82811163 12.37701771-2.23938786 8.2535461.92345891 18.9897589 3.90821003 25.0478617.17809565.3664575.57386376.5711454.98282413.5711454l2.02831154.0066029c.41885457.0033014.79153621.2674148.93335311.6602836l2.84623232 7.8672802c.0560671.1485638.2671434.1155496.2770376-.039617l.3331049-6.0845142c.0923459-2.2383617.1846917-4.1861986.4386429-6.5103972.046173-.4489929.0230865-.9111915-.1253265-1.3403759-1.5336014-4.473422-5.8243873-15.6058049 1.4082748-19.0722943 6.6719906-3.1924716 9.6996166 2.2284574 14.0926426 4.3644752.4089604.1980851.880584.1089468 1.3258232.0198085.540883-.1056454 1.0586796-.2509078 1.563284-.425883.4353449-.1518652.8509014-.3598546 1.2301792-.6272695.5474792-.386266 1.0619777-.7989433 1.513813-1.0597553.976228-.5645426 1.9425617-1.1323865 2.8891071-1.7365461.6892961-.5909539 1.3522077-1.2182234 2.001927-1.862.5177966-.5084185 1.1147469-.6536809 1.6655241-.5579397.4089604.0726312.8640937.0660283 1.1576217-.2277979.6629116-.6602837 1.3950826-1.0267411 2.4108874-.851766 3.9181042.6734894 12.5920219 9.8184185 8.7431771 27.2334008 0 .0099042.2242685 4.8332765.3067202 6.6457553.0098942.221195.3034222.2872234.4320469.1023439l4.9635916-7.0881453s8.6706196-10.1782731 4.1093922-22.5123724" fill="#0e303f" transform="translate(45.412844 16.871394)"/><path d="m39.5393499 7.90464007c-.1813937-.78903901-.3990662-1.53846099-.636527-2.21525177-1.6061589-4.57576596-16.3749054-9.37272695-29.07906151-1.11257802-14.55107398 9.45526242-7.33820027 28.80817732-7.33820027 28.80817732l3.29476947 2.2284574c-.14841304-8.8775141 4.48866991-13.4829929 4.48866991-13.4829929 1.2565637 6.0878156 5.8375796 8.6134007 7.4470365 9.3265071.1319227.0561241.2869319.0528227.4188546-.0132057.1286246-.0660283.2209705-.1881808.2539512-.3334432 1.5995627-7.4149858 9.0202147-15.1568121 16.0385024-18.1842128 1.6556299 2.8524255 1.1279391 5.2657624.5771618 6.579727-.0692594.1650709-.0263845.3565532.1055382.4787056.1319227.1188511 9.4390693.7560249 10.8473441 15.5760922 0 0 4.930611-5.7741808 4.8184767-13.397156-.0890478-6.0746099-8.0143041-12.0666844-11.2365161-14.25882623" fill="#0e303f" transform="translate(52.477064 26.977777)"/><path d="m9.76442366 9.08811099c0 .92769861-.85749756 1.68042201-1.91287917 1.68042201h-5.83757955c-1.05867968 0-1.91617724-.7527234-1.91617724-1.68042201v-6.44767021c0-.92769858.85749756-1.68042199 1.91617724-1.68042199h5.83757955c1.05538161 0 1.91287917.75272341 1.91287917 1.68042199z" fill="#0e303f" transform="translate(72.66055 95.701181)"/><path d="m25.3828622 5.55387518c1.1939005 0 2.2822628.60746099 2.7538864 1.54176241l.8344111 1.64080496-5.079024 7.88048585h-4.980082l-5.0823221-7.88048585.8344111-1.64080496c.4749218-.93430142 1.559986-1.54176241 2.7571845-1.54176241zm5.616609 14.76064182c1.9458599 0 1.5204092-.2079893 11.7312263-20.18487232h-6.0585501l-4.2380168 5.32518794c-1.3093328-1.90161702-4.4194105-3.60184751-7.0512684-3.60184751h-7.961535c-2.6318579 0-5.7452337 1.70023049-7.0512684 3.60184751l-4.24131486-5.32518794h-6.05855007c10.21081713 19.97688302 9.78536639 20.18487232 11.73452433 20.18487232z" fill="#0e303f" transform="translate(56.513761 87.616075)"/><g fill="#8e9091"><path d="m11.6131554 177.551234c-.0890478-.343348-.2077782-.656983-.3627874-.944206s-.3561913-.538131-.5969502-.746121c-.244057-.21129-.5276908-.37306-.85419953-.488609-.32321062-.11555-.70578645-.174976-1.13453523-.174976-.6299309 0-1.17081398.128756-1.63254343.379663-.45513332.25421-.83111302.597557-1.1180449 1.020139-.28363381.425883-.4980082.90789-.63652703 1.449322-.13522077.541433-.20448019 1.096071-.20448019 1.657313 0 .564542.06925942 1.11918.20448019 1.660613.13851883.541433.35289322 1.02344.63652703 1.449323.28693188.425883.66291158.765929 1.1180449 1.020138.46172945.250908 1.00261253.379663 1.63254343.379663.46502752 0 .87068983-.079234 1.22688112-.241003.35289324-.158469.65631544-.379664.91026664-.660284.2539512-.283922.4518353-.610763.5969502-.987124.145115-.376362.2374609-.779135.2803358-1.211621h2.0217154c-.046173.706504-.1978841 1.353582-.4584314 1.941234-.2572493.584351-.6068444 1.089468-1.0487855 1.515351-.441941.425883-.9597377.752724-1.5566879.987124-.6002483.2311-1.25326564.346649-1.97224436.346649-.88058404 0-1.67212024-.161769-2.37460863-.48861-.70248839-.32684-1.29614054-.772532-1.78095647-1.333773-.48481593-.564542-.85749756-1.221524-1.1180449-1.974248-.25724926-.749422-.3858739-1.551667-.3858739-2.403432 0-.838561.12862464-1.634203.3858739-2.383625.26054734-.752723.63322897-1.409705 1.1180449-1.974248.48481593-.561241 1.07846808-1.010234 1.78095647-1.340376.70248839-.333443 1.49402459-.498514 2.37460863-.498514.66291157 0 1.28624634.09244 1.87330236.274018.583758.181578 1.1015546.445691 1.5467937.795642.4452391.346649.8080265.76923 1.0850642 1.267744.2770377.495213.4452391 1.066359.5112005 1.706834z"/><path d="m22.0772641 173.788607h2.0678883v6.893362c0 .399471.0197885.802244.0593653 1.21162.0362787.409376.148413.775834.3298067 1.102674.1846918.326841.4584314.594255.827815.802245.3693835.211291.8937763.313635 1.5665821.313635.6728057 0 1.1939004-.102344 1.563284-.313635.3726816-.20799.6464212-.475404.8278149-.802245.1846918-.32684.293528-.693298.3331048-1.102674s.0560672-.812149.0560672-1.21162v-6.893362h2.0678883v7.573454c0 .762628-.1154323 1.426213-.3462971 1.987454-.2308647.564542-.5606714 1.036645-.9828241 1.41961-.4254507.379663-.9366512.666886-1.5336014.851766-.5936521.188181-1.2598618.283922-1.9854366.283922-.728873 0-1.3917845-.095741-1.9887348-.283922-.5969502-.18488-1.1048526-.472103-1.5303033-.851766-.4254507-.382965-.7519594-.855068-.9861222-1.41961-.2308647-.561241-.3462971-1.224826-.3462971-1.987454z"/><path d="m42.1460051 181.678007c0 .452294.0725575.83856.2275666 1.162099.1550092.320238.3726817.58105.6497193.785738.2770377.204688.5903541.353251.9531416.448993.3561913.092439.7453632.138659 1.1642178.138659.4518353 0 .8377092-.052823 1.1609198-.158468.3166145-.105645.5804599-.241004.7750458-.406074.2011822-.165071.3462971-.356554.4320469-.571146.0890478-.214592.1319227-.432486.1319227-.653681 0-.452294-.098942-.789039-.3067203-1.003631-.2011821-.214592-.4287488-.366457-.6695077-.455596-.4188546-.155166-.9069686-.300429-1.464342-.439088-.5573734-.13866-1.2433714-.316936-2.0612922-.538132-.5112005-.132056-.930055-.307031-1.2664579-.521624-.339701-.214592-.6068445-.455595-.8047285-.72301-.1978841-.264114-.339701-.544734-.4221527-.845163-.0791536-.297128-.1220285-.600859-.1220285-.911192 0-.597557.1220285-1.112578.3693836-1.548365s.5771618-.798943.9861222-1.086167c.4089604-.287223.8739879-.501815 1.3917845-.637174.5177966-.138659 1.0421893-.207989 1.5698802-.207989.6200367 0 1.2037946.079234 1.7512738.241004.5441812.158468 1.025699.399471 1.4379575.719709.4155565.320237.7453632.716408.9861222 1.185209.2407589.468802.3627874 1.013536.3627874 1.630901h-2.0711864c-.0527691-.762628-.3100184-1.300759-.7750459-1.614394-.4650275-.316936-1.0520835-.472103-1.7710623-.472103-.244057 0-.491412.02311-.7486613.075933-.2506531.049521-.4815179.132057-.6925942.247606-.2110763.11555-.3858739.274018-.5210947.472103-.1385188.198085-.2077782.448993-.2077782.746121 0 .41928.1319227.74612.389172.987124.2605473.237702.6002483.415979 1.0191028.538131.0428749.009904.2176725.056124.5210947.13866.3034222.085837.6431232.174975 1.0158048.274017.3792778.102344.7453633.198085 1.1015546.290525.3627874.095741.6167386.165071.7717478.20799.3858739.122152.7222768.287223 1.0092086.498514.2869319.207989.5309889.448993.7222768.719709s.3364029.561241.4287488.871574c.0923459.307032.1418169.617366.1418169.927699 0 .660284-.1352208 1.228128-.4056623 1.696929-.2704415.468802-.6299309.855067-1.0685739 1.152195-.441941.297128-.9432473.518323-1.5039188.653681-.5639695.13866-1.1411313.207989-1.7248893.207989-.6728058 0-1.3060347-.082535-1.902985-.247606-.5969502-.165071-1.1180449-.41928-1.5599859-.762628-.438643-.343347-.7915362-.782436-1.0586797-1.317266-.2638454-.534829-.4023642-1.168702-.4122584-1.898315z"/><path d="m57.0130339 173.788607h9.567694v1.789369h-3.756499v10.042915h-2.0678883v-10.042915h-3.7433067z"/><path d="m79.6130417 175.197652c-.6266328 0-1.1708139.128756-1.6292453.379664-.4584314.254209-.8311131.594255-1.1180449 1.020138-.2869319.425883-.4980082.90789-.6365271 1.449323-.1385188.541432-.2077782 1.096071-.2077782 1.657312 0 .564542.0692594 1.119181.2077782 1.660613.1385189.541433.3495952 1.02344.6365271 1.449323.2869318.425883.6596135.765929 1.1180449 1.020138.4584314.250908 1.0026125.379663 1.6292453.379663.6299309 0 1.170814-.128755 1.6325435-.379663.4584314-.254209.831113-.594255 1.1180449-1.020138.2869318-.425883.4980082-.90789.636527-1.449323.1352208-.541432.2077783-1.096071.2077783-1.660613 0-.561241-.0725575-1.11588-.2077783-1.657312-.1385188-.541433-.3495952-1.02344-.636527-1.449323-.2869319-.425883-.6596135-.765929-1.1180449-1.020138-.4617295-.250908-1.0026126-.379664-1.6325435-.379664m0-1.690326c.8838821 0 1.6754183.165071 2.3779067.498514.7024884.330142 1.2928425.779135 1.7809565 1.340376.4815179.564543.8574976 1.221525 1.1180449 1.974249.2572493.749422.3858739 1.545063.3858739 2.383624 0 .851766-.1286246 1.65401-.3858739 2.403432-.2605473.752724-.636527 1.409706-1.1180449 1.974249-.488114.561241-1.0784681 1.006932-1.7809565 1.333773-.7024884.32684-1.4940246.488609-2.3779067.488609s-1.6754183-.161769-2.3746086-.488609c-.7024884-.326841-1.2928425-.772532-1.7809565-1.333773-.4848159-.564543-.8607956-1.221525-1.1180449-1.974249-.2605473-.749422-.3891719-1.551666-.3891719-2.403432 0-.838561.1286246-1.634202.3891719-2.383624.2572493-.752724.633229-1.409706 1.1180449-1.974249.488114-.561241 1.0784681-1.010234 1.7809565-1.340376.6991903-.333443 1.4907265-.498514 2.3746086-.498514"/><path d="m93.7525169 173.788607h2.9154917l3.2617888 9.26378h.0329807l3.1793369-9.26378h2.882511v11.832284h-1.972244v-9.131724h-.032981l-3.278279 9.131724h-1.7051009l-3.2815772-9.131724h-.0296826v9.131724h-1.9722444z"/><path d="m115.128612 173.788607h8.512312v1.789369h-6.441126v3.100032h5.962906v1.690326h-5.962906v3.463188h6.556559v1.789369h-8.627745z"/><path d="m134.253446 179.174541h3.393711c.662912 0 1.164218-.155167 1.507217-.472103.342999-.313634.514499-.785737.514499-1.416308 0-.376362-.056067-.683394-.164904-.921096-.112134-.237702-.263845-.422582-.458431-.554638-.191288-.132057-.412258-.221195-.659614-.264114-.247355-.04622-.504604-.066028-.768449-.066028h-3.364029zm-2.071187-5.384613h5.646292c1.302737 0 2.278965.28062 2.931982.845163.653017.561241.979526 1.346979.979526 2.35061 0 .564542-.08575 1.030042-.250653 1.403103-.164903.369758-.359489.666886-.577162.894684-.224268.227798-.441941.389567-.656315.48861-.214375.099042-.372682.165071-.471624.198085v.033014c.174798.02311.366086.079234.570566.165071.20448.089138.395768.231099.570566.422582.178095.194783.32321.445691.438642.756024.115433.307032.174798.6966.174798 1.158798 0 .6966.052769 1.330472.158307 1.898316.10224.567844.267144.973918.488114 1.218223h-2.219599c-.151711-.254209-.247355-.534829-.27374-.845163-.026384-.307032-.039577-.607461-.039577-.894684 0-.541433-.03298-1.006933-.10224-1.399802-.062663-.392868-.184691-.719709-.362787-.977219-.178096-.260813-.415557-.452295-.722277-.574447-.300124-.118851-.692594-.181578-1.164218-.181578h-3.047414v4.872893h-2.071187z"/></g></g></g></svg>