<svg height="490" viewBox="0 0 770 490" width="770" xmlns="http://www.w3.org/2000/svg" xmlns:xlink="http://www.w3.org/1999/xlink"><mask id="a" fill="#fff"><path d="m0 .59523765h151.188162v151.06743635h-151.188162z" fill="#fff" fill-rule="evenodd"/></mask><mask id="b" fill="#fff"><path d="m0 76.128627c0 41.715937 33.845101 75.533718 75.5947388 75.533718 41.7463482 0 75.5914492-33.817781 75.5914492-75.533718 0-41.7159371-33.845101-75.53371803-75.5914492-75.53371803-41.7496378 0-75.5947388 33.81778093-75.5947388 75.53371803z" fill="#fff" fill-rule="evenodd"/></mask><mask id="c" fill="#fff"><path d="m0 76.128627c0 41.715937 33.845101 75.533718 75.5947388 75.533718 41.7463482 0 75.5914492-33.817781 75.5914492-75.533718 0-41.7159371-33.845101-75.53371803-75.5914492-75.53371803-41.7496378 0-75.5947388 33.81778093-75.5947388 75.53371803z" fill="#fff" fill-rule="evenodd"/></mask><mask id="d" fill="#fff"><path d="m0 76.128627c0 41.715937 33.845101 75.533718 75.5947388 75.533718 41.7463482 0 75.5914492-33.817781 75.5914492-75.533718 0-41.7159371-33.845101-75.53371803-75.5914492-75.53371803-41.7496378 0-75.5947388 33.81778093-75.5947388 75.53371803z" fill="#fff" fill-rule="evenodd"/></mask><mask id="e" fill="#fff"><path d="m0 76.128627c0 41.715937 33.845101 75.533718 75.5947388 75.533718 41.7463482 0 75.5914492-33.817781 75.5914492-75.533718 0-41.7159371-33.845101-75.53371803-75.5914492-75.53371803-41.7496378 0-75.5947388 33.81778093-75.5947388 75.53371803z" fill="#fff" fill-rule="evenodd"/></mask><mask id="f" fill="#fff"><path d="m7.99670966.69351266-4.98021994.12161123-2.22695436 1.59737987c.82565073.90058043 2.10853434 1.99179467 2.93089562 2.07067762 2.73023947.25308282 4.03943863.31224504 4.6414071.14790555.22368226-.05916222 3.39141792-1.50863655 3.39141792-1.50863655l-3.56575852-2.37634908c-.04934167-.0328679-.11184113-.05258864-.17763003-.05258864-.00328945 0-.00657889 0-.01315779 0z" fill="#fff" fill-rule="evenodd"/></mask><mask id="g" fill="#fff"><path d="m4.17430588.7461013-3.56575853 2.37634908s3.16444623 1.44947433 3.39141794 1.50863655c.60196846.16433949 1.91116763.10517727 4.64140709-.14790555.82236129-.07888295 2.10524492-1.17009719 2.93418502-2.07067762l-2.23682265-1.59737987-4.97364105-.12161123c-.00328944 0-.00986833 0-.01315778 0-.0657889 0-.12499892.01972074-.17763004.05258864z" fill="#fff" fill-rule="evenodd"/></mask><g fill="none" fill-rule="evenodd"><g transform="translate(0 2.01232)"><path d="m151.188162 76.1289556c0 41.7159374-33.845101 75.5337184-75.594739 75.5337184-41.7496377 0-75.59473878-33.817781-75.59473878-75.5337184 0-41.715937 33.84510108-75.53371795 75.59473878-75.53371795 41.749638 0 75.594739 33.81778095 75.594739 75.53371795" fill="#fbb040" mask="url(#a)" transform="translate(0 .698074)"/><path d="m124.628524 115.901085c2.345374.940022 3.884834 3.211194 3.884834 5.735448v47.244318h-100.5813635v-47.244318c0-2.524254 1.5328814-4.795426 3.8782558-5.735448l33.2858953-13.337793.6151263-.239936h25.0162303l.6184157.239936z" fill="#15b0bf" mask="url(#b)" transform="translate(0 .698074)"/><path d="m124.628524 115.901085c2.345374.940022 3.884834 3.211194 3.884834 5.735448v47.244318h-5.86837l-34.4470691-42.018322-20.1182465-24.539173-2.9835268-3.6384762v-8.0822163h26.2464828v11.9606285z" fill="#138491" mask="url(#c)" transform="translate(0 .698074)"/><path d="m91.34526 90.6049643v27.8818387c0 3.207907-1.1842003 6.136436-3.147999 8.378027-2.3322166 2.668873-5.7696868 4.354997-9.5953115 4.354997h-.7598618c-7.0394126 0-12.7433105-5.699294-12.7433105-12.733024v-27.8818387z" fill="#f7d4b8" mask="url(#d)" transform="translate(0 .698074)"/><path d="m91.1780397 86.5297741v31.6353529c0 3.641763-1.3420937 6.961421-3.569048 9.505396l-26.2102989-31.9706051v-9.1701438z" fill="#000" mask="url(#e)" opacity=".2" transform="translate(0 .698074)"/><path d="m2.87510526 5.94982752 1.23683137-2.13970021h4.27298924l1.23354193 2.13970021h2.6743189l-.9934124-4.98934703-.0065789-.06573579h-.0197367l-.0032894-.00657358-.0032895.00657358h-10.03938656l-.00657889-.00657358-1.01972799 5.0616564z" fill="#f2efdc" transform="translate(71.464052 89.240168)"/><path d="m61.764856 41.0056416c0 4.1183477-1.7598531 7.4675866-3.9308869 7.4675866-.3124973 0-.6184157-.0755962-.9111763-.2103546-3.266419 15.4840671-13.6347501 26.8136318-25.9306961 26.8136318-.2039456 0-.4013123 0-.5953895-.0065736-11.9900276-.3582601-22.04586135-11.4774702-25.30570149-26.6229979-.07565724.0131471-.15460392.0262943-.23684005.0262943-2.17432323 0-3.93417638-3.3492389-3.93417638-7.4675866 0-3.6779178 1.40130363-6.7214853 3.23352457-7.3459753 1.50327643-18.300846 12.62489045-32.58523481 26.24319335-32.98950997.1940772-.01314716.3914439-.01314716.5953895-.01314716 13.8518535 0 25.2662282 14.37313213 26.8287146 32.88433263h.0131578c2.1710338 0 3.9308869 3.3393785 3.9308869 7.4642998" fill="#f7d4b8" transform="translate(46.300654 27.864398)"/><path d="m31.5687776 41.0056416c0 4.1183477-1.7598532 7.4675866-3.9308869 7.4675866-.3124973 0-.6184157-.0755962-.9111764-.2103546-3.266419 15.4840671-13.6347501 26.8136318-25.93069599 26.8136318-.2039456 0-.4013123 0-.59538957-.0065736v-74.39977547c.19407727-.01314716.39144397-.01314716.59538957-.01314716 13.85185349 0 25.26622809 14.37313213 26.82871459 32.88433263h.0131578c2.1710337 0 3.9308869 3.3393785 3.9308869 7.4642998" fill="#000" opacity=".1" transform="translate(76.496732 27.864398)"/><path d="m1.61466526 2.52687734.0065789-.00657358h.11184113c-.02960501 0-.07565724.00657358-.11842003.00657358" fill="#fbbf0c" transform="translate(54.352941 59.055364)"/><path d="m62.6654718 22.7121808c-3.835493-10.3632484-11.3156912-8.6376837-13.5623823-7.8455674-.3421023.1183245-.7039412-.0953169-.776309-.4502902-.4967062-2.4387981-2.7137923-10.44213141-10.7597751-13.04526899-9.5393909-3.08958248-17.1643247 3.62204244-21.3879723 6.50784394-4.2236475 2.88580155-12.17423644 2.69516765-14.78934532 12.32217525-2.23353325 8.2169746.92104464 18.9056153 3.89799249 24.9368747.17763003.3648337.57236345.5686147.98025465.5686147l2.02300876.0065735c.41775953.0032868.78946683.26623.93091297.657358l2.83879115 7.8324203c.0559206.1479055.2664451.1150376.2763134-.0394415l.332234-6.0575537c.0921044-2.2284436.1842089-4.1676496.4374962-6.4815497.0460522-.4470034.0230261-.907154-.124999-1.3344366-1.5295919-4.4536003-5.80916007-15.5366558 1.4045931-18.9877851 6.6545475-3.1783258 9.6742582 2.2185831 14.0557991 4.3451362.4078912.1972074.8782819.1084641 1.322357.0197207.539469-.1051772 1.0559118-.249796 1.5591969-.4239959.4342068-.1511923.8486769-.3582601 1.2269631-.62449.5460479-.3845545 1.0592013-.7954032 1.5098553-1.0550596.9736758-.5620411 1.9374832-1.1273689 2.8815539-1.7288515.6874941-.5883353 1.3486726-1.2128254 1.9966932-1.8537494.5164429-.5061657 1.1118325-.6507844 1.6611698-.5554675.4078912.0723093.8618347.0657358 1.1545953-.2267885.6611785-.657358 1.3914353-1.0221917 2.4045844-.8479918 3.9078608.6705051 12.5591015 9.7749131 8.720319 27.1127296 0 .0098604.2236823 4.8118604.3059184 6.616308.0098684.2202149.302629.2859507.4309174.1018905l4.9506149-7.0567378s8.6479513-10.1331732 4.0986486-22.4126202" fill="#0e303f" transform="translate(45.294118 16.796637)"/><path d="m39.4359791 7.86961465c-.1809195-.78554278-.3980229-1.53164408-.6348629-2.20543601-1.6019598-4.55549075-16.3320952-9.33119644-29.00303785-1.10764818-14.51303195 9.41336614-7.31901543 28.68052844-7.31901543 28.68052844l3.28615569 2.2185831c-.14802503-8.8381779 4.47693479-13.4232498 4.47693479-13.4232498 1.2532786 6.0608405 5.8223179 8.5752348 7.4275672 9.2851814.1315778.0558754.2861817.0525886.4177595-.0131472.1282884-.0657358.2203928-.187347.2532873-.3319658 1.5953809-7.38213 8.9966324-15.0896522 15.9965717-18.1036386 1.6513015 2.8397865 1.1249902 5.2424299.5756529 6.5505723-.0690784.1643394-.0263156.3549733.1052622.4765845.1315778.1183244 9.414392.7526749 10.8189851 15.5070746 0 0 4.9177205-5.7485955 4.8058794-13.3377933-.0888151-6.0476934-7.9933517-12.013217-11.2071396-14.19564545" fill="#0e303f" transform="translate(52.339869 26.858238)"/><path d="m9.73889575 9.04784162c0 .92358795-.85525573 1.67297608-1.90787818 1.67297608h-5.8223179c-1.05591188 0-1.91116762-.74938813-1.91116762-1.67297608v-6.41910062c0-.92358795.85525574-1.67297604 1.91116762-1.67297604h5.8223179c1.05262245 0 1.90787818.74938809 1.90787818 1.67297604z" fill="#0e303f" transform="translate(72.470588 95.277129)"/><path d="m25.3165018 5.52926598c1.1907791 0 2.276296.60476934 2.7466867 1.53493087l.8322296 1.63353457-5.0657455 7.84556738h-4.9670622l-5.0690349-7.84556738.8322296-1.63353457c.4736801-.93016153 1.5559076-1.53493087 2.7499761-1.53493087zm5.6019251 14.69523752c1.9407726 0 1.5164342-.2070678 11.7005563-20.09543327h-6.0427107l-4.226937 5.30159206c-1.3059097-1.89319097-4.4078565-3.58588775-7.0328337-3.58588775h-7.9407206c-2.6249772 0-5.7302134 1.69269678-7.0328337 3.58588775l-4.23022642-5.30159206h-6.04271072c10.18412214 19.88836547 9.75978373 20.09543327 11.70384584 20.09543327z" fill="#0e303f" transform="translate(56.366013 87.227848)"/><g fill="#8e9091"><path d="m11.5827942 176.764505c-.088815-.341826-.207235-.654071-.3618389-.940022-.154604-.285951-.3552601-.535747-.5953896-.742814-.2434189-.210355-.5263112-.371408-.8519663-.486445-.32236562-.115038-.70394126-.1742-1.13156913-.1742-.62828402 0-1.16775302.128185-1.62827534.377981-.45394343.253082-.82894018.594909-1.11512191 1.015618-.28289228.423996-.49670621.903867-.63486291 1.4429-.13486725.539034-.2039456 1.091215-.2039456 1.649969 0 .562041.06907835 1.114222.2039456 1.653255.1381567.539034.35197063 1.018905.63486291 1.442901.28618173.423996.66117848.762535 1.11512191 1.015618.46052232.249796.99999132.377981 1.62827534.377981.46381177 0 .86841352-.078883 1.22367359-.239936.35197064-.157766.65459954-.377981.90788684-.657358.2532873-.282664.450654-.608056.5953896-.98275s.23684-.775682.2796028-1.206252h2.0164299c-.0460522.703373-.1973667 1.347584-.4572329 1.932633-.2565767.581762-.6052579 1.08464-1.0460435 1.508636-.4407857.423996-.9572286.749388-1.5526181.98275-.5986791.230076-1.24998919.345113-1.96708823.345113-.87828185 0-1.66774868-.161052-2.3684005-.486445-.70065181-.325392-1.29275194-.769108-1.77630037-1.327863-.48354844-.562041-.85525574-1.216112-1.11512191-1.9655-.25657672-.746101-.38486508-1.544791-.38486508-2.392783 0-.834845.12828836-1.626961.38486508-2.373062.25986617-.749388.63157347-1.40346 1.11512191-1.965501.48354843-.558754 1.07564856-1.005757 1.77630037-1.334436.70065182-.331966 1.49011865-.496306 2.3684005-.496306.66117847 0 1.28288361.092031 1.86840483.272804.5822318.180773 1.0986747.443717 1.5427498.792116.4440751.345113.805914.765822 1.0822274 1.262128.2763134.493018.4440751 1.061633.509864 1.69927z"/><path d="m22.0195458 173.018551h2.0624821v6.862817c0 .397701.0197366.79869.05921 1.206252.0361839.407562.148025.772395.3289445 1.097788.1842089.325392.4572329.591622.8256507.798689.3684179.210355.8914397.312246 1.5624865.312246s1.1907791-.101891 1.559197-.312246c.3717073-.207067.6447312-.473297.8256507-.798689.1842089-.325393.2927606-.690226.332234-1.097788.0394733-.407562.0559205-.808551.0559205-1.206252v-6.862817h2.0624821v7.539896c0 .759248-.1151306 1.419893-.3453917 1.978647-.2302612.562041-.5592057 1.032052-.9802547 1.41332-.4243384.377981-.9342024.663931-1.529592.847991-.5921001.187347-1.256568.282664-1.9802459.282664-.7269674 0-1.3881459-.095317-1.9835355-.282664-.5953895-.18406-1.1019641-.47001-1.5263025-.847991-.4243384-.381268-.7499935-.851279-.9835441-1.41332-.2302612-.558754-.3453917-1.219399-.3453917-1.978647z"/><path d="m42.0358194 180.872992c0 .450291.0723678.834845.2269718 1.15695.1546039.318819.3717073.578475.6480206.782256.2763134.203781.5888107.351687.9506497.447004.3552601.09203.7434146.138045 1.1611741.138045.450654 0 .8355191-.052589 1.1578847-.157766.3157868-.105177.5789424-.239936.7730196-.404275.2006562-.16434.3453918-.354973.4309173-.568615.0888151-.213641.1315778-.430569.1315778-.650784 0-.45029-.0986833-.785543-.3059184-.999184-.2006561-.213642-.4276278-.364834-.6677573-.453577-.4177596-.154479-.9045974-.299098-1.4605137-.437143-.5559162-.138046-1.2401208-.315532-2.0559032-.535747-.509864-.131472-.9276235-.305672-1.2631469-.519313-.3388129-.213641-.6052579-.453577-.8026246-.719807-.1973667-.262943-.3388129-.54232-.421049-.841418-.0789467-.295811-.1217095-.598196-.1217095-.907154 0-.594909.1217095-1.107648.3684179-1.541505.2467084-.433856.5756529-.795403.9835441-1.081353.4078912-.285951.8717029-.499592 1.3881458-.634351.5164429-.138045 1.0394647-.207068 1.5657759-.207068.6184157 0 1.2006475.078883 1.7466954.239936.5427584.157766 1.0230174.397702 1.4341981.71652.4144701.318819.7434146.713234.9835441 1.179958s.3618389 1.009044.3618389 1.623674h-2.0657715c-.0526311-.759248-.3092079-1.294995-.7730196-1.60724-.4638118-.315532-1.049333-.470011-1.7664321-.470011-.2434189 0-.4901273.023007-.746704.075596-.2499978.049302-.480259.131472-.6907835.246509-.2105245.115038-.3848651.272804-.5197323.470011-.1381567.197208-.2072351.447004-.2072351.742815 0 .417422.1315778.742814.3881546.98275.2598661.236649.598679.414135 1.0164385.535747.0427628.00986.2171034.055875.5197323.138045.302629.085456.6414418.1742 1.0131491.272803.3782862.101891.7434146.197208 1.0986747.289238.361839.095317.6151263.164339.7697302.207068.3848651.121611.7203885.28595 1.0065702.496305.2861817.207068.5296007.447003.7203885.71652s.3355234.558754.4276279.867713c.0921044.305671.1414461.614629.1414461.923588 0 .657358-.1348673 1.222685-.4046018 1.68941-.2697345.466724-.628284.851278-1.0657802 1.147089-.4407856.295811-.9407813.516026-1.499987.650785-.5624951.138045-1.138148.207067-1.7203798.207067-.6710468 0-1.3026203-.082169-1.8980098-.246509-.5953896-.164339-1.1151219-.417422-1.5559076-.759248-.4374962-.341826-.7894668-.77897-1.0559119-1.311429-.2631556-.53246-.4013123-1.163524-.4111806-1.889905z"/><path d="m56.8639802 173.018551h9.5426804v1.78144h-3.746678v9.998414h-2.0624821v-9.998414h-3.7335203z"/><path d="m79.4049031 174.421352c-.6249946 0-1.1677531.128185-1.6249859.377981-.4572329.253083-.8289402.591623-1.1151219 1.015618-.2861818.423996-.4967063.903868-.634863 1.442901-.1381566.539034-.207235 1.091214-.207235 1.649969 0 .562041.0690784 1.114221.207235 1.653255.1381567.539034.3486812 1.018905.634863 1.442901.2861817.423996.657889.762535 1.1151219 1.015618.4572328.249796.9999913.377981 1.6249859.377981.628284 0 1.167753-.128185 1.6282753-.377981.4572329-.253083.8289402-.591622 1.1151219-1.015618s.4967062-.903867.6348629-1.442901c.1348673-.539034.2072351-1.091214.2072351-1.653255 0-.558755-.0723678-1.110935-.2072351-1.649969-.1381567-.539033-.3486812-1.018905-.6348629-1.442901-.2861817-.423995-.657889-.762535-1.1151219-1.015618-.4605223-.249796-.9999913-.377981-1.6282753-.377981m0-1.682836c.8815713 0 1.6710381.16434 2.3716899.496305.7006518.328679 1.2894625.775683 1.7763004 1.334437.480259.562041.8552557 1.216112 1.1151219 1.9655.2565767.746102.3848651 1.538218.3848651 2.373063 0 .847991-.1282884 1.646681-.3848651 2.392783-.2598662.749388-.6348629 1.403459-1.1151219 1.9655-.4868379.558754-1.0756486 1.002471-1.7763004 1.327863s-1.4901186.486445-2.3716899.486445-1.6710382-.161053-2.3684005-.486445c-.7006519-.325392-1.2894625-.769109-1.7763004-1.327863-.4835484-.562041-.8585452-1.216112-1.1151219-1.9655-.2598662-.746102-.3881545-1.544792-.3881545-2.392783 0-.834845.1282883-1.626961.3881545-2.373063.2565767-.749388.6315735-1.403459 1.1151219-1.9655.4868379-.558754 1.0756485-1.005758 1.7763004-1.334437.6973623-.331965 1.4868292-.496305 2.3684005-.496305"/><path d="m93.5074123 173.018551h2.9078695l3.2532612 9.222732h.0328945l3.1710255-9.222732h2.874975v11.779854h-1.967089v-9.09126h-.032894l-3.269708 9.09126h-1.7006436l-3.2729979-9.09126h-.029605v9.09126h-1.9670882z"/><path d="m114.827622 173.018551h8.490058v1.78144h-6.424286v3.086295h5.947316v1.682837h-5.947316v3.447842h6.539416v1.78144h-8.605188z"/><path d="m133.902456 178.38062h3.38484c.661178 0 1.161174-.15448 1.503276-.470011.342102-.312245.513153-.782256.513153-1.410033 0-.374694-.05592-.680366-.164472-.917015-.111841-.236648-.263155-.420709-.457233-.55218-.190788-.131472-.41118-.220215-.657889-.262943-.246708-.046016-.503285-.065736-.76644-.065736h-3.355235zm-2.065771-5.360755h5.63153c1.299331 0 2.273007.279377 2.924317.841419.65131.558754.976965 1.34101.976965 2.340194 0 .562041-.085526 1.025478-.249998 1.396886-.164472.36812-.358549.663931-.575653.89072-.223682.226788-.440785.387841-.654599.486445-.213814.098603-.371708.164339-.470391.197207v.032868c.174341.023007.365128.078883.569074.164339.203946.088744.394733.230076.569074.420709.17763.193921.322366.443717.437496.752675.115131.305672.174341.693513.174341 1.153664 0 .693512.052631 1.324576.157893 1.889904.101973.565328.266445.969603.486838 1.212825h-2.213797c-.151314-.253083-.246708-.53246-.273023-.841418-.026316-.305671-.039474-.604769-.039474-.89072 0-.539034-.032894-1.002471-.101973-1.393599-.062499-.391128-.184209-.71652-.361839-.97289-.17763-.259656-.41447-.45029-.720388-.571901-.29934-.118325-.690784-.180774-1.161174-.180774h-3.039448v4.851302h-2.065771z"/></g></g><g transform="translate(606.941176)"><path d="m162.813657 158.442771-7.272963-46.031492-73.6737029-25.4298932-73.67699227 25.4298932-7.27625265 46.031492z" fill="#393332"/><path d="m61.6855873 94.0200463 12.8650199 14.2449477 7.4374355 11.152078 10.8518795-9.834076 9.4242598-15.6779874 1.888142-23.8883888-44.9469784 1.5480781 2.2730066 22.6821369z" fill="#e6c8b7"/><path d="m61.6855873 78.2230768c7.5953288 10.5308747 8.5262418 11.4610363 11.9341069 15.641833 3.4111546 4.1807967 5.578899 4.0263176 8.6808457 3.7173593 3.0986574-.312245 4.647986.3089583 9.9176771-6.9679945 5.2696912-7.2802396 10.075571-14.2482341 10.075571-14.2482341z" fill="#231f20" opacity=".2"/><path d="m54.0948636 49.7831414c-3.3289184.9038672-3.3683918.9433087-4.4769348 1.7650062-1.1118324.8216974-1.0723591 1.3968857-.9868335 2.9153826.0789467 1.5217837.4901273 5.709154.7368357 7.3525489.2499978 1.643395.1644722 2.7083149 2.8387911 3.9408611 2.66774 1.2325462 3.3683919 1.5612252 5.7532396 2.0115154 2.3815583.453577 0-18.3139932 0-18.3139932z" fill="#e6c8b7"/><path d="m107.329928 49.7831414c3.328918.9038672 3.368392.9433087 4.476935 1.7650062 1.111832.8216974 1.072359 1.3968857.990123 2.9153826-.082236 1.5217837-.493417 5.709154-.740125 7.3525489-.249998 1.643395-.164473 2.7083149-2.838791 3.9408611-2.66774 1.2325462-3.368392 1.5612252-5.75324 2.0115154-2.381558.453577 0-18.3139932 0-18.3139932z" fill="#e6c8b7"/><path d="m105.858559 26.0341125-7.7499326-9.9129582-12.9933083-4.1282081-.1710511-1.4954894-3.6940469.7296674-3.6940469-.7296674-.1743406 1.4954894-21.1215272 11.5629268-2.3059011 24.8744257 3.0789207 22.1496769c.8190718 3.894846-.2039456 3.6877783 4.7203538 8.2005408 4.9242993 4.5094757 8.00322 6.9712813 8.00322 6.9712813 3.2828662 2.8693675 3.4901013 3.0764353 10.2630688 3.0764353.4144701 0 .8256508-.078883 1.2302525-.2202149.4046018.1413319.812493.2202149 1.2302525.2202149 6.7729675 0 6.9802026-.2070678 10.2630688-3.0764353 0 0 3.0756312-2.4618056 7.9999306-6.9712813 4.924299-4.5127625 3.901282-4.3056948 4.723643-8.2005408l3.075631-22.1496769z" fill="#eac7b3"/><path d="m81.1748918 48.1459914 4.4243037 16.7461944h-4.4243037z" fill="#231f20" opacity=".05"/><path d="m81.1492341 66.6213659 4.4506193-1.7288515h-8.8518969z" fill="#231f20" opacity=".1"/><path d="m81.1748918 73.5321703 1.9276149-1.0780671 8.2861123 1.8044477h-10.2137272z" fill="#231f20" opacity=".1"/><path d="m81.162063 73.5321703-1.9309043-1.0780671-8.2861123 1.8044477h10.2170166z" fill="#231f20" opacity=".1"/><path d="m70.9437306 74.2592082 3.0624734 1.5184969 7.1545432.5883354v-2.1068323z" fill="#231f20" opacity=".1"/><path d="m91.3902637 74.2592082-3.059184 1.5184969-7.1545432.5883354v-2.1068323z" fill="#231f20" opacity=".1"/><g transform="translate(62.829259 45.438663)"><path d="m-.69400439 2.18275715c0 3.68777824 2.99010563 6.67875702 6.68086307 6.67875702 3.6940469 0 6.68415252-2.99097878 6.68415252-6.67875702 0-3.68777823-2.99010562-6.67875701-6.68415252-6.67875701-3.69075744 0-6.68086307 2.99097878-6.68086307 6.67875701" fill="#e0c1aa" mask="url(#f)"/><path d="m.83196921 2.18275715c0 2.84636003 2.30919048 5.15368652 5.15456053 5.15368652 2.85194894 0 5.16113946-2.30732649 5.16113946-5.15368652s-2.30919052-5.15368651-5.16113946-5.15368651c-2.84537005 0-5.15456053 2.30732648-5.15456053 5.15368651" fill="#fff" mask="url(#f)"/><path d="m3.38918386 2.18275715c0 1.43632718 1.16446358 2.596564 2.59866166 2.596564 1.43748752 0 2.6019511-1.16023682 2.6019511-2.596564 0-1.43632717-1.16446358-2.59985078-2.6019511-2.59985078-1.43419808 0-2.59866166 1.16352361-2.59866166 2.59985078" fill="#5f3917" mask="url(#f)"/><path d="m4.83456605 2.18275715c0 .63763724.51644289 1.15366325 1.15459525 1.15366325.63815235 0 1.15459524-.51602601 1.15459524-1.15366325 0-.63763723-.51644289-1.15366324-1.15459524-1.15366324-.63815236 0-1.15459525.51602601-1.15459525 1.15366324" fill="#231f20" mask="url(#f)"/><path d="m3.85496929.42202382 2.13156045 1.75843258-2.34866383 1.32457632-.44407509-1.48891581z" fill="#fff" mask="url(#f)" opacity=".25"/><path d="m12.287133 3.80182984-3.80588807-2.56040931-5.21377054.04272827-3.50654852 2.21200958-.22697172-3.51029158 5.82889679-.96302943 7.77624836.1610527z" fill="#231f20" mask="url(#f)" opacity=".25"/></g><g transform="translate(87.131748 45.438663)"><path d="m13.0538341 2.18275715c0 3.68777824-2.9901056 6.67875702-6.68086309 6.67875702-3.69075744 0-6.68415252-2.99097878-6.68415252-6.67875702 0-3.68777823 2.99339508-6.67875701 6.68415252-6.67875701 3.69075749 0 6.68086309 2.99097878 6.68086309 6.67875701" fill="#e0c1aa" mask="url(#g)"/><path d="m11.5311499 2.18275715c0 2.84636003-2.30919045 5.15368652-5.15784994 5.15368652-2.85194894 0-5.16113943-2.30732649-5.16113943-5.15368652s2.30919049-5.15368651 5.16113943-5.15368651c2.84865949 0 5.15784994 2.30732648 5.15784994 5.15368651" fill="#fff" mask="url(#g)"/><path d="m8.97097479 2.18275715c0 1.43632718-1.16446358 2.596564-2.59866167 2.596564-1.43748752 0-2.59866166-1.16023682-2.59866166-2.596564 0-1.43632717 1.16117414-2.59985078 2.59866166-2.59985078 1.43419809 0 2.59866167 1.16352361 2.59866167 2.59985078" fill="#5f3917" mask="url(#g)"/><path d="m7.52559259 2.18275715c0 .63763724-.51644289 1.15366325-1.15459524 1.15366325-.63815236 0-1.1513058-.51602601-1.1513058-1.15366325 0-.63763723.51315344-1.15366324 1.1513058-1.15366324.63815235 0 1.15459524.51602601 1.15459524 1.15366324" fill="#231f20" mask="url(#g)"/><path d="m4.23910795 3.93823162 2.13156045-1.75843258-2.34866383-1.32457632-.44736454 1.48891582z" fill="#fff" mask="url(#g)" opacity=".25"/><path d="m.07269674 3.80182984 3.80588802-2.56040931 5.21377055.04272827 3.50983799 2.21200958.2269717-3.51029158-5.8288968-.96302943-7.77624831.1610527z" fill="#231f20" mask="url(#g)" opacity=".25"/></g><path d="m81.1748918 88.6195218c.0230261-.0065735.0493417-.0032868.0723678-.0131471.4078912.1446187.8157824.2202149 1.2302525.2202149 6.776257 0 6.983492-.203781 10.2663583-3.0731485 0 0 3.0756312-2.4618056 7.9999306-6.9745681 4.927589-4.5094757 3.901282-4.3056948 4.723643-8.2005408l3.075631-22.1463901-2.684187-22.399473-7.184148-9.1865777h-17.4998482z" fill="#231f20" fill-opacity=".07"/><path d="m53.992233 48.4861741-.9078869-23.2014497 9.983466-16.70346608v2.26788498l5.5196889-5.29173166v1.814308l4.1611481-4.00331006v3.40182752l2.7993179-4.38457769 2.4210316 1.43632717.9210446-2.49467351 2.4802417 3.93100069-.753283-4.98934702 8.394664 6.8759644-.6809151-3.32294456 9.0755791 6.87596442v-2.11669268l11.9505541 18.29098558-.967097 20.7067762s-2.812475-2.3434812-2.736818-4.6869623c.075657-2.3434812.075657-7.9343108-.378286-10.3533881-.453944-2.4157906-.759862-4.3056948-3.930887-9.1438494-3.1776043-4.8348679-3.9374661-6.3467913-6.8124411-5.9688104-2.8716856.3779808-9.7564943 1.2062518-11.4176641 1.6631156-1.6644593.4502902-3.177604-.0755961-4.9933777-.5291731-1.8157738-.4568638-8.0920351-1.0583464-9.6808371-1.2128255-1.588802-.1511923-2.1940599.5291732-3.8585191 2.4190773-1.6644593 1.8899042-6.9571765 8.5423669-7.4900666 10.5045805-.5263112 1.9655003-.9802547 10.5834633-1.2072264 13.4528309-.2269717 2.8726544-1.8914309 4.7625585-1.8914309 4.7625585" fill="#5f3a16"/><path d="m106.709868 28.8361009-8.2433499-10.8825613-7.6380916-9.97540722.4539434 4.98606022-4.3881198-6.27119506 2.1940599 9.14384946-6.4308653-10.88256131v8.08550311l-3.1743145-8.84146478-1.2138053 10.27779188-3.325629-4.91046402-4.3124626 5.43963722v-6.12000272l-14.4439536 20.10200682v10.3270938c.2401295-3.5300123.5559162-7.7403901.9045974-9.0419589.5296007-1.9655004 5.8256074-8.6146763 7.4867772-10.5045805 1.6644592-1.8899041 2.2730065-2.5702696 3.8585191-2.4190773 1.5920914.1511923 7.8683528.7559617 9.6841265 1.2095387 1.8124843.453577 3.325629.9827501 4.9900883.5291731 1.6644592-.453577 8.5492679-1.2851348 11.4209535-1.6631156 2.874975-.3779809 3.6315474 1.1339425 6.8091513 5.9720972 3.174315 4.8348679 3.480233 6.724772 3.930887 9.1438494.342102 1.8208816.427628 5.4396372.41447 8.118371z" fill="#593518"/><path d="m98.8461201 17.5762162-8.0953245-5.8932143v3.7009254l-1.9670882-2.3434812-1.0592014 1.8899042-2.2664277-1.5119233-3.1019467 4.2333853.3026289-3.0994428-3.7664147 3.7042122-.4703906-1.6631157-1.5361709 1.7321382c.5065745.078883.9342024.157766 1.2335419.2333621 1.8157737.453577 3.3289185.9827502 4.9933777.5291732 1.6644593-.453577 8.5459785-1.2851348 11.4176641-1.6631157 2.8782645-.3779808 3.6348369 1.1339425 6.812441 5.9720972 3.174314 4.8348679 3.476943 6.7247721 3.930887 9.1438494.453943 2.4190774.453943 8.0099069.378286 10.3533881s2.736818 4.6836756 2.736818 4.6836756l.967097-20.7067762-5.092061-7.7929788-6.0986311-4.3747173z" fill="#4b2e15"/><path d="m85.8199173 42.3780038c1.2532786-.9334483 2.7006345-1.7189911 3.4111546-2.1922888.7138096-.4765845 1.6644592-.3549733 2.6414245-.2990979.9802546.0591622 5.6677139.594909 6.230209.7132334.5657846.1183244.6249946.26623 1.0986747.7691088.4769696.5061657 3.2039199 3.973729 3.2039199 3.973729-3.8881245-1.8373155-4.7762747-2.4880999-4.7762747-2.4880999s-.5328901-.2366489-1.8387998-.2695168c-1.3059097-.0295811-3.7368097-.1774867-4.5690393-.1183244-.8289402.0591622-2.2565593.3253922-3.1447095.89072-.8914397.5620411-1.8091949.861139-2.1085344.3845544-.29605-.4732977-.8289401-.8545653-.148025-1.3640178" fill="#5f3917"/><path d="m77.0696643 42.3780038c-1.2499892-.9334483-2.697345-1.7189911-3.4111546-2.1922888-.7138096-.4765845-1.6611698-.3549733-2.6414245-.2990979-.9802546.0591622-5.667714.594909-6.2302091.7132334s-.6249945.26623-1.0986746.7691088c-.4736801.5061657-3.2039196 3.973729-3.2039196 3.973729 3.8881241-1.8373155 4.7762743-2.4880999 4.7762743-2.4880999s.5328901-.2366489 1.8420893-.2695168c1.3026203-.0295811 3.7368097-.1774867 4.5657499-.1183244.8322296.0591622 2.2565593.3253922 3.1447095.89072.8914396.5620411 1.8124843.861139 2.1085343.3845544.2960501-.4732977.8322297-.8545653.1480251-1.3640178" fill="#5f3917"/><path d="m97.1662004 158.442771 5.0986396-64.536119-9.4242599 15.674701-10.8518796 9.834075-7.4374354-11.148791-12.86502-14.2482341-.2105244.2267885 6.4275758 64.1975796z" fill="#c6eafa"/><path d="m73.6354836 158.442771h17.0097208l-5.5591623-29.114385 6.5131014-12.236718-10.6939862-7.122474-8.6808457 7.743677 6.6677053 11.924474z" fill="#2aace2"/><path d="m62.9257081 95.257194 19.2202279 15.954078-14.4143486 15.329588z" fill="#000" opacity=".25"/><path d="m61.6855873 94.0200463 19.2202279 15.9507917-14.4143486 15.332874z" fill="#fff"/><path d="m103.118451 97.3742153-20.3517967 12.5982657 15.1873682 15.175109z" fill="#000" opacity=".25"/><path d="m102.29313 94.0200463-21.3879727 15.9507917 15.1873682 15.175108z" fill="#fff"/><path d="m42.0357578 158.442771h25.8188549l-6.1019208-64.6938849-26.2662194 21.5317609 16.2136751 7.585911-19.7037764 16.404368z" fill="#494342"/><path d="m121.692303 158.442771 10.042676-19.171845-19.703776-16.404368 16.213675-7.585911-26.266219-21.5317609-6.1052105 64.6938849z" fill="#494342"/><g fill="#8e9091"><path d="m10.0215619 175.814113h2.90458l3.2565507 9.222732h.0328945l3.1710251-9.222732h2.8749751v11.779855h-1.9670882v-9.091261h-.0328945l-3.2697085 9.091261h-1.7006431l-3.2729979-9.091261h-.029605v9.091261h-1.9670882z"/><path d="m31.3384822 175.814113h8.4900579v1.78144h-6.4209969v3.086296h5.9440273v1.682836h-5.9440273v3.447843h6.5361275v1.78144h-8.6051885z"/><path d="m50.4136456 181.176182h3.384839c.6611785 0 1.1644636-.154479 1.5032765-.470011.3421023-.312245.5164429-.782256.5164429-1.410033 0-.374694-.0592101-.680365-.1677617-.917014-.1085517-.236649-.2631557-.420709-.4572329-.552181-.1907878-.131472-.4111807-.220215-.657889-.262943-.2467084-.046015-.5032852-.065736-.7664408-.065736h-3.355234zm-2.0624821-5.360754h5.6282406c1.2993309 0 2.2730066.279377 2.9243168.841418.6513101.558754.9769652 1.34101.9769652 2.340194 0 .562041-.0855256 1.025479-.2499979 1.396886-.1611828.36812-.35526.663931-.5756529.89072-.2236822.226788-.4407856.387841-.6545996.486445-.2138139.098604-.3717073.164339-.4671012.197207v.032868c.1710512.023008.3651284.078883.5657846.16434.2039456.088743.3947334.230075.569074.420709.17763.19392.3223656.443716.4374962.752675.1151306.305671.1743406.693512.1743406 1.153663 0 .693513.0526311 1.324576.1578934 1.889904.1052622.565328.266445.969603.4868379 1.212826h-2.2137966c-.1513145-.253083-.243419-.53246-.273024-.841419-.0263155-.305671-.0394733-.604769-.0394733-.89072 0-.539033-.0328945-1.002471-.0986834-1.393599s-.1874983-.71652-.3651284-.972889c-.1743406-.259657-.4144701-.450291-.7203885-.571902-.2993395-.118324-.687494-.180773-1.1611741-.180773h-3.0394473v4.851302h-2.0624821z"/><path d="m74.5413967 179.560067c-.0855255-.341826-.207235-.654071-.3618389-.940022-.1546039-.28595-.3552601-.535746-.5953896-.742814-.2401295-.210355-.5263112-.371407-.8519663-.486445-.3223656-.115038-.7006518-.1742-1.1315691-.1742-.628284 0-1.167753.128185-1.6249859.377981-.4539434.253083-.8289402.594909-1.1184114 1.015618-.2796028.423996-.4934167.903867-.6348629 1.442901-.1348672.539033-.2039456 1.091214-.2039456 1.649968 0 .562041.0690784 1.114222.2039456 1.653256.1414462.539033.3552601 1.018905.6348629 1.4429.2894712.423996.664468.762536 1.1184114 1.015618.4572329.249797.9967019.377981 1.6249859.377981.4638118 0 .8684135-.078883 1.2236736-.239935.3519706-.157766.6545996-.377981.9078868-.657358.2532873-.282664.4539435-.608056.5953896-.98275.1447356-.374695.2368401-.775683.2828923-1.206252h2.0131404c-.0460522.703373-.1973667 1.347583-.4539434 1.932632-.2598662.581762-.6085474 1.084641-1.049333 1.508637-.4407857.423996-.9572285.749388-1.5526181.98275-.598679.230075-1.2499892.345113-1.9670882.345113-.8782819 0-1.6677487-.161053-2.3684005-.486445s-1.2927519-.769109-1.7730109-1.327863c-.4868379-.562041-.8585452-1.216113-1.1184114-1.965501-.2565767-.746101-.3848651-1.544791-.3848651-2.392783 0-.834844.1282884-1.626961.3848651-2.373062.2598662-.749388.6315735-1.403459 1.1184114-1.9655.480259-.558755 1.0723591-1.005758 1.7730109-1.334437.7006518-.331966 1.4901186-.496305 2.3684005-.496305.6644679 0 1.286173.09203 1.8684048.272803.5822318.180774 1.0986747.443717 1.5460392.792117.4407857.345113.8026247.765822 1.0789381 1.262127.2763133.493018.444075 1.061633.5131534 1.69927z"/><path d="m85.0620291 175.814113h2.0624821v4.686962h5.3683745v-4.686962h2.0657716v11.779855h-2.0657716v-5.311453h-5.3683745v5.311453h-2.0624821z"/><path d="m106.067439 182.909306h3.601942l-1.766432-5.06823h-.052631zm.726967-7.096179h2.19735l4.539434 11.783142h-2.210507l-1.105254-3.119164h-4.710485l-1.105254 3.119164h-2.13156z"/><path d="m121.178492 175.814113h2.180902l5.384822 8.680412h.032894v-8.680412h1.963799v11.779855h-2.180902l-5.368375-8.660691h-.046052v8.660691h-1.967088z"/><path d="m138.663209 175.814113h9.54597v1.78144h-3.746678v9.998415h-2.065772v-9.998415h-3.73352z"/></g></g><g transform="translate(278.810458 251.540041)"><g fill="#8e9091"><path d="m.31606771 205.750484h2.098666l2.128271 9.009091h.03289445l2.38155828-9.009091h2.11182378l2.30919048 9.009091h.0361839l2.1940599-9.009091h2.098666l-3.2532612 11.779854h-2.0953766l-2.36182159-9.009091h-.0361839l-2.40787384 9.009091h-2.13156045z"/><path d="m25.7319656 211.112224h3.384839c.6611785 0 1.1611742-.154479 1.5032765-.470011.3421023-.312245.5131534-.782256.5131534-1.410033 0-.374694-.0559206-.680365-.1644723-.917014-.1118411-.236649-.2631556-.420709-.4572328-.552181-.1907879-.131472-.4111807-.220215-.6578891-.262943-.2467083-.046015-.5032851-.065736-.7664407-.065736h-3.355234zm-2.0657716-5.360754h5.6315301c1.2993308 0 2.2730066.279377 2.9243167.841418.6513102.558754.9769652 1.34101.9769652 2.340194 0 .562041-.0855255 1.025479-.2499978 1.396886-.1644722.36812-.3585495.663931-.5756529.89072-.2236823.226788-.4407856.387841-.6545996.486445-.2138139.098603-.3717073.164339-.4703906.197207v.032868c.1743406.023008.3651284.078883.569074.16434.2039456.088743.3947334.230075.569074.420709.17763.19392.3223656.443716.4374962.752675.1151306.305671.1743406.693512.1743406 1.153663 0 .693512.0526311 1.324576.1578934 1.889904.1019728.565328.266445.969603.4868378 1.212825h-2.2137965c-.1513145-.253082-.2467084-.53246-.273024-.841418-.0263155-.305671-.0394733-.604769-.0394733-.89072 0-.539033-.0328945-1.002471-.1019728-1.393599-.0624995-.391128-.184209-.71652-.361839-.97289-.17763-.259656-.4144701-.45029-.7203885-.571901-.2993395-.118324-.6907835-.180773-1.1611741-.180773h-3.0394473v4.851301h-2.0657716z"/><path d="m44.3252253 212.845677h3.6019424l-1.766432-5.06823h-.0526311zm.7269674-7.09618h2.1973493l4.5427238 11.783142h-2.2137966l-1.1052536-3.119163h-4.7104854l-1.1052536 3.119163h-2.128271z"/><path d="m61.5849439 211.327509h3.0197107c.2302611 0 .4703906-.032868.7105201-.098604.243419-.065736.4638118-.1742.6710468-.322106.2006562-.147905.3651284-.345112.4934168-.594909.1249989-.246509.1907878-.558754.1907878-.930161 0-.384554-.0559205-.70666-.1644722-.959743-.1118412-.249796-.2598662-.45029-.4473646-.601482-.1874983-.147906-.4013123-.249796-.6447312-.305672-.2401295-.052588-.4999957-.082169-.7730196-.082169h-3.0558946zm-2.0657715-5.577683h5.2006128c.8388085 0 1.5197236.121611 2.0493243.364834.5263112.239935.9342024.54232 1.2203841.907154.2861817.361547.4835485.755961.5888107 1.186531.1019728.430569.1578934.824984.1578934 1.189818 0 .361547-.0559206.755962-.1578934 1.176671-.1052622.423996-.302629.81841-.5888107 1.179957-.2861817.364834-.6940729.663932-1.2203841.900581-.5296007.236649-1.2105158.354973-2.0493243.354973h-3.1348413v4.522623h-2.0657715z"/><path d="m79.2048568 211.327509h3.0230001c.2302612 0 .4671012-.032868.7105202-.098604.2401295-.065736.4638117-.1742.6677573-.322106.2006562-.147905.3684179-.345112.4934168-.594909.1282884-.246509.1907878-.558754.1907878-.930161 0-.384554-.0559206-.70666-.1644722-.959743-.1085517-.249796-.2598662-.45029-.4473646-.601482-.1842089-.147906-.4013123-.249796-.6414418-.305672-.2434189-.052588-.4999956-.082169-.776309-.082169h-3.0558946zm-2.0657715-5.577683h5.2039022c.8355191 0 1.5197236.121611 2.0460349.364834.5296006.239935.9374918.54232 1.2236736.907154.2861817.361547.4835484.755961.5855212 1.186531.1052622.430569.1578934.824984.1578934 1.189818 0 .361547-.0526312.755962-.1578934 1.176671-.1019728.423996-.2993395.81841-.5855212 1.179957-.2861818.364834-.694073.663932-1.2236736.900581-.5263113.236649-1.2105158.354973-2.0460349.354973h-3.1381307v4.522623h-2.0657715z"/><path d="m94.7589982 205.750484h8.4900578v1.78144h-6.4242863v3.086295h5.9473173v1.682837h-5.9473173v3.447842h6.5394173v1.78144h-8.6051888z"/><path d="m113.833833 215.848159h2.029587c.805914 0 1.463803-.108464 1.976957-.322105.509864-.213641.911176-.509452 1.203937-.89072.29276-.377981.486838-.824984.595389-1.334437.105263-.512739.154604-1.06492.154604-1.659829s-.049341-1.147089-.154604-1.659829c-.108551-.509452-.302629-.956455-.595389-1.334436-.292761-.381268-.694073-.677079-1.203937-.89072-.513154-.216928-1.171043-.322106-1.976957-.322106h-2.029587zm-2.065772-10.097018h4.888116c.904597 0 1.687485.154479 2.345374.46015.661178.308959 1.203937.729668 1.618407 1.262128.41776.535747.730257 1.160237.934202 1.87347.203946.71652.305919 1.479055.305919 2.294179s-.101973 1.577659-.305919 2.29418c-.203945.713233-.516442 1.337723-.934202 1.87347-.41447.53246-.957229.953169-1.618407 1.262127-.657889.305672-1.440777.460151-2.345374.460151h-4.888116z"/><path d="m140.371102 205.750484h9.54597v1.78144h-3.746678v9.998414h-2.065771v-9.998414h-3.733521z"/><path d="m162.915315 207.152957c-.628284 0-1.167753.128185-1.628276.377981-.457233.253082-.82894.591622-1.115122 1.015618-.286181.423996-.496706.903867-.634863 1.4429-.134867.539034-.207235 1.091215-.207235 1.649969 0 .562041.072368 1.114222.207235 1.653255.138157.539034.348682 1.018905.634863 1.442901.286182.423996.657889.762535 1.115122 1.015618.460523.249796.999992.377981 1.628276.377981.624994 0 1.167753-.128185 1.624986-.377981.457232-.253083.82894-.591622 1.115121-1.015618.286182-.423996.496707-.903867.634863-1.442901.138157-.539033.207235-1.091214.207235-1.653255 0-.558754-.069078-1.110935-.207235-1.649969-.138156-.539033-.348681-1.018904-.634863-1.4429-.286181-.423996-.657889-.762536-1.115121-1.015618-.457233-.249796-.999992-.377981-1.624986-.377981m0-1.682837c.881571 0 1.671038.16434 2.3684.496306.700652.328679 1.289463.775682 1.776301 1.334436.483548.562041.858545 1.216113 1.115121 1.965501.259867.746101.388155 1.538217.388155 2.373062 0 .847992-.128288 1.646682-.388155 2.392783-.256576.749388-.631573 1.403459-1.115121 1.9655-.486838.558755-1.075649 1.002471-1.776301 1.327863-.697362.325393-1.486829.486445-2.3684.486445-.881572 0-1.671038-.161052-2.37169-.486445-.700652-.325392-1.289463-.769108-1.776301-1.327863-.480259-.562041-.855255-1.216112-1.115122-1.9655-.256576-.746101-.384865-1.544791-.384865-2.392783 0-.834845.128289-1.626961.384865-2.373062.259867-.749388.634863-1.40346 1.115122-1.965501.486838-.558754 1.075649-1.005757 1.776301-1.334436.700652-.331966 1.490118-.496306 2.37169-.496306"/><path d="m177.049731 205.750484h2.065772v5.360754l5.253244-5.360754h2.542741l-4.710485 4.703396 5.039429 7.076458h-2.578924l-3.861809-5.623697-1.684196 1.663116v3.960581h-2.065772z"/><path d="m194.968326 205.750484h8.486768v1.78144h-6.420996v3.086295h5.944027v1.682837h-5.944027v3.447842h6.536127v1.78144h-8.601899z"/><path d="m211.894166 205.750484h2.180902l5.384822 8.680412h.032894v-8.680412h1.963799v11.779854h-2.180902l-5.368375-8.660691h-.046052v8.660691h-1.967088z"/><path d="m52.253117 229.29869c-.0855256-.341827-.207235-.654072-.3618389-.940022-.154604-.285951-.3519707-.535747-.5953896-.746102-.2401295-.207067-.5263112-.36812-.8519663-.483158-.3223656-.115037-.7006518-.1742-1.1315691-.1742-.6249946 0-1.1677531.124898-1.6249859.377981-.4539435.253083-.8289402.591622-1.1151219 1.015618-.2828923.423996-.4967063.903867-.6348629 1.442901-.1381567.539034-.2039456 1.087927-.2039456 1.649969 0 .562041.0657889 1.110934.2039456 1.649968.1381566.539034.3519706 1.022192.6348629 1.446188.2861817.423995.6611784.759248 1.1151219 1.012331.4572328.253083.9999913.381267 1.6249859.381267.4638117 0 .8717029-.082169 1.226963-.239935.3486812-.161053.6545996-.381268.9045974-.660645.2532873-.279377.4539434-.604769.598679-.98275.1414462-.371407.2335506-.772396.2796029-1.202965h2.0131404c-.0460522.703373-.1973667 1.347584-.4539434 1.929345-.2598662.585049-.6085474 1.087928-1.049333 1.511924-.4407857.423996-.9572286.749388-1.5526181.98275-.5953896.230075-1.2499892.345113-1.9670882.345113-.8782819 0-1.6677487-.16434-2.3651111-.486445-.7006518-.325392-1.2927519-.769109-1.7763004-1.327863-.4868378-.562041-.8585451-1.219399-1.1151219-1.9655-.2598661-.749389-.3881545-1.544792-.3881545-2.392783 0-.834845.1282884-1.626961.3881545-2.373063.2565768-.749388.6282841-1.403459 1.1151219-1.9655.4835485-.562041 1.0756486-1.009045 1.7763004-1.334437.6973624-.331966 1.4868292-.499592 2.3651111-.499592.6644679 0 1.286173.095317 1.8684048.272804.5855212.18406 1.0986747.447003 1.5460392.795403.4440751.345113.8059141.765822 1.0822275 1.25884.2730239.496306.4407856 1.06492.509864 1.702558z"/><path d="m67.8427844 226.955537c-.6249946 0-1.1677531.124898-1.6249859.377981-.4572329.253083-.8289402.591622-1.1151219 1.015618-.2861818.423996-.4967062.903867-.6348629 1.442901-.1381567.539033-.2072351 1.087927-.2072351 1.649968s.0690784 1.110935.2072351 1.649969c.1381567.539033.3486811 1.022191.6348629 1.446187.2861817.423996.657889.759249 1.1151219 1.012332.4572328.253082.9999913.37798 1.6249859.37798.628284 0 1.167753-.124898 1.6282753-.37798.4572329-.253083.8289402-.588336 1.1151219-1.012332s.4967062-.907154.6348629-1.446187c.1348673-.539034.2072351-1.087928.2072351-1.649969s-.0723678-1.110935-.2072351-1.649968c-.1381567-.539034-.3486812-1.018905-.6348629-1.442901s-.657889-.762535-1.1151219-1.015618c-.4605223-.253083-.9999913-.377981-1.6282753-.377981m0-1.686123c.8815713 0 1.6710381.167626 2.3716899.499592.7006518.325392 1.2894625.772396 1.7763004 1.334437.480259.562041.8552557 1.216112 1.1151219 1.9655.2565767.746101.3848651 1.538218.3848651 2.373062 0 .847992-.1282884 1.643395-.3848651 2.392783-.2598662.746102-.6348629 1.40346-1.1151219 1.962214-.4868379.562041-1.0756486 1.005757-1.7763004 1.33115-.7006518.322105-1.4901186.486445-2.3716899.486445s-1.6710382-.16434-2.3684005-.486445c-.7006518-.325393-1.2894625-.769109-1.7763004-1.33115-.4835484-.558754-.8585452-1.216112-1.1151219-1.962214-.2598662-.749388-.3881545-1.544791-.3881545-2.392783 0-.834844.1282883-1.626961.3881545-2.373062.2565767-.749388.6315735-1.403459 1.1151219-1.9655.4868379-.562041 1.0756486-1.009045 1.7763004-1.334437.6973623-.331966 1.4868292-.499592 2.3684005-.499592"/><path d="m81.8966098 225.553064h2.1809021l5.3848217 8.680412h.0328945v-8.680412h1.9637987v11.779855h-2.1809021l-5.3683745-8.663978h-.0460522v8.663978h-1.9670882z"/><path d="m99.3849449 225.553064h9.5459701v1.78144h-3.746678v9.998415h-2.065772v-9.998415h-3.7335201z"/><path d="m118.97063 230.913161h3.384839c.661179 0 1.161174-.154479 1.503277-.470011.342102-.312245.513153-.782256.513153-1.410033 0-.374694-.05592-.677079-.164472-.917014-.111841-.236649-.263156-.42071-.457233-.552181-.190788-.131472-.411181-.220215-.657889-.262943-.246708-.042729-.503285-.065736-.766441-.065736h-3.355234zm-2.065771-5.360755h5.63153c1.299331 0 2.273006.279378 2.924316.841419.651311.562041.976966 1.34101.976966 2.343481 0 .562041-.085526 1.022191-.249998 1.393599-.164472.36812-.35855.667218-.575653.89072-.223682.226788-.440786.387841-.6546.489731-.213814.095317-.371707.161053-.47039.193921v.032868c.17434.023007.365128.078883.569074.167626.203945.085457.394733.226789.569074.420709.17763.190634.322365.44043.437496.749388.11513.308959.17434.693513.17434 1.15695 0 .693513.052632 1.32129.157894 1.886618.101973.568615.266445.97289.486838 1.212825h-2.213797c-.151314-.253082-.246708-.53246-.273024-.841418-.026315-.305671-.039473-.601482-.039473-.89072 0-.535747-.032895-1.002471-.101973-1.393599-.062499-.391128-.184209-.71652-.361839-.97289-.17763-.259656-.41447-.45029-.720388-.571901-.29934-.118325-.690784-.177487-1.161175-.177487h-3.039447v4.848015h-2.065771z"/><path d="m137.56685 232.646614h3.598653l-1.766432-5.064944h-.049341zm.726968-7.092893h2.197349l4.539434 11.779855h-2.213796l-1.105254-3.115877h-4.707196l-1.108543 3.115877h-2.128271z"/><path d="m160.717965 229.29869c-.085525-.341827-.207235-.654072-.361839-.940022-.154604-.285951-.35197-.535747-.595389-.746102-.24013-.207067-.526311-.36812-.851967-.483158-.322365-.115037-.700651-.1742-1.131569-.1742-.624994 0-1.167753.124898-1.624986.377981-.453943.253083-.82894.591622-1.115121 1.015618-.282893.423996-.496707.903867-.634863 1.442901-.138157.539034-.203946 1.087927-.203946 1.649969 0 .562041.065789 1.110934.203946 1.649968.138156.539034.35197 1.022192.634863 1.446188.286181.423995.661178.759248 1.115121 1.012331.457233.253083.999992.381267 1.624986.381267.463812 0 .871703-.082169 1.226963-.239935.348682-.161053.6546-.381268.904598-.660645.253287-.279377.453943-.604769.598679-.98275.141446-.371407.23355-.772396.279603-1.202965h2.01314c-.046052.703373-.197367 1.347584-.453943 1.929345-.259867.585049-.608548 1.087928-1.049333 1.511924-.440786.423996-.957229.749388-1.552618.98275-.59539.230075-1.24999.345113-1.967089.345113-.878282 0-1.667748-.16434-2.365111-.486445-.700652-.325392-1.292752-.769109-1.7763-1.327863-.486838-.562041-.858545-1.219399-1.115122-1.9655-.259866-.749389-.388155-1.544792-.388155-2.392783 0-.834845.128289-1.626961.388155-2.373063.256577-.749388.628284-1.403459 1.115122-1.9655.483548-.562041 1.075648-1.009045 1.7763-1.334437.697363-.331966 1.486829-.499592 2.365111-.499592.664468 0 1.286173.095317 1.868405.272804.585521.18406 1.098675.447003 1.546039.795403.444075.345113.805914.765822 1.082228 1.25884.273024.496306.440785 1.06492.509864 1.702558z"/><path d="m170.165581 225.553064h9.54268v1.78144h-3.746678v9.998415h-2.062482v-9.998415h-3.73352z"/></g><g transform="translate(42.27451)"><path d="m132.169981 187.485135h-123.94300332c-4.14799032 0-7.50980326-3.359099-7.50980326-7.503741v-165.8941455c0-4.14792886 3.36181294-7.5070281 7.50980326-7.5070281h123.94300332c4.14799 0 7.509803 3.35909924 7.509803 7.5070281v165.8941455c0 4.144642-3.361813 7.503741-7.509803 7.503741" fill="#fff"/><g fill="#b3b3b3"><path d="m80.5668105 136.355503c-1.1743319 4.25968-3.0822101 7.977039-5.8749491 11.3953.3256551.085457.6447313.170913.9703864.25637-.1217095-1.183244-.243419-2.369775-.3717073-3.556307-.3486812.049302-.7006519.095317-1.0559119.138046 1.9736671 2.803631 4.4012776 5.824191 8.1150611 5.995104 2.9473429.134759 5.3585062-1.751859 6.7071787-4.262966 2.8289228-5.272011 2.394716-15.55309-4.5361449-17.492296-6.8716509-1.922772-8.9801852 6.39938-8.3584801 11.543206.421049 3.457703 2.2072177 6.948274 5.5295573 8.427329 2.2072177.982751 4.9900883 1.06492 6.1578413-1.34101.3223656-.667218-.6776257-1.255554-1.0032808-.585048-2.4341894 5.028788-8.2894017-2.175855-8.9801852-4.115061-.6052579-1.68941-.7203885-3.54316-.6184157-5.321313.0953939-1.60724.4342068-3.723933 1.2894625-5.1504 2.2203755-3.700925 6.6216531-2.889088 8.9801852.075596 2.3749794 2.984405 2.4144528 8.18082 1.233542 11.72398-.7269674 2.192289-2.3980055 4.650807-4.8354844 5.225996-4.0756225.963029-6.7367836-2.547263-8.6808457-5.304879-.2565767-.364834-.960518-.394415-1.0559119.138045-.2960501 1.613814-.2269717 2.642579.3651284 4.170936.1414462.361547.6644679.627777.9670969.253083 2.9177378-3.569454 4.9473255-7.467586 6.1709991-11.90804.1973667-.71652-.9177552-1.025478-1.1151219-.305671"/><path d="m89.9469922 145.678154c2.5065572-.101891 4.6545649-.640924 6.9177032-1.722278-.2861818-.216928-.5690741-.437143-.8519663-.654071-.0460523.249796-.0888151.499592-.1282884.749388-.0624995.351686.1513145.746101.5559162.732954 6.8683611-.26623 18.4143141-3.960582 21.3748141-10.984452 2.325638-5.51852-3.223656-12.588405-8.983474-8.97951-3.927598 2.458519-5.39798 7.960605-6.397971 12.144689-1.269726 5.308165-2.7598445 11.723979-2.213797 17.219492.759862 7.608918 6.924282 4.262966 8.680846-.999184.23684-.709947-.881571-1.012331-1.118411-.308958-.519733 3.000839-2.588794 3.894846-6.210473 2.688594-.246708-1.492203-.309207-2.987692-.180919-4.489755.111841-2.84636.5921-5.719015 1.085517-8.51936.805914-4.624513 1.654591-9.965547 4.338778-13.922842 4.085491-6.021399 13.615013-.959742 9.361761 5.781464-1.289463 2.03781-3.457207 3.365673-5.486795 4.555491-2.180902 1.278561-4.493382 2.438798-6.87494 3.280216-.894729.312245-6.7137576 1.52507-6.687442 1.360731.088815-.512739-.3782862-.88086-.8486769-.654071-2.2499805 1.07478-3.8420719 1.462621-6.3321819 1.561225-.7434146.032868-.746704 1.189818 0 1.160237"/><path d="m62.0959181 46.6862877h-41.3549043c-1.0394646 0-1.8815626-.8381314-1.8815626-1.876757v-.5225996c0-1.0386256.842098-1.876757 1.8815626-1.876757h41.3549043c1.0328858 0 1.8749837.8381314 1.8749837 1.876757v.5225996c0 1.0386256-.8420979 1.876757-1.8749837 1.876757"/><path d="m62.0959181 55.5481306h-41.3549043c-1.0394646 0-1.8815626-.8414182-1.8815626-1.876757v-.5258864c0-1.0353388.842098-1.876757 1.8815626-1.876757h41.3549043c1.0328858 0 1.8749837.8414182 1.8749837 1.876757v.5258864c0 1.0353388-.8420979 1.876757-1.8749837 1.876757"/><path d="m119.731602 73.2691869h-98.9925618c-1.0361753 0-1.8782732-.8381315-1.8782732-1.8767571v-.5225995c0-1.0386256.8420979-1.8767571 1.8782732-1.8767571h98.9925618c1.036175 0 1.878273.8381315 1.878273 1.8767571v.5225995c0 1.0386256-.842098 1.8767571-1.878273 1.8767571"/><path d="m119.731602 82.129715h-98.9925618c-1.0361753 0-1.8782732-.8381314-1.8782732-1.876757v-.5225996c0-1.0386256.8420979-1.876757 1.8782732-1.876757h98.9925618c1.036175 0 1.878273.8381314 1.878273 1.876757v.5225996c0 1.0386256-.842098 1.876757-1.878273 1.876757"/><path d="m119.731602 90.9918865h-98.9925618c-1.0361753 0-1.8782732-.8414182-1.8782732-1.876757v-.5258864c0-1.0353388.8420979-1.876757 1.8782732-1.876757h98.9925618c1.036175 0 1.878273.8414182 1.878273 1.876757v.5258864c0 1.0353388-.842098 1.876757-1.878273 1.876757"/><path d="m119.731602 99.8524146h-98.9925618c-1.0361753 0-1.8782732-.8381314-1.8782732-1.876757v-.5258863c0-1.0353389.8420979-1.8734703 1.8782732-1.8734703h98.9925618c1.036175 0 1.878273.8381314 1.878273 1.8734703v.5258863c0 1.0386256-.842098 1.876757-1.878273 1.876757"/><path d="m62.0959181 108.712943h-41.3549043c-1.0394646 0-1.8815626-.838132-1.8815626-1.876757v-.5226c0-1.038625.842098-1.876757 1.8815626-1.876757h41.3549043c1.0328858 0 1.8749837.838132 1.8749837 1.876757v.5226c0 1.038625-.8420979 1.876757-1.8749837 1.876757"/><path d="m62.0959181 117.573471h-41.3549043c-1.0394646 0-1.8815626-.838132-1.8815626-1.876757v-.5226c0-1.038625.842098-1.876757 1.8815626-1.876757h41.3549043c1.0328858 0 1.8749837.838132 1.8749837 1.876757v.5226c0 1.038625-.8420979 1.876757-1.8749837 1.876757"/><path d="m119.731602 108.712943h-41.3549041c-1.0394647 0-1.8782732-.838132-1.8782732-1.876757v-.5226c0-1.038625.8388085-1.876757 1.8782732-1.876757h41.3549041c1.036175 0 1.878273.838132 1.878273 1.876757v.5226c0 1.038625-.842098 1.876757-1.878273 1.876757"/><path d="m119.731602 117.573471h-41.3549041c-1.0394647 0-1.8782732-.838132-1.8782732-1.876757v-.5226c0-1.038625.8388085-1.876757 1.8782732-1.876757h41.3549041c1.036175 0 1.878273.838132 1.878273 1.876757v.5226c0 1.038625-.842098 1.876757-1.878273 1.876757"/></g><path d="m38.1767178 136.210884 2.7137922 2.402644c.6513102.578475 1.5164342.861139 2.3848478.775682l3.6085213-.351687c1.5822231-.154479 3.0262895.897294 3.3683918 2.445372l.7795985 3.536586c.1907878.851279.7236779 1.58752 1.4736714 2.027949l3.1282623 1.837316c1.3716987.801977 1.9243254 2.501247 1.2861731 3.957295l-1.4473559 3.319658c-.3519706.79869-.3519706 1.705844 0 2.50782l1.4473559 3.319658c.6381523 1.452761.0855256 3.152032-1.2861731 3.957295l-3.1282623 1.834029c-.7499935.44043-1.2828836 1.176671-1.4736714 2.027949l-.7795985 3.536586c-.3421023 1.551365-1.7861687 2.599851-3.3683918 2.445372l-3.6085213-.3484c-.8684136-.085456-1.7335376.193921-2.3848478.772396l-2.7137922 2.402643c-1.1874897 1.05506-2.9736584 1.05506-4.1644376 0l-2.7105028-2.402643c-.6545995-.578475-1.5197236-.857852-2.3848477-.772396l-3.6085213.3484c-1.5822231.154479-3.029579-.894007-3.3716813-2.445372l-.7795985-3.536586c-.1874983-.851278-.7236779-1.587519-1.4736714-2.027949l-3.1249729-1.834029c-1.3684092-.805263-1.9210359-2.504534-1.2894625-3.957295l1.4506453-3.319658c.3486812-.801976.3486812-1.70913 0-2.50782l-1.4506453-3.319658c-.6315734-1.456048-.0789467-3.155318 1.2894625-3.957295l3.1249729-1.837316c.7499935-.440429 1.2861731-1.17667 1.4736714-2.027949l.7795985-3.536586c.3421023-1.548078 1.7894582-2.599851 3.3716813-2.445372l4.9703516.483159 3.7335202-3.309798c1.1907792-1.051773 2.9769479-1.051773 4.1644376 0" fill="#000" opacity=".25"/><path d="m36.3007472 134.334785 2.7105028 2.402643c.6513102.578475 1.5197237.861139 2.3881372.775682l3.6052319-.351686c1.5822231-.154479 3.0262895.897293 3.3716812 2.445371l.7795985 3.536586c.1874984.851279.723678 1.58752 1.4736715 2.02795l3.1282623 1.837315c1.3684092.801977 1.9210359 2.501247 1.286173 3.957295l-1.4506453 3.319658c-.3486812.79869-.3486812 1.705844 0 2.507821l1.4506453 3.319657c.6348629 1.452762.0822362 3.152032-1.286173 3.957295l-3.1282623 1.834029c-.7499935.44043-1.2861731 1.176671-1.4736715 2.02795l-.7795985 3.536585c-.3453917 1.551365-1.7894581 2.599851-3.3716812 2.445372l-3.6052319-.3484c-.8684135-.085456-1.736827.193921-2.3881372.772396l-2.7105028 2.402643c-1.1874897 1.05506-2.9769478 1.05506-4.1644375 0l-2.7137923-2.402643c-.6513101-.578475-1.5164342-.857852-2.3848477-.772396l-3.6085213.3484c-1.5822231.154479-3.0262895-.894007-3.3683918-2.445372l-.782888-3.536585c-.1842089-.851279-.7203885-1.58752-1.4736714-2.02795l-3.1249729-1.834029c-1.3684092-.805263-1.9210359-2.504533-1.286173-3.957295l1.4506453-3.319657c.3486812-.801977.3486812-1.709131 0-2.507821l-1.4506453-3.319658c-.6348629-1.456048-.0822362-3.155318 1.286173-3.957295l3.1249729-1.837315c.7532829-.44043 1.2894625-1.176671 1.4736714-2.02795l.782888-3.536586c.3421023-1.548078 1.7861687-2.59985 3.3683918-2.445371l4.9703516.483158 3.7368097-3.309797c1.1874897-1.051773 2.9769478-1.051773 4.1644375 0" fill="#f09242"/><path d="m30.3192202 163.810059c-.4177596 0-.8157824-.16434-1.108543-.460151l-5.6216618-5.617124c-.6118368-.614629-.6118368-1.603953 0-2.218583.6118368-.611343 1.6052493-.608056 2.217086 0l4.5131188 4.509476 12.3091037-12.295881c.6118368-.61463 1.6052492-.61463 2.217086 0 .6151263.611343.6151263 1.603953 0 2.218583l-13.4176467 13.403529c-.2927606.295811-.6907835.460151-1.108543.460151" fill="#fff"/><path d="m55.0413741 160.11242-1.4473559-3.319658c-.3486812-.79869-.3486812-1.70913 0-2.50782l1.4473559-3.319658c.6348629-1.456048.0822361-3.155318-1.2861731-3.957295l-3.1249729-1.834029c-.7499935-.443716-1.286173-1.176671-1.4736714-2.031236l-.7795985-3.536586c-.3453917-1.548078-1.7894581-2.596564-3.3716812-2.442085l-3.6052319.3484c-.8684135.085457-1.7368271-.197207-2.3881372-.772396l-2.7105028-2.40593c-1.1907791-1.051773-2.9802373-1.051773-4.167727 0l-3.7368097 3.313084-4.9670621-.483158c-1.5822231-.154479-3.0262895.894007-3.3683918 2.442085l-.2401295 1.078067 28.9635644 28.936898.3717073-1.68941c.1874984-.851278.7236779-1.587519 1.4736714-2.027949l3.1249729-1.834029c1.3684092-.805263 1.921036-2.504534 1.2861731-3.957295" fill="#fff" opacity=".25"/><path d="m132.169981 6.58186379h-123.94300332c-4.14799032 0-7.50980326 3.35909925-7.50980326 7.50374131v14.7741204l138.96260958 138.8504385v-153.6245589c0-4.14464206-3.361813-7.50374131-7.509803-7.50374131" fill="#fff" opacity=".25"/><path d="m101.296236 17.8190697c-1.749985 1.751859-4.5920656 1.751859-6.3486293 0-1.7499848-1.751859-1.7499848-4.5916455 0-6.3435045 1.7565637-1.75185897 4.5986443-1.75185897 6.3486293 0 1.753274 1.751859 1.753274 4.5916455 0 6.3435045zm38.384535 44.7364969v-12.0559452h-3.312471v-4.6278002l-.677626-.6803655h-3.065763v-3.9441478l-13.45383-13.4429706c3.332208-6.632742 2.230244-14.9187392-3.305893-20.45369336-.276313-.27280356-.569074-.51602601-.855255-.76910883h-23.3353242c-.2861817.25308282-.5789423.49630527-.8552557.76910883-6.9111243 6.90883226-6.9111243 18.11349896 0 25.02233126 5.5394256 5.5316674 13.8354059 6.632742 20.4702169 3.3032238l26.901083 26.8793676z" fill="#000" opacity=".25"/><path d="m99.4202653 15.94297c-1.7532743 1.751859-4.5953549 1.751859-6.3486291 0-1.7532743-1.751859-1.7532743-4.5916454 0-6.34350443 1.7532742-1.751859 4.5953548-1.751859 6.3486291 0 1.7532747 1.75185903 1.7532747 4.59164543 0 6.34350443m-10.4768828-10.46842572c-6.9144137 6.90883232-6.9144137 18.11349902 0 25.02233132 5.5394256 5.5349541 13.8321165 6.6327419 20.4669275 3.3065106l26.901083 26.8760807h7.88151l.009868-.0098603v-7.852141l-.64802-.6507844h-4.378252v-2.3434812l-1.200647-1.1996783h-3.483523v-4.6278001l-.680915-.6803655h-3.062473v-3.9441479l-13.453831-13.4429706c3.328919-6.6327419 2.226955-14.9187392-3.309182-20.45369332-6.914413-6.9088323-18.1248424-6.9088323-25.0425455 0" fill="#f0c362"/><path d="m139.722218 60.6807817h3.105236l-27.845153-27.8226763-1.552618 1.548078z" fill="#000" opacity=".1"/><path d="m139.17617 52.1666812v-2.3434812l-1.200647-1.1996783h-3.483523v-4.6278001l-.680915-.6803655h-3.062473v-3.9441479l-13.453831-13.4429706c3.328919-6.6327419 2.226955-14.9187392-3.309182-20.45369332-6.677573-6.67218343-17.3584016-6.87925119-24.3089992-.66064476l4.1743059 4.17093635c1.7335376-1.09778782 4.0558859-.89729364 5.5690306.6146297 1.5131447 1.51192333 1.7138007 3.83239703.6151267 5.56453523l44.167379 44.1350144v-6.4815496l-.64802-.6507844z" fill="#fff" opacity=".25"/></g></g><g transform="translate(188.222222 63.38809)"><path d="m367.329865 38.5550916h-355.7271765c-.9078868 0-1.64472255-.7362409-1.64472255-1.643395 0-.907154.73683575-1.6433949 1.64472255-1.6433949h355.7271765c.907887 0 1.644722.7362409 1.644722 1.6433949 0 .9071541-.736835 1.643395-1.644722 1.643395" fill="#d4d3d7"/><path d="m200.94644 36.9116966c0 6.3336441-5.138113 11.4676099-11.480163 11.4676099-6.338761 0-11.476874-5.1339658-11.476874-11.4676099 0-6.3369308 5.138113-11.4708966 11.476874-11.4708966 6.34205 0 11.480163 5.1339658 11.480163 11.4708966" fill="#f15a29"/><path d="m186.371896 32.8515251c.394733 0 .779598-.0328679 1.154595-.0986037.371707-.0657358.707231-.1741998 1.00986-.328679.299339-.1544791.559205-.3516865.773019-.5916221.213814-.2399357.351971-.5357468.421049-.8874333h1.526303v11.5037645h-2.055904v-8.1183709h-2.828922z" fill="#fff"/><path d="m16.4835672 36.9116966c0 4.2892608-3.4835224 7.7699713-7.7762483 7.7699713-4.29601535 0-7.77953775-3.4807105-7.77953775-7.7699713 0-4.2925475 3.4835224-7.7699712 7.77953775-7.7699712 4.2927259 0 7.7762483 3.4774237 7.7762483 7.7699712" fill="#d4d3d7"/><g fill="#f15a29"><path d="m361.046696 24.2154847v25.3904518c0 1.1306557 1.674327 1.6959836 2.651292.8972936l16.644593-13.5908761-16.644593-13.5941629c-.976965-.7986899-2.651292-.2333621-2.651292.8972936"/><path d="m122.831658.79875031h2.065771v5.36404107l5.249955-5.36404107h2.542741l-4.707196 4.70668309 5.03943 7.0764586h-2.578925l-3.861809-5.62698427-1.684196 1.66640247v3.9605818h-2.065771z"/><path d="m140.519004 7.96296619-4.427593-7.16520192h2.394716l3.121683 5.28187132 3.072342-5.28187132h2.31248l-4.411146 7.16520192v4.61793981h-2.062482z"/><path d="m159.410616 4.54470472c-.088815-.34182614-.207235-.65078439-.361839-.9400219-.154603-.28595072-.35526-.53245996-.595389-.74281451-.243419-.20706776-.526311-.37140726-.851966-.4864449-.322366-.11503765-.703942-.17419986-1.13157-.17419986-.628284 0-1.167753.1281848-1.628275.38126762-.453943.25308282-.82894.59162218-1.115122 1.01561807-.282892.42399589-.496706.90386721-.634863 1.44290075-.134867.53903354-.203945 1.08792745-.203945 1.64996852 0 .55875428.069078 1.11093497.203945 1.64996851.138157.53903354.351971 1.02219165.634863 1.44618755.286182.42399593.661179.75924843 1.115122 1.01233123.460522.2530829.999991.3812677 1.628275.3812677.463812 0 .868414-.0821698 1.223674-.2432225.351971-.1577659.6546-.3779808.907887-.657358.253287-.28266388.450654-.60476929.595389-.98275013.144736-.37469404.236841-.7756824.279603-1.20296509h2.01643c-.046052.70337303-.197367 1.34758385-.457233 1.92934562-.256576.5850486-.605258 1.0879275-1.046043 1.5119234-.440786.4239959-.957229.7461013-1.552618.9794634-.598679.2300752-1.249989.3451129-1.967089.3451129-.878281 0-1.667748-.1610527-2.3684-.4831581-.700652-.3253922-1.292752-.7691088-1.7763-1.3278631-.483549-.5620411-.855256-1.21939907-1.115122-1.96550037-.256577-.74938809-.384865-1.54479124-.384865-2.39278302 0-.83813142.128288-1.62696099.384865-2.37634908.259866-.74938809.631573-1.40345927 1.115122-1.96221355.483548-.56204107 1.075648-1.00904449 1.7763-1.33772348.700652-.33196577 1.490119-.49630527 2.3684-.49630527.661179 0 1.282884.09203012 1.868405.27280356.582232.18077344 1.098675.44700342 1.54275.79540315.444075.34511294.805914.76582204 1.082228 1.25884052.276313.49630527.444075 1.06491992.509864 1.69927036z"/><path d="m178.302558 1.92217509c-.351971 0-.648021.11832443-.89144.3549733s-.365128.5521807-.365128.94659548c0 .20049419.036184.38455442.108551.5521807.072368.17419987.157894.33853936.263156.49959206.105262.15776592.220393.31553183.348681.46672416.124999.15447913.243419.30238467.351971.44700343.17763-.12161123.348681-.24322245.516443-.37140726.161183-.12489801.309208-.26294319.440785-.41084873.134868-.15119234.24013-.31881862.315787-.50287885.075657-.18734703.115131-.39770158.115131-.62777687 0-.38455441-.108552-.70994661-.328945-.96631622-.220393-.2596564-.513153-.3878412-.874992-.3878412zm-.759862 5.21613552c-.17763.10846406-.371707.21692813-.578942.32867899-.210525.11175085-.404602.24650924-.585522.41084873-.184209.16433949-.335523.36483368-.463811.59490897-.128289.23007529-.187499.52259959-.187499.8742861 0 .63763724.17763 1.1306557.53618 1.4691951.35526.3418261.812493.5094524 1.36183.5094524.338813 0 .631574-.0427283.874992-.1380452.243419-.0920301.447365-.2070677.618416-.3385393s.315787-.2728036.430917-.4272827c.115131-.1544791.217104-.2925243.305919-.4141355zm3.31905 4.12492129c-.437496.5390335-.927623.9301615-1.460514 1.1766708-.536179.2465092-1.151305.3714072-1.845378.3714072-.539469 0-1.036176-.0788829-1.493408-.2399356-.453944-.1577659-.848677-.3845545-1.177622-.6836523-.332234-.2958111-.58881-.6606448-.76644-1.0977878-.184209-.4338563-.273024-.923588-.273024-1.4757687 0-.41742231.075657-.79540315.230261-1.14051608.154604-.33853936.35526-.6507844.608547-.93016153.256577-.27937714.542759-.52917317.868414-.7493881.325655-.22021492.657889-.41742231.999991-.59490896-.154604-.20049418-.302629-.39441479-.447365-.58833539-.144735-.18734702-.269734-.39112799-.378286-.59819575-.108551-.21035456-.200656-.43056948-.263155-.66393156-.069079-.23007529-.101973-.47001095-.101973-.72309377 0-.43056947.075657-.81512389.223682-1.15695003.148025-.33853936.35526-.63435045.618416-.88085969.263155-.24979603.572363-.43714305.927623-.56861465.348681-.13147159.723678-.20049418 1.118412-.20049418.378286 0 .743414.05916222 1.098674.17419986.361839.11503765.671047.2925243.940782.52917317.273024.23336208.490127.52917317.654599.88414648.167762.34839972.246709.76253525.246709 1.23583299 0 .35168652-.05921.67707871-.174341.9728898s-.269735.56861465-.457233.81841068c-.194077.24650924-.421049.46672416-.680915.66721834-.259866.19720739-.53289.37469405-.819072.52917317l1.835511 2.20872279c.065788-.18734702.131577-.40098836.200656-.64421081.062499-.23993566.11842-.55546749.161182-.9400219h1.651302c-.052631.51602601-.154604 1.02547844-.302629 1.51849692-.148025.49630527-.35855.94988227-.621705 1.37059137l2.266428 2.73789593h-2.31577z"/><path d="m195.31195.79875031h2.098666l2.128271 9.00909103h.032894l2.381558-9.00909103h2.111824l2.309191 9.00909103h.036184l2.194059-9.00909103h2.098666l-3.253261 11.78314169h-2.095376l-2.361822-9.00909104h-.036184l-2.407874 9.00909104h-2.13156z"/><path d="m217.425902 10.8997129h3.647995c.628284 0 1.115122-.1643395 1.463803-.4864449.345392-.3253922.519733-.78554274.519733-1.37716492 0-.5850486-.174341-1.03533881-.519733-1.34758385-.348681-.31224503-.835519-.47001095-1.463803-.47001095h-3.647995zm0-5.16354685h3.365103c.499996 0 .911176-.14133196 1.240121-.42399589.332234-.27937714.496706-.6836523.496706-1.20953867 0-.59490897-.148025-1.01561807-.447365-1.25555374-.29605-.23993566-.726967-.36483367-1.289462-.36483367h-3.365103zm-2.065771-4.93675838h5.730213c1.059202 0 1.904589.24322245 2.546031.72638056.634863.48315811.957228 1.21611225.957228 2.19228884 0 .59490897-.148025 1.1043614-.440785 1.52835729-.289471.42399589-.707231.75267488-1.2467.98275017v.0328679c.730257.15447912 1.279594.49630527 1.651302 1.02876523.374996.53574675.562495 1.20625188.562495 2.00822861 0 .46015058-.082236.89072003-.246709 1.29499523-.164472.4009883-.424338.7493881-.779598 1.0386256-.348681.2925243-.802625.5225996-1.351962.6935126-.549338.1676263-1.203937.2563696-1.963799.2563696h-5.417716z"/><path d="m229.166919.79875031h9.54268v1.7847269h-3.746678v9.99841479h-2.062482v-9.99841479h-3.73352z"/><path d="m251.345016 4.54470472c-.088815-.34182614-.207235-.65078439-.361839-.9400219-.154604-.28595072-.35526-.53245996-.59539-.74281451-.243418-.20706776-.526311-.37140726-.851966-.4864449-.322365-.11503765-.703941-.17419986-1.131569-.17419986-.628284 0-1.167753.1281848-1.628275.38126762-.453944.25308282-.82894.59162218-1.115122 1.01561807-.282892.42399589-.496706.90386721-.634863 1.44290075-.134867.53903354-.203946 1.08792745-.203946 1.64996852 0 .55875428.069079 1.11093497.203946 1.64996851.138157.53903354.351971 1.02219165.634863 1.44618755.286182.42399593.661178.75924843 1.115122 1.01233123.460522.2530829.999991.3812677 1.628275.3812677.463812 0 .868414-.0821698 1.223674-.2432225.35197-.1577659.654599-.3779808.907887-.657358.253287-.28266388.450654-.60476929.595389-.98275013.144736-.37469404.23684-.7756824.279603-1.20296509h2.01643c-.046052.70337303-.197367 1.34758385-.457233 1.92934562-.256577.5850486-.605258 1.0879275-1.046044 1.5119234-.440785.4239959-.957228.7461013-1.552618.9794634-.598679.2300752-1.249989.3451129-1.967088.3451129-.878282 0-1.667749-.1610527-2.3684-.4831581-.700652-.3253922-1.292752-.7691088-1.776301-1.3278631-.483548-.5620411-.855256-1.21939907-1.115122-1.96550037-.256576-.74938809-.384865-1.54479124-.384865-2.39278302 0-.83813142.128289-1.62696099.384865-2.37634908.259866-.74938809.631574-1.40345927 1.115122-1.96221355.483549-.56204107 1.075649-1.00904449 1.776301-1.33772348.700651-.33196577 1.490118-.49630527 2.3684-.49630527.661179 0 1.282884.09203012 1.868405.27280356.582232.18077344 1.098675.44700342 1.54275.79540315.444075.34511294.805914.76582204 1.082227 1.25884052.276314.49630527.444075 1.06491992.509864 1.69927036z"/></g></g><g transform="translate(522.392157 215.318275)"><path d="m6.70950181 148.80589c-.42104898 0-.84209796-.161053-1.16446358-.479872-.6414418-.64421-.6414418-1.682836 0-2.327047l136.99881077-136.88822425c.641442-.64092403 1.684196-.64092403 2.325638 0 .641442.64092402.641442 1.68283645 0 2.32376045l-136.99552161 136.8915108c-.32236562.318819-.7434146.479872-1.16446358.479872" fill="#d4d3d7"/><path d="m140.612945 13.366811c-3.039447-3.0337071-3.039447-7.95403153 0-10.98773858 3.036158-3.03699384 7.960457-3.03699384 10.996615 0 3.036158 3.03370705 3.036158 7.95403148 0 10.98773858-3.036158 3.033707-7.960457 3.033707-10.996615 0" fill="#d4d3d7"/><g fill="#fbb040"><path d="m23.1215304 148.715832-17.97023875-17.952447c-.79933517-.801976-2.38155828-.016433-2.50984664 1.23912l-2.14800768 21.370708 21.38797227-2.149561c1.2565681-.124898 2.039456-1.70913 1.2401208-2.50782"/><path d="m119.55293 77.3116366h2.098666l2.128272 9.009091h.032894l2.381558-9.009091h2.111824l2.309191 9.009091h.036183l2.19406-9.009091h2.098666l-3.253261 11.7831416h-2.098666l-2.358532-9.009091h-.036184l-2.411163 9.009091h-2.128271z"/><path d="m139.337627 77.3116366h1.881563v4.3747173h.032894c.230261-.3845544.575653-.7066599 1.032886-.9663163.457233-.2563696.963808-.3878412 1.523013-.3878412.940781 0 1.677617.2432225 2.217086.7263806s.809204 1.2095387.809204 2.1791417v5.8570595h-1.881563v-5.364041c-.026315-.6705052-.167762-1.1536633-.430917-1.4593347-.263156-.3023847-.677626-.453577-1.240121-.453577-.319076 0-.601969.0591622-.858545.1741998-.253288.1150377-.467101.2760904-.644731.4765846-.174341.2037809-.315787.4437166-.411181.7198069-.098683.2728036-.148025.5653279-.148025.8742861v5.0320753h-1.881563z"/><path d="m152.167779 89.0964216h1.881563v-8.5325065h-1.881563zm0-9.9984148h1.881563v-1.7847269h-1.881563z"/><path d="m158.541079 80.5632578h1.42104v-2.5571226h1.881563v2.5571226h1.700643v1.4034592h-1.700643v4.552204c0 .2004942.009868.3714073.026315.5127392.016448.1446188.052632.26623.115131.3615469.05921.0986037.151315.1741999.273024.2235017.11842.0493019.286182.0755962.493417.0755962.131578 0 .266445-.0032868.394733-.0098604.134867-.0032868.263156-.0230075.398023-.0591622v1.4560479c-.210524.0230076-.411181.0427283-.608547.062449-.200656.0230076-.404602.0361547-.611837.0361547-.496706 0-.894729-.0493018-1.200648-.1413319-.302629-.0920302-.539469-.2300753-.70723-.4141356-.171051-.1807734-.289471-.4075619-.345392-.6836523-.062499-.2728035-.095394-.5883353-.108552-.9400219v-5.0320753h-1.42104z"/><path d="m174.063313 84.0778222c-.019737-.2958111-.082236-.5817618-.187499-.8578522-.108551-.2760903-.249997-.5127392-.427628-.7165202-.184208-.2037809-.407891-.3714072-.664467-.4963052-.256577-.1248981-.546048-.1873471-.865124-.1873471-.328945 0-.631574.0558755-.901308.1709131-.269735.1150377-.499996.2760904-.694073.4798713-.190788.2004942-.345392.4437167-.460523.7165202-.11513.2760904-.180919.5719015-.190788.8907201zm-4.39141 1.2391198c0 .3319657.049342.6474976.138157.9564558.095394.3089583.23684.578475.424339.8085503.187498.2300753.424338.4141355.71052.5521807.286181.1380452.624994.2070678 1.023017.2070678.549338 0 .993413-.1183245 1.332225-.3549733.332234-.2366489.582232-.5916222.749994-1.0649199h1.77959c-.095394.4634373-.269735.8742861-.509864 1.2391197-.24013.3615469-.53289.6672184-.878282.9137276-.338813.2465093-.720389.4338563-1.141438.5620411-.424338.124898-.868413.1906338-1.332225.1906338-.674336 0-1.263147-.1117509-1.786169-.3319658-.516442-.2169281-.953939-.5258864-1.309199-.9235879-.358549-.3944148-.631573-.8677126-.809203-1.4198933-.184209-.5488939-.273024-1.1536632-.273024-1.814308 0-.6047693.095394-1.1799575.289471-1.7255646.190788-.5423204.463812-1.0189049.825651-1.4330404.358549-.4108488.789467-.7395277 1.296041-.9827502.503285-.2432224 1.078938-.3648337 1.717091-.3648337.671046 0 1.273015.141332 1.805905.4207091.539469.282664.976965.6540712 1.332225 1.1142218.348681.4634374.605258.9958973.766441 1.5940931.161183.5981957.200656 1.219399.121709 1.8570363z"/><path d="m180.7399 89.0964216h1.881562v-11.7831417h-1.881562z"/><path d="m188.019442 89.0964216h1.881562v-8.5325065h-1.881562zm0-9.9984148h1.881562v-1.7847269h-1.881562z"/><path d="m196.671669 86.3568823c.05921.5488939.266445.9334483.628284 1.1536632.365129.2202149.799335.328679 1.30591.328679.17763 0 .378286-.0131472.601968-.0427283.226972-.0230075.437497-.0755961.638153-.1511923.197366-.078883.358549-.1939206.486838-.3418261.121709-.1479056.180919-.3418262.171051-.5850486-.009869-.2432225-.098684-.4371431-.263156-.5916222s-.374997-.2793772-.634863-.3746941c-.263155-.0920301-.552627-.170913-.88486-.2399356-.332234-.062449-.667758-.1347584-1.00986-.2103546-.351971-.0788829-.687494-.170913-1.013149-.2826639-.325655-.1084641-.618416-.2563696-.874993-.4470034-.259866-.187347-.463811-.4239959-.618415-.7165202s-.233551-.6507844-.233551-1.0813539c0-.4601506.115131-.8512786.338813-1.1602368.223682-.3155318.513153-.5686147.861835-.7625353.345391-.1906338.730256-.3253922 1.154595-.4042751.424338-.0755962.82894-.1150377 1.213805-.1150377.437496 0 .861835.0493019 1.263147.141332s.766441.2432225 1.088806.453577c.325655.2070678.59539.4798713.809204.8184107.217103.3319658.348681.7362409.404602 1.2128254h-1.963799c-.092105-.453577-.29605-.7559616-.618416-.9104407-.325655-.1511924-.700652-.2300753-1.118411-.2300753-.131578 0-.289471.0098603-.467101.0328679-.18092.0230075-.355261.062449-.513154.124898s-.29605.1479055-.407891.2629432c-.108552.1150376-.161183.2662299-.161183.453577 0 .2300753.078947.4207091.24013.562041.161182.1446188.365128.2629432.624994.3549733.259866.0920302.552627.1741999.884861.2366489.328944.0690226.671047.1380452 1.023017.2169281.342103.0755962.677626.1709131 1.006571.2793772.332234.1117508.628284.2596564.88815.4437166.256576.1906338.463812.4239959.624994.7099466.157894.2859507.24013.6409241.24013 1.0583464 0 .5061656-.115131.9367351-.345392 1.2851348-.233551.3549733-.53289.640924-.904597.8611389-.368418.2169282-.779599.3779809-1.230253.4765846-.447364.1018905-.894729.1479055-1.335515.1479055-.539469 0-1.039464-.0591622-1.496697-.1807734-.457233-.1183245-.851966-.3056715-1.18749-.5521807-.335523-.249796-.598679-.5554675-.792756-.9268748-.190788-.3648336-.292761-.8052635-.305918-1.3081423z"/><path d="m206.266981 80.5632578h1.42104v-2.5571226h1.884852v2.5571226h1.697354v1.4034592h-1.697354v4.552204c0 .2004942.006579.3714073.023026.5127392.016447.1446188.052631.26623.115131.3615469.05921.0986037.151314.1741999.273024.2235017.121709.0493019.286181.0755962.493416.0755962.131578 0 .263156-.0032868.398023-.0098604.128289-.0032868.263156-.0230075.394734-.0591622v1.4560479c-.207235.0230076-.411181.0427283-.611837.062449-.197367.0230076-.398023.0361547-.611837.0361547-.493417 0-.89144-.0493018-1.194068-.1413319-.302629-.0920302-.539469-.2300753-.71381-.4141356-.164472-.1807734-.282892-.4075619-.345392-.6836523-.05921-.2728035-.095394-.5883353-.105262-.9400219v-5.0320753h-1.42104z"/><path d="m111.326028 98.2359982c-.348681 0-.64802.1183245-.891439.3549733-.24013.2366489-.361839.5521807-.361839.9465955 0 .2004942.036184.3845544.108551.552181.072368.1742.157894.338539.263156.499592.105262.157766.220393.315532.348681.466724.124999.154479.243419.302385.351971.447003.17763-.121611.348681-.243222.516443-.371407.161182-.124898.309207-.262943.440785-.410849.134868-.151192.24013-.318818.315787-.502878.075657-.187348.115131-.3977021.115131-.6277774 0-.3845544-.108552-.7099466-.328945-.9663162-.223682-.2596564-.513153-.3878412-.878282-.3878412zm-.756572 5.2161358c-.17763.108464-.371707.216928-.578943.328679-.210524.111751-.404601.246509-.585521.410848-.184209.16434-.338813.364834-.463812.594909-.128288.230076-.190787.5226-.190787.874287 0 .637637.17763 1.130655.539469 1.469195.35526.341826.809203.509452 1.36183.509452.338813 0 .631573-.042728.874992-.138045.243419-.09203.447365-.207068.618416-.338539.171051-.131472.312497-.272804.427628-.427283.11513-.154479.217103-.292524.309208-.414136zm3.31905 4.124921c-.440786.539034-.930913.930162-1.463803 1.176671s-1.148016.371407-1.842089.371407c-.539469 0-1.036176-.078883-1.493408-.239936-.453944-.157766-.848677-.384554-1.180911-.683652-.328945-.295811-.585522-.660645-.763152-1.097788-.184208-.433856-.276313-.923588-.276313-1.475768 0-.417423.075657-.795404.230261-1.140516.154604-.33854.35855-.650785.608548-.930162.259866-.279377.546047-.529173.868413-.749388.328945-.220215.661179-.417422 1.003281-.594909-.154604-.200494-.302629-.394415-.447365-.588335-.144735-.187347-.269734-.391128-.381575-.598196-.108552-.210355-.197367-.43057-.263156-.663932-.065789-.230075-.098683-.4700107-.098683-.7230935 0-.4305695.072367-.8151239.223682-1.15695.148025-.3385394.35526-.6343505.618416-.8808597.263155-.2497961.572363-.4371431.927623-.5686147.348681-.1314716.723678-.2004942 1.118412-.2004942.378286 0 .743414.0591623 1.098674.1741999.35855.1150377.671047.2925243.940782.5291732.269734.2333621.490127.5291731.654599.8841465.164472.3483997.246708.7625352.246708 1.2358329 0 .3516866-.05921.6770786-.17434.9728896-.115131.295811-.269735.568615-.460522.818411-.194078.246509-.41776.466724-.677626.667218-.259866.197208-.53289.374694-.819072.529173l1.83551 2.208723c.065789-.187347.131578-.400988.200657-.644211.062499-.239935.11842-.555467.161182-.940021h1.651302c-.052631.516026-.154604 1.025478-.302629 1.518496-.148025.496306-.35855.949883-.621705 1.370592l2.266427 2.737896h-2.315769z"/><path d="m128.370946 97.1125734h9.54597v1.7847269h-3.749968v9.9984147h-2.062482v-9.9984147h-3.73352z"/><path d="m140.805707 100.364195h1.766432v1.649968h.036184c.049341-.230075.161182-.456864.322365-.677079.154604-.220214.348681-.420709.575653-.601482.226972-.180774.47697-.325392.753283-.437143.273024-.111751.552627-.16434.842098-.16434.217103 0 .368418.006574.450654.016434.082236.009861.167762.019721.256577.032868v1.814308c-.131578-.023007-.266445-.042728-.407892-.059162-.134867-.013147-.269734-.023008-.404601-.023008-.312498 0-.615127.062449-.898019.190634-.279603.124898-.523022.312245-.733546.558755-.210525.246509-.374997.555467-.493417.917014-.121709.364834-.184209.782256-.184209 1.252267v4.062472h-1.881562z"/><path d="m155.18749 104.623546c-.286182.187347-.634863.299098-1.052623.338539-.421049.036155-.838808.095317-1.259857.170913-.197367.032868-.388155.08217-.578943.141332-.187498.059162-.348681.141332-.493416.246509-.141446.105178-.253288.243223-.338813.410849-.078947.170913-.124999.381268-.124999.621203 0 .207068.065789.384555.184209.529173.121709.141332.266445.253083.440785.33854.164473.08217.351971.141332.555917.170913.207235.032868.391444.049302.552626.049302.213814 0 .437497-.026295.677626-.078883.243419-.059162.47368-.151193.684205-.282664.220393-.131472.398023-.299098.542758-.506166.141446-.200494.210525-.45029.210525-.749388zm1.881562 2.376349c0 .230075.032895.394415.092105.493018.062499.098604.17763.147906.358549.147906h.197367c.075657 0 .161183-.009861.263156-.032868v1.304855c-.069079.023008-.151315.046015-.256577.07231-.105262.029581-.210525.055875-.319076.075596-.111841.019721-.226972.036155-.335524.049302-.108551.00986-.200656.016434-.279603.016434-.384865 0-.703941-.075596-.957228-.230076-.253287-.154479-.421049-.423995-.496706-.80855-.371708.361547-.83223.62449-1.374988.792117-.546048.164339-1.072359.246509-1.582223.246509-.384866 0-.749994-.052589-1.101965-.157766-.35526-.101891-.664467-.25637-.934202-.460151-.269734-.203781-.486838-.463437-.644731-.775682-.157894-.312245-.24013-.680366-.24013-1.097788 0-.529173.095394-.956456.289471-1.285135.190788-.331966.447365-.591622.759862-.778969.312498-.18406.664468-.318819 1.055912-.404275.394734-.08217.786178-.144619 1.1842-.187347.338813-.069023.664468-.111751.973676-.141332.305919-.026294.578943-.075596.819072-.138045.233551-.069023.421049-.170913.559206-.305672.138156-.138045.203945-.345113.203945-.617916 0-.246509-.05592-.44043-.17434-.594909-.115131-.154479-.256577-.272804-.427628-.35826-.167762-.08217-.361839-.138045-.565785-.161053-.213814-.029581-.41118-.042728-.598679-.042728-.526311 0-.963807.108464-1.30262.331965-.342102.216929-.53618.555468-.578942 1.018905h-1.881563c.029605-.548894.164472-1.005757.398023-1.367304.230261-.361547.523022-.654071.878282-.877573.361839-.216928.76644-.371407 1.213805-.460151.453943-.088743.917755-.131471 1.388146-.131471.417759 0 .832229.042728 1.240121.131471.404601.088744.773019.230076 1.098674.43057.325655.197207.585522.45029.782888.765822.200656.315532.29605.696799.29605 1.147089z"/><path d="m162.405519 100.364195h1.782879v1.255553l.032895.032868c.289471-.473297.661178-.844705 1.12499-1.114221.460522-.269517.973676-.404276 1.532882-.404276.940781 0 1.674327.243223 2.213796.723094.539469.486445.809204 1.212826.809204 2.179142v5.860346h-1.881563v-5.364041c-.023026-.670505-.164472-1.15695-.430917-1.459335-.263156-.302384-.677626-.453577-1.236832-.453577-.319076 0-.605258.055876-.861834.1742-.249998.115038-.467102.276091-.641442.476585-.17763.203781-.315787.443716-.411181.719807-.101973.272803-.151314.565328-.151314.870999v5.035362h-1.881563z"/><path d="m176.60737 106.157819c.05592.548894.263155.933448.628284 1.153663.361839.220215.799335.328679 1.305909.328679.174341 0 .374997-.013147.601969-.042728.226972-.023007.437496-.075596.634863-.151192.197366-.078883.361839-.193921.486838-.341826.124999-.147906.184209-.341826.171051-.585049-.006579-.243222-.095394-.437143-.263156-.591622-.164472-.154479-.374997-.279377-.634863-.374694-.259866-.09203-.552627-.170913-.881571-.239936-.335523-.062449-.667757-.134758-1.00986-.210354-.35197-.078883-.690783-.170913-1.013149-.282664-.328944-.108464-.618416-.25637-.874992-.447004-.263156-.187347-.467101-.423996-.621705-.71652s-.233551-.650784-.233551-1.081354c0-.46015.11842-.851278.342102-1.160237.223683-.315531.513154-.568614.861835-.762535.342102-.190634.726967-.325392 1.151306-.404275.424338-.075596.82894-.115038 1.213805-.115038.440786 0 .861835.049302 1.263147.141332.404602.09203.766441.243223 1.092096.453577.322365.207068.5921.479872.809203.818411.213814.331966.348681.736241.404602 1.212825h-1.963799c-.092104-.453577-.29605-.755961-.621705-.91044-.322366-.151193-.697362-.230076-1.115122-.230076-.134867 0-.289471.009861-.467101.032868-.184209.023008-.35526.062449-.513153.124898-.161183.062449-.296051.147906-.407892.262943-.108551.115038-.164472.26623-.164472.453577 0 .230076.082236.42071.24013.562042.161182.144618.368417.262943.624994.354973.259866.09203.552627.1742.88815.236649.325655.069022.667758.138045 1.019728.216928.342103.075596.677626.170913 1.00986.279377.328945.111751.624995.259656.884861.443717.259866.190633.463812.423996.624994.709946.161183.285951.24013.640924.24013 1.058347 0 .506165-.115131.936735-.345392 1.285134-.230261.354974-.529601.640924-.904597.861139-.365129.216928-.776309.377981-1.226963.476585-.450654.10189-.898019.147905-1.335515.147905-.539469 0-1.039465-.059162-1.496698-.180773-.457233-.118324-.855255-.305671-1.187489-.552181-.335524-.249796-.601969-.555467-.792757-.926874-.194077-.364834-.29276-.805264-.305918-1.308143z"/><path d="m186.218799 100.364195h1.404593v-.709947c0-.5390335.065789-.9761765.197367-1.3114291s.309208-.594909.529601-.7756824c.220393-.1807735.47039-.2990979.753283-.3615469.276313-.0591622.572363-.0920301.881571-.0920301.605258 0 1.046044.0361547 1.322357.1150376v1.4691951c-.121709-.0328679-.249998-.0558754-.388155-.0723094-.138156-.0164339-.299339-.0262943-.490127-.0262943-.253287 0-.470391.0591622-.65131.1840602-.180919.1183245-.269734.3549733-.269734.7066599v.8742864h1.59867v1.403459h-1.59867v7.129047h-1.884853v-7.129047h-1.404593z"/><path d="m201.429194 103.878759c-.023026-.295811-.085526-.581762-.190788-.857852s-.249998-.512739-.427628-.71652c-.180919-.203781-.404602-.371408-.664468-.496306-.256577-.124898-.546048-.187347-.865124-.187347-.328944 0-.631573.055876-.901308.170914-.269734.115037-.499996.27609-.694073.479871-.190788.200494-.345392.443716-.460522.71652-.115131.27609-.17763.571901-.187499.89072zm-4.39141 1.23912c0 .331966.046053.647497.138157.956456.092105.308958.233551.578475.421049.80855s.424339.414136.71381.552181c.282892.138045.621705.207067 1.019728.207067.552626 0 .996702-.118324 1.332225-.354973.332234-.236649.582232-.591622.749993-1.06492h1.78288c-.098684.463438-.269735.874286-.509864 1.23912-.243419.361547-.53289.667218-.878282.913728-.338813.246509-.720389.433856-1.144727.562041-.424338.124898-.868414.190633-1.332225.190633-.671047 0-1.263147-.11175-1.78288-.331965-.516442-.216928-.953939-.525887-1.312488-.923588-.35855-.394415-.628284-.867713-.809204-1.419893-.180919-.548894-.269734-1.153664-.269734-1.814308 0-.60477.095394-1.179958.289471-1.725565.190788-.54232.463812-1.018905.822361-1.433041.35855-.410848.789467-.739527 1.296042-.98275.506574-.243222 1.078938-.364833 1.71709-.364833.674336 0 1.276305.141332 1.809195.420709.536179.282664.976965.654071 1.332225 1.114221.348681.463438.601969.995898.763151 1.594094.161183.598195.203946 1.219399.124999 1.857036z"/><path d="m208.04986 100.364195h1.766432v1.649968h.036184c.052631-.230075.164472-.456864.322365-.677079.154604-.220214.348682-.420709.575653-.601482.226972-.180774.47697-.325392.753283-.437143.273024-.111751.555917-.16434.842098-.16434.220393 0 .368418.006574.450654.016434.085526.009861.167762.019721.256577.032868v1.814308c-.131578-.023007-.266445-.042728-.404602-.059162-.134867-.013147-.269734-.023008-.404602-.023008-.315786 0-.615126.062449-.898018.190634-.282892.124898-.526311.312245-.733546.558755-.210525.246509-.378287.555467-.496707.917014-.11842.364834-.184208.782256-.184208 1.252267v4.062472h-1.881563z"/><path d="m218.586282 106.157819c.05592.548894.263155.933448.628284 1.153663.361839.220215.799335.328679 1.305909.328679.174341 0 .374997-.013147.601969-.042728.226972-.023007.437496-.075596.634863-.151192.197366-.078883.361839-.193921.486838-.341826.124999-.147906.184209-.341826.171051-.585049-.006579-.243222-.095394-.437143-.263156-.591622-.164472-.154479-.374997-.279377-.634863-.374694-.259866-.09203-.552627-.170913-.881571-.239936-.335523-.062449-.667757-.134758-1.00986-.210354-.35197-.078883-.690783-.170913-1.013149-.282664-.328944-.108464-.618415-.25637-.874992-.447004-.263156-.187347-.467101-.423996-.621705-.71652s-.233551-.650784-.233551-1.081354c0-.46015.11842-.851278.342102-1.160237.223683-.315531.513154-.568614.861835-.762535.342102-.190634.726967-.325392 1.151306-.404275.424338-.075596.82894-.115038 1.213805-.115038.440786 0 .861835.049302 1.263147.141332.404602.09203.766441.243223 1.092096.453577.322365.207068.5921.479872.809203.818411.213814.331966.348681.736241.404602 1.212825h-1.963799c-.092104-.453577-.29605-.755961-.621705-.91044-.322365-.151193-.697362-.230076-1.115122-.230076-.134867 0-.289471.009861-.467101.032868-.184209.023008-.35526.062449-.513153.124898-.161183.062449-.29605.147906-.407892.262943-.108551.115038-.164472.26623-.164472.453577 0 .230076.082236.42071.24013.562042.161182.144618.368417.262943.624994.354973.259866.09203.552627.1742.88815.236649.325655.069022.667758.138045 1.019728.216928.342103.075596.677626.170913 1.00986.279377.328945.111751.624995.259656.884861.443717.259866.190633.463812.423996.624994.709946.161183.285951.24013.640924.24013 1.058347 0 .506165-.115131.936735-.345392 1.285134-.230261.354974-.529601.640924-.904597.861139-.365129.216928-.776309.377981-1.226963.476585-.450654.10189-.898019.147905-1.335515.147905-.539469 0-1.039465-.059162-1.496698-.180773-.457232-.118324-.855255-.305671-1.187489-.552181-.335524-.249796-.601969-.555467-.792757-.926874-.194077-.364834-.29276-.805264-.305918-1.308143z"/><path d="m86.6874262 78.7177253c0 6.333644-5.1381133 11.4708966-11.4768741 11.4708966-6.3420502 0-11.4801635-5.1372526-11.4801635-11.4708966 0-6.3336441 5.1381133-11.4708967 11.4801635-11.4708967 6.3387608 0 11.4768741 5.1372526 11.4768741 11.4708967"/></g><path d="m78.8427574 83.4198068h-7.8946683c.0131578-.9564558.243419-1.7913004.6940729-2.5078206.450654-.7132334 1.0690697-1.3377235 1.8486682-1.8668967.3749968-.2728035.7631513-.5390335 1.1710425-.7986899.4111806-.2563696.7828879-.5357468 1.1249902-.8348446.3421023-.2958111.6217051-.6179165.842098-.9630295.2203928-.3483997.3355234-.7461013.3486812-1.1963915 0-.2103545-.0263156-.4305695-.0756573-.6672183-.0493417-.2366489-.148025-.4568638-.2894712-.6606448-.1447355-.203781-.3388128-.374694-.5921001-.5127392-.2565767-.1380452-.5855212-.203781-.9934124-.203781-.3717073 0-.6842046.0723094-.930913.2202149-.2499978.1479056-.4473645.3516866-.5953896.611343-.1513144.2596564-.2598661.562041-.3322339.9137275-.0690784.3549733-.1118412.7329542-.1249989 1.1405161h-1.8815627c0-.6376372.0855256-1.2292594.2565768-1.7748665.1710511-.5456071.4276278-1.0156181.7697301-1.4100329.3388129-.3944147.7565724-.7066598 1.2434103-.9301615.4934168-.2267885 1.0624908-.3385393 1.7105115-.3385393.7072307 0 1.2960413.1150376 1.766432.3451129.4769695.2300753.8585452.5225996 1.1513058.8742861.2894712.3516865.4967062.7329541.6151262 1.1470897.1217095.4108487.184209.8052635.184209 1.1799575 0 .4601506-.0723678.8808597-.2171034 1.252267-.1414461.374694-.332234.7198069-.5756529 1.032052-.2434189.3155318-.5197323.6047693-.8256507.8677125-.3092079.2629432-.6282841.5094524-.9572286.7428145-.3322339.2300753-.6611784.4502902-.990123.657358-.3322339.2103545-.6348629.4207091-.9177552.6277769-.2796028.2103545-.5263112.4272826-.7368357.6540711-.2105245.2235018-.3486811.4634374-.4276278.7165202h5.63153z" fill="#fff"/></g><g transform="translate(95.620915 216.324435)"><path d="m160.061735 143.675137c-.421049 0-.842098-.161053-1.164464-.479871l-132.2126684-132.1059455c-.6414418-.6442108-.6414418-1.68283645 0-2.32376047.6414418-.64421082 1.6841959-.64421082 2.3256377 0l132.2159577 132.10265797c.641442.644211.641442 1.682837 0 2.327048-.322365.318818-.743414.479871-1.164463.479871" fill="#d4d3d7"/><path d="m164.427486 146.393641c3.036158-3.033707 3.036158-7.954032 0-10.987739-3.036158-3.036993-7.960457-3.036993-10.999904 0-3.036158 3.033707-3.036158 7.954032 0 10.987739 3.039447 3.033707 7.963746 3.033707 10.999904 0" fill="#d4d3d7"/><g fill="#fbb040"><path d="m40.9927021 5.10670554-17.9669493 17.95244626c-.7993352.8019767-2.3848478.0197208-2.5131361-1.2391198l-2.1480077-21.3707077 21.3879723 2.14956057c1.2598575.12489802 2.039456 1.70913074 1.2401208 2.50782067"/><path d="m2.10422379 83.5275398h3.64799466c.63157347 0 1.1151219-.1643395 1.46380309-.4864449.34539174-.3253922.51973233-.7855428.51973233-1.377165 0-.5850486-.17434059-1.0353388-.51973233-1.3475838-.34868119-.3122451-.83222962-.470011-1.46380309-.470011h-3.64799466zm0-5.1635469h3.36839182c.49670622 0 .91117631-.141332 1.23683138-.4239959.33223396-.2793772.49999566-.6836523.49999566-1.2095387 0-.594909-.15131448-1.0156181-.44736454-1.2555537-.29933951-.2399357-.72696738-.3648337-1.2894625-.3648337h-3.36839182zm-2.06577155-4.9367584h5.73021344c1.05920133 0 1.90458873.2432224 2.54603053.7263806.63815236.4831581.95722854 1.2161122.95722854 2.1922888 0 .594909-.14473559 1.1043614-.4374962 1.5283573-.29276062.4239959-.70723071.7526749-1.24669971.9827502v.0328679c.72696737.1544791 1.27630471.4963052 1.65130146 1.0287652.3717073.5357467.56249512 1.2062519.56249512 2.0082286 0 .4601506-.08552558.8907201-.24670839 1.2949952-.1677617.4009884-.42433842.7493881-.7795985 1.0386256-.35197063.2925243-.80262461.5225996-1.35525139.6935127-.54933734.1676263-1.20393692.2563696-1.96050931.2563696h-5.42100559z"/><path d="m14.7531272 85.2110335h1.8815626v-8.5325065h-1.8815626zm0-9.9984147h1.8815626v-1.7847269h-1.8815626z"/><path d="m21.1277429 76.6778697h1.4210403v-2.5571225h1.8848521v2.5571225h1.6973537v1.4034593h-1.6973537v4.5522039c0 .2004942.0065789.3714073.0230261.5127392.0164472.1446188.0526311.26623.1151306.3615469.05921.0986037.1513145.1741999.2730239.2235017.1217095.0493019.2861818.0755962.4934168.0755962.1315778 0 .2664451-.0032868.3980229-.0098604.1315778-.0032868.2631556-.0230075.3947334-.0591622v1.4560479c-.2072351.0230076-.4111807.0427283-.6085474.062449-.2006561.0230076-.4013123.0361547-.6118368.0361547-.4967062 0-.894729-.0493018-1.197358-.1413319-.3026289-.0920302-.539469-.2300753-.7105201-.4141356-.1677617-.1807734-.2861818-.4075619-.3453918-.6836523-.0624994-.2728035-.0953939-.5883353-.1085517-.9400219v-5.0320752h-1.4210403z"/><path d="m36.553267 79.5344188c-.0756573-.5291732-.2894712-.9268748-.634863-1.1963916-.3486811-.2695167-.7861773-.4042751-1.315778-.4042751-.2401295 0-.4999957.0394415-.7730196.1216112-.2763134.0821698-.5296007.2366489-.7631513.4601506-.2302611.2300753-.421049.5390335-.5756529.9433087-.1546039.4042751-.2335506.9268747-.2335506 1.5743723 0 .3516866.0427628.7066599.1249989 1.0550596.0855256.3549733.2171034.6672183.3980229.9400219.1809195.2760903.4144701.5028788.7006518.6737919.2861817.1676263.6348629.2530828 1.0427541.2530828.5493373 0 1.0032808-.170913 1.3618303-.5127392.3552601-.3385393.5789423-.8184107.6677574-1.4330404h1.8815626c-.1743406 1.110935-.5953896 1.9622136-1.263147 2.5472622-.6677573.5883354-1.5493286.8841465-2.6480033.8841465-.6743362 0-1.2664364-.1117509-1.7763004-.3385394s-.9440707-.5357468-1.2993308-.923588c-.3486812-.391128-.6151262-.8578521-.7993352-1.3968857-.1842089-.5390335-.2730239-1.1207953-.2730239-1.7485722 0-.6343504.088815-1.235833.2631556-1.797874.17763-.5620411.4407856-1.0451992.7927563-1.4593347.3552601-.4108488.7927563-.7395277 1.315778-.9728898.5230218-.2366489 1.1348586-.3549733 1.8387999-.3549733.4967062 0 .9670968.062449 1.4144614.187347.4440751.1281848.8420979.3188186 1.1874897.5719014.3486812.2530828.6315734.5719015.8519663.9564559.2203928.3845544.3519706.8414182.3947334 1.3705914z"/><path d="m47.1893589 83.9544938c.4177595 0 .7795985-.0854566 1.0888063-.2629432.3092079-.1774867.5624951-.407562.7598618-.6935127.1973668-.2859507.3421023-.6080561.4374962-.9663162.095394-.3549733.1381567-.7230938.1381567-1.094501 0-.3648337-.0427627-.7296674-.1381567-1.0912143-.0953939-.3615469-.2401294-.6836523-.4374962-.9663162-.1973667-.2793771-.4506539-.5061656-.7598618-.6836523-.3092078-.1774866-.6710468-.2629432-1.0888063-.2629432-.421049 0-.782888.0854566-1.0920958.2629432-.3092079.1774867-.5592057.4042752-.7565724.6836523-.2006561.2826639-.3453917.6047693-.4374962.9663162-.0986833.3615469-.1414461.7263806-.1414461 1.0912143 0 .3714072.0427628.7395277.1414461 1.094501.0921045.3582601.2368401.6803655.4374962.9663162.1973667.2859507.4473645.516026.7565724.6935127.3092078.1774866.6710468.2629432 1.0920958.2629432m0 1.485629c-.6842046 0-1.292752-.1117509-1.8256421-.3352526-.5361795-.2300753-.9835441-.5357467-1.3552514-.9367351-.3684178-.3944148-.6480207-.8677125-.8420979-1.4166064-.1907878-.5488939-.2894712-1.1569501-.2894712-1.814308 0-.6507844.0986834-1.2489802.2894712-1.8011609.1940772-.5488939.4736801-1.0221916.8420979-1.4166064.3717073-.3977016.8190719-.7066598 1.3552514-.9334483.5328901-.2267885 1.1414375-.3385394 1.8256421-.3385394.6809151 0 1.2894625.1117509 1.825642.3385394.5328901.2267885.9835441.5357467 1.351962.9334483.3684178.3944148.6480207.8677125.8420979 1.4166064.1907879.5521807.2894712 1.1503765.2894712 1.8011609 0 .6573579-.0986833 1.2654141-.2894712 1.814308-.1940772.5488939-.4736801 1.0221916-.8420979 1.4166064-.3684179.4009884-.8190719.7066598-1.351962.9367351-.5361795.2235017-1.1447269.3352526-1.825642.3352526"/><path d="m56.4172393 85.2110335h1.8815626v-8.5325065h-1.8815626zm0-9.9984147h1.8815626v-1.7847269h-1.8815626z"/><path d="m63.6527029 76.6778697h1.7828792v1.2555537l.0328945.0328679c.2861817-.4732977.6611784-.844705 1.1249902-1.1142218.4605223-.2695167.9703863-.4042751 1.5328814-.4042751.9374919 0 1.6743276.2432224 2.2137966.7230938.539469.4864449.8092035 1.2128254.8092035 2.1791416v5.8603464h-1.8815626v-5.3640411c-.0230261-.6705051-.1677617-1.15695-.4309173-1.4593347s-.6776257-.453577-1.2401208-.453577c-.3157868 0-.6019685.0558754-.8585452.1741999-.2532873.1150376-.4671012.2760903-.6414418.4765845-.17763.203781-.3157867.4437166-.4144701.719807-.0986833.2728035-.148025.5653278-.148025.8709993v5.0353621h-1.8815626z"/><path d="m107.498046 78.0405728c0 6.333644-5.138113 11.4708966-11.4801635 11.4708966-6.3387608 0-11.4768741-5.1372526-11.4768741-11.4708966 0-6.3336441 5.1381133-11.4708967 11.4768741-11.4708967 6.3420505 0 11.4801635 5.1372526 11.4801635 11.4708967"/></g><path d="m95.4741372 76.8126281c.3092079.0098603.6151263-.0098604.9243341-.0657358.3092079-.0558755.5855213-.1511924.8256508-.2892375.2401295-.1347584.4374962-.3253922.5888106-.5686147.1480251-.2399357.2203929-.5390335.2203929-.89072 0-.4963053-.1644723-.8907201-.5032851-1.189818-.3355234-.2958111-.7664408-.4437166-1.2960414-.4437166-.3289445 0-.6151263.0657358-.8585452.1972074s-.4440751.312245-.6019685.5357467c-.1611828.2267885-.2796028.4798714-.35526.7592485-.0789467.2826639-.1085517.5719014-.1019728.8677125h-1.8815627c.0230262-.5620411.1282884-1.0813539.3157868-1.5612252.1874983-.4765845.4440751-.8940068.7664407-1.2456933.3256551-.3516865.7203885-.6244901 1.1809108-.8249843.4605223-.1972074.9835441-.2958111 1.5690653-.2958111.450654 0 .8947291.0657358 1.3322253.1972074.4309173.1314716.8223613.3253922 1.1710425.578475.3453917.2530829.6217051.5751883.8322296.9663163.207235.3911279.3157867.8381314.3157867 1.344297 0 .5817618-.1315778 1.0912142-.3980228 1.5250705-.2664451.4338563-.6776257.7493881-1.2368314.9498823v.0328679c.6611785.1314716 1.1743319.4601506 1.5427498.9827502.3717068.5225995.5526268 1.15695.5526268 1.9063381 0 .5488939-.108552 1.0419124-.328945 1.4757686-.2203924.4338563-.5197319.8019768-.8914392 1.1043614-.3749967.3023847-.8092035.5357468-1.3059097.7033731-.4967062.1643394-1.019728.2465092-1.5690653.2465092-.6710469 0-1.2598575-.0953169-1.7565638-.2892375-.4999956-.1939206-.9210446-.4634374-1.256568-.8184107-.3355234-.3483997-.5921001-.7723956-.7664407-1.2687009-.17763-.4963053-.2697345-1.0451992-.2828923-1.6499685h1.8815626c-.0197366.703373.1513145 1.2884216.5197324 1.7551458.3717073.4700109.9210446.703373 1.6611698.703373.628284 0 1.1545952-.1774866 1.5789336-.5357467.421049-.3582601.6348629-.8677125.6348629-1.5283573 0-.4502902-.088815-.8085503-.2631556-1.0714935-.17763-.2629432-.4078912-.4634374-.6940729-.6014826-.2861817-.1380451-.6118368-.2235017-.9670969-.2563696-.35526-.0328679-.7236779-.0427282-1.0986747-.0328679z" fill="#fff"/></g></g></svg>