<?xml version="1.0" encoding="UTF-8"?>
<svg width="15px" height="15px" viewBox="0 0 15 15" version="1.1" xmlns="http://www.w3.org/2000/svg" xmlns:xlink="http://www.w3.org/1999/xlink">
    <!-- Generator: Sketch 52.2 (67145) - http://www.bohemiancoding.com/sketch -->
    <title>Icon - Expand/Collapse (source)</title>
    <desc>Created with Sketch.</desc>
    <g id="Designs" stroke="none" stroke-width="1" fill="none" fill-rule="evenodd">
        <g id="Partners" transform="translate(-250.000000, -550.000000)" fill-rule="nonzero">
            <g id="HERO">
                <g id="HERO-Content" transform="translate(249.000000, 161.000000)">
                    <g id="Group-13" transform="translate(0.000000, 219.000000)">
                        <g id="Merchants" transform="translate(0.000000, 162.000000)">
                            <g id="Icon---Expand/Collapse-(source)" transform="translate(0.000000, 7.000000)">
                                <rect id="Rectangle" fill-opacity="0" fill="#C51112" x="1" y="1" width="15" height="15"></rect>
                                <path d="M9.65431972,7.34568028 L14.8456803,7.34568028 C15.4831935,7.34568028 16,7.86248682 16,8.5 C16,9.13751318 15.4831935,9.65431972 14.8456803,9.65431972 L9.65431972,9.65431972 L9.65431972,14.8456803 C9.65431972,15.4831935 9.13751318,16 8.5,16 C7.86248682,16 7.34568028,15.4831935 7.34568028,14.8456803 L7.34568028,9.65431972 L2.15431972,9.65431972 C1.51680654,9.65431972 1,9.13751318 1,8.5 C1,7.86248682 1.51680654,7.34568028 2.15431972,7.34568028 L7.34568028,7.34568028 L7.34568028,2.15431972 C7.34568028,1.51680654 7.86248682,1 8.5,1 C9.13751318,1 9.65431972,1.51680654 9.65431972,2.15431972 L9.65431972,7.34568028 Z" id="Combined-Shape" fill="#F09242"></path>
                            </g>
                        </g>
                    </g>
                </g>
            </g>
        </g>
    </g>
</svg>