<svg height="45" viewBox="0 0 168 45" width="168" xmlns="http://www.w3.org/2000/svg"><g fill="#282138" fill-rule="evenodd"><path d="m43.1868243 22.5966335c.068345-11.4586853-9.0591182-20.93109565-20.2680639-21.03400402-11.7231438-.10792828-21.21523324 9.10272912-21.29663899 20.66486052-.08140576 11.5526295 9.11386579 20.9171116 20.61622999 20.9958168 11.5912844.079243 20.8795911-9.066514 20.9484729-20.6266733zm-43.18673484-2.4914941c.25709904-1.1092231.4844984-2.2263346.77594888-3.3265936 2.73058147-10.30661353 12.00350156-17.17673305 22.60557186-16.76043823 10.3880895.40750996 19.1845623 8.15360558 21.054032 18.53928283 2.2187092 12.3262351-6.3800639 24.2198606-18.7961406 26.0101793-.3191821.0460757-.6240511.1927291-.9355399.2925897h-4.5961151c-.2630031-.0948407-.5192076-.2371913-.7904408-.2777092-9.1482173-1.3688247-16.26898407-7.7484263-18.56999366-16.6733068-.29628115-1.149741-.50042172-2.3235059-.74732268-3.4861554z"/><path d="m68.6750543 24.1595677c0 3.0216335.0323834 6.0434462-.0182492 9.0641833-.0168179 1.006494.3220447 1.3254382 1.3223514 1.313247 3.9239362-.0482271 7.8496614.025996 11.7732397-.0360358 4.5302747-.0717132 7.5068626-3.1014144 7.5968562-7.6469522.0359617-1.8216933.0400767-3.6453586.0055463-5.4670518-.0846262-4.4671913-3.0422492-7.516255-7.4893291-7.6032072-3.9709904-.0776295-7.9450223.0120119-11.9167284-.0390837-1.0416358-.0134462-1.3032077.3883267-1.2896102 1.3507172.0425815 3.0209163.0157444 6.042729.0159233 9.0641832m-5.6774696.0064542c-.0001789-4.1686852-.010377-8.3375498.0035782-12.5060558.008409-2.55460156 1.0407413-3.58511949 3.5680767-3.58852586 4.9730863-.00699203 9.9461725-.01954183 14.9190799.00197211 7.9638083.03478088 13.5180064 5.60151395 13.5358978 13.59663345.0053674 2.485757.1060958 5.0061156-.2474377 7.450996-.9201534 6.3670518-5.8350927 10.817749-12.2317956 11.0255379-5.4933674.1785657-10.996754.0760159-16.4953099.043745-2.0029393-.0118327-3.0333035-1.1920518-3.0451118-3.3744622-.0232588-4.2165537-.0067987-8.4332868-.0069776-12.6498406"/><path d="m132.668956 40.2265757c4.702569-5.5104382 9.16593-10.7406574 13.689763-16.0415139-4.555501-5.3503387-9.038006-10.6148008-13.73306-16.12918331 2.662952 0 4.987578-.04302789 7.307731.03980079.41508.01488048.885981.48549801 1.204806.855 2.691757 3.11737052 5.353099 6.26091632 8.026607 9.39388442.307373.3601793.633891.7036853 1.069904 1.1854184.386632-.4223905.738913-.7850797 1.066862-1.168745 2.676371-3.1308168 5.319821-6.2906773 8.050403-9.37326698.432255-.48818725 1.23862-.85948207 1.893086-.89462151 2.094185-.11258965 4.198211-.04177291 6.699604-.04177291-4.710978 5.509004-9.221393 10.783506-13.796754 16.1336653 4.528307 5.2983466 8.998109 10.5282072 13.697099 16.0264542-2.697482 0-5.103335.0458964-7.504-.0453585-.398978-.0150598-.822645-.5866136-1.154351-.9709961-2.939553-3.4038645-5.860678-6.8235059-8.914556-10.3869322-.444064.4883665-.826045.8860159-1.183157 1.305-2.610172 3.0612549-5.237342 6.1085259-7.806006 9.2045617-.583438.703506-1.192281.9543227-2.083809.9277889-2.049099-.0605976-4.101418-.0191833-6.530172-.0191833"/><path d="m129.789733 8.05159363v5.67466137h-23.192767c-.036498.6818127-.086415 1.1868526-.086952 1.692251-.005725 5.1801992-.004473 10.3605777-.003399 15.5407769.000715 3.0085458.514556 3.533486 3.472358 3.534741 6.031361.0023307 12.062543.0007171 18.093904.0007171h1.66354v5.5999004c-.273559.0396215-.588984.1249602-.904409.1253188-6.605496.006992-13.211349.0326294-19.816844-.0062749-4.042914-.0238447-7.091067-2.304502-7.992971-5.9331873-.205035-.8241633-.230978-1.7082072-.233482-2.5651793-.017892-6.6671713-.015924-13.3345219-.007515-20.0016932.0034-2.7261753.926773-3.65916335 3.597419-3.66059761 7.993687-.00412351 15.987552-.00143426 23.981418-.00143426z"/><path d="m50.476754 40.1023506h5.463131v-31.95950199h-5.463131z"/><path d="m109.021444 26.899243h18.169585v-5.5453984h-18.169585z"/><path d="m7.69384537 26.7273108c2.49334183 2.230996 5.43987223 1.9631474 8.34364213 1.976235 1.0627476.0048407 1.4502748-.4446215 1.4150288-1.4715538-.04777-1.3896215-.0588626-2.7835458.0017891-4.171733.0137764-.3169721.3850224-.6183466.5916678-.9268925.1900064.3246813.530837.6430877.5444345.9749403.0608306 1.4848207-.0370352 2.978247.0737124 4.4571514.0289841.3879681.5997189.7350597.9217636 1.1009761.3096997-.3775698.8476933-.7334463.8863387-1.1371913.1184409-1.2361554.0708498-2.4911354.041329-3.7376892-.1086006-4.5869522.8639745-3.5800996-3.9142747-3.7346414-.7938403-.0256375-1.1357444.2956374-1.122147 1.093984.0232588 1.3428287-.0617252 2.6903187.020754 4.0283068.0735336 1.1936653-.3664153 1.6088844-1.5515399 1.568008-2.0820192-.0715339-4.16815338-.0199004-6.25249843-.0199004m19.38065173 4.3969123c.0377508-.808745.0898147-1.4254781.0914249-2.0422111.0085879-3.1638048.0041151-6.3276096.0041151-9.4914144.0001789-3.700757.0001789-3.6686653-3.7371502-3.6588048-1.0623898.0028686-1.4161022.3603586-1.4008946 1.4204582.0497381 3.4506574-.0195016 6.9031076.0406135 10.3534064.0184281 1.0549004-.2683707 1.4604382-1.3608179 1.4183067-1.8628499-.0715338-3.7305304-.0186454-5.5962429-.0182868-.7854313.0001793-1.5706837.0001793-2.356115.0001793-.0391821.2180079-.0783642.4363745-.1175463.654741 1.6486901.4691833 3.2717955 1.1169323 4.9530479 1.3566335 1.6411757.2339641 3.3442556-.0087849 5.0147732.0718924 1.1361022.0548606 1.5091374-.3639442 1.4935719-1.4781872-.0470543-3.3549204-.0246901-6.7109164-.0057253-10.0663745.0028627-.5181275.1298914-1.0353586.1993099-1.5529483.1669266-.0138047.334032-.0276095.5009585-.0414143.1041278.4860359.2935975.9715339.2982492 1.4584661.0282684 2.9239243.0143131 5.8480279.0143131 8.7723108v2.7555777c.7453546.0333466 1.2531118.0561155 1.964115.0876693m3.7511055-17.1772709c.209329.0328088.418837.0656175.6281661.098247.0348882.4028486.0991182.8055179.0998339 1.2083665.0119872 5.6101196.0159233 11.2204184.0200383 16.8307172.0005367.7497609-.2295463 1.5611952 1.0167668 1.6061952 1.3720894.0493028 1.1080127-.876514 1.1092651-1.645996.0101981-5.5143825.0057253-11.028765.0057253-16.5431474.0001789-3.5318725-.0025048-3.475757-3.4462364-3.6347809-1.3953483-.0643626-1.8292141.3886852-1.8102492 1.7752589.066377 4.8901196.0255846 9.7816734.0254057 14.6728686 0 3.3640637 0 3.3545617-3.3136613 3.3298207-2.2663004-.0170319-4.5327796-.0032271-6.7992588-.0032271 3.668984 3.1557371 7.9541469 1.6370319 12.1734696 2.0839841 0-.7606972-.0007156-1.2743427.0001789-1.7879881.0100192-5.4665139.0130607-10.9328486.041508-16.3991833.0028627-.5308565.1622748-1.0608167.249048-1.5911354m11.71223 8.5820916c.0073355 11.0778885-8.8846773 20.02751-19.9231182 20.0520717-11.0352205.0243825-20.00023005-9.008247-20.00613421-20.1580279-.00608307-11.1582071 8.96948241-20.2431872 19.96212141-20.2055378 11.1932013.03818725 19.9597955 8.9558964 19.967131 20.311494"/></g></svg>