<svg height="56" viewBox="0 0 225 56" width="225" xmlns="http://www.w3.org/2000/svg" xmlns:xlink="http://www.w3.org/1999/xlink"><mask id="a" fill="#fff"><path d="m.0004.1084h47.8v55.8916h-47.8z" fill="#fff" fill-rule="evenodd"/></mask><mask id="b" fill="#fff"><path d="m0 59.8932h224.528v-55.892h-224.528z" fill="#fff" fill-rule="evenodd"/></mask><g fill="none" fill-rule="evenodd" transform="translate(0 -4)"><path d="m23.9004 56.0004s23.9-8.136 23.9-37.996v-10.748c0-1.172-.908-2.116-2.06-2.2-4.34-.204-14.632-1.088-21.84-4.948-7.208 3.86-17.5 4.744-21.836 4.948-1.152.084-2.064 1.028-2.064 2.2v10.748c0 29.86 23.9 37.996 23.9 37.996" fill="#00adee" mask="url(#a)" transform="translate(0 3.8932)"/><path d="m28.4176 27.0188c-.024 3.108-4.852 2.712-6.408 2.7l-.008-5.496c1.552.012 6.436-.448 6.416 2.796m1.22 8.56c-.024 3.42-5.82 2.988-7.688 2.98l-.008-6.064c1.868.016 7.72-.48 7.696 3.084m3.92-9.756c-.292-3.26-3.08-4.376-6.636-4.712l.02-4.556-2.756.012.012 4.408c-.724-.008-1.504.004-2.24.012l.004-4.464-2.776.012.02 4.52c-.6.008-5.552.02-5.552.02l-.004 2.892 3.524-.008-.008 14.54-3.088.016-.024 3.312s4.36-.016 5.004-.008l.012 4.572 2.724.016.016-4.52c.756.02 1.484.032 2.196.036l-.008 4.508 2.776-.004-.012-4.548c4.632-.232 7.88-1.372 8.312-5.716.348-3.5-1.284-5.072-3.908-5.724 1.6-.8 2.608-2.228 2.392-4.616" fill="#fff"/><g fill="#282138"><path d="m84.7928 40.0636c0-1.804-.676-3.056-2.028-3.752s-3.156-1.044-5.412-1.044h-5.84v9.96h5.904c.816 0 1.668-.072 2.548-.216.884-.14 1.684-.4 2.4-.768s1.3-.892 1.752-1.568.676-1.544.676-2.612m-1.416-17.28c0-1.472-.56-2.552-1.688-3.224-1.128-.68-2.8-1.016-5.012-1.016h-5.164v8.976h5.656c1.968 0 3.496-.4 4.58-1.2 1.088-.8 1.628-1.976 1.628-3.536m11.932 18.264c0 2.376-.472 4.376-1.416 5.996-.94 1.616-2.192 2.92-3.752 3.904-1.556.984-3.328 1.692-5.316 2.12s-4.028.648-6.116.648h-17.34v-43.536h17.34c1.676 0 3.4.176 5.164.524 1.76.348 3.36.944 4.796 1.78 1.432.84 2.6 1.98 3.504 3.412.9 1.436 1.352 3.26 1.352 5.476 0 2.42-.656 4.416-1.968 5.996-1.312 1.576-3.032 2.712-5.164 3.412v.12c1.232.208 2.388.584 3.476 1.14 1.084.552 2.028 1.26 2.828 2.12.796.86 1.432 1.868 1.904 3.012.472 1.148.708 2.44.708 3.876"/><path d="m98.464 53.7132h10.084v-30.62h-10.084zm10.82-40.396c0 .776-.152 1.504-.46 2.184-.308.672-.716 1.256-1.228 1.748-.516.496-1.128.884-1.848 1.168-.716.288-1.464.432-2.244.432-1.64 0-3.012-.54-4.116-1.628-1.108-1.088-1.66-2.388-1.66-3.904 0-.74.14-1.448.428-2.124s.696-1.26 1.232-1.752c.528-.492 1.144-.892 1.844-1.196.696-.312 1.452-.464 2.272-.464.78 0 1.528.144 2.244.432.72.288 1.332.676 1.848 1.168.512.492.92 1.076 1.228 1.752s.46 1.404.46 2.184z" mask="url(#b)"/><path d="m126.826 30.5948v11.728c0 1.44.276 2.52.832 3.24.552.72 1.544 1.08 2.98 1.08.492 0 1.016-.04 1.568-.124s1.016-.204 1.384-.368l.124 7.376c-.7.248-1.58.464-2.644.648-1.068.184-2.136.276-3.2.276-2.048 0-3.772-.256-5.164-.772-1.392-.512-2.512-1.252-3.352-2.216-.84-.968-1.444-2.12-1.812-3.452-.372-1.336-.552-2.828-.552-4.472v-12.944h-4.92v-7.5h4.856v-8.056h9.9v8.056h7.192v7.5z" mask="url(#b)"/><path d="m170.5136 53.7748c-2.848.696-5.956 1.044-9.316 1.044-3.484 0-6.692-.552-9.624-1.66-2.932-1.104-5.452-2.664-7.56-4.672-2.112-2.008-3.764-4.416-4.952-7.224s-1.784-5.932-1.784-9.376c0-3.484.604-6.64 1.816-9.472 1.208-2.828 2.88-5.236 5.008-7.224 2.132-1.988 4.636-3.512 7.504-4.58s5.964-1.6 9.284-1.6c3.444 0 6.64.524 9.592 1.568s5.352 2.448 7.196 4.212l-6.64 7.564c-1.028-1.188-2.38-2.164-4.06-2.92-1.68-.76-3.588-1.14-5.72-1.14-1.844 0-3.544.34-5.104 1.016-1.556.676-2.908 1.62-4.056 2.828-1.148 1.212-2.04 2.644-2.676 4.304s-.952 3.476-.952 5.444c0 2.008.288 3.852.86 5.532.576 1.684 1.424 3.128 2.552 4.336s2.524 2.152 4.18 2.828c1.66.676 3.556 1.016 5.692 1.016 1.228 0 2.396-.092 3.504-.28 1.104-.184 2.128-.48 3.072-.888v-7.932h-8.3v-8.488h17.956v23.06c-2.136 1.108-4.624 2.008-7.472 2.704" mask="url(#b)"/><path d="m206.1816 38.2804c0-.984-.164-1.948-.492-2.892-.328-.94-.8-1.772-1.412-2.488-.616-.716-1.376-1.3-2.276-1.752-.904-.452-1.948-.676-3.136-.676s-2.236.224-3.136.676-1.652 1.036-2.244 1.752c-.596.716-1.048 1.548-1.352 2.488-.308.944-.464 1.908-.464 2.892s.156 1.948.464 2.888c.304.944.768 1.796 1.38 2.552.616.76 1.376 1.364 2.276 1.816s1.948.676 3.14.676c1.184 0 2.232-.224 3.132-.676s1.66-1.056 2.276-1.816c.616-.756 1.076-1.608 1.384-2.552.308-.94.46-1.904.46-2.888m9.716 0c0 2.5-.452 4.764-1.352 6.796-.904 2.028-2.132 3.748-3.692 5.164-1.556 1.412-3.36 2.512-5.408 3.288-2.052.78-4.244 1.168-6.58 1.168-2.296 0-4.48-.388-6.548-1.168-2.072-.776-3.876-1.876-5.412-3.288-1.536-1.416-2.756-3.136-3.656-5.164-.904-2.032-1.356-4.296-1.356-6.796s.452-4.756 1.356-6.764c.9-2.008 2.12-3.708 3.656-5.104 1.536-1.392 3.34-2.46 5.412-3.196 2.068-.74 4.252-1.108 6.548-1.108 2.336 0 4.528.368 6.58 1.108 2.048.736 3.852 1.804 5.408 3.196 1.56 1.396 2.788 3.096 3.692 5.104.9 2.008 1.352 4.264 1.352 6.764" mask="url(#b)"/><path d="m220.2576 50.962h.736c.752 0 .996-.216.996-.66 0-.384-.188-.6-.896-.6h-.836zm0 2.256h-.62v-4.024h1.54c.964 0 1.432.356 1.432 1.148 0 .724-.452 1.036-1.052 1.108l1.148 1.768h-.68l-1.072-1.748h-.696zm.744-4.936c-1.62 0-2.872 1.248-2.872 2.916 0 1.7 1.252 2.932 2.872 2.932 1.6 0 2.848-1.232 2.848-2.932 0-1.668-1.248-2.916-2.848-2.916zm0-.568c1.9 0 3.528 1.48 3.528 3.484 0 2.02-1.628 3.5-3.528 3.5-1.92 0-3.548-1.48-3.548-3.5 0-2.004 1.628-3.484 3.548-3.484z" mask="url(#b)"/></g></g></svg>