<svg height="59" viewBox="0 0 198 59" width="198" xmlns="http://www.w3.org/2000/svg"><g fill="#282138" fill-rule="evenodd"><path d="m29.12656 2.41466531c-14.9576 0-27.1264 12.21019049-27.1264 27.21866669s12.1688 27.2186666 27.1264 27.2186666 27.1264-12.2101904 27.1264-27.2186666-12.1688-27.21866669-27.1264-27.21866669m0 56.44413609c-16.0604 0-29.1264-13.1104422-29.1264-29.2254694 0-16.1146259 13.066-29.22546941 29.1264-29.22546941s29.1264 13.11084351 29.1264 29.22546941c0 16.1150272-13.066 29.2254694-29.1264 29.2254694"/><path d="m17.1578 5.20849592v28.49419048l11.5908-7.2108435v-24.07480957c-4.0648.0549864-7.9596.99296599-11.5908 2.79146259zm-2 32.09961228v-33.32456466l.538-.28095238c4.184-2.18621089 8.7024-3.29476871 13.4308-3.29476871.142 0 .2828.00441497.4236.00923129l1.1984.02809524v27.16408162z"/><path d="m17.69472 54.3216612c3.5616 1.6596259 7.4792 2.5305783 11.432 2.5305783 14.722 0 26.7424-11.828898 27.1176-26.5122722zm11.432 4.537381c-4.874 0-9.6988-1.2337823-13.9532-3.5676939l-1.5056-.826 44.492-27.6782245.0652 1.7234422c.014.3732653.028.7465306.028 1.1230068 0 16.1150272-13.0664 29.2254694-29.1264 29.2254694z"/><path d="m5.62968 43.2352803c4.848 8.4229524 13.7664 13.6169592 23.4968 13.6169592 14.9576 0 27.1268-12.2101905 27.1268-27.2186667 0-5.4043197-1.5668-10.5931089-4.5404-15.0666735l-7.374 4.587551v18.5918232l-15.5904 9.6988775v-18.5918231zm23.4968 15.6237619c-10.7836 0-20.6372-5.9397347-25.716-15.5009456l-.4404-.8292109 27.7784-17.2809796v18.5918232l11.5904-7.2104422v-18.5918232l9.9232-6.1733265.5448.762585c3.5632 4.9865035 5.4464 10.8668368 5.4464 17.0068504 0 16.1150272-13.0664 29.2254694-29.1268 29.2254694z"/><path d="m30.74844 2.47189932v41.36782998l11.5908-7.2104422v-30.76548982c-3.5436-1.98593197-7.5204-3.14867347-11.5908-3.39189796zm-2 44.97325168v-47.04387073l1.0216.02247619c4.956.10836735 9.8232 1.48904762 14.0752 3.99313606l.494.29058503v33.03879595z"/><path d="m86.791 21.5055401v17.8212109h3.1416c2.3016 0 4.0928-.718034 5.3736-2.1549047 1.28-1.4368708 1.9204-3.4834082 1.9204-6.1388096v-1.3277006c0-2.5819524-.604-4.5891565-1.8116-6.0208096-1.208-1.431653-2.9216-2.1581156-5.1404-2.1789864zm-2.986 20.271517v-22.7214217h6.392c1.9696 0 3.7116.4366802 5.2256 1.3108435 1.5136.8737619 2.6828 2.1171769 3.5072 3.7298435.824 1.6126667 1.2416 3.4641429 1.252 5.5552313v1.4513198c0 2.1432653-.4124 4.0212313-1.2364 5.6334966-.8244 1.6126666-2.0012 2.8508639-3.5304 3.7141904-1.5296.8637279-3.3104 1.3056259-5.3424 1.3264966z"/><path d="m108.45604 26.9362694c1.2752-1.5709252 2.934-2.3563878 4.9764-2.3563878 3.5564 0 5.35 2.0132245 5.3816 6.0392721v11.1578232h-2.8776v-11.1734762c-.01-1.2173266-.2876-2.1167755-.832-2.699551-.544-.5827756-1.3916-.8741633-2.5424-.8741633-.9332 0-1.7524.2496463-2.4576.7493401-.7052.4992925-1.2548 1.1547143-1.6484 1.9662653v12.0315851h-2.8772v-23.9700545h2.8772z"/><path d="m130.0744 39.5765578c.902 0 1.7576-.2339932 2.566-.7023809.8092-.4679864 1.3944-1.076449 1.7576-1.8257891v-3.4641429h-2.2552c-3.5252 0-5.288 1.0351088-5.288 3.1053265 0 .9054694.3008 1.6126667.9024 2.1223946.6012.5097279 1.3736.7645918 2.3172.7645918zm4.7748 2.2002585c-.1664-.3327279-.3008-.9255374-.4044-1.7788299-1.3376 1.3943265-2.9344 2.0910884-4.7904 2.0910884-1.6588 0-3.02-.4707959-4.0824-1.4123877-1.0628-.9411905-1.594-2.1352381-1.594-3.5813402 0-1.7579591.666-3.1233877 1.9984-4.0962857 1.332-.9728979 3.2064-1.4589456 5.6224-1.4589456h2.7992v-1.3268979c0-1.0086191-.3008-1.8125442-.902-2.4109728-.6016-.5980272-1.488-.8970408-2.6596-.8970408-1.0264 0-1.8872.2600816-2.5816.7802449-.6948.5201632-1.042 1.1494966-1.042 1.888h-2.8928c0-.8424558.2976-1.656415.8944-2.4422789.596-.7850613 1.4044-1.4067687 2.426-1.8647211 1.0212-.457551 2.1436-.6867279 3.3672-.6867279 1.9388 0 3.458.486449 4.5568 1.4593469 1.0992.972898 1.6692 2.3122381 1.7108 4.0184218v7.7715442c0 1.5500544.1968 2.783034.5908 3.6981361v.2496462z"/><path d="m151.25684 27.4824408c-.4356-.0726462-.9076-.1091701-1.4152-.1091701-1.8872 0-3.1676.8063334-3.8416 2.4185987v11.9850272h-2.8772v-16.8848367h2.7996l.0464 1.9506122c.9436-1.5083129 2.2808-2.2628707 4.0128-2.2628707.5596 0 .9848.0730476 1.2752.2187415z"/><path d="m157.94472 24.8920197.0776 1.8727483c1.2336-1.4565374 2.8976-2.1850068 4.9924-2.1850068 2.3536 0 3.9552.9054694 4.8056 2.7156055.56-.8115511 1.2884-1.4669728 2.1852-1.9666667.8968-.4992925 1.9572-.7489388 3.1808-.7489388 3.6908 0 5.5672 1.9610476 5.63 5.8831429v11.3139524h-2.8776v-11.1421701c0-1.2064898-.2748-2.1091497-.824-2.7075782-.5496-.5980272-1.4728-.8970409-2.7684-.8970409-1.068 0-1.9548.3198844-2.6596.9596531-.7052.6397687-1.1148 1.5006871-1.2288 2.5827551v11.204381h-2.8924v-11.0643062c0-2.4551224-1.1976-3.682483-3.5928-3.682483-1.8872 0-3.178.805932-3.8724 2.4185987v12.3281905h-2.8776v-16.8848368z"/><path d="m190.1076 39.5765578c.902 0 1.7576-.2339932 2.566-.7023809.8092-.4679864 1.3944-1.076449 1.7576-1.8257891v-3.4641429h-2.2552c-3.5252 0-5.288 1.0351088-5.288 3.1053265 0 .9054694.3008 1.6126667.9024 2.1223946.6012.5097279 1.3736.7645918 2.3172.7645918zm4.7748 2.2002585c-.1664-.3327279-.3008-.9255374-.4044-1.7788299-1.3376 1.3943265-2.9344 2.0910884-4.7904 2.0910884-1.6588 0-3.02-.4707959-4.0824-1.4123877-1.0628-.9411905-1.594-2.1352381-1.594-3.5813402 0-1.7579591.666-3.1233877 1.9984-4.0962857 1.332-.9728979 3.2064-1.4589456 5.6224-1.4589456h2.7992v-1.3268979c0-1.0086191-.3008-1.8125442-.902-2.4109728-.6016-.5980272-1.488-.8970408-2.6596-.8970408-1.0264 0-1.8872.2600816-2.5816.7802449-.6948.5201632-1.042 1.1494966-1.042 1.888h-2.8928c0-.8424558.2976-1.656415.8944-2.4422789.596-.7850613 1.4044-1.4067687 2.426-1.8647211 1.0212-.457551 2.1436-.6867279 3.3672-.6867279 1.9388 0 3.458.486449 4.5568 1.4593469 1.0992.972898 1.6692 2.3122381 1.7108 4.0184218v7.7715442c0 1.5500544.1968 2.783034.5908 3.6981361v.2496462z"/></g></svg>