<svg height="60" viewBox="0 0 199 60" width="199" xmlns="http://www.w3.org/2000/svg" xmlns:xlink="http://www.w3.org/1999/xlink"><mask id="a" fill="#fff"><path d="m0 .4h58.9233607v59.0594595h-58.9233607z" fill="#fff" fill-rule="evenodd"/></mask><g fill="none" fill-rule="evenodd"><path d="m100.546341 45.0215135h-5.1340922l-6.557832-17.6486486-6.5470461 17.6702702h-5.1340921l-9.6533875-29.6054054h6.6926558l5.7812466 17.7681081 6.7411924-17.7897297h4.1256098l6.8328726 17.7681081 5.6949597-17.7843243h6.730406z" fill="#fff"/><g transform="translate(0 .140541)"><path d="m128.346911 39.3837297c2.955338 0 4.702655-1.4864865 4.702655-3.9027027 0-2.4156756-1.758103-3.9729729-4.713441-3.9729729h-7.550136v7.8756756zm-7.550136-12.6594594h6.805908c1.984607 0 3.305881-1.2108108 3.300488-3.1243244 0-1.7945945-1.326667-2.9243243-3.311274-2.9189189l-6.805908-.0000193zm18.62187 9.2864865c0 5.3027027-3.953035 8.8162162-10.3329 8.827027h-14.663441l-.043144-29.6324324h13.886856c5.560136 0 9.027805 3.027027 9.033198 7.7459459.086827 2.1118919-.83429 4.1389189-2.480759 5.4594595 2.905724 1.3897297 4.712363 4.3751351 4.60019 7.6z" fill="#fff"/><path d="m157.776422 20.7838919.032358 24.0162162h-6.417616l-.032357-24.0162162h-8.866016v-5.5945946l24.144254-.0324324v5.6162162z" fill="#fff"/><g fill="#d4d3d7"><path d="m48.0458805 12.7945405-1.6178862 1.6216217c8.0015258 8.7708108 8.0015258 22.2129729 0 30.9837837l1.6178862 1.6216217c8.9053848-9.6772973 8.9053848-24.5870271 0-34.2648649z"/><path d="m14.0162873 12.9352432c8.750607-8.0205405 22.1618048-8.0205405 30.9124119 0l1.6178862-1.6216216c-9.6555447-8.92594592-24.5303903-8.92594592-34.185935 0z"/><path d="m12.506368 45.4162162c-7.99181841-8.7686486-7.99181841-22.1989189 0-30.9675676l-1.6178862-1.6216216c-8.90538478 9.6778379-8.90538478 24.5870271 0 34.2648649z"/><path d="m44.9125203 46.9132973c-8.750607 8.0205405-22.1618049 8.0205405-30.9124119 0l-1.6178862 1.6216216c9.6555447 8.925946 24.5303903 8.925946 34.185935 0z"/></g><path d="m34.3639024 25.8c0 3.2432432-5.0585907 2.8486486-6.665691 2.8486486v-5.7135135c1.6071003 0 6.665691-.5081081 6.665691 2.8648649m1.3212738 8.8702703c0 3.5459459-6.0616803 3.1405405-7.9923578 3.1405405v-6.2918919c1.9306775.0054054 7.9923578-.5513513 7.9923578 3.1513514m3.9907859-10.1513514c-.3235773-3.3837838-3.2357724-4.5189189-6.9191599-4.8648648v-4.6648649h-2.8474797v4.572973c-.7496206 0-1.5154201 0-2.2758266.027027v-4.6h-2.8313008v4.6918919h-1.8120325-3.9584282v3.054054s2.103252-.0378378 2.0708943 0c.7884499-.087027 1.5035556.4675676 1.6178862 1.2540541v12.8486486c-.0345149.5572973-.5128699.9805406-1.0688835.9464865-.0032357 0-.0064715 0-.0097073-.0005405.0377507.0324324-2.0708943 0-2.0708943 0l-.5662602 3.4108108h3.7103524 2.0385365v4.7675676h2.8474797v-4.6972973h2.2758266v4.6756756h2.8528726v-4.7135135c4.8105149-.2918919 8.1649322-1.4810811 8.5855827-5.9945946.3397561-3.6324324-1.3644174-5.254054-4.0878591-5.9081081 1.6556368-.8432432 2.6964769-2.3297297 2.4484011-4.8054054" fill="#fff"/><path d="m29.4562604 2.7027027c-14.9934905.00918919-27.14111921 12.1989189-27.13195119 27.227027.00916803 15.0281081 12.17081839 27.2037838 27.16430899 27.1945946 14.9832439-.0086486 27.1260189-12.1827027 27.1319512-27.2-.0177968-15.0259459-12.1729756-27.19945944-27.164309-27.20540538zm0 56.7567568c-16.2710813-.0027027-29.4595501-13.225946-29.45631433-29.5351352s13.19601893-29.52756754 29.46710023-29.5243243c16.2673063.00324324 29.4536179 13.2194595 29.4563144 29.5243243-.0177967 16.3043243-13.2003333 29.5172973-29.4671003 29.5351352z" fill="#fff" mask="url(#a)"/><path d="m192.145448 35.5835676c-1.504095 2.5189189-4.244794 4.0308108-7.172629 3.9567567-5.096341 0-8.990054-4.1189189-9.00084-9.5405405-.010786-5.4210811 3.877534-9.5567568 8.973875-9.5675676 2.919745-.0745946 5.65667 1.4227027 7.172629 3.9243243l6.471545-1.3459459c-2.38854-5.2162162-7.550136-8.4702703-13.633388-8.4643243-8.416783-.0783784-15.303046 6.6967567-15.381244 15.1329729-.001078.1086487-.001078.2172973.00054.325946-.074963 8.4183784 6.672701 15.3037838 15.071688 15.3794594.108398.0005406.216797.0005406.325195-.0005405 6.029322 0 11.152629-3.1897297 13.542247-8.4762162z" fill="#fff"/></g></g></svg>