<?xml version="1.0" encoding="UTF-8"?>
<svg width="220px" height="44px" viewBox="0 0 220 44" version="1.1" xmlns="http://www.w3.org/2000/svg" xmlns:xlink="http://www.w3.org/1999/xlink">
    <!-- Generator: Sketch 52.2 (67145) - http://www.bohemiancoding.com/sketch -->
    <title>Republic Protocol Logo</title>
    <desc>Created with Sketch.</desc>
    <g id="Designs" stroke="none" stroke-width="1" fill="none" fill-rule="evenodd">
        <g id="Home" transform="translate(-610.000000, -4064.000000)" fill="#282138">
            <g id="JOIN-THE-WBTC-COMMUNITY" transform="translate(0.000000, 3815.000000)">
                <g id="SECTION---JOIN-THE-WBTC-COMMUNITY" transform="translate(130.000000, 85.000000)">
                    <g id="Logo-Compound-(grey)" transform="translate(480.000000, 136.000000)">
                        <g id="Republic-Protocol-Logo" transform="translate(0.000000, 28.000000)">
                            <g id="Group">
                                <polygon id="Path" points="6.01764706 9.22058824 9.22058824 7.37647059 9.67352941 8.12058824 21.5470588 1.26176471 20.6735294 0.744117647 19.8 0.258823529 19.3794118 0 0 11.1941176 0 11.6794118 5.56470588 8.47647059"></polygon>
                                <polygon id="Path" points="6.01764706 16.2735294 15.3352941 10.9029412 15.7558824 11.6470588 27.6617647 4.78823529 26.7882353 4.27058824 25.9147059 3.78529412 25.4941176 3.52647059 0 18.2147059 0 18.7323529 5.56470588 15.5294118"></polygon>
                                <polygon id="Path" points="6.01764706 19.8 18.3764706 12.65 18.7970588 13.3941176 30.7029412 6.53529412 29.8294118 6.05 28.9558824 5.53235294 28.5352941 5.27352941 0 21.7411765 0 22.2588235 5.56470588 19.0235294"></polygon>
                                <polygon id="Path" points="6.01764706 23.2941176 21.5147059 14.3647059 21.9352941 15.1088235 33.7441176 8.28235294 32.8705882 7.79705882 31.9970588 7.27941176 31.5764706 7.05294118 0 25.2676471 0 25.7529412 5.56470588 22.55"></polygon>
                                <polygon id="Path" points="6.01764706 26.8205882 24.5558824 16.1117647 24.9764706 16.8882353 36.7852941 10.0617647 35.9117647 9.54411765 35.0705882 9.05882353 34.6176471 8.8 0 28.7941176 0 29.2794118 5.56470588 26.0764706"></polygon>
                                <polygon id="Path" points="38.1117647 10.8058824 37.6588235 10.5470588 0 32.3205882 0 32.8058824 5.56470588 29.6029412 6.01764706 30.3470588 24.5558824 19.6382353 24.9764706 20.3823529 38.7588235 12.4558824 38.7588235 11.4529412 38.7588235 11.1941176"></polygon>
                                <polygon id="Path" points="2.39411765 34.9411765 5.5 33.1617647 5.95294118 33.9058824 24.4588235 23.1970588 24.9117647 23.9735294 38.7588235 15.95 38.7588235 14.9470588 38.7588235 13.9441176 38.7588235 13.4588235 1.97352941 34.6823529"></polygon>
                                <polyline id="Path" points="24.4588235 26.7235294 24.9117647 27.5 38.7588235 19.4764706 38.7588235 18.4735294 38.7588235 17.4705882 38.7588235 16.9852941 5.01470588 36.4617647 5.43529412 36.7205882 8.60588235 34.8764706 9.05882353 35.6205882"></polyline>
                                <polygon id="Path" points="8.47647059 38.4676471 11.6794118 36.6235294 12.1 37.4 24.4588235 30.25 24.9117647 30.9941176 38.7588235 23.0029412 38.7588235 22 38.7588235 20.9970588 38.7588235 20.4794118 8.05588235 38.2088235"></polygon>
                                <polygon id="Path" points="11.55 40.2147059 14.7205882 38.4029412 15.1411765 39.1470588 24.4588235 33.7764706 24.9117647 34.5205882 38.7588235 26.5294118 38.7588235 25.5264706 38.7588235 24.5235294 38.7588235 24.0058824 11.0970588 39.9882353"></polygon>
                                <polygon id="Path" points="14.1382353 41.7352941 14.5911765 41.9941176 17.7617647 40.15 18.1823529 40.9264706 24.4588235 37.3029412 24.9117647 38.0470588 38.7588235 30.0558824 38.7588235 29.0529412 38.7588235 28.0176471 38.7588235 27.5323529"></polygon>
                                <polygon id="Path" points="17.6323529 43.7411765 20.8029412 41.9294118 21.2558824 42.6735294 24.4588235 40.7970588 24.9117647 41.5735294 38.7588235 33.5823529 38.7588235 32.5470588 38.7588235 31.5441176 38.7588235 31.0588235 17.2117647 43.5147059"></polygon>
                                <polygon id="Path" points="24.6205882 3.00882353 23.7470588 2.52352941 23.7470588 2.52352941 22.8735294 2.00588235 22.4205882 1.74705882 0 14.7205882 0 15.2058824 5.56470588 12.0029412 6.01764706 12.7470588 12.2941176 9.12352941 12.7147059 9.86764706"></polygon>
                            </g>
                            <g id="Group" transform="translate(54.352941, 18.441176)">
                                <path d="M0,6.85882353 L0,0 L6.17941176,0 C6.72941176,0 7.15,0.0970588235 7.40882353,0.323529412 C7.66764706,0.517647059 7.79705882,0.873529412 7.79705882,1.32647059 L7.79705882,2.94411765 C7.79705882,3.39705882 7.66764706,3.75294118 7.40882353,3.94705882 C7.15,4.14117647 6.76176471,4.27058824 6.17941176,4.27058824 L5.24117647,4.27058824 L8.50882353,6.85882353 L6.11470588,6.85882353 L3.23529412,4.27058824 L1.65,4.27058824 L1.65,6.85882353 L0,6.85882353 Z M5.46764706,1.19705882 L1.65,1.19705882 L1.65,3.10588235 L5.46764706,3.10588235 C5.75882353,3.10588235 5.95294118,3.07352941 6.05,2.97647059 C6.14705882,2.87941176 6.21176471,2.75 6.21176471,2.55588235 L6.21176471,1.77941176 C6.21176471,1.58529412 6.14705882,1.42352941 6.05,1.35882353 C5.95294118,1.22941176 5.75882353,1.19705882 5.46764706,1.19705882 Z" id="Shape" fill-rule="nonzero"></path>
                                <polygon id="Path" points="10.5470588 6.85882353 10.5470588 0 17.8911765 0 17.8911765 1.19705882 12.2294118 1.19705882 12.2294118 2.68529412 15.5294118 2.68529412 15.5294118 3.88235294 12.2294118 3.88235294 12.2294118 5.56470588 17.9882353 5.56470588 17.9882353 6.85882353"></polygon>
                                <path d="M20.3823529,6.85882353 L20.3823529,0 L26.5294118,0 C27.1117647,0 27.5,0.0970588235 27.7588235,0.323529412 C28.0176471,0.517647059 28.1470588,0.873529412 28.1470588,1.32647059 L28.1470588,2.84705882 C28.1470588,3.33235294 28.0176471,3.65588235 27.7588235,3.85 C27.5,4.04411765 27.1117647,4.17352941 26.5294118,4.17352941 L22,4.17352941 L22,6.85882353 L20.3823529,6.85882353 Z M25.8176471,1.19705882 L22,1.19705882 L22,3.00882353 L25.8176471,3.00882353 C26.1088235,3.00882353 26.3029412,2.97647059 26.4,2.87941176 C26.4970588,2.78235294 26.5617647,2.65294118 26.5617647,2.45882353 L26.5617647,1.74705882 C26.5617647,1.55294118 26.4970588,1.39117647 26.4,1.32647059 C26.3029412,1.22941176 26.1088235,1.19705882 25.8176471,1.19705882 Z" id="Shape" fill-rule="nonzero"></path>
                                <path d="M32.4823529,0 L32.4823529,5.56470588 L37.2382353,5.56470588 L37.2382353,0 L38.9205882,0 L38.9205882,5.20882353 C38.9205882,5.82352941 38.7911765,6.24411765 38.5323529,6.47058824 C38.2735294,6.69705882 37.8205882,6.82647059 37.1088235,6.82647059 L32.5794118,6.82647059 C31.9,6.82647059 31.4147059,6.72941176 31.1558824,6.47058824 C30.8970588,6.24411765 30.8,5.82352941 30.8,5.17647059 L30.8,0 L32.4823529,0 Z" id="Path"></path>
                                <path d="M41.9941176,6.85882353 L41.9941176,0 L48.1411765,0 C48.7235294,0 49.1441176,0.0970588235 49.3705882,0.323529412 C49.6294118,0.517647059 49.7588235,0.873529412 49.7588235,1.32647059 L49.7588235,2.13529412 C49.7588235,2.45882353 49.6617647,2.71764706 49.4676471,2.91176471 C49.2735294,3.10588235 48.9823529,3.23529412 48.5941176,3.3 C48.9823529,3.36470588 49.2735294,3.49411765 49.5,3.75294118 C49.7264706,3.97941176 49.8235294,4.27058824 49.8235294,4.62647059 L49.8235294,5.5 C49.8235294,5.95294118 49.6617647,6.27647059 49.3058824,6.50294118 C48.95,6.72941176 48.4323529,6.82647059 47.7205882,6.82647059 L41.9941176,6.82647059 L41.9941176,6.85882353 Z M47.3647059,1.13235294 L43.6117647,1.13235294 L43.6117647,2.75 L47.3647059,2.75 C47.6558824,2.75 47.85,2.71764706 47.9470588,2.65294118 C48.0441176,2.58823529 48.1088235,2.45882353 48.1088235,2.26470588 L48.1088235,1.61764706 C48.1088235,1.42352941 48.0441176,1.32647059 47.9470588,1.22941176 C47.85,1.13235294 47.6558824,1.13235294 47.3647059,1.13235294 Z M47.3647059,3.88235294 L43.6117647,3.88235294 L43.6117647,5.62941176 L47.3647059,5.62941176 C47.6882353,5.62941176 47.8823529,5.59705882 48.0117647,5.5 C48.1411765,5.40294118 48.1735294,5.24117647 48.1735294,5.01470588 L48.1735294,4.49705882 C48.1735294,4.27058824 48.1088235,4.10882353 48.0117647,4.01176471 C47.9147059,3.91470588 47.6882353,3.88235294 47.3647059,3.88235294 Z" id="Shape" fill-rule="nonzero"></path>
                                <polygon id="Path" points="52.6382353 6.85882353 52.6382353 0 54.3205882 0 54.3205882 5.56470588 59.6911765 5.56470588 59.6911765 6.85882353"></polygon>
                                <polygon id="Path" points="61.5676471 6.85882353 61.5676471 0 63.2176471 0 63.2176471 6.85882353"></polygon>
                                <path d="M72.2764706,1.26176471 L67.7794118,1.26176471 L67.7794118,5.53235294 L72.2764706,5.53235294 L72.2764706,4.07647059 L73.9588235,4.43235294 L73.9588235,5.24117647 C73.9588235,5.85588235 73.8294118,6.27647059 73.6029412,6.50294118 C73.3441176,6.72941176 72.8911765,6.85882353 72.1794118,6.85882353 L67.9088235,6.85882353 C67.2294118,6.85882353 66.7441176,6.76176471 66.5176471,6.50294118 C66.2588235,6.27647059 66.1617647,5.85588235 66.1617647,5.20882353 L66.1617647,1.61764706 C66.1617647,1.00294118 66.2911765,0.582352941 66.5176471,0.355882353 C66.7764706,0.129411765 67.2294118,0 67.9411765,0 L72.1470588,0 C72.8588235,0 73.3441176,0.0970588235 73.5705882,0.355882353 C73.8294118,0.582352941 73.9264706,1.00294118 73.9264706,1.61764706 L73.9264706,2.29705882 L72.2441176,2.55588235 L72.2441176,1.26176471 L72.2764706,1.26176471 Z" id="Path"></path>
                                <path d="M82.9529412,6.85882353 L82.9529412,0 L89.1323529,0 C89.7147059,0 90.1029412,0.0970588235 90.3617647,0.323529412 C90.6205882,0.517647059 90.75,0.873529412 90.75,1.32647059 L90.75,2.84705882 C90.75,3.33235294 90.6205882,3.65588235 90.3617647,3.85 C90.1029412,4.04411765 89.7147059,4.17352941 89.1323529,4.17352941 L84.6029412,4.17352941 L84.6029412,6.85882353 L82.9529412,6.85882353 Z M88.4205882,1.19705882 L84.6029412,1.19705882 L84.6029412,3.00882353 L88.4205882,3.00882353 C88.7117647,3.00882353 88.9058824,2.97647059 89.0029412,2.87941176 C89.1,2.78235294 89.1647059,2.65294118 89.1647059,2.45882353 L89.1647059,1.74705882 C89.1647059,1.55294118 89.1,1.39117647 89.0029412,1.32647059 C88.9058824,1.22941176 88.7117647,1.19705882 88.4205882,1.19705882 Z" id="Shape" fill-rule="nonzero"></path>
                                <path d="M93.1117647,6.85882353 L93.1117647,0 L99.2911765,0 C99.8411765,0 100.261765,0.0970588235 100.520588,0.323529412 C100.779412,0.517647059 100.908824,0.873529412 100.908824,1.32647059 L100.908824,2.94411765 C100.908824,3.39705882 100.779412,3.75294118 100.520588,3.94705882 C100.261765,4.14117647 99.8735294,4.27058824 99.2911765,4.27058824 L98.3529412,4.27058824 L101.620588,6.85882353 L99.2264706,6.85882353 L96.3470588,4.27058824 L94.7617647,4.27058824 L94.7617647,6.85882353 L93.1117647,6.85882353 Z M98.5794118,1.19705882 L94.7617647,1.19705882 L94.7617647,3.10588235 L98.5794118,3.10588235 C98.8705882,3.10588235 99.0647059,3.07352941 99.1617647,2.97647059 C99.2588235,2.87941176 99.3235294,2.75 99.3235294,2.55588235 L99.3235294,1.77941176 C99.3235294,1.58529412 99.2588235,1.42352941 99.1617647,1.35882353 C99.0647059,1.22941176 98.8705882,1.19705882 98.5794118,1.19705882 Z" id="Shape" fill-rule="nonzero"></path>
                                <path d="M103.497059,1.61764706 C103.497059,1.00294118 103.626471,0.582352941 103.852941,0.355882353 C104.079412,0.129411765 104.564706,0 105.276471,0 L110.582353,0 C111.294118,0 111.747059,0.0970588235 112.005882,0.355882353 C112.232353,0.582352941 112.361765,1.00294118 112.361765,1.61764706 L112.361765,5.24117647 C112.361765,5.85588235 112.232353,6.30882353 112.005882,6.53529412 C111.747059,6.76176471 111.294118,6.89117647 110.582353,6.89117647 L105.276471,6.89117647 C104.564706,6.89117647 104.111765,6.79411765 103.852941,6.53529412 C103.626471,6.30882353 103.497059,5.88823529 103.497059,5.24117647 L103.497059,1.61764706 Z M105.147059,5.53235294 L110.679412,5.53235294 L110.679412,1.26176471 L105.147059,1.26176471 L105.147059,5.53235294 Z" id="Shape" fill-rule="nonzero"></path>
                                <polygon id="Path" points="119.285294 1.22941176 119.285294 6.85882353 117.602941 6.85882353 117.602941 1.22941176 114.302941 1.22941176 114.302941 0 122.617647 0 122.617647 1.22941176"></polygon>
                                <path d="M124.591176,1.61764706 C124.591176,1.00294118 124.720588,0.582352941 124.947059,0.355882353 C125.173529,0.129411765 125.658824,0 126.370588,0 L131.676471,0 C132.388235,0 132.841176,0.0970588235 133.1,0.355882353 C133.326471,0.582352941 133.455882,1.00294118 133.455882,1.61764706 L133.455882,5.24117647 C133.455882,5.85588235 133.326471,6.30882353 133.1,6.53529412 C132.841176,6.76176471 132.388235,6.89117647 131.676471,6.89117647 L126.370588,6.89117647 C125.658824,6.89117647 125.205882,6.79411765 124.947059,6.53529412 C124.720588,6.30882353 124.591176,5.88823529 124.591176,5.24117647 L124.591176,1.61764706 Z M126.273529,5.53235294 L131.805882,5.53235294 L131.805882,1.26176471 L126.273529,1.26176471 L126.273529,5.53235294 Z" id="Shape" fill-rule="nonzero"></path>
                                <path d="M142.320588,1.26176471 L137.823529,1.26176471 L137.823529,5.53235294 L142.320588,5.53235294 L142.320588,4.07647059 L144.002941,4.43235294 L144.002941,5.24117647 C144.002941,5.85588235 143.873529,6.27647059 143.647059,6.50294118 C143.388235,6.72941176 142.935294,6.85882353 142.223529,6.85882353 L137.952941,6.85882353 C137.273529,6.85882353 136.788235,6.76176471 136.561765,6.50294118 C136.302941,6.27647059 136.205882,5.85588235 136.205882,5.20882353 L136.205882,1.61764706 C136.205882,1.00294118 136.335294,0.582352941 136.561765,0.355882353 C136.820588,0.129411765 137.273529,0 137.985294,0 L142.255882,0 C142.967647,0 143.452941,0.0970588235 143.679412,0.355882353 C143.938235,0.582352941 144.035294,1.00294118 144.035294,1.61764706 L144.035294,2.29705882 L142.352941,2.55588235 L142.352941,1.26176471 L142.320588,1.26176471 Z" id="Path"></path>
                                <path d="M146.591176,1.61764706 C146.591176,1.00294118 146.720588,0.582352941 146.947059,0.355882353 C147.173529,0.129411765 147.658824,0 148.370588,0 L153.676471,0 C154.388235,0 154.841176,0.0970588235 155.1,0.355882353 C155.326471,0.582352941 155.455882,1.00294118 155.455882,1.61764706 L155.455882,5.24117647 C155.455882,5.85588235 155.326471,6.30882353 155.1,6.53529412 C154.841176,6.76176471 154.388235,6.89117647 153.676471,6.89117647 L148.370588,6.89117647 C147.658824,6.89117647 147.205882,6.79411765 146.947059,6.53529412 C146.720588,6.30882353 146.591176,5.88823529 146.591176,5.24117647 L146.591176,1.61764706 Z M148.273529,5.53235294 L153.805882,5.53235294 L153.805882,1.26176471 L148.273529,1.26176471 L148.273529,5.53235294 Z" id="Shape" fill-rule="nonzero"></path>
                                <polygon id="Path" points="158.335294 6.85882353 158.335294 0 160.017647 0 160.017647 5.56470588 165.388235 5.56470588 165.388235 6.85882353"></polygon>
                            </g>
                        </g>
                    </g>
                </g>
            </g>
        </g>
    </g>
</svg>
