<svg height="88" viewBox="0 0 166 88" width="166" xmlns="http://www.w3.org/2000/svg"><g fill="none" fill-rule="evenodd" transform="translate(-1 -1)"><g fill="#141927" transform="translate(74.367188 22.173913)"><path d="m15.3561719 20.1521739c-.4669465.2561701-.9941271.3823002-1.5264844.3652174-.20875 0-.6653906 0-1.4221094-.1043478v2.1391304c.6516078.1686878 1.3231958.2476776 1.9961719.2347826.9343705.0343773 1.8532395-.2458047 2.609375-.7956522.8111139-.6696672 1.4432263-1.5301919 1.8396094-2.5043478l5.8580468-13.19999998h-2.7659375l-3.54875 8.64782608-3.444375-8.64782608h-2.8050781l4.8142969 11.36086958-.4957813 1.1086956c-.2189681.5672118-.6058598 1.0541134-1.1089843 1.3956522z"/><path d="m29.0423437 16.5652174c.4571674.6122128 1.063538 1.097183 1.7613282 1.4086956.7612452.347132 1.590113.5208816 2.4267187.5086957 1.5842195.0622495 3.1140929-.5829979 4.175-1.7608696 1.1333154-1.1911226 1.7560342-2.7779399 1.7352344-4.4217391.0532518-1.6674894-.5784789-3.28411045-1.7482813-4.47391304-1.0989849-1.16403814-2.6395284-1.8085285-4.2402343-1.77391305h.0913281c-1.5494585-.06277293-3.041444.59160514-4.0445313 1.77391305v-7.69565218h-2.609375v18.13043482h2.400625v-1.6956522zm1.0959376-7.10869566c.6963216-.67949902 1.6365395-1.05078838 2.6093749-1.03043478.9824793-.01730925 1.9278494.3749172 2.609375 1.08260869.7133779.73994425 1.0948965 1.73822675 1.0567969 2.76521735.046378 1.0438486-.3353096 2.0614173-1.0567969 2.8173913-.6668968.73316-1.6183467 1.1421769-2.609375 1.1217392-.9628628.0335337-1.9002312-.3132023-2.6093749-.9652174-.7643293-.7622805-1.1595265-1.8190387-1.0828907-2.8956522-.0731563-1.0761085.3215188-2.1314707 1.0828907-2.89565216z" fill-rule="nonzero"/><path d="m6.158125 34.5391304c-1.35121093-.0488291-2.65978768.4773093-3.6009375 1.4478261v-1.173913h-2.41367187v11.9086956h2.60937499v-7.1086956c-.03642038-.7337591.23832498-1.4488582.75671875-1.9695652.52789396-.5169556 1.24461105-.7950826 1.983125-.7695653.71799084-.0182886 1.41177583.2600968 1.91789063.7695653.50557789.5430242.76921698 1.2678429.730625 2.0086956v7.0695652h2.609375v-7.4217391c.0603727-1.2535906-.3648516-2.4822155-1.18726563-3.4304348-.88611378-.9195893-2.13023668-1.4056717-3.40523437-1.3304348z"/><path d="m19.2180469 34.526087c-1.6457789-.0000589-3.2234016.6571041-4.3822327 1.8254309-1.1588312 1.1683267-1.802857 2.7510166-1.7889392 4.3963082-.0434711 1.6683492.6255037 3.2763166 1.8396094 4.4217391 1.2280352 1.1808031 2.8760066 1.823861 4.5794531 1.7869565 1.787933.0173312 3.511505-.6662993 4.80125-1.9043478l-1.2133594-1.7347826c-.9479.8809567-2.1894119 1.3783619-3.4835156 1.3956522-.9369967.0238191-1.8551952-.2653381-2.609375-.8217392-.7242772-.5714997-1.1932427-1.4060411-1.3046875-2.3217391h8.9632031c.1279818-.5203743.1850346-1.0556529.1696094-1.5913043.0449369-1.4703562-.5330866-2.8913553-1.5917188-3.9130435-1.0546255-1.0439484-2.4964881-1.6016385-3.9792968-1.5391304zm-3.5617969 5.0869565c.1769964-.837765.6378496-1.5887601 1.3046875-2.126087.6175095-.5194902 1.397878-.8057047 2.2049219-.8086956.8029309-.0185233 1.5825153.2708278 2.1788281.8086956.5647002.5599735.8677467 1.3315941.835 2.126087z" fill-rule="nonzero"/><path d="m47.8950781 18.5086957c1.787933.0173311 3.511505-.6662993 4.80125-1.9043479l-1.2264062-1.7347826c-.9470402.8905418-2.1964388 1.389239-3.4965625 1.3956522-.9369968.0238191-1.8551952-.2653381-2.609375-.8217391-.7242772-.5714998-1.1932427-1.4060411-1.3046875-2.3217392h8.9110156c.1547092-.5163196.2338114-1.0523169.2348437-1.5913043.0449369-1.4703562-.5330865-2.89135525-1.5917187-3.9130435-1.0442277-1.02037967-2.4541373-1.5794982-3.9140625-1.55217391-1.6526812-.00351141-3.2383041.6530774-4.4044763 1.82384459-1.1661722 1.17076718-1.8162779 2.75871632-1.8058362 4.41093802-.03702 1.6645318.6255063 3.2683741 1.8265625 4.4217391 1.2248322 1.1858002 2.8749766 1.829706 4.5794531 1.7869566zm-2.609375-9.45652179c.6227606-.51766645 1.4080706-.79938079 2.2179688-.79565217.7958356-.01361173 1.5681214.27010615 2.1657812.79565217.583248.55236292.9095349 1.32295589.9002344 2.12608699h-6.5234375c.1601924-.8317287.602598-1.5827011 1.2525-2.12608699z" fill-rule="nonzero"/><path d="m33.3739062 44.6347826c-.6203045.0546036-1.2408912-.1016516-1.7613281-.4434783-.4260128-.4139122-.6377423-1.0008276-.5740625-1.5913043v-5.5826087h3.5617969v-2.2043478h-3.5617969v-3.1043478h-2.609375v3.1043478h-1.9309375v2.2043478h1.9439844v5.7913044c-.0847093 1.1532724.3451518 2.2849451 1.1742188 3.0913043.9239419.7212113 2.0782806 1.0827172 3.2486718 1.0173913.7205908-.0196181 1.4374014-.1113809 2.1396875-.273913v-2.1391305c-.7175781.0782609-1.2133594.1304348-1.5917187.1304348z"/><path d="m50.7132031 42.4565217-3.7053125-7.9173913h-.8741406l-3.6400781 8.0217392-3.1703907-7.7478261h-2.7267968l5.3361718 12.1043478h.8741407l3.7705468-7.8782609 3.7575 7.8782609h.9002344l5.323125-12.1043478h-2.7267969z"/><path d="m63.6296094 34.5391304c-1.6801864-.0363801-3.3036679.6081389-4.5011719 1.7869566-1.1784877 1.1618465-1.8419461 2.7474843-1.8419461 4.4021739s.6634584 3.2403273 1.8419461 4.4021739c2.5199928 2.4016577 6.482351 2.4016577 9.0023438 0 1.1958366-1.1551402 1.8711527-2.7462789 1.8711527-4.4086957s-.6753161-3.2535554-1.8711527-4.4086956c-1.2021075-1.1702598-2.8236649-1.8093161-4.5011719-1.7739131zm2.609375 8.9217392c-1.4800907 1.4448515-3.8430344 1.4448515-5.323125 0-.7073146-.7279211-1.0887054-1.7117473-1.0567969-2.726087-.0437648-1.0240517.3388421-2.0204598 1.0567969-2.7521739.6886766-.7020093 1.6259793-1.1049445 2.609375-1.1217391.9805399.005654 1.9188587.3996453 2.609375 1.0956521.7113549.7359367 1.092831 1.7293996 1.0567968 2.752174.0485354 1.0057293-.292587 1.9914566-.9524218 2.7521739z" fill-rule="nonzero"/><path d="m74.7455469 36.3521739v-1.5521739h-2.3875782v11.8956522h2.609375v-6.3652174c-.0435904-.9115228.3196093-1.7953972.9915626-2.4130435.6938661-.5881858 1.582884-.8953058 2.4919531-.8608696h.7697656v-2.2434782c-.3104722-.0832015-.6310331-.1227124-.9524219-.1173913-1.3751638-.0601197-2.6920803.5591575-3.5226562 1.6565217z"/><path d="m58.1499219 11.9086957c-.0454264-.9118389.3180813-1.7964628.9915625-2.41304353.6944804-.58847481 1.5819418-.89970222 2.4919531-.87391304h.7828125v-2.23043478c-.315092-.08228554-.6398337-.12177088-.9654688-.11739131-1.3689117-.05065377-2.6755904.57326909-3.4965625 1.66956522v-1.55217391h-2.400625v11.86956525h2.609375v-6.3521739z"/><path d="m81.5821094 28.5521739h2.5702343v18.1565218h-2.5702343z"/><path d="m87.2575 40.0173913 4.8403906-5.2043478h-3.1703906l-4.696875 5.1913043 5.2317969 6.6913044h3.0921093z"/><path d="m10.6592969 6.36521739h-3.18343752l-4.68382813 5.20434781 5.23179687 6.7043478h3.09210938l-5.29703125-6.6782608z"/><path d="m.14351563.1173913h2.57023437v18.1565217h-2.57023437z"/></g><g fill="#31cb9e"><path d="m27.3984375 45.0130435 32.6171875 18.6782608c.5337223.3207236 1.1990544.3284201 1.7400569.020129.5410026-.3082912.873397-.8845438.8693181-1.5070855v-34.4086956c.0078653-.6238078-.324956-1.2023184-.868255-1.5092024s-1.2107087-.2933568-1.74112.0352893z"/><path d="m59.3241406 18.0521739-22.2971093-16.39565216c-.4706407-.35967216-1.0897785-.4608078-1.6504517-.26959988-.5606733.19120791-.9889167.64953477-1.1415796 1.22177379l-8.14125 36.52173915 33.0346875-18.2608696c.5112222-.262911.8479235-.7737127.8879353-1.3470661s-.2224797-1.1259485-.6922322-1.4572817"/><path d="m37.0009375 88.3565217 22.3232031-16.3956521c.4698146-.3355592.7329175-.8899365.6957436-1.465983-.037174-.5760466-.3693503-1.0920287-.8783998-1.3644518l-33.0477344-18.2608696 8.14125 36.5217391c.137187.5764145.5551413 1.0452078 1.1121968 1.2474819s1.1785175.1109063 1.6537407-.243134"/><path d="m18.9179688 44.3478261 8.4804687-39.6652174c.1324902-.67215143-.1558697-1.35749852-.7291055-1.73287019s-1.316879-.36581068-1.8802695.02417453l-21.72304688 16.65652176c-1.11502171.8552014-1.76651727 2.1819765-1.76132812 3.5869565v42.2608696c-.02580501 1.427831.62782278 2.7831505 1.76132813 3.6521739l21.61867187 16.5913043c.5633905.3899852 1.3070337.3995462 1.8802695.0241746.5732358-.3753717.8615957-1.0607188.7291055-1.7328702z"/></g></g></svg>