<svg height="33" viewBox="0 0 200 33" width="200" xmlns="http://www.w3.org/2000/svg"><g fill="none" fill-rule="evenodd"><path d="m-10-34h220v100h-220z" fill="none"/><g fill="#5a5666"><path d="m3.92 8.38995181h8.8256c3.4708 0 6.2944 2.80499999 6.2944 6.25330119 0 2.3668554-1.3292 4.4295542-3.2868 5.4923133zm23.1 6.35508429c0-8.13072285-6.5208-14.7450361-14.5368-14.7450361h-12.4832v1.39196386l12.4832.01192771c7.252 0 13.152 5.9853253 13.152 13.34114453 0 4.3202169-2.0348 8.1673012-5.1836 10.6065181l-1.4832-1.5028915c2.78-2.0436145 4.592-5.3623013 4.592-9.1036266 0-6.19445779-4.9692-11.23431321-11.076-11.23431321l-12.4844.01113253v1.39315663h12.484c5.3436 0 9.6916 4.41046988 9.6916 9.83002405 0 3.3548675-1.664 6.322482-4.2008 8.0969278l-1.5004-1.5207832c2.1736-1.361747 3.6244-3.8001687 3.6244-6.5761446 0-4.2581927-3.4164-7.72319273-7.6144-7.72319273h-12.0804l13.6564 13.83853013c-.504.1331928-1.0316.2043614-1.5764.2043614h-12.484v1.4015061l12.484.0027831c.9428 0 1.8444-.1741446 2.6788-.4922169l1.578 1.5991085c-1.320862.6588812-2.7785377 1.0013274-4.2564.9999397l-12.4844-.0039759v1.4078675h12.484c1.8495346.0017054 3.6686806-.4675199 5.284-1.3629398l1.5208 1.5414579c-2.0429715 1.2616072-4.4004524 1.9295809-6.8056 1.9283132h-12.4832v1.3963374l12.4832.0079518c2.8728 0 5.554-.8504458 7.8104-2.3139759l4.3616 4.4188192-24.6552-.0071566v1.4114458h28l-6.5612-6.648506c3.396-2.7016265 5.5812-6.8993856 5.5812-11.6064579z"/><g fill-rule="nonzero" transform="translate(40 7)"><path d="m45.4237563 0h-2.7273096v1.48581818h2.7273096c2.4519797 0 4.0365483 1.58563637 4.0365483 4.03936364v6.33272728c0 2.4545454-1.5845686 4.0393636-4.0365483 4.0393636h-2.7273096v1.4858182h2.7273096c3.372995 0 5.639797-2.2622727 5.639797-5.6290909v-6.12490909c0-3.36681818-2.2659898-5.62909091-5.639797-5.62909091zm-5.2783756 17.3830909h1.6024366v-17.3830909h-1.6024366zm51.142335-12.24818181c0-3.07145454-2.3390863-5.13490909-5.8209137-5.13490909h-4.9673096v1.45963636h4.9153299c2.6014214 0 4.217665 1.40809091 4.217665 3.67445455 0 2.32772727-1.6560406 3.83154545-4.217665 3.83154545h-2.3553299v1.43345454h2.4073096c.2834518 0 .5685279-.0220909.8511675-.045l3.1788833 7.029h1.7591878l-3.3364467-7.40372726c2.1116751-.774 3.3681218-2.57481819 3.3681218-4.84527273zm-10.7882233 12.24818181h1.6040609v-14.95963635h-1.6040609zm-69.711269-12.24818181c0-3.07145454-2.33908634-5.13490909-5.82091376-5.13490909h-4.96730964v1.45963636h4.91532995c2.60142132 0 4.21685279 1.40809091 4.21685279 3.67445455 0 2.32772727-1.65522843 3.83154545-4.21685279 3.83154545h-2.3577665v1.43345454h2.40974619c.2826396 0 .56771574-.0220909.85116752-.045l3.17888325 7.029h1.75918779l-3.33644668-7.40372726c2.11167513-.774 3.36812188-2.57481819 3.36812188-4.84527273zm-10.7882234 12.24736361h1.60406091v-14.95881815h-1.60406091v14.95963635zm64.6789848-17.3822727-5.7258884 17.3830909h1.6186802l5.6471066-17.3830909zm1.1987817 4.09172727 2.4406091 7.45363633h-4.8308629l-.471066 1.4858182h5.7754315l1.4229441 4.3527273h1.6966498l-5.2255838-15.76554546zm-40.3524873 0 2.4406091 7.45363633h-4.8308629l-.471066 1.4858182h5.7746193l1.4237563 4.3527273h1.6958376l-5.2247716-15.76554546zm.3411167-4.09090909-5.6479187 17.38227272h-1.6178681l5.724264-17.3830909h1.5398985z"/><path d="m159.909036 3.35945455-3.351066 6.45381818v4.45090907c0 .1112727-.055229.1660909-.164874.1660909h-.607512c-.109645 0-.164061-.0548182-.164061-.1652727v-4.45090909l-3.351066-6.45463636c-.022528-.03928972-.019322-.08838584.008122-.12436364.026802-.03845455.068223-.05727273.122639-.05727273h.641625c.108832 0 .190863.05563637.246091.16527273l2.808528 5.37790909h.049543l2.759797-5.37790909c.054416-.10963636.136447-.16527273.246091-.16527273h.624569c.064975 0 .108832.01881818.131574.05727273.021886.03852293.021886.08584071 0 .12436364zm-18.119797 7.23190905 2.103553-5.89090905h.048731l2.086497 5.89090905zm2.629035-7.24827269c-.032487-.10963636-.099086-.16527273-.19736-.16527273h-.591269c-.099087 0-.164873.05563637-.197361.16527273l-3.909847 10.92190909c-.032488.1104545.005685.1652727.115329.1652727h.640813c.098274 0 .169746-.0548182.212792-.1652727l.985989-2.7638182h4.862538l.985178 2.7638182c.021929.1104545.093401.1652727.214416.1652727h.64c.109645 0 .14863-.0548182.11533-.1652727zm-9.790863 10.35899999v.5629091c0 .1104545-.054416.1652727-.164061.1652727h-6.390254c-.109644 0-.16406-.0548182-.16406-.1652727v-10.92190909c0-.10963636.054416-.16527273.16406-.16527273h.607513c.109645 0 .164873.05563637.164873.16527273v10.09472729c0 .0654545.032488.0981818.097462.0981818h5.520406c.109645 0 .164061.0556364.164061.1660909zm-13.076142-10.35818181v.56209091c0 .11045455-.054416.16527273-.164061.16527273h-5.519594c-.064974 0-.098274.03272727-.098274.099v4.005c0 .06545454.032487.099.098274.099h4.747208c.109645 0 .164873.05563636.164873.16609091v.56209091c0 .11045454-.055228.1660909-.164873.1660909h-4.747208c-.064974 0-.098274.03272728-.098274.09818182v4.17109093c0 .0654545.032487.0981818.098274.0981818h5.519594c.109645 0 .164061.0556364.164061.1660909v.5629091c0 .1104545-.054416.1652727-.164061.1652727h-6.390254c-.109644 0-.164061-.0548182-.164061-.1652727v-10.92190909c0-.10963636.054417-.16527273.164061-.16527273h6.390254c.109645 0 .164061.05563637.164061.16527273zm-16.869848 5.16272727h-2.858883c-.064975 0-.097462-.03354545-.097462-.09981818v-4.23654545c0-.06545455.032487-.099.097462-.099h2.858883c.799188 0 1.412386.19309091 1.839594.57927272.427208.38618182.640812.93272728.640812 1.638 0 .71754546-.213604 1.26654546-.641624 1.647-.426396.38045455-1.039594.57027273-1.838782.57027273zm1.132995.76090909c.722843-.17672727 1.284061-.522 1.683655-1.03418181.399594-.513.600203-1.16181819.600203-1.94481819 0-.97036363-.30132-1.73127272-.903959-2.28272727-.60264-.55227273-1.434315-.828-2.49665-.828h-3.745787c-.109644 0-.164061.05563637-.164061.16527273v10.92190909c0 .1104545.054417.1652727.164061.1652727h.608325c.108833 0 .164061-.0548182.164061-.1652727v-4.76590909c0-.06545455.032487-.099.098274-.099h3.039188l2.348832 4.88127269c.043858.099.109645.1489091.197361.1489091h.75533c.055228 0 .090152-.0163636.107208-.0490909.016244-.0335454.008122-.0777273-.024366-.1325454z"/></g></g></g></svg>