<?xml version="1.0" encoding="UTF-8"?>
<svg width="198px" height="41px" viewBox="0 0 198 41" version="1.1" xmlns="http://www.w3.org/2000/svg" xmlns:xlink="http://www.w3.org/1999/xlink">
    <!-- Generator: Sketch 52.2 (67145) - http://www.bohemiancoding.com/sketch -->
    <title>Logo</title>
    <desc>Created with Sketch.</desc>
    <g id="Designs" stroke="none" stroke-width="1" fill="none" fill-rule="evenodd">
        <g id="Home" transform="translate(-861.000000, -4176.000000)" fill="#282138">
            <g id="JOIN-THE-WBTC-COMMUNITY" transform="translate(0.000000, 3815.000000)">
                <g id="SECTION---JOIN-THE-WBTC-COMMUNITY" transform="translate(130.000000, 85.000000)">
                    <g id="Logo-Compound-(grey)" transform="translate(720.000000, 246.000000)">
                        <g id="Logo" transform="translate(11.000000, 30.000000)">
                            <path d="M56.0243718,34.0603071 C54.67176,34.6750962 53.1133835,34.9828774 51.3492424,34.9828774 C49.7427247,34.9828774 48.2573365,34.7199487 46.8954071,34.1925448 C45.5327012,33.6651408 44.3524659,32.918114 43.3523718,31.9522378 C42.3530541,30.9855883 41.5688188,29.8287022 41.0004424,28.4823527 C40.4312894,27.1352299 40.1478776,25.6520029 40.1478776,24.031125 C40.1478776,22.3723544 40.4367247,20.8690211 41.0151953,19.5218983 C41.5928894,18.1747755 42.3918776,17.0287159 43.4113835,16.0813993 C44.4301129,15.1340828 45.6258776,14.4079357 46.9979012,13.8998647 C48.3699247,13.392567 49.8498776,13.1381449 51.43776,13.1381449 C52.9076188,13.1381449 54.3534071,13.397207 55.7751247,13.9145578 C57.1952894,14.4319086 58.3475718,15.1882152 59.2288659,16.1834775 L55.8186071,19.5798973 C55.3480659,18.9364954 54.7307718,18.4578105 53.9667247,18.1453894 C53.2019012,17.8337416 52.4176659,17.6767577 51.6147953,17.6767577 C50.7327247,17.6767577 49.9236424,17.8376082 49.1891012,18.1600825 C48.4537835,18.4825568 47.8217365,18.9264422 47.2921835,19.4925122 C46.7634071,20.0593555 46.3511012,20.7275036 46.0575953,21.4985033 C45.7633129,22.2695029 45.61656,23.1139679 45.61656,24.031125 C45.61656,24.9683884 45.7633129,25.8275465 46.0575953,26.607826 C46.3511012,27.3888788 46.7579718,28.0570269 47.2774306,28.613817 C47.7968894,29.1706072 48.4196188,29.6052128 49.1448424,29.9176339 C49.8692894,30.2292817 50.6636188,30.3854923 51.5262776,30.3854923 C52.5255953,30.3854923 53.3975718,30.1906157 54.1429835,29.799316 C54.8876188,29.4095629 55.4855012,28.9022653 55.9366306,28.2766497 L59.4354071,31.5570715 C58.5137365,32.6111061 57.3769835,33.4447447 56.0243718,34.0603071" id="Fill-1"></path>
                            <path d="M73.0676682,27.076999 C73.0676682,26.6083673 72.9884682,26.1497888 72.8323976,25.7004901 C72.6755506,25.2519647 72.4503741,24.8567984 72.1560918,24.5149911 C71.8618094,24.1731838 71.4991976,23.8947888 71.0682565,23.6798059 C70.6365388,23.4655964 70.1372682,23.3581049 69.5688918,23.3581049 C68.9997388,23.3581049 68.5004682,23.4655964 68.0695271,23.6798059 C67.6378094,23.8947888 67.2798565,24.1731838 66.9964447,24.5149911 C66.71148,24.8567984 66.4963976,25.2519647 66.3488682,25.7004901 C66.2021153,26.1497888 66.1283506,26.6083673 66.1283506,27.076999 C66.1283506,27.5448573 66.2021153,28.0042092 66.3488682,28.4527346 C66.4963976,28.9020333 66.7169153,29.3072527 67.0104212,29.668393 C67.3047035,30.0295333 67.6673153,30.3172082 68.0990329,30.532191 C68.5291976,30.7471739 69.0292447,30.853892 69.5983976,30.853892 C70.1667741,30.853892 70.6660447,30.7471739 71.0977624,30.532191 C71.5287035,30.3172082 71.8913153,30.0295333 72.1855976,29.668393 C72.47988,29.3072527 72.6996212,28.9020333 72.8471506,28.4527346 C72.9939035,28.0042092 73.0676682,27.5448573 73.0676682,27.076999 M77.7125153,27.076999 C77.7125153,28.2679112 77.4966565,29.3459187 77.0657153,30.3125682 C76.6347741,31.2784444 76.0462094,32.0981632 75.3015741,32.7717246 C74.5569388,33.4445127 73.6950565,33.9672767 72.7143741,34.3392435 C71.7344682,34.7088903 70.6862329,34.894487 69.5688918,34.894487 C68.4709624,34.894487 67.4266094,34.7088903 66.4373859,34.3392435 C65.4473859,33.9672767 64.5855035,33.4445127 63.8501859,32.7717246 C63.1148682,32.0981632 62.5317388,31.2784444 62.1007976,30.3125682 C61.66908,29.3459187 61.4539976,28.2679112 61.4539976,27.076999 C61.4539976,25.8860868 61.66908,24.8119458 62.1007976,23.8553495 C62.5317388,22.8995264 63.1148682,22.0890874 63.8501859,21.4248059 C64.5855035,20.762071 65.4473859,20.254 66.4373859,19.9029129 C67.4266094,19.5518258 68.4709624,19.3755089 69.5688918,19.3755089 C70.6862329,19.3755089 71.7344682,19.5518258 72.7143741,19.9029129 C73.6950565,20.254 74.5569388,20.762071 75.3015741,21.4248059 C76.0462094,22.0890874 76.6347741,22.8995264 77.0657153,23.8553495 C77.4966565,24.8119458 77.7125153,25.8860868 77.7125153,27.076999" id="Fill-3"></path>
                            <path d="M99.4695318,34.4265513 L99.4695318,26.4613592 C99.4695318,26.0522731 99.4400259,25.6563335 99.3817906,25.2758603 C99.3227788,24.895387 99.2148494,24.5690461 99.0580024,24.2945177 C98.9011553,24.0215358 98.6907318,23.8019131 98.4259553,23.6356493 C98.1611788,23.470159 97.81332,23.3874138 97.3823788,23.3874138 C96.9708494,23.3874138 96.6128965,23.4747989 96.3092965,23.6503424 C96.00492,23.8266593 95.7502376,24.0609751 95.5444729,24.3540633 C95.3387082,24.6463781 95.18652,24.9827721 95.0886847,25.3632454 C94.9908494,25.7437186 94.9419318,26.1396583 94.9419318,26.5487443 L94.9419318,34.4265513 L90.1200494,34.4265513 L90.1200494,26.1102721 C90.1200494,25.2712203 89.9538847,24.6077121 89.6200024,24.1189741 C89.2868965,23.6317828 88.7573435,23.3874138 88.0328965,23.3874138 C87.2680729,23.3874138 86.6748494,23.6897817 86.2532259,24.2945177 C85.8323788,24.9000269 85.6219553,25.6416404 85.6219553,26.5201315 L85.6219553,34.4265513 L80.7705671,34.4265513 L80.7705671,19.8440633 L85.44492,19.8440633 L85.44492,21.8647474 L85.5039318,21.8647474 C85.6801906,21.5530996 85.9007082,21.2499583 86.1654847,20.9568702 C86.4302612,20.6637821 86.7486141,20.4054933 87.12132,20.1812306 C87.4932494,19.9561946 87.9094376,19.7760111 88.3706612,19.6391336 C88.8311082,19.502256 89.3358141,19.4334306 89.8847788,19.4334306 C90.9438847,19.4334306 91.8399318,19.6491867 92.5752494,20.0783791 C93.3097906,20.5083448 93.8836024,21.1231339 94.2951318,21.9227464 C94.7850847,21.1617999 95.4124729,20.5562906 96.17652,20.1077653 C96.9413435,19.6584666 97.8715553,19.4334306 98.9694847,19.4334306 C99.9695788,19.4334306 100.807391,19.6151607 101.483696,19.9755276 C102.160002,20.3366679 102.703532,20.8060729 103.115061,21.3814227 C103.527367,21.9575458 103.825532,22.601721 104.012661,23.3139484 C104.198238,24.0269491 104.291414,24.7244834 104.291414,25.4073246 L104.291414,34.4265513 L99.4695318,34.4265513 Z" id="Fill-5"></path>
                            <path d="M137.519231,27.076999 C137.519231,26.6083673 137.440807,26.1497888 137.28396,25.7004901 C137.127113,25.2519647 136.901936,24.8567984 136.607654,24.5149911 C136.314148,24.1731838 135.95076,23.8947888 135.519819,23.6798059 C135.088101,23.4655964 134.588831,23.3581049 134.020454,23.3581049 C133.451301,23.3581049 132.952031,23.4655964 132.521089,23.6798059 C132.089372,23.8947888 131.732195,24.1731838 131.448007,24.5149911 C131.163819,24.8567984 130.94796,25.2519647 130.801207,25.7004901 C130.653678,26.1497888 130.579913,26.6083673 130.579913,27.076999 C130.579913,27.5448573 130.653678,28.0042092 130.801207,28.4527346 C130.94796,28.9020333 131.168478,29.3072527 131.46276,29.668393 C131.756266,30.0295333 132.118878,30.3172082 132.550595,30.532191 C132.981536,30.7471739 133.480807,30.853892 134.04996,30.853892 C134.618336,30.853892 135.118384,30.7471739 135.549325,30.532191 C135.980266,30.3172082 136.342878,30.0295333 136.63716,29.668393 C136.931442,29.3072527 137.15196,28.9020333 137.298713,28.4527346 C137.445466,28.0042092 137.519231,27.5448573 137.519231,27.076999 M142.164078,27.076999 C142.164078,28.2679112 141.948995,29.3459187 141.518054,30.3125682 C141.086336,31.2784444 140.497772,32.0981632 139.753913,32.7717246 C139.008501,33.4445127 138.145842,33.9672767 137.165936,34.3392435 C136.186031,34.7088903 135.137795,34.894487 134.020454,34.894487 C132.922525,34.894487 131.878172,34.7088903 130.888948,34.3392435 C129.898948,33.9672767 129.037066,33.4445127 128.301748,32.7717246 C127.567207,32.0981632 126.984078,31.2784444 126.55236,30.3125682 C126.121419,29.3459187 125.90556,28.2679112 125.90556,27.076999 C125.90556,25.8860868 126.121419,24.8119458 126.55236,23.8553495 C126.984078,22.8995264 127.567207,22.0890874 128.301748,21.4248059 C129.037066,20.762071 129.898948,20.254 130.888948,19.9029129 C131.878172,19.5518258 132.922525,19.3755089 134.020454,19.3755089 C135.137795,19.3755089 136.186031,19.5518258 137.165936,19.9029129 C138.145842,20.254 139.008501,20.762071 139.753913,21.4248059 C140.497772,22.0890874 141.086336,22.8995264 141.518054,23.8553495 C141.948995,24.8119458 142.164078,25.8860868 142.164078,27.076999" id="Fill-7"></path>
                            <path d="M154.865506,34.4265513 L154.865506,32.4066404 L154.806494,32.4066404 C154.629459,32.7376212 154.399624,33.0500424 154.115435,33.3431305 C153.831247,33.6362186 153.498141,33.8898675 153.116118,34.104077 C152.733318,34.3190598 152.311694,34.4946034 151.852024,34.631481 C151.3908,34.7675852 150.905506,34.8356373 150.396141,34.8356373 C149.416235,34.8356373 148.588518,34.6608671 147.911435,34.3090067 C147.235906,33.9586929 146.686941,33.5047543 146.265318,32.9479642 C145.843694,32.391174 145.540094,31.757052 145.353741,31.0440513 C145.167388,30.3318239 145.074988,29.6056768 145.074988,28.86329 L145.074988,19.8440633 L149.9256,19.8440633 L149.9256,27.7497097 C149.9256,28.1595691 149.955106,28.5500955 150.014118,28.9212889 C150.073129,29.291709 150.185718,29.6242365 150.352659,29.9173246 C150.518824,30.2096394 150.738565,30.4400886 151.014212,30.605579 C151.288306,30.7702961 151.650141,30.8538146 152.101271,30.8538146 C152.943741,30.8538146 153.585882,30.5421668 154.027694,29.9173246 C154.467953,29.291709 154.689247,28.5601487 154.689247,27.7203236 L154.689247,19.8440633 L159.511129,19.8440633 L159.511129,34.4265513 L154.865506,34.4265513 Z" id="Fill-9"></path>
                            <path d="M173.5008,34.4265513 L173.5008,26.4613592 C173.5008,26.0522731 173.466635,25.6609734 173.398306,25.2913266 C173.3292,24.9193599 173.216612,24.5922457 173.059765,24.3092107 C172.902141,24.0269491 172.6824,23.8019131 172.398212,23.6356493 C172.114024,23.470159 171.756847,23.3874138 171.325129,23.3874138 C170.894188,23.3874138 170.5176,23.470159 170.193812,23.6356493 C169.870024,23.8019131 169.600588,24.031589 169.384729,24.3246771 C169.168871,24.6162186 169.007365,24.953386 168.899435,25.3338592 C168.792282,25.7143325 168.737929,26.1102721 168.737929,26.5201315 L168.737929,34.4265513 L163.887318,34.4265513 L163.887318,19.8440633 L168.561671,19.8440633 L168.561671,21.8647474 L168.620682,21.8647474 C168.796941,21.5530996 169.026776,21.2445451 169.310965,20.9421771 C169.595153,20.6398092 169.928259,20.3815204 170.311059,20.1665376 C170.693082,19.9515547 171.109271,19.7760111 171.5604,19.6391336 C172.011529,19.502256 172.491388,19.4334306 173.001529,19.4334306 C173.981435,19.4334306 174.813812,19.6097474 175.500212,19.9608345 C176.185835,20.312695 176.740235,20.7666336 177.161859,21.3226504 C177.582706,21.8786672 177.886306,22.5189758 178.073435,23.240483 C178.259012,23.9635369 178.352965,24.6850441 178.352965,25.4073246 L178.352965,34.4265513 L173.5008,34.4265513 Z" id="Fill-11"></path>
                            <path d="M118.717151,28.4680463 C118.570398,28.9266248 118.354539,29.331071 118.070351,29.6821581 C117.786162,30.0332452 117.428209,30.3178268 116.997268,30.5320364 C116.565551,30.7470192 116.06628,30.8537373 115.497904,30.8537373 C114.948939,30.8537373 114.458986,30.7470192 114.028045,30.5320364 C113.596327,30.3178268 113.229056,30.0332452 112.925456,29.6821581 C112.62108,29.331071 112.385809,28.9312647 112.219645,28.4827394 C112.052704,28.0334407 111.969621,27.5740888 111.969621,27.1054571 C111.969621,26.6375988 112.052704,26.1790202 112.219645,25.7297215 C112.385809,25.2804228 112.62108,24.8798433 112.925456,24.5287562 C113.229056,24.1776691 113.596327,23.8946341 114.028045,23.6804246 C114.458986,23.4654417 114.948939,23.3587236 115.497904,23.3587236 C116.06628,23.3587236 116.565551,23.4654417 116.997268,23.6804246 C117.428209,23.8946341 117.786162,24.1730291 118.070351,24.5148364 C118.354539,24.8566437 118.570398,25.25181 118.717151,25.7003354 C118.863904,26.1496341 118.937668,26.6082126 118.937668,27.0768443 C118.937668,27.545476 118.863904,28.0086944 118.717151,28.4680463 M123.127504,24.162976 C122.803715,23.2357658 122.343268,22.4214602 121.745386,21.7177394 C121.147504,21.0147918 120.416845,20.458775 119.554962,20.0481423 C118.692304,19.6390562 117.732586,19.4333532 116.674256,19.4333532 C115.595739,19.4333532 114.660092,19.6537493 113.865762,20.0929949 C113.072209,20.5314671 112.450256,21.044178 111.999127,21.6303543 L111.910609,21.6303543 L111.910609,19.8439859 L107.323998,19.8439859 L107.323998,40.361702 L112.14588,39.9410161 L112.14588,32.8156492 L112.204892,32.8156492 C112.656021,33.4412647 113.282633,33.933096 114.087056,34.2942363 C114.889927,34.6553765 115.742492,34.83556 116.644751,34.83556 C117.741904,34.83556 118.721809,34.6213505 119.584468,34.1921581 C120.447127,33.7629657 121.176233,33.1914825 121.774892,32.4792551 C122.372774,31.7670278 122.827786,30.9418957 123.142256,30.0046324 C123.455174,29.067369 123.612798,28.092213 123.612798,27.0768443 C123.612798,26.0614757 123.451292,25.0909595 123.127504,24.162976" id="Fill-13"></path>
                            <path d="M192.655475,28.48243 C192.489311,28.9309554 192.253264,29.331535 191.95044,29.6826221 C191.646064,30.0337092 191.278793,30.3175175 190.847075,30.531727 C190.416134,30.7474832 189.926181,30.853428 189.377216,30.853428 C188.808064,30.853428 188.308793,30.7474832 187.877852,30.531727 C187.446911,30.3175175 187.084299,30.0337092 186.790016,29.6826221 C186.495734,29.331535 186.275216,28.9263155 186.128464,28.467737 C185.981711,28.0091584 185.907946,27.5451667 185.907946,27.0773083 C185.907946,26.6079033 185.981711,26.1493248 186.128464,25.7000261 C186.275216,25.2515007 186.495734,24.8571077 186.790016,24.5145271 C187.084299,24.1734931 187.446911,23.8943248 187.877852,23.6801152 C188.308793,23.4659057 188.808064,23.3584143 189.377216,23.3584143 C189.926181,23.3584143 190.416134,23.4659057 190.847075,23.6801152 C191.278793,23.8943248 191.646064,24.1781331 191.95044,24.5292202 C192.253264,24.8803073 192.489311,25.2801135 192.655475,25.7294122 C192.82164,26.1787109 192.905499,26.6372894 192.905499,27.1059211 C192.905499,27.5737795 192.82164,28.0339047 192.655475,28.48243 Z M192.699734,14.0290864 L192.699734,21.3957291 L192.640722,21.3957291 C192.229193,20.9085377 191.651499,20.4584657 190.906864,20.0486063 C190.161452,19.6387469 189.249099,19.4338172 188.172134,19.4338172 C187.113028,19.4338172 186.157969,19.6387469 185.305405,20.0486063 C184.45284,20.4584657 183.72684,21.0152558 183.129734,21.7182034 C182.531075,22.4211509 182.071405,23.2362298 181.747616,24.1626667 C181.424605,25.0906502 181.263099,26.0611663 181.263099,27.0773083 C181.263099,28.0919036 181.419169,29.067833 181.732864,30.0050964 C182.045781,30.9423597 182.502346,31.7667184 183.100228,32.4789458 C183.697334,33.1919465 184.427216,33.7626564 185.290652,34.1926221 C186.152534,34.6210412 187.13244,34.836024 188.230369,34.836024 C189.210275,34.836024 190.136605,34.6357342 191.009358,34.235928 C191.880558,33.8361217 192.552205,33.2654119 193.023522,32.523025 L193.081758,32.523025 L193.081758,34.4269379 L197.521616,34.4269379 L197.521616,13.6084005 L192.699734,14.0290864 Z" id="Fill-15"></path>
                            <polygon id="Fill-17" points="17.2398988 0.0138283608 17.2398988 10.8287032 20.25804 10.8287032 21.0756635 10.8287032 21.0756635 11.6437821 21.0756635 34.8116644 28.9669341 34.8116644 28.9669341 0.0138283608"></polygon>
                            <polygon id="Fill-20" points="-8.64197602e-13 34.8117418 11.7270353 34.8117418 11.7270353 23.2281872 -8.64197602e-13 23.2281872"></polygon>
                            <polygon id="Fill-22" points="8.53077176 11.6438594 8.53077176 22.4131084 11.7267247 22.4131084 12.5451247 22.4131084 12.5451247 23.2274139 12.5451247 34.8117418 20.2578071 34.8117418 20.2578071 11.6438594"></polygon>
                        </g>
                    </g>
                </g>
            </g>
        </g>
    </g>
</svg>
