<svg height="69" viewBox="0 0 167 69" width="167" xmlns="http://www.w3.org/2000/svg"><g fill="#282138" fill-rule="evenodd"><path d="m68.4080215 35.136492 6.1261824 7.0689841h-2.6312362l-6.1463451-7.0689841 5.5640367-6.2229649h2.6110735zm-4.8405892 7.0689841h2.1291404v-13.291949h-2.1291404z"/><path d="m80.017524 43.3331646c-.4153084.9534746-.9136785 1.6445733-1.4964252 2.074395-.5823084.4298216-1.2954554.6445127-2.1390026.6445127-.268252 0-.5424213-.0169204-.8236037-.0501019-.2811824-.0338408-.5492152-.0841624-.8034409-.1511847v-1.7924618c.2410761.0268089.4549764.0468057.6427966.0604299.1873819.0131847.3681889.0199968.5424212.0199968.4549764 0 .8599843-.0940509 1.2150236-.2817133.3548203-.1885414.6660276-.5774905.9340604-1.1683854l.4017205-.9260064-3.936773-9.4457484h2.2696221l2.8120433 7.2102803 2.9325813-7.2102803h2.2496785z"/><path d="m91.787649 34.0288662c-.374983 0-.7398846.0639459-1.0944856.1913981-.3550394.127672-.6728215.3256625-.9542231.5941911-.2811824.2685287-.5053832.6040796-.6728215 1.0068726-.1676575.402793-.2509384.8862325-.2509384 1.449879 0 .564086.0867874 1.0508217.2610197 1.460207.173794.4096051.4017205.7451561.6829029 1.0068726.2811824.2619363.5991837.4531147.9542231.5739745.3546011.1210797.7129278.1812899 1.0743229.1812899.428458 0 .8266719-.0806465 1.1952992-.2417198.3681889-.1610732.6859711-.3823567.9540039-.6645095.2675945-.2819332.4784265-.621.6324961-1.0169809.1540695-.3957612.2312139-.8356911.2312139-1.3191306s-.0771444-.9229299-.2312139-1.3189108c-.1540696-.3962007-.368189-.7352676-.6425775-1.0172007-.2746076-.2821528-.5958963-.5001401-.9640853-.654621-.3684081-.1540414-.7600472-.2316115-1.1751364-.2316115zm-2.952525-.5034363c.3747638-.4432261.8468347-.7921815 1.4159935-1.0473057.5691587-.2549045 1.19508-.3825764 1.8782021-.3825764.6958333 0 1.3386299.1307484 1.9279514.3926847.5893215.2617165 1.1014987.6242962 1.5367507 1.0875191.4350328.4632229.7731968 1.0103885 1.0142729 1.6414968s.3616142 1.3158344.3616142 2.0539586c0 .7387834-.1205381 1.4197739-.3616142 2.0442898-.2410761.6242962-.5759527 1.1681656-1.0041916 1.6313886-.4286771.4630031-.9373478.8255828-1.5266693 1.0872993-.5893215.2619363-1.2321181.3926847-1.9281706.3926847-.7365971 0-1.4094186-.1406369-2.0186837-.4230095-.6094843-.2817134-1.0947047-.6847261-1.4560997-1.2081593v1.4096656h-1.9483334v-15.1044076h2.1089777z"/><path d="m103.818969 33.8878777c-.723009 0-1.339068.2184268-1.847739.654621-.509109.4361943-.843547 1.023793-1.004411 1.762137h5.363067c-.027176-.7783376-.284689-1.3760446-.773416-1.7922421-.488946-.4159777-1.067967-.6245159-1.737501-.6245159m.060269-1.7924618c.656165 0 1.26543.1142675 1.827795.3423631.562584.228535 1.044517.5438694 1.446238.9464427.40172.4030127.715996.8833758.943922 1.4402101.227708.5572739.341452 1.1580574.341452 1.8023504 0 .2687484-.016876.5236528-.049969.7655923-.03375.2412803-.07035.4296019-.110456.5636465h-7.351507c.147276.8192102.508671 1.4571306 1.084623 1.9133217.575515.4564108 1.285374.6845063 2.129141.6845063.575514 0 1.097773-.1035 1.566556-.3118184.468784-.2083185.903816-.4935478 1.305537-.8561274l1.024354 1.4500987c-.522039.4966242-1.111361.8862325-1.767307 1.1679459-.656165.2821528-1.379394.4230095-2.169466.4230095-.763115 0-1.472975-.1309681-2.128921-.3926847-.656384-.2619363-1.218749-.6242962-1.687314-1.0872994-.4690022-.4634426-.836972-1.0101687-1.1047857-1.6414968-.2680328-.6311082-.4017205-1.3090223-.4017205-2.0341815 0-.7249395.1306195-1.4028535.3918583-2.0341815.2612389-.6306688.6226339-1.1780542 1.0844039-1.6412771.462209-.4632229 1.000905-.8286592 1.616964-1.0974076.615839-.2685287 1.285593-.4030128 2.008602-.4030128"/><path d="m115.689579 32.2162758c.174013 0 .324576.0101083.452127.0303248.127113.0199969.244144.0437293.351314.0703185v1.8731083h-.642797c-.388352 0-.760047.0571337-1.114867.1711815-.354821.1142675-.662741.2854491-.92376.5135446-.261239.228535-.468784.5135446-.622634.8559076-.15407.3423631-.230995.7420797-.230995 1.1982707v5.2765223h-2.109197v-9.888535h1.948553v1.3292389c.348026-.4698153.773197-.8255828 1.275292-1.0675223.502315-.2415 1.041011-.3623599 1.616964-.3623599"/><path d="m122.518849 28.6919799c.977235 0 1.834151.2250191 2.570748.6746179.736378.4500382 1.305536 1.0169809 1.707476 1.701707l-1.486344 1.147949c-.348464-.5100286-.75676-.9062293-1.225324-1.1881624-.468783-.2819331-.991042-.4230096-1.566556-.4230096-.535847 0-1.004411.1309682-1.406132.3929045-.40172.2617166-.602471.6680255-.602471 1.2182675 0 .255344.046681.4733312.140701.654621.093362.1810701.220694.3423631.381339.4834395.160863.1408567.35482.2685287.582527.3825765.227708.1142675.475359.2384235.743172.3724681l1.486563.6847261c.495302.2285351.943704.4702548 1.345424.7249395.401721.255344.736378.5337612 1.004411.8359109.267813.3021496.475139.6344044.622634.996984.147275.3625796.220913.7721847.220913 1.2283758 0 .5908949-.113744 1.1246561-.341451 1.6010637-.227927.4768472-.542202.8796401-.943923 1.208379-.40172.3291783-.873572.5840828-1.415993.7655924-.542422.18107-1.128237.2716051-1.757664.2716051-1.11158 0-2.095829-.2584204-2.952525-.7752612-.856916-.516621-1.540038-1.2182675-2.048709-2.1047197l1.506287-1.1479491c.187601.2821529.398433.5509013.632935.8058057.233844.2551243.492014.4799236.773197.6746179.281182.1946942.592389.3493949.93406.4632229.341232.1140478.719503.1711815 1.134811.1711815.682903 0 1.235186-.1643694 1.65707-.4935477.421664-.3287389.632715-.7818535.632715-1.3595637 0-.2546847-.04712-.4797038-.140701-.6743981-.093801-.1944745-.227927-.3656561-.40172-.5135446-.174233-.1476688-.37849-.2852293-.612553-.4129013-.234501-.1274522-.499028-.2584204-.79336-.3926847l-1.466181-.6847261c-.428677-.2015064-.830397-.4161975-1.205161-.6445127-.374983-.2283153-.703066-.4900319-.984248-.7855892-.281402-.2951178-.502096-.6273726-.662959-.9967643-.160645-.369172-.240857-.7884459-.240857-1.2587007 0-.5504618.110237-1.0473057.331151-1.4903121.221132-.4430064.522258-.8222866.904035-1.1378407.381558-.3153344.823604-.5570542 1.325699-.7249395.502096-.1678854 1.041011-.2518281 1.616964-.2518281"/><path d="m139.652084 38.7213057 2.550805-6.4044745h2.229516l-4.358437 10.1100382h-.723229l-3.113388-6.6055414-3.073282 6.6055414h-.72279l-4.378819-10.1100382h2.249678l2.590911 6.4649045 2.99285-6.6861879h.72301z"/><path d="m149.112349 40.7957885c.348027 0 .67589-.056914.984249-.1711815.307919-.1140478.579021-.275121.813303-.4834395.234282-.2080987.418376-.4564108.552502-.745156.133688-.2885255.20097-.6007835.20097-.9363344v-.1815096h-2.530861c-.562584 0-.994329.1008631-1.295674.3021497-.301126.2015064-.451908.5034363-.451908.906449 0 .429602.167219.7550446.502095.9765478.334658.2217229.743172.3324745 1.225324.3324745m.622634-8.7003726c.602691 0 1.151468.0876784 1.646989.2619363.495301.1746975.920472.4328981 1.275511.7752612.354601.342363.632496.7721847.833466 1.2888057.20097.5172803.301345 1.1180637.301345 1.8025701v5.9814649h-1.968277v-1.1077356c-.348464.4166369-.790291.7420796-1.325699.9767675-.535846.2349076-1.144892.3524713-1.828014.3524713-.52204 0-.994111-.067242-1.415994-.2015063-.421664-.1340446-.783278-.3285192-1.084623-.5838631-.301345-.2549045-.532121-.5570541-.692985-.9062293-.160644-.3491752-.240856-.738344-.240856-1.1683854 0-.8723885.327863-1.5604108.984248-2.0640668.655946-.5032166 1.539599-.7552644 2.651179-.7552644h2.7921v-.644293c0-.6849458-.181026-1.2085987-.542421-1.5709586-.361395-.3623598-.883654-.5438694-1.566557-.5438694-.575952 0-1.078267.1278917-1.506506.3825765-.428677.2553439-.843767.6179235-1.245487 1.0877388l-1.205161-1.2485924c.508889-.7251592 1.117935-1.2589203 1.828014-1.6012834.709421-.342363 1.479331-.5135446 2.309728-.5135446"/><path d="m161.7864 34.0288662c-.361395 0-.719941.0639459-1.074542.1913981-.35482.127672-.67304.3221465-.954223.5838631-.281182.2617165-.50889.5941911-.682903.9972038-.174232.4025733-.261019.885793-.261019 1.449879 0 .5638662.0835 1.0473057.251157 1.449879.167219.4030127.391639.7387834.672602 1.0070923.281402.2687484.599403.4665191.954224.5941911.354601.1274522.719721.1911784 1.094704.1911784.41509 0 .806729-.0769109 1.174918-.2313918.368189-.1542611.689696-.3729076.964304-.6548407.274388-.2817134.488508-.6205605.642577-1.0167612.15407-.3959809.230995-.8359108.230995-1.3193503 0-.4832197-.076925-.9229299-.230995-1.3191306-.154069-.3955414-.364901-.734828-.632496-1.0169809-.268032-.2819331-.586034-.5034363-.954223-.6645095-.368627-.1610733-.766622-.2417198-1.19508-.2417198m.341452-1.9333184c.696052 0 1.342355.1307484 1.938252.3926847.595677.2617165 1.107854.6242962 1.536531 1.0875191.428458.4632229.763335 1.0068726 1.004411 1.6313885.241076.6242962.361614 1.3057261.361614 2.0440701 0 .7385637-.120538 1.4230701-.361614 2.0541783-.241076.6313281-.57924 1.1782739-1.014492 1.6414969-.435252.4630031-.947429.8255828-1.536532 1.0872993-.589321.2619363-1.232118.3926847-1.92817.3926847-.682903 0-1.309044-.1208598-1.877983-.3623598-.569378-.2417198-1.041449-.5906752-1.416213-1.0473058v4.8135191h-2.108978v-13.5138917h1.948553v1.4301019c.361395-.5238726.843547-.9295223 1.446238-1.2184872.602471-.2885255 1.271786-.4328981 2.008383-.4328981"/><path d="m2.5733122 18.2323051 18.0644908-13.81582166-6.4588674 30.15014336 6.4588674 30.150363-18.0644908-13.8158216zm15.4810315 16.3343217 25.4359409-14.6484364v29.2764364zm5.5053018-31.57914655 18.9770735 14.51505095-25.2001246 14.5148312zm-6.2230511 34.12863055 25.2104252 14.5045032-18.9974554 14.525379zm3.6189908-36.19467513-19.61263782 15.00815923c-.85077953.6478089-1.34301313 1.655121-1.34301313 2.7241815v31.8259204c0 1.0690605.50231496 2.0765924 1.34301313 2.7239618l19.61263782 15.008379c1.2200643.9354554 2.9220617.9354554 4.1419068 0l19.612857-15.008379c.8507795-.6473694 1.3430131-1.6549013 1.3430131-2.7239618v-31.8259204c0-1.0690605-.502315-2.0763726-1.3430131-2.7241815l-19.612857-15.00815923c-1.2198451-.93545542-2.9218425-.93545542-4.1419068 0z"/></g></svg>