<svg height="49" viewBox="0 0 167 49" width="167" xmlns="http://www.w3.org/2000/svg"><g fill="#282138" fill-rule="evenodd"><path d="m15.7819704 24.1384013h2.9942395c1.4606619 0 2.7119859-.3691223 3.5258169-1.039185.7009295-.5760188 1.0560986-1.3471787 1.0560986-2.2852665 0-1.9349529-1.1995775-4.1943573-4.5819155-4.1943573h-2.9942395zm-11.65236617-7.5188088v24.1152037c0 2.7648903 1.77114084 3.7923198 3.42938028 3.8322884 1.36657746.0258621 3.72574649-.7123824 3.86922539-3.7076802l.0094084-.2045455.0376338-.1504702c.0305775-.2210031.0682113-.9898119.0682113-2.1089342v-2.0642633h9.6765915c5.656831 0 13.5458169-5.9858934 13.5458169-15.7335423 0-9.1904389-8.0277605-15.84404388-13.4399718-15.84404388h-5.5439296v7.73746078h2.9942395c3.3517605 0 5.386338 1.4106583 6.5012394 2.5932602 1.4253803 1.5117555 2.2109859 3.5478057 2.2109859 5.7296238 0 4.3871474-3.5822676 7.4529781-8.7122253 7.4529781h-7.1245493v-11.6473354zm3.53052112 32.0760188c-.06585915 0-.13171831-.0023511-.19992958-.0023511-3.59167605-.0846395-7.45854929-2.612069-7.45854929-7.958464v-28.2437304h11.65001412v-11.86363633h9.6742394c3.9609577 0 8.3758732 2.18416928 11.8123099 5.84482758 3.7116338 3.95689655 5.7579718 8.97413795 5.7579718 14.12539185 0 5.492163-2.0769155 10.6175549-5.8473521 14.4310345-3.3588169 3.4020376-7.7807888 5.4310345-11.8287747 5.4310345h-5.5980281c-.0235212.3691222-.0517465.6018808-.0799719.7570533-.145831 2.2852664-1.0772676 4.2225705-2.7002253 5.6026645-1.4253803 1.2155173-3.25767608 1.8761756-5.18170425 1.8761756z"/><path d="m54.170331 20.2652038h4.1397183c.6562394 0 1.2019296-.2539185 1.6417746-.7641066.4421972-.507837.6609437-1.1967085.6609437-2.0689655 0-.4443574-.0682113-.8393417-.2069859-1.1943574-.1387747-.3526646-.3175352-.653605-.543338-.8981191-.2234507-.2468652-.4868874-.4326019-.7903099-.554859-.2987183-.122257-.6068451-.1857366-.9173239-.1857366h-3.9844789zm-3.5705071 8.8424765v-17.4874609h7.7878451c.8444085 0 1.6253099.169279 2.3427042.5054859.7150423.3362069 1.3312958.7782132 1.8487606 1.3283699.5174648.5501568.9243803 1.1755486 1.2160423 1.8714734.294014.6982759.439845 1.4012539.439845 2.1065831 0 .7382445-.1364225 1.4576802-.4116197 2.1559561-.2775493.6982758-.6656479 1.3166144-1.1666479 1.8597178-.4986479.5407524-1.1031408.9757054-1.8111267 1.304859-.7056338.3291536-1.481831.4937304-2.3285916.4937304h-4.3467042v5.8612853z"/><path d="m73.9116127 20.2652038h4.4760704c.3269437 0 .6350704-.0728841.9196761-.2210032.2846056-.1481191.5292253-.3503135.7362112-.6042319.2069859-.2539185.3716338-.5525079.4915916-.8981192.1223098-.3456113.1811126-.7147335.1811126-1.1097178 0-.4090909-.0682112-.7876176-.2069859-1.1332289-.1364225-.3432602-.3222394-.6442006-.5550986-.8981191-.2328591-.2539185-.501-.4514107-.8020704-.5901254-.3034225-.1410658-.6091972-.2115987-.919676-.2115987h-4.320831zm-3.5705071 8.8424765v-17.4874609h8.1241972c.8444085 0 1.6253099.169279 2.3427042.5054859.7150423.3362069 1.3336479.7782132 1.8511127 1.3283699.5151127.5501568.9196761 1.1755486 1.2136902 1.8714734.294014.6982759.439845 1.4012539.439845 2.1065831 0 1.1332288-.2963662 2.1630094-.8914507 3.0916928-.5950845.9286833-1.4042112 1.598746-2.4203239 2.0078369l4.1914648 6.5760189h-4.0103521l-3.7516198-5.8612853h-3.5187605v5.8612853z"/><path d="m92.6459549 11.6195141 4.5278169 8.4239812 4.6054362-8.4239812h3.855113l-6.6752956 11.3793104v6.1081504h-3.5446339v-6.1575235l-6.6494225-11.3299373z"/><path d="m108.919987 20.2409875c0-1.0673982.202282-2.1230408.609198-3.1645768.404563-1.0438872.997295-1.9749217 1.773492-2.7978057.773846-.8205329 1.721747-1.4835423 2.846057-1.9937304 1.119605-.5101881 2.394451-.7641066 3.829239-.7641066 1.688817 0 3.149479.3526646 4.384338 1.0603449 1.232507.7053291 2.152183 1.6246081 2.756676 2.7578369l-2.742563 1.7985894c-.242268-.4937304-.536282-.9075235-.87969-1.2437304-.345761-.3362069-.717395-.604232-1.114902-.8017242-.395155-.195141-.811478-.338558-1.239563-.4302507-.432789-.0916928-.856169-.1363637-1.267789-.1363637-.898507 0-1.679408.1739812-2.342704.5172414-.665648.3456113-1.216042.7923197-1.658239 1.3424765-.437493.5501567-.771493 1.1755486-.992592 1.8714733-.225803.700627-.338704 1.3942007-.338704 2.0830721 0 .7711599.131718 1.5141066.388098 2.2288402.258733.7147335.625662 1.3424765 1.100789 1.8855799.472775.5407524 1.041986.9757053 1.705282 1.3048589.665648.3268025 1.394803.4913793 2.187465.4913793.416324 0 .844408-.049373 1.296014-.1481191.446901-.0987461.874986-.2539185 1.279549-.4678683.404563-.2115988.780901-.4890282 1.12431-.8252351.34576-.3362069.620958-.7429467.830296-1.2178684l2.923676 1.5987461c-.294014.6583072-.71269 1.2366771-1.256028 1.7374608-.543338.5031348-1.154888.9239812-1.837 1.2695925-.679761.3456113-1.411268.6065831-2.185113.7876176-.776197.1810345-1.53593.2703761-2.279197.2703761-1.310127 0-2.507352-.2609717-3.596381-.7876175-1.086676-.5242947-2.020464-1.2108151-2.80607-2.0548589-.785606-.846395-1.397155-1.8079938-1.839352-2.8847963-.437493-1.0744514-.658592-2.1700627-.658592-3.2868338"/><path d="m144.964232 14.5997649h-5.873225v14.5086207h-3.544634v-14.5086207h-5.873225v-2.9811912h15.291084z"/><path d="m152.518983 20.3639498c0 .7547022.12231 1.4858935.362225 2.1935737.242268.7053292.590381 1.3283699 1.049043 1.8714734.45631.5407523 1.016112.9757053 1.679408 1.3048589.665648.3291536 1.420676.4937304 2.265085.4937304.863225 0 1.627662-.169279 2.290957-.5054859.663296-.3362069 1.223099-.7852664 1.681761-1.3424765.45631-.5595611.80207-1.1873041 1.03493-1.8855799.232859-.6982759.350464-1.4059561.350464-2.1300941 0-.7547022-.127014-1.4858934-.376338-2.1935736-.249324-.7053292-.602141-1.3283699-1.060803-1.8714734-.456309-.5407523-1.018464-.9733542-1.68176-1.2931034-.665648-.3197492-1.411268-.4796239-2.239211-.4796239-.863226 0-1.630014.169279-2.302719.5054859-.670352.3362069-1.234859.7782132-1.68176 1.3283699-.446902.5525079-.787958 1.1755486-1.023169 1.8738245-.230507.6982759-.348113 1.4083072-.348113 2.130094m5.33224 8.8659875c-1.347761 0-2.566155-.2492163-3.66224-.75-1.096084-.5007837-2.034577-1.1661442-2.820183-1.9937304-.785606-.8299373-1.394803-1.7774295-1.825239-2.8448276-.430437-1.0697492-.646831-2.1606583-.646831-3.2774295 0-1.1661442.230507-2.2829153.686816-3.3503134.45631-1.0673982 1.086677-2.0101881 1.888747-2.8330721.80207-.820533 1.754676-1.4717869 2.860169-1.9561129 1.100789-.484326 2.300366-.726489 3.59638-.726489 1.326592 0 2.53793.2562696 3.634014.7758621 1.096085.5148902 2.032226 1.1920062 2.806071 2.0313479.776197.8369906 1.38069 1.789185 1.813479 2.8565831.430436 1.0673981.646831 2.1512539.646831 3.2515674 0 1.1661442-.225803 2.2782132-.672705 3.3362069-.451605 1.0603448-1.070211 1.9960815-1.862873 2.8095611-.795014.8111285-1.742915 1.4623825-2.846056 1.9443574-1.105493.484326-2.305071.726489-3.59638.726489"/></g></svg>