<svg height="44" viewBox="0 0 220 44" width="220" xmlns="http://www.w3.org/2000/svg"><g fill="#282138" fill-rule="evenodd"><g><path d="m6.01764706 9.22058824 3.20294118-1.84411765.45294117.74411765 11.87352939-6.85882353-.8735294-.51764706-.8735294-.48529412-.4205882-.25882353-19.3794118 11.1941176v.4852942l5.56470588-3.20294121z"/><path d="m6.01764706 16.2735294 9.31764704-5.3705882.4205883.7441176 11.9058823-6.85882351-.8735294-.51764705-.8735294-.48529412-.4205883-.25882353-25.4941176 14.68823531v.517647l5.56470588-3.2029411z"/><path d="m6.01764706 19.8 12.35882354-7.15.4205882.7441176 11.9058824-6.85882348-.8735294-.48529412-.8735294-.51764706-.4205883-.25882353-28.5352941 16.46764709v.517647l5.56470588-3.2352941z"/><path d="m6.01764706 23.2941176 15.49705884-8.9294117.4205882.7441176 11.8088235-6.82647056-.8735294-.48529412-.8735294-.51764706-.4205882-.22647058-31.5764706 18.21470592v.4852941l5.56470588-3.2029412z"/><path d="m6.01764706 26.8205882 18.53823534-10.7088235.4205882.7764706 11.8088235-6.8264706-.8735294-.51764705-.8411765-.48529412-.4529411-.25882353-34.6176471 19.9941176v.4852942l5.56470588-3.2029412z"/><path d="m38.1117647 10.8058824-.4529412-.2588236-37.6588235 21.7735294v.4852942l5.56470588-3.2029412.45294118.7441176 18.53823534-10.7088235.4205882.7441176 13.7823529-7.9264705v-1.0029412-.2588236z"/><path d="m2.39411765 34.9411765 3.10588235-1.7794118.45294118.7441177 18.50588232-10.7088236.4529412.7764706 13.8470588-8.0235294v-1.0029412-1.0029412-.4852941l-36.78529409 21.2235294z"/><path d="m24.4588235 26.7235294.4529412.7764706 13.8470588-8.0235294v-1.0029412-1.0029412-.4852941l-33.74411762 19.4764706.42058824.2588235 3.17058823-1.8441176.45294118.7441176"/><path d="m8.47647059 38.4676471 3.20294121-1.8441177.4205882.7764706 12.3588235-7.15.4529412.7441176 13.8470588-7.9911764v-1.0029412-1.0029412-.517647l-30.70294115 17.7294117z"/><path d="m11.55 40.2147059 3.1705882-1.8117647.4205883.7441176 9.317647-5.3705882.4529412.7441176 13.8470588-7.9911764v-1.0029412-1.0029412-.517647l-27.6617647 15.9823529z"/><path d="m14.1382353 41.7352941.4529412.2588235 3.1705882-1.8441176.4205882.7764706 6.2764706-3.6235294.4529412.7441176 13.8470588-7.9911764v-1.0029412-1.0352941-.4852942z"/><path d="m17.6323529 43.7411765 3.1705883-1.8117647.4529412.7441176 3.2029411-1.8764706.4529412.7764706 13.8470588-7.9911765v-1.0352941-1.0029412-.4852941l-21.5470588 12.4558824z"/><path d="m24.6205882 3.00882353-.8735294-.48529412-.8735294-.51764706-.4529412-.25882353-22.4205882 12.97352938v.4852942l5.56470588-3.2029412.45294118.7441176 6.27647054-3.62352939.4205883.74411765z"/></g><g transform="translate(54.352941 18.441176)"><path d="m0 6.85882353v-6.85882353h6.17941176c.55 0 .97058824.09705882 1.22941177.32352941.25882353.19411765.38823529.55.38823529 1.00294118v1.61764706c0 .45294117-.12941176.80882353-.38823529 1.00294117-.25882353.19411765-.64705882.32352942-1.22941177.32352942h-.93823529l3.26764706 2.58823529h-2.39411765l-2.87941176-2.58823529h-1.58529412v2.58823529zm5.46764706-5.66176471h-3.81764706v1.90882353h3.81764706c.29117647 0 .48529412-.03235294.58235294-.12941176.09705882-.09705883.16176471-.22647059.16176471-.42058824v-.77647059c0-.19411764-.06470589-.35588235-.16176471-.42058823-.09705882-.12941177-.29117647-.16176471-.58235294-.16176471z" fill-rule="nonzero"/><path d="m10.5470588 6.85882353v-6.85882353h7.3441177v1.19705882h-5.6617647v1.4882353h3.3v1.19705882h-3.3v1.68235294h5.7588235v1.29411765z"/><path d="m20.3823529 6.85882353v-6.85882353h6.1470589c.5823529 0 .9705882.09705882 1.2294117.32352941.2588236.19411765.3882353.55.3882353 1.00294118v1.52058823c0 .48529412-.1294117.80882353-.3882353 1.00294118-.2588235.19411765-.6470588.32352941-1.2294117.32352941h-4.5294118v2.68529412zm5.4352942-5.66176471h-3.8176471v1.81176471h3.8176471c.2911764 0 .4852941-.03235294.5823529-.12941177.0970588-.09705882.1617647-.22647058.1617647-.42058823v-.71176471c0-.19411764-.0647059-.35588235-.1617647-.42058823-.0970588-.09705883-.2911765-.12941177-.5823529-.12941177z" fill-rule="nonzero"/><path d="m32.4823529 0v5.56470588h4.7558824v-5.56470588h1.6823529v5.20882353c0 .61470588-.1294117 1.03529412-.3882353 1.26176471-.2588235.22647058-.7117647.35588235-1.4235294.35588235h-4.5294117c-.6794118 0-1.1647059-.09705883-1.4235294-.35588235-.2588236-.22647059-.3558824-.64705883-.3558824-1.29411765v-5.17647059z"/><path d="m41.9941176 6.85882353v-6.85882353h6.1470589c.5823529 0 1.0029411.09705882 1.2294117.32352941.2588236.19411765.3882353.55.3882353 1.00294118v.80882353c0 .32352941-.0970588.58235294-.2911764.77647059-.1941177.19411764-.4852942.32352941-.8735295.38823529.3882353.06470588.6794118.19411765.9058824.45294118.2264706.22647058.3235294.51764706.3235294.87352941v.87352941c0 .45294118-.1617647.77647059-.517647 1.00294118-.3558824.22647058-.8735295.32352941-1.5852942.32352941h-5.7264706zm5.3705883-5.72647059h-3.7529412v1.61764706h3.7529412c.2911765 0 .4852941-.03235294.5823529-.09705882.0970588-.06470589.1617647-.19411765.1617647-.3882353v-.64705882c0-.19411765-.0647059-.29117647-.1617647-.3882353-.0970588-.09705882-.2911764-.09705882-.5823529-.09705882zm0 2.75h-3.7529412v1.74705882h3.7529412c.3235294 0 .517647-.03235294.6470588-.12941176s.1617647-.25882353.1617647-.48529412v-.51764706c0-.22647058-.0647059-.38823529-.1617647-.48529411-.0970588-.09705883-.3235294-.12941177-.6470588-.12941177z" fill-rule="nonzero"/><path d="m52.6382353 6.85882353v-6.85882353h1.6823529v5.56470588h5.3705883v1.29411765z"/><path d="m61.5676471 6.85882353v-6.85882353h1.65v6.85882353z"/><path d="m72.2764706 1.26176471h-4.4970588v4.27058823h4.4970588v-1.45588235l1.6823529.35588235v.80882353c0 .61470588-.1294117 1.03529412-.3558823 1.26176471-.2588236.22647058-.7117647.35588235-1.4235294.35588235h-4.2705883c-.6794117 0-1.1647059-.09705882-1.3911764-.35588235-.2588236-.22647059-.3558824-.64705883-.3558824-1.29411765v-3.59117647c0-.61470588.1294118-1.03529412.3558824-1.26176471.2588235-.22647058.7117647-.35588235 1.4235294-.35588235h4.2058823c.7117647 0 1.1970588.09705882 1.4235294.35588235.2588236.22647059.3558824.64705883.3558824 1.26176471v.67941176l-1.682353.25882353v-1.29411764z"/><g fill-rule="nonzero"><path d="m82.9529412 6.85882353v-6.85882353h6.1794117c.582353 0 .9705883.09705882 1.2294118.32352941.2588235.19411765.3882353.55.3882353 1.00294118v1.52058823c0 .48529412-.1294118.80882353-.3882353 1.00294118s-.6470588.32352941-1.2294118.32352941h-4.5294117v2.68529412zm5.467647-5.66176471h-3.817647v1.81176471h3.817647c.2911765 0 .4852942-.03235294.582353-.12941177.0970588-.09705882.1617647-.22647058.1617647-.42058823v-.71176471c0-.19411764-.0647059-.35588235-.1617647-.42058823-.0970588-.09705883-.2911765-.12941177-.582353-.12941177z"/><path d="m93.1117647 6.85882353v-6.85882353h6.1794118c.55 0 .9705885.09705882 1.2294115.32352941.258824.19411765.388236.55.388236 1.00294118v1.61764706c0 .45294117-.129412.80882353-.388236 1.00294117-.258823.19411765-.6470586.32352942-1.2294115.32352942h-.9382353l3.2676468 2.58823529h-2.3941174l-2.8794118-2.58823529h-1.5852941v2.58823529zm5.4676471-5.66176471h-3.8176471v1.90882353h3.8176471c.2911764 0 .4852941-.03235294.5823529-.12941176.0970588-.09705883.1617647-.22647059.1617647-.42058824v-.77647059c0-.19411764-.0647059-.35588235-.1617647-.42058823-.0970588-.12941177-.2911765-.16176471-.5823529-.16176471z"/><path d="m103.497059 1.61764706c0-.61470588.129412-1.03529412.355882-1.26176471.226471-.22647058.711765-.35588235 1.42353-.35588235h5.305882c.711765 0 1.164706.09705882 1.423529.35588235.226471.22647059.355883.64705883.355883 1.26176471v3.62352941c0 .61470588-.129412 1.06764706-.355883 1.29411765-.258823.22647059-.711764.35588235-1.423529.35588235h-5.305882c-.711765 0-1.164706-.09705882-1.42353-.35588235-.22647-.22647059-.355882-.64705883-.355882-1.29411765zm1.65 3.91470588h5.532353v-4.27058823h-5.532353z"/></g><path d="m119.285294 1.22941176v5.62941177h-1.682353v-5.62941177h-3.3v-1.22941176h8.314706v1.22941176z"/><path d="m124.591176 1.61764706c0-.61470588.129412-1.03529412.355883-1.26176471.22647-.22647058.711765-.35588235 1.423529-.35588235h5.305883c.711764 0 1.164705.09705882 1.423529.35588235.226471.22647059.355882.64705883.355882 1.26176471v3.62352941c0 .61470588-.129411 1.06764706-.355882 1.29411765-.258824.22647059-.711765.35588235-1.423529.35588235h-5.305883c-.711764 0-1.164706-.09705882-1.423529-.35588235-.226471-.22647059-.355883-.64705883-.355883-1.29411765zm1.682353 3.91470588h5.532353v-4.27058823h-5.532353z" fill-rule="nonzero"/><path d="m142.320588 1.26176471h-4.497059v4.27058823h4.497059v-1.45588235l1.682353.35588235v.80882353c0 .61470588-.129412 1.03529412-.355882 1.26176471-.258824.22647058-.711765.35588235-1.42353.35588235h-4.270588c-.679412 0-1.164706-.09705882-1.391176-.35588235-.258824-.22647059-.355883-.64705883-.355883-1.29411765v-3.59117647c0-.61470588.129412-1.03529412.355883-1.26176471.258823-.22647058.711764-.35588235 1.423529-.35588235h4.270588c.711765 0 1.197059.09705882 1.42353.35588235.258823.22647059.355882.64705883.355882 1.26176471v.67941176l-1.682353.25882353v-1.29411764z"/><path d="m146.591176 1.61764706c0-.61470588.129412-1.03529412.355883-1.26176471.22647-.22647058.711765-.35588235 1.423529-.35588235h5.305883c.711764 0 1.164705.09705882 1.423529.35588235.226471.22647059.355882.64705883.355882 1.26176471v3.62352941c0 .61470588-.129411 1.06764706-.355882 1.29411765-.258824.22647059-.711765.35588235-1.423529.35588235h-5.305883c-.711764 0-1.164706-.09705882-1.423529-.35588235-.226471-.22647059-.355883-.64705883-.355883-1.29411765zm1.682353 3.91470588h5.532353v-4.27058823h-5.532353z" fill-rule="nonzero"/><path d="m158.335294 6.85882353v-6.85882353h1.682353v5.56470588h5.370588v1.29411765z"/></g></g></svg>