<?xml version="1.0" encoding="UTF-8"?>
<svg width="99px" height="70px" viewBox="0 0 99 70" version="1.1" xmlns="http://www.w3.org/2000/svg" xmlns:xlink="http://www.w3.org/1999/xlink">
    <!-- Generator: Sketch 52.2 (67145) - http://www.bohemiancoding.com/sketch -->
    <title>Logo</title>
    <desc>Created with Sketch.</desc>
    <g id="Designs" stroke="none" stroke-width="1" fill="none" fill-rule="evenodd">
        <g id="Home" transform="translate(-1151.000000, -4161.000000)" fill="#D4D3D7">
            <g id="JOIN-THE-WBTC-COMMUNITY" transform="translate(0.000000, 3815.000000)">
                <g id="SECTION---JOIN-THE-WBTC-COMMUNITY" transform="translate(130.000000, 85.000000)">
                    <g id="Logo-MakerDao-Copy" transform="translate(960.000000, 246.000000)">
                        <g id="Logo" transform="translate(61.000000, 15.000000)">
                            <path d="M1.6117398,54.2524821 L8.8804386,66.2988964 L8.8937838,66.3123227 L8.8937838,66.325749 C8.913663,66.3463466 8.9315226,66.3688167 8.947125,66.3928805 L9.0004662,66.4465458 L9.053847,66.5024821 C9.0788346,66.5175817 9.101961,66.5355896 9.1227906,66.5561474 C9.1672614,66.583 9.1761714,66.5874622 9.149481,66.5695737 C9.1094454,66.5427211 9.1650438,66.5695737 9.1650438,66.583 L9.189477,66.583 C9.2157714,66.5993347 9.2432538,66.6135578 9.2717658,66.6254701 L9.3384918,66.6523227 C9.3651426,66.6603307 9.3929022,66.6640359 9.420741,66.6635578 C9.4417686,66.6752311 9.465687,66.6806494 9.489645,66.6791753 C9.5415606,66.6970637 9.5978718,66.6970637 9.6497478,66.6791753 C9.6737454,66.6806494 9.6976638,66.6752311 9.7186914,66.6635578 C9.7458174,66.6641952 9.7728246,66.6604104 9.798723,66.6523227 C9.827631,66.6523227 9.8498862,66.6322032 9.8676666,66.6254701 C9.8961786,66.6135578 9.923661,66.5993347 9.9499554,66.583 C9.9855162,66.5651116 9.9988614,66.5606494 9.9877338,66.5695737 C9.9766062,66.5785378 9.9699534,66.583 10.0166418,66.5561474 C10.037115,66.5361474 10.0594494,66.5181793 10.0833678,66.5024821 C10.1029698,66.4849522 10.1215422,66.4662271 10.1389266,66.4465458 L10.1923074,66.3928805 C10.2079098,66.3688167 10.2257694,66.3463466 10.2456486,66.325749 L10.2456486,66.3123227 L10.2589938,66.2988964 L17.5276926,54.2524821 L17.5276926,69.1488566 C17.5216338,69.36551 17.6016654,69.5756295 17.7500466,69.732761 C17.9021106,69.8799721 18.1060506,69.9604502 18.3170394,69.9564263 C18.7640442,69.9576614 19.1273742,69.5941155 19.1286414,69.1443944 L19.1286414,69.1399323 L19.1286414,51.3465857 C19.1551338,50.9734781 18.898407,50.640012 18.532701,50.5725618 C18.1823202,50.4493347 17.795349,50.6062271 17.6277618,50.9394542 L9.5630634,64.3146733 L1.5028002,50.9394542 C1.3343418,50.6059084 0.9466578,50.4490956 0.5955642,50.5725618 C0.230769,50.6410478 -0.0247698,50.9741952 0.0019206,51.3465857 L0.0019206,69.1488566 C-0.0044154,69.3655498 0.0756558,69.5757888 0.224235,69.732761 C0.3817242,69.8813267 0.5909706,69.9616853 0.8068302,69.9564661 C1.0178586,69.9606892 1.2219174,69.8802112 1.373823,69.732761 C1.5222042,69.5756295 1.6022358,69.36551 1.596177,69.1488566 L1.6117398,54.2524821 Z M29.5324722,63.7844741 L33.7994118,53.4382191 L38.0752218,63.786745 L29.5324722,63.7844741 Z M26.4462462,69.9631594 C26.7785694,69.9822829 27.0830142,69.7765857 27.1911222,69.4598127 L28.8698454,65.4130398 L38.7489762,65.4130398 L40.427739,69.4598127 C40.5349758,69.7762271 40.8386286,69.9820438 41.1703974,69.9631594 C41.6185902,69.9580996 41.9778414,69.5884582 41.9727726,69.137502 C41.9716638,69.0371833 41.952141,68.9379004 41.9152734,68.8446733 L40.0252842,64.2900518 L40.0252842,64.2743944 L34.5442878,51.0065458 C34.5265074,50.9618048 34.5042918,50.9126016 34.4776014,50.8588964 C34.4375658,50.7783785 34.459821,50.8588964 34.422003,50.803 L34.3686222,50.7358685 C34.3686222,50.7358685 34.3374966,50.7179801 34.2997182,50.6822032 L34.2463374,50.6396534 C34.1573958,50.5772231 34.055505,50.5359084 33.948387,50.5188566 L33.881661,50.5188566 L33.7994118,50.5166255 L33.7038174,50.5300518 L33.6370914,50.5300518 C33.535359,50.549255 33.4390122,50.59049 33.3547038,50.6508884 L33.299145,50.6933586 L33.232419,50.7470637 L33.1768206,50.8141554 L33.1234398,50.8701315 C33.096789,50.9237968 33.0723162,50.973 33.0545358,51.017741 L27.573579,64.2743944 L27.573579,64.2900518 L25.6924602,68.8379402 C25.6034394,69.0363466 25.6034394,69.2636375 25.6924602,69.4620837 C25.823061,69.7606892 26.1131706,69.9567052 26.4373362,69.9654303 L26.4462462,69.9631594 Z M49.3040394,69.5806096 C49.4643798,69.4364263 49.5537966,69.2287371 49.548609,69.0124422 L49.548609,63.8269841 L51.956685,61.2745139 L59.9613498,69.7193347 C60.2731998,70.0432789 60.7869702,70.0515657 61.1089578,69.7378207 C61.2601902,69.5904104 61.348617,69.3896932 61.3555074,69.1779801 C61.363071,68.9650319 61.2825642,68.7585378 61.1331138,68.6075418 L53.0817606,60.1067849 L60.8640714,51.9035976 C61.016769,51.749255 61.0975134,51.5372231 61.086465,51.3197331 C61.0892766,51.1071434 60.9999786,50.9037968 60.8418558,50.7627211 C60.6854754,50.6138367 60.4767438,50.5333984 60.2615574,50.5390159 C60.0493806,50.5461076 59.8490442,50.6388167 59.7056526,50.7962669 L49.568607,61.4982191 L49.568607,51.2660279 C49.5613602,50.8206892 49.199733,50.4639163 48.7570446,50.4651912 C48.3248898,50.456506 47.9674998,50.8019243 47.9588274,51.2367052 C47.9586294,51.2464661 47.9586294,51.2562669 47.9587878,51.2660279 L47.9587878,69.0146335 C47.9513034,69.2268645 48.0318498,69.4327211 48.1811418,69.5828805 C48.3283746,69.7413267 48.5347698,69.8305299 48.7503918,69.8289363 C48.9659346,69.8335976 49.1728446,69.7437968 49.3173846,69.5828805 L49.3040394,69.5806096 Z M79.1191962,69.9631594 C79.5668346,69.9395737 79.9106418,69.5553904 79.8871986,69.1050717 C79.8654582,68.6877012 79.5340062,68.3542351 79.1191962,68.3323625 L69.1867242,68.3323625 L69.1867242,61.0306892 L76.6155258,61.0306892 C77.062491,61.0304104 77.4246726,60.6656295 77.4243954,60.2159482 C77.4241182,59.7665857 77.0621346,59.4024024 76.6155258,59.4021235 L69.1867242,59.4021235 L69.1867242,52.0937171 L79.1191962,52.1205697 C79.3321254,52.1281394 79.5387582,52.0472231 79.6906242,51.8969044 C79.8472422,51.7436773 79.9347582,51.532761 79.9330158,51.3130398 C79.9329762,51.0975817 79.8454206,50.8915259 79.6906242,50.7425618 C79.5437874,50.5825219 79.3356498,50.4936773 79.1191962,50.4987371 L68.3751222,50.4718845 C68.1583122,50.4612869 67.9485906,50.5511275 67.8059118,50.715749 C67.6475118,50.8620837 67.5592434,51.0698526 67.5635598,51.2861873 L67.5635598,69.1555896 C67.574133,69.6020438 67.9313646,69.9614861 68.3751222,69.9720837 L79.1191962,69.9631594 Z M96.2402958,58.299255 C95.4764118,59.0029602 94.476591,59.3904502 93.4408926,59.3842749 L88.0265826,59.3842749 L88.0265826,52.1206096 L93.3452982,52.1206096 C94.4024598,52.0977012 95.4284166,52.4818048 96.213645,53.1943546 C97.621623,54.3777809 97.8094854,56.4853904 96.6332862,57.9019641 C96.5136942,58.0460279 96.3822222,58.1796534 96.2402958,58.3015259 L96.2402958,58.299255 Z M87.2150202,50.5166255 C87.0035166,50.5134781 86.7991806,50.5937968 86.6458098,50.7403705 C86.4968346,50.8916454 86.416407,51.0979402 86.4234558,51.3108088 L86.4234558,69.0191753 C86.4197334,69.2314064 86.4996858,69.4364661 86.6458098,69.5895737 C86.7991806,69.7361474 87.0035166,69.8163865 87.2150202,69.8132789 C87.4263654,69.8193347 87.6310578,69.7385378 87.7820526,69.5895737 C87.9391458,69.4421633 88.0278498,69.2352709 88.0265826,69.0191753 L88.0265826,61.0016056 L92.5470414,61.0016056 L96.7250394,69.515749 C96.8472846,69.8007689 97.1328402,69.9792151 97.4410074,69.9631594 C97.7830326,69.963 98.0873982,69.744753 98.1992286,69.4195339 C98.2720134,69.2194143 98.2574802,68.9976614 98.159193,68.8088566 L94.301361,60.9188167 C95.5834902,60.7391355 96.763095,60.1149124 97.636671,59.1537968 C99.505989,57.1744343 99.4264722,54.0451514 97.4590254,52.1644741 C97.4187918,52.1260279 97.3779642,52.0882988 97.336503,52.051247 C96.2501958,51.0376215 94.8154482,50.487502 93.3341706,50.5166255 L87.2150202,50.5166255 Z" id="Fill-3"></path>
                            <path d="M43.8319372,45.2869004 C43.3945156,45.2869004 43.0399372,44.9301673 43.0399372,44.4900876 L43.0399372,21.5806454 L17.935042,2.44024701 L17.935042,44.4900876 C17.935042,44.9301673 17.580424,45.2869004 17.143042,45.2869004 C16.7056204,45.2869004 16.351042,44.9301673 16.351042,44.4900876 L16.351042,0.836661355 C16.351042,0.534151394 16.521322,0.257697211 16.790602,0.123075697 C17.059882,-0.0115059761 17.3817112,0.0188924303 17.6213704,0.201601594 L44.3103052,20.5496494 C44.5078696,20.700247 44.6239372,20.9352669 44.6239372,21.1847092 L44.6239372,44.4900876 C44.6239372,44.9301673 44.2693588,45.2869004 43.8319372,45.2869004" id="Fill-5"></path>
                            <path d="M78.7345218,45.2869004 C78.2971002,45.2869004 77.9425218,44.9301673 77.9425218,44.4900876 L77.9425218,2.44024701 L52.8376266,21.5806454 L52.8376266,44.4900876 C52.8376266,44.9301673 52.4830482,45.2869004 52.0456266,45.2869004 C51.608205,45.2869004 51.2536266,44.9301673 51.2536266,44.4900876 L51.2536266,21.1847092 C51.2536266,20.9352669 51.3696942,20.700247 51.5672982,20.5496494 L78.2561934,0.201601594 C78.4957734,0.0188525896 78.8176422,-0.011625498 79.0869222,0.123075697 C79.3562418,0.257697211 79.5265218,0.534151394 79.5265218,0.836661355 L79.5265218,44.4900876 C79.5265218,44.9301673 79.1719434,45.2869004 78.7345218,45.2869004" id="Fill-7"></path>
                            <path d="M1.6117398,54.2524821 L8.8804386,66.2988964 L8.8937838,66.3123227 L8.8937838,66.325749 C8.913663,66.3463466 8.9315226,66.3688167 8.947125,66.3928805 L9.0004662,66.4465458 L9.053847,66.5024821 C9.0788346,66.5175817 9.101961,66.5355896 9.1227906,66.5561474 C9.1672614,66.583 9.1761714,66.5874622 9.149481,66.5695737 C9.1094454,66.5427211 9.1650438,66.5695737 9.1650438,66.583 L9.189477,66.583 C9.2157714,66.5993347 9.2432538,66.6135578 9.2717658,66.6254701 L9.3384918,66.6523227 C9.3651426,66.6603307 9.3929022,66.6640359 9.420741,66.6635578 C9.4417686,66.6752311 9.465687,66.6806494 9.489645,66.6791753 C9.5415606,66.6970637 9.5978718,66.6970637 9.6497478,66.6791753 C9.6737454,66.6806494 9.6976638,66.6752311 9.7186914,66.6635578 C9.7458174,66.6641952 9.7728246,66.6604104 9.798723,66.6523227 C9.827631,66.6523227 9.8498862,66.6322032 9.8676666,66.6254701 C9.8961786,66.6135578 9.923661,66.5993347 9.9499554,66.583 C9.9855162,66.5651116 9.9988614,66.5606494 9.9877338,66.5695737 C9.9766062,66.5785378 9.9699534,66.583 10.0166418,66.5561474 C10.037115,66.5361474 10.0594494,66.5181793 10.0833678,66.5024821 C10.1029698,66.4849522 10.1215422,66.4662271 10.1389266,66.4465458 L10.1923074,66.3928805 C10.2079098,66.3688167 10.2257694,66.3463466 10.2456486,66.325749 L10.2456486,66.3123227 L10.2589938,66.2988964 L17.5276926,54.2524821 L17.5276926,69.1488566 C17.5216338,69.36551 17.6016654,69.5756295 17.7500466,69.732761 C17.9021106,69.8799721 18.1060506,69.9604502 18.3170394,69.9564263 C18.7640442,69.9576614 19.1273742,69.5941155 19.1286414,69.1443944 L19.1286414,69.1399323 L19.1286414,51.3465857 C19.1551338,50.9734781 18.898407,50.640012 18.532701,50.5725618 C18.1823202,50.4493347 17.795349,50.6062271 17.6277618,50.9394542 L9.5630634,64.3146733 L1.5028002,50.9394542 C1.3343418,50.6059084 0.9466578,50.4490956 0.5955642,50.5725618 C0.230769,50.6410478 -0.0247698,50.9741952 0.0019206,51.3465857 L0.0019206,69.1488566 C-0.0044154,69.3655498 0.0756558,69.5757888 0.224235,69.732761 C0.3817242,69.8813267 0.5909706,69.9616853 0.8068302,69.9564661 C1.0178586,69.9606892 1.2219174,69.8802112 1.373823,69.732761 C1.5222042,69.5756295 1.6022358,69.36551 1.596177,69.1488566 L1.6117398,54.2524821 Z M29.5324722,63.7844741 L33.7994118,53.4382191 L38.0752218,63.786745 L29.5324722,63.7844741 Z M26.4462462,69.9631594 C26.7785694,69.9822829 27.0830142,69.7765857 27.1911222,69.4598127 L28.8698454,65.4130398 L38.7489762,65.4130398 L40.427739,69.4598127 C40.5349758,69.7762271 40.8386286,69.9820438 41.1703974,69.9631594 C41.6185902,69.9580996 41.9778414,69.5884582 41.9727726,69.137502 C41.9716638,69.0371833 41.952141,68.9379004 41.9152734,68.8446733 L40.0252842,64.2900518 L40.0252842,64.2743944 L34.5442878,51.0065458 C34.5265074,50.9618048 34.5042918,50.9126016 34.4776014,50.8588964 C34.4375658,50.7783785 34.459821,50.8588964 34.422003,50.803 L34.3686222,50.7358685 C34.3686222,50.7358685 34.3374966,50.7179801 34.2997182,50.6822032 L34.2463374,50.6396534 C34.1573958,50.5772231 34.055505,50.5359084 33.948387,50.5188566 L33.881661,50.5188566 L33.7994118,50.5166255 L33.7038174,50.5300518 L33.6370914,50.5300518 C33.535359,50.549255 33.4390122,50.59049 33.3547038,50.6508884 L33.299145,50.6933586 L33.232419,50.7470637 L33.1768206,50.8141554 L33.1234398,50.8701315 C33.096789,50.9237968 33.0723162,50.973 33.0545358,51.017741 L27.573579,64.2743944 L27.573579,64.2900518 L25.6924602,68.8379402 C25.6034394,69.0363466 25.6034394,69.2636375 25.6924602,69.4620837 C25.823061,69.7606892 26.1131706,69.9567052 26.4373362,69.9654303 L26.4462462,69.9631594 Z M49.3040394,69.5806096 C49.4643798,69.4364263 49.5537966,69.2287371 49.548609,69.0124422 L49.548609,63.8269841 L51.956685,61.2745139 L59.9613498,69.7193347 C60.2731998,70.0432789 60.7869702,70.0515657 61.1089578,69.7378207 C61.2601902,69.5904104 61.348617,69.3896932 61.3555074,69.1779801 C61.363071,68.9650319 61.2825642,68.7585378 61.1331138,68.6075418 L53.0817606,60.1067849 L60.8640714,51.9035976 C61.016769,51.749255 61.0975134,51.5372231 61.086465,51.3197331 C61.0892766,51.1071434 60.9999786,50.9037968 60.8418558,50.7627211 C60.6854754,50.6138367 60.4767438,50.5333984 60.2615574,50.5390159 C60.0493806,50.5461076 59.8490442,50.6388167 59.7056526,50.7962669 L49.568607,61.4982191 L49.568607,51.2660279 C49.5613602,50.8206892 49.199733,50.4639163 48.7570446,50.4651912 C48.3248898,50.456506 47.9674998,50.8019243 47.9588274,51.2367052 C47.9586294,51.2464661 47.9586294,51.2562669 47.9587878,51.2660279 L47.9587878,69.0146335 C47.9513034,69.2268645 48.0318498,69.4327211 48.1811418,69.5828805 C48.3283746,69.7413267 48.5347698,69.8305299 48.7503918,69.8289363 C48.9659346,69.8335976 49.1728446,69.7437968 49.3173846,69.5828805 L49.3040394,69.5806096 Z M79.1191962,69.9631594 C79.5668346,69.9395737 79.9106418,69.5553904 79.8871986,69.1050717 C79.8654582,68.6877012 79.5340062,68.3542351 79.1191962,68.3323625 L69.1867242,68.3323625 L69.1867242,61.0306892 L76.6155258,61.0306892 C77.062491,61.0304104 77.4246726,60.6656295 77.4243954,60.2159482 C77.4241182,59.7665857 77.0621346,59.4024024 76.6155258,59.4021235 L69.1867242,59.4021235 L69.1867242,52.0937171 L79.1191962,52.1205697 C79.3321254,52.1281394 79.5387582,52.0472231 79.6906242,51.8969044 C79.8472422,51.7436773 79.9347582,51.532761 79.9330158,51.3130398 C79.9329762,51.0975817 79.8454206,50.8915259 79.6906242,50.7425618 C79.5437874,50.5825219 79.3356498,50.4936773 79.1191962,50.4987371 L68.3751222,50.4718845 C68.1583122,50.4612869 67.9485906,50.5511275 67.8059118,50.715749 C67.6475118,50.8620837 67.5592434,51.0698526 67.5635598,51.2861873 L67.5635598,69.1555896 C67.574133,69.6020438 67.9313646,69.9614861 68.3751222,69.9720837 L79.1191962,69.9631594 Z M96.2402958,58.299255 C95.4764118,59.0029602 94.476591,59.3904502 93.4408926,59.3842749 L88.0265826,59.3842749 L88.0265826,52.1206096 L93.3452982,52.1206096 C94.4024598,52.0977012 95.4284166,52.4818048 96.213645,53.1943546 C97.621623,54.3777809 97.8094854,56.4853904 96.6332862,57.9019641 C96.5136942,58.0460279 96.3822222,58.1796534 96.2402958,58.3015259 L96.2402958,58.299255 Z M87.2150202,50.5166255 C87.0035166,50.5134781 86.7991806,50.5937968 86.6458098,50.7403705 C86.4968346,50.8916454 86.416407,51.0979402 86.4234558,51.3108088 L86.4234558,69.0191753 C86.4197334,69.2314064 86.4996858,69.4364661 86.6458098,69.5895737 C86.7991806,69.7361474 87.0035166,69.8163865 87.2150202,69.8132789 C87.4263654,69.8193347 87.6310578,69.7385378 87.7820526,69.5895737 C87.9391458,69.4421633 88.0278498,69.2352709 88.0265826,69.0191753 L88.0265826,61.0016056 L92.5470414,61.0016056 L96.7250394,69.515749 C96.8472846,69.8007689 97.1328402,69.9792151 97.4410074,69.9631594 C97.7830326,69.963 98.0873982,69.744753 98.1992286,69.4195339 C98.2720134,69.2194143 98.2574802,68.9976614 98.159193,68.8088566 L94.301361,60.9188167 C95.5834902,60.7391355 96.763095,60.1149124 97.636671,59.1537968 C99.505989,57.1744343 99.4264722,54.0451514 97.4590254,52.1644741 C97.4187918,52.1260279 97.3779642,52.0882988 97.336503,52.051247 C96.2501958,51.0376215 94.8154482,50.487502 93.3341706,50.5166255 L87.2150202,50.5166255 Z" id="Fill-10"></path>
                        </g>
                    </g>
                </g>
            </g>
        </g>
    </g>
</svg>