<svg height="41" viewBox="0 0 198 41" width="198" xmlns="http://www.w3.org/2000/svg"><g fill="#282138" fill-rule="evenodd"><path d="m56.0243718 34.0603071c-1.3526118.6147891-2.9109883.9225703-4.6751294.9225703-1.6065177 0-3.0919059-.2629287-4.4538353-.7903326-1.3627059-.527404-2.5429412-1.2744308-3.5430353-2.240307-.9993177-.9666495-1.783553-2.1235356-2.3519294-3.4698851-.569153-1.3471228-.8525648-2.8303498-.8525648-4.4512277 0-1.6587706.2888471-3.1621039.8673177-4.5092267.5776941-1.3471228 1.3766823-2.4931824 2.3961882-3.440499 1.0187294-.9473165 2.2144941-1.6734636 3.5865177-2.1815346 1.3720235-.5072977 2.8519764-.7617198 4.4398588-.7617198 1.4698588 0 2.9156471.2590621 4.3373647.7764129 1.4201647.5173508 2.5724471 1.2736574 3.4537412 2.2689197l-3.4102588 3.3964198c-.4705412-.6434019-1.0878353-1.1220868-1.8518824-1.4345079-.7648235-.3116478-1.5490588-.4686317-2.3519294-.4686317-.8820706 0-1.6911529.1608505-2.4256941.4833248-.7353177.3224743-1.3673647.7663597-1.8969177 1.3324297-.5287764.5668433-.9410823 1.2349914-1.2345882 2.0059911-.2942824.7709996-.4410353 1.6154646-.4410353 2.5326217 0 .9372634.1467529 1.7964215.4410353 2.576701.2935059.7810528.7003765 1.4492009 1.2198353 2.005991.5194588.5567902 1.1421882.9913958 1.8674118 1.3038169.724447.3116478 1.5187764.4678584 2.3814352.4678584.9993177 0 1.8712942-.1948766 2.6167059-.5861763.7446353-.3897531 1.3425177-.8970507 1.7936471-1.5226663l3.4987765 3.2804218c-.9216706 1.0540346-2.0584236 1.8876732-3.4110353 2.5032356"/><path d="m73.0676682 27.076999c0-.4686317-.0792-.9272102-.2352706-1.3765089-.156847-.4485254-.3820235-.8436917-.6763058-1.185499-.2942824-.3418073-.6568942-.6202023-1.0878353-.8351852-.4317177-.2142095-.9309883-.321701-1.4993647-.321701-.569153 0-1.0684236.1074915-1.4993647.321701-.4317177.2149829-.7896706.4933779-1.0730824.8351852-.2849647.3418073-.5000471.7369736-.6475765 1.185499-.1467529.4492987-.2205176.9078772-.2205176 1.3765089 0 .4678583.0737647.9272102.2205176 1.3757356.1475294.4492987.3680471.8545181.661553 1.2156584.2942823.3611403.6568941.6488152 1.0886117.863798.4301647.2149829.9302118.321701 1.4993647.321701.5683765 0 1.0676471-.1067181 1.4993648-.321701.4309411-.2149828.7935529-.5026577 1.0878352-.863798.2942824-.3611403.5140236-.7663597.661553-1.2156584.1467529-.4485254.2205176-.9078773.2205176-1.3757356m4.6448471 0c0 1.1909122-.2158588 2.2689197-.6468 3.2355692-.4309412.9658762-1.0195059 1.785595-1.7641412 2.4591564-.7446353.6727881-1.6065176 1.1955521-2.5872 1.5675189-.9799059.3696468-2.0281412.5552435-3.1454823.5552435-1.0979294 0-2.1422824-.1855967-3.1315059-.5552435-.99-.3719668-1.8518824-.8947308-2.5872-1.5675189-.7353177-.6735614-1.3184471-1.4932802-1.7493883-2.4591564-.4317176-.9666495-.6468-2.044657-.6468-3.2355692s.2150824-2.2650532.6468-3.2216495c.4309412-.9558231 1.0140706-1.7662621 1.7493883-2.4305436.7353176-.6627349 1.5972-1.1708059 2.5872-1.521893.9892235-.3510871 2.0335765-.527404 3.1315059-.527404 1.1173411 0 2.1655764.1763169 3.1454823.527404.9806824.3510871 1.8425647.8591581 2.5872 1.521893.7446353.6642815 1.3332 1.4747205 1.7641412 2.4305436.4309412.9565963.6468 2.0307373.6468 3.2216495"/><path d="m99.4695318 34.4265513v-7.9651921c0-.4090861-.0295059-.8050257-.0877412-1.1854989-.0590118-.3804733-.1669412-.7068142-.3237882-.9813426-.1568471-.2729819-.3672706-.4926046-.6320471-.6588684-.2647765-.1654903-.6126353-.2482355-1.0435765-.2482355-.4115294 0-.7694823.0873851-1.0730823.2629286-.3043765.1763169-.5590589.4106327-.7648236.7037209-.2057647.2923148-.3579529.6287088-.4557882 1.0091821-.0978353.3804732-.1467529.7764129-.1467529 1.1854989v7.877807h-4.8218824v-8.3162792c0-.8390518-.1661647-1.50256-.500047-1.991298-.3331059-.4871913-.8626589-.7315603-1.5871059-.7315603-.7648236 0-1.3580471.3023679-1.7796706.9071039-.4208471.6055092-.6312706 1.3471227-.6312706 2.2256138v7.9064198h-4.8513882v-14.582488h4.6743529v2.0206841h.0590118c.1762588-.3116478.3967764-.6147891.6615529-.9078772s.5831294-.5513769.9558353-.7756396c.3719294-.225036.7881176-.4052195 1.2493412-.542097.460447-.1368776.9651529-.205703 1.5141176-.205703 1.0591059 0 1.955153.2157561 2.6904706.6449485.7345412.4299657 1.308353 1.0447548 1.7198824 1.8443673.4899529-.7609465 1.1173411-1.3664558 1.8813882-1.8149811.7648235-.4492987 1.6950353-.6743347 2.7929647-.6743347 1.0000941 0 1.8379063.1817301 2.5142113.542097.676306.3611403 1.219836.8305453 1.631365 1.4058951.412306.5761231.710471 1.2202983.8976 1.9325257.185577.7130007.278753 1.410535.278753 2.0933762v9.0192267z"/><path d="m137.519231 27.076999c0-.4686317-.078424-.9272102-.235271-1.3765089-.156847-.4485254-.382024-.8436917-.676306-1.185499-.293506-.3418073-.656894-.6202023-1.087835-.8351852-.431718-.2142095-.930988-.321701-1.499365-.321701-.569153 0-1.068423.1074915-1.499365.321701-.431717.2149829-.788894.4933779-1.073082.8351852s-.500047.7369736-.6468 1.185499c-.147529.4492987-.221294.9078772-.221294 1.3765089 0 .4678583.073765.9272102.221294 1.3757356.146753.4492987.367271.8545181.661553 1.2156584.293506.3611403.656118.6488152 1.087835.863798.430941.2149829.930212.321701 1.499365.321701.568376 0 1.068424-.1067181 1.499365-.321701.430941-.2149828.793553-.5026577 1.087835-.863798s.5148-.7663597.661553-1.2156584c.146753-.4485254.220518-.9078773.220518-1.3757356m4.644847 0c0 1.1909122-.215083 2.2689197-.646024 3.2355692-.431718.9658762-1.020282 1.785595-1.764141 2.4591564-.745412.6727881-1.608071 1.1955521-2.587977 1.5675189-.979905.3696468-2.028141.5552435-3.145482.5552435-1.097929 0-2.142282-.1855967-3.131506-.5552435-.99-.3719668-1.851882-.8947308-2.5872-1.5675189-.734541-.6735614-1.31767-1.4932802-1.749388-2.4591564-.430941-.9666495-.6468-2.044657-.6468-3.2355692s.215859-2.2650532.6468-3.2216495c.431718-.9558231 1.014847-1.7662621 1.749388-2.4305436.735318-.6627349 1.5972-1.1708059 2.5872-1.521893.989224-.3510871 2.033577-.527404 3.131506-.527404 1.117341 0 2.165577.1763169 3.145482.527404.979906.3510871 1.842565.8591581 2.587977 1.521893.743859.6642815 1.332423 1.4747205 1.764141 2.4305436.430941.9565963.646024 2.0307373.646024 3.2216495"/><path d="m154.865506 34.4265513v-2.0199109h-.059012c-.177035.3309808-.40687.643402-.691059.9364901-.284188.2930881-.617294.546737-.999317.7609465-.3828.2149828-.804424.3905264-1.264094.527404-.461224.1361042-.946518.2041563-1.455883.2041563-.979906 0-1.807623-.1747702-2.484706-.5266306-.675529-.3503138-1.224494-.8042524-1.646117-1.3610425-.421624-.5567902-.725224-1.1909122-.911577-1.9039129-.186353-.7122274-.278753-1.4383745-.278753-2.1807613v-9.0192267h4.850612v7.9056464c0 .4098594.029506.8003858.088518 1.1715792.059011.3704201.1716.7029476.338541.9960357.166165.2923148.385906.522764.661553.6882544.274094.1647171.635929.2482356 1.087059.2482356.84247 0 1.484611-.3116478 1.926423-.93649.440259-.6256156.661553-1.3571759.661553-2.197001v-7.8762603h4.821882v14.582488z"/><path d="m173.5008 34.4265513v-7.9651921c0-.4090861-.034165-.8003858-.102494-1.1700326-.069106-.3719667-.181694-.6990809-.338541-.9821159-.157624-.2822616-.377365-.5072976-.661553-.6735614-.284188-.1654903-.641365-.2482355-1.073083-.2482355-.430941 0-.807529.0827452-1.131317.2482355-.323788.1662638-.593224.3959397-.809083.6890278-.215858.2915415-.377364.6287089-.485294 1.0091821-.107153.3804733-.161506.7764129-.161506 1.1862723v7.9064198h-4.850611v-14.582488h4.674353v2.0206841h.059011c.176259-.3116478.406094-.6202023.690283-.9225703.284188-.3023679.617294-.5606567 1.000094-.7756395.382023-.2149829.798212-.3905265 1.249341-.527404.451129-.1368776.930988-.205703 1.441129-.205703.979906 0 1.812283.1763168 2.498683.5274039.685623.3518605 1.240023.8057991 1.661647 1.3618159.420847.5560168.724447 1.1963254.911576 1.9178326.185577.7230539.27953 1.4445611.27953 2.1668416v9.0192267z"/><path d="m118.717151 28.4680463c-.146753.4585785-.362612.8630247-.6468 1.2141118-.284189.3510871-.642142.6356687-1.073083.8498783-.431717.2149828-.930988.3217009-1.499364.3217009-.548965 0-1.038918-.1067181-1.469859-.3217009-.431718-.2142096-.798989-.4987912-1.102589-.8498783-.304376-.3510871-.539647-.7508934-.705811-1.1994187-.166941-.4492987-.250024-.9086506-.250024-1.3772823 0-.4678583.083083-.9264369.250024-1.3757356.166164-.4492987.401435-.8498782.705811-1.2009653.3036-.3510871.670871-.6341221 1.102589-.8483316.430941-.2149829.920894-.321701 1.469859-.321701.568376 0 1.067647.1067181 1.499364.321701.430941.2142095.788894.4926045 1.073083.8344118.284188.3418073.500047.7369736.6468 1.185499.146753.4492987.220517.9078772.220517 1.3765089s-.073764.9318501-.220517 1.391202m4.410353-4.3050703c-.323789-.9272102-.784236-1.7415158-1.382118-2.4452366-.597882-.7029476-1.328541-1.2589644-2.190424-1.6695971-.862658-.4090861-1.822376-.6147891-2.880706-.6147891-1.078517 0-2.014164.2203961-2.808494.6596417-.793553.4384722-1.415506.9511831-1.866635 1.5373594h-.088518v-1.7863684h-4.586611v20.5177161l4.821882-.4206859v-7.1253669h.059012c.451129.6256155 1.077741 1.1174468 1.882164 1.4785871.802871.3611402 1.655436.5413237 2.557695.5413237 1.097153 0 2.077058-.2142095 2.939717-.6434019s1.591765-1.0006756 2.190424-1.712903c.597882-.7122273 1.052894-1.5373594 1.367364-2.4746227.312918-.9372634.470542-1.9124194.470542-2.9277881 0-1.0153686-.161506-1.9858848-.485294-2.9138683"/><path d="m192.655475 28.48243c-.166164.4485254-.402211.849105-.705035 1.2001921-.304376.3510871-.671647.6348954-1.103365.8491049-.430941.2157562-.920894.321701-1.469859.321701-.569152 0-1.068423-.1059448-1.499364-.321701-.430941-.2142095-.793553-.4980178-1.087836-.8491049-.294282-.3510871-.5148-.7563066-.661552-1.2148851-.146753-.4585786-.220518-.9225703-.220518-1.3904287 0-.469405.073765-.9279835.220518-1.3772822.146752-.4485254.36727-.8429184.661552-1.185499.294283-.341034.656895-.6202023 1.087836-.8344119.430941-.2142095.930212-.3217009 1.499364-.3217009.548965 0 1.038918.1074914 1.469859.3217009.431718.2142096.798989.4980179 1.103365.849105.302824.3510871.538871.7508933.705035 1.200192.166165.4492987.250024.9078772.250024 1.3765089 0 .4678584-.083859.9279836-.250024 1.3765089zm.044259-14.4533436v7.3666427h-.059012c-.411529-.4871914-.989223-.9372634-1.733858-1.3471228-.745412-.4098594-1.657765-.6147891-2.73473-.6147891-1.059106 0-2.014165.2049297-2.866729.6147891-.852565.4098594-1.578565.9666495-2.175671 1.6695971-.598659.7029475-1.058329 1.5180264-1.382118 2.4444633-.323011.9279835-.484517 1.8984996-.484517 2.9146416 0 1.0145953.15607 1.9905247.469765 2.9277881.312917.9372633.769482 1.761622 1.367364 2.4738494.597106.7130007 1.326988 1.2837106 2.190424 1.7136763.861882.4284191 1.841788.6434019 2.939717.6434019.979906 0 1.906236-.2002898 2.778989-.600096.8712-.3998063 1.542847-.9705161 2.014164-1.712903h.058236v1.9039129h4.439858v-20.8185374z"/><path d="m17.2398988.01382836v10.81487484h3.0181412.8176235v.8150789 23.1678823h7.8912706v-34.79783604z"/><path d="m0 34.8117418h11.7270353v-11.5835546h-11.7270353z"/><path d="m8.53077176 11.6438594v10.769249h3.19595294.8184v.8143055 11.5843279h7.7126824v-23.1678824z"/></g></svg>