<svg height="45" viewBox="0 0 169 45" width="169" xmlns="http://www.w3.org/2000/svg"><g fill="#282138" fill-rule="evenodd"><path d="m123.098719 22.6508603v-3.8578677c-.000221-2.0161764-.021594-2.0406617-2.013678-2.24625-.182441-.0189705-.365763-.0302205-.548865-.0405882-2.657068-.1517647-3.83522.589853-4.168593 3.2422059-.285119 2.2698529-.299661 4.6219853-.056847 6.8973529.270576 2.5345589 2.016762 3.4451471 4.471779 2.6660294.554153-.1758088 1.131882-.3955147 1.580492-.74625.341966-.2673529.681508-.765.702661-1.1766176.080864-1.5756618.03261-3.1581618.033051-4.7380147zm6.234712 11.7769853h-5.763187c-.050898-.5439706-.096949-1.03875-.159305-1.7093382-.469102.2534558-.849627.433897-1.204814.6555882-2.045627 1.2774265-4.236678 1.7452941-6.633745 1.3398529-2.464272-.4169117-4.24439-1.7534559-5.061187-4.0685294-1.666424-4.7234559-1.792678-9.5433088.050899-14.2292647 1.775271-4.5134559 6.361406-6.1991912 11.423694-4.45875.307814.1058824.606373.2386765 1.112933.439853v-5.33382358-5.27955882c2.079118-.44272059 4.111084-.87529412 6.234712-1.3275z"/><path d="m66.2548085 1.79569853c2.0493729-.44382353 4.0487288-.87683824 6.2230339-1.34779412v13.31801469c.8906101-.4275 1.5732203-.7566176 2.2571525-1.0833088 1.9484576-.9304412 3.9544237-1.5123529 6.160017-1.275 2.7529152.2964706 4.3223898 1.7534559 4.4374067 4.5363971.1258136 3.0452205.088356 18.4632352.088356 18.4632352h-6.2704068s.0030847-10.5617647-.0019831-15.2655882c-.0017627-1.7521323-.3247796-2.0530147-2.0775762-1.9786765-.3666441.0156618-.7359322.0249265-1.0977288.079853-1.2587966.19125-2.9723729.4630147-3.4855424.7383088-.0808644.6198529.0330508 16.6014706.0330508 16.6014706l-6.2657796-.0227206z"/><path d="m162.0008 19.9023529c-.035254-.3628676-.128237-.7230882-.225847-1.0760294-.485628-1.7523529-1.45578-2.4496323-3.410848-2.4672794-2.049813-.0183088-3.14578.6496324-3.557593 2.4119118-.677763 2.8991912-.680848 5.835.001542 8.7344117.410712 1.7439706 1.466136 2.4075 3.442136 2.408603 2.050254.0011029 3.115813-.6688235 3.509779-2.4586765m6.661289-.1120588c-1.008492 4.49625-4.134221 7.1883088-8.746356 7.4655882-1.522983.0913236-3.101271.0308824-4.592305-.2693382-3.470119-.6983824-5.714272-2.8850735-6.690594-6.2777206-.94305-3.2783823-.973017-6.5995588-.057288-9.89625 1.122407-4.0427206 4.033966-6.5013971 8.202339-6.8556618 1.379763-.1171323 2.808441-.1447058 4.167712.0767647 4.542068.7396324 7.206407 3.5543383 7.914136 8.2074265.322135 2.1979412.457423 5.0428677-.197644 7.5491912"/><path d="m28.5815797 34.8812426v-20.0002941h-5.4317966v5.1152206c.4065254.0394853.8280338.0802941 1.3310677.1290441v4.5041912c-1.1285762 0-2.2291694.0955147-3.3061864-.0229412-1.4894915-.163897-2.5136271-1.2767647-2.678-2.7825-.0835085-.7636764-.0561864-1.5410294-.0568475-2.3122058-.0039661-5.183603-.0028644-10.36698534-.001983-15.55058828.000661-3.21 1.1869661-4.24455883 4.5715932-3.86272059v10.19669117c2.0251356 0 3.9244576-.0044118 5.8237797.0026471.5867627.0022058 1.1803559-.0136765 1.7589661.0648529 1.5527288.2106618 2.5515254 1.4545588 2.5565932 3.2051471.0141017 5.0364706.0055085 10.0731617.0057288 15.1096323 0 .9926471.0079322 1.9852941-.001983 2.9777206-.0218136 2.16-1.0911187 3.2086765-3.2782034 3.2256618-.3935254.0030882-.7868305.0004411-1.2927288.0004411"/><path d="m46.8806881 20.1439412v-15.51816179h-19.7738813v-4.56529412c.3699491-.0205147.7227118-.05691176 1.0756949-.05713235 6.5350339-.00330882 13.0700678-.00485294 19.605322-.00110294 2.5167119.00132353 3.6931017 1.17573529 3.6972882 3.71889706.0096949 5.84404412.0090339 11.68830884.0004406 17.53235294-.0037457 2.4383824-1.0439661 3.4506618-3.5073559 3.4526471-3.5558305.002647-7.1118813.0006617-10.739322.0006617v-4.5628676z"/><path d="m24.3810373 30.4057059v4.4225735c-.3847119.01875-.7398983.0507353-1.0953051.0509559-6.5365763.0030882-13.0733729.0057353-19.60994915.0002206-2.52618644-.0022059-3.66754237-1.1580883-3.67062712-3.7246324-.00705085-5.80875-.00683051-11.6175.00044068-17.42625.00286441-2.458897 1.02876271-3.495 3.471-3.5038235 3.2680678-.0121324 6.53679659.0220588 9.80464409-.0207353.820983-.0108088 1.107644.225 1.0596101 1.0575-.065 1.1289706-.0160847 2.2645588-.0160847 3.5234559h-9.70438983c-.02555932.4795588-.06125424.8366912-.06147458 1.1936029-.00374576 4.4117647.02181356 8.82375-.02247457 13.234853-.00925424.913897.24810169 1.1834559 1.16823729 1.1748529 6.09457629-.0566912 12.18959319-.0573529 18.28461019-.0723529.1051017-.0004412.2102034.0467647.3917627.0897794"/><path d="m139.357973 34.5598235h-1.247119-4.925678v-22.7038235h6.123221c.033491.68625.064559 1.3310294.115457 2.3766176 1.967627-1.9522058 3.884136-3.5179411 6.728051-2.432647-.095407 1.9330147-.192356 3.9006618-.295254 5.9847794-1.807-.3280147-3.521898-.3613235-5.205509.3527206-.96905.4109559-1.342084.9489706-1.323356 2.0490441.073373 4.3354412.030187 8.6730882.030187 13.0100735z"/><path d="m102.500461 11.6979265-4.4413729 13.2930882-4.4620847-13.2258088-6.1254237-.04125 7.6010339 22.7975735-3.4928136 10.2736765 6.8479153-1.5754412c3.1803727-9.7076471 10.3156097-31.5 10.3156097-31.5z"/></g></svg>