<svg height="60" viewBox="0 0 300 60" width="300" xmlns="http://www.w3.org/2000/svg"><g fill-rule="evenodd"><g><path d="m8.20588235 12.5735294 4.36764705-2.5147059.6176471 1.0147059 16.1911764-9.35294116-1.1911764-.70588236-1.1911765-.6617647-.5735294-.35294118-26.4264706 15.2647059v.6617647l7.58823529-4.3676471z"/><path d="m8.20588235 22.1911765 12.70588235-7.3235294.5735294 1.0147058 16.2352941-9.35294114-1.1911764-.70588235-1.1911765-.6617647-.5735294-.35294118-34.7647059 20.02941177v.7058823l7.58823529-4.367647z"/><path d="m8.20588235 27 16.85294115-9.75.5735294 1.0147059 16.2352942-9.35294119-1.1911765-.66176471-1.1911765-.70588235-.5735294-.35294118-38.9117647 22.45588233v.7058824l7.58823529-4.4117647z"/><path d="m8.20588235 31.7647059 21.13235295-12.1764706.5735294 1.0147059 16.1029412-9.3088236-1.1911765-.6617647-1.1911765-.70588231-.5735294-.30882353-43.0588235 24.83823534v.6617647l7.58823529-4.3676471z"/><path d="m8.20588235 36.5735294 25.27941175-14.6029412.5735294 1.0588236 16.1029412-9.3088236-1.1911765-.7058823-1.1470588-.6617647-.617647-.3529412-47.2058824 27.2647059v.6617647l7.58823529-4.3676471z"/><path d="m51.9705882 14.7352941-.617647-.3529412-51.3529412 29.6911765v.6617647l7.58823529-4.367647.61764706 1.0147058 25.27941175-14.6029411.5735294 1.0147058 18.7941177-10.8088235v-1.367647-.3529412z"/><path d="m3.26470588 47.6470588 4.23529412-2.4264706.61764706 1.0147059 25.23529414-14.6029412.617647 1.0588236 18.882353-10.9411765v-1.3676471-1.367647-.6617647l-50.16176473 28.9411764z"/><path d="m33.3529412 36.4411765.617647 1.0588235 18.882353-10.9411765v-1.367647-1.3676471-.6617647l-46.01470591 26.5588235.57352942.3529412 4.32352939-2.5147059.6176471 1.0147059"/><path d="m11.5588235 52.4558824 4.3676471-2.5147059.5735294 1.0588235 16.8529412-9.75.617647 1.0147059 18.882353-10.8970588v-1.3676471-1.3676471-.7058823l-41.8676471 24.1764706z"/><path d="m15.75 54.8382353 4.3235294-2.4705882.5735294 1.0147058 12.7058824-7.3235294.617647 1.0147059 18.882353-10.8970588v-1.3676471-1.367647-.7058824l-37.7205883 21.7941177z"/><path d="m19.2794118 56.9117647.617647.3529412 4.3235294-2.5147059.5735294 1.0588235 8.5588236-4.9411764.617647 1.0147058 18.882353-10.8970588v-1.367647-1.4117647-.6617648z"/><path d="m24.0441176 59.6470588 4.3235295-2.4705882.617647 1.0147059 4.3676471-2.5588236.617647 1.0588236 18.882353-10.8970589v-1.4117647-1.367647-.6617647l-29.382353 16.9852941z"/><path d="m33.5735294 4.10294118-1.1911765-.66176471-1.1911764-.70588235-.6176471-.35294118-30.5735294 17.69117646v.6617647l7.58823529-4.367647.61764706 1.0147058 8.55882355-4.9411764.5735294 1.0147059z"/></g><g transform="translate(74.117647 25.147059)"><path d="m0 9.35294118v-9.35294118h8.42647059c.75 0 1.32352941.13235294 1.67647061.44117647.3529412.26470588.5294117.75.5294117 1.36764706v2.20588235c0 .61764706-.1764705 1.10294118-.5294117 1.36764706s-.88235296.44117647-1.67647061.44117647h-1.27941177l4.45588238 3.52941177h-3.26470591l-3.92647058-3.52941177h-2.16176471v3.52941177zm7.45588235-7.72058824h-5.20588235v2.60294118h5.20588235c.39705883 0 .66176471-.04411765.79411765-.17647059s.22058824-.30882353.22058824-.57352941v-1.05882353c0-.26470588-.0882353-.48529412-.22058824-.57352941-.13235294-.17647059-.39705882-.22058824-.79411765-.22058824z" fill-rule="nonzero"/><path d="m14.3823529 9.35294118v-9.35294118h10.0147059v1.63235294h-7.7205882v2.02941177h4.5v1.63235294h-4.5v2.29411764h7.8529412v1.76470589z"/><path d="m27.7941176 9.35294118v-9.35294118h8.382353c.7941176 0 1.3235294.13235294 1.6764706.44117647.3529412.26470588.5294117.75.5294117 1.36764706v2.07352941c0 .66176471-.1764705 1.10294118-.5294117 1.36764706s-.882353.44117647-1.6764706.44117647h-6.1764706v3.66176471zm7.4117648-7.72058824h-5.2058824v2.47058824h5.2058824c.3970588 0 .6617647-.04411765.7941176-.17647059s.2205882-.30882353.2205882-.57352941v-.97058824c0-.26470588-.0882353-.48529412-.2205882-.57352941-.1323529-.13235294-.3970588-.17647059-.7941176-.17647059z" fill-rule="nonzero"/><path d="m44.2941176 0v7.58823529h6.4852942v-7.58823529h2.2941176v7.10294118c0 .83823529-.1764706 1.4117647-.5294118 1.72058823-.3529411.30882353-.9705882.48529412-1.9411764.48529412h-6.1764706c-.9264706 0-1.5882353-.13235294-1.9411765-.48529412-.3529412-.30882353-.4852941-.88235294-.4852941-1.76470588v-7.05882353z"/><path d="m57.2647059 9.35294118v-9.35294118h8.3823529c.7941177 0 1.3676471.13235294 1.6764706.44117647.3529412.26470588.5294118.75.5294118 1.36764706v1.10294118c0 .44117647-.132353.79411764-.3970588 1.05882353-.2647059.26470588-.6617648.44117647-1.1911765.52941176.5294117.08823529.9264706.26470588 1.2352941.61764706.3088235.30882353.4411765.70588235.4411765 1.19117647v1.19117647c0 .61764706-.2205883 1.05882353-.7058824 1.36764706s-1.1911765.44117647-2.1617647.44117647h-7.8088235zm7.3235294-7.80882353h-5.1176471v2.20588235h5.1176471c.3970588 0 .6617647-.04411765.7941176-.13235294.132353-.0882353.2205883-.26470588.2205883-.52941177v-.88235294c0-.26470588-.0882353-.39705882-.2205883-.52941176-.1323529-.13235294-.3970588-.13235294-.7941176-.13235294zm0 3.75h-5.1176471v2.38235294h5.1176471c.4411765 0 .7058823-.04411765.8823529-.17647059s.2205883-.35294118.2205883-.66176471v-.70588235c0-.30882353-.0882353-.52941176-.2205883-.6617647-.1323529-.13235295-.4411764-.17647059-.8823529-.17647059z" fill-rule="nonzero"/><path d="m71.7794118 9.35294118v-9.35294118h2.2941176v7.58823529h7.3235294v1.76470589z"/><path d="m83.9558824 9.35294118v-9.35294118h2.25v9.35294118z"/><path d="m98.5588235 1.72058824h-6.1323529v5.82352941h6.1323529v-1.98529412l2.2941175.48529412v1.10294117c0 .8382353-.17647 1.41176471-.485294 1.72058824-.352941.30882353-.9705882.48529412-1.9411764.48529412h-5.8235294c-.9264706 0-1.5882353-.13235294-1.8970588-.48529412-.3529412-.30882353-.4852942-.88235294-.4852942-1.76470588v-4.89705883c0-.83823529.1764706-1.4117647.4852942-1.72058823.3529411-.30882353.9705882-.48529412 1.9411764-.48529412h5.7352941c.9705883 0 1.6323531.13235294 1.9411761.48529412.352942.30882353.485295.88235294.485295 1.72058823v.92647059l-2.2941181.35294118v-1.76470588z"/><g fill-rule="nonzero"><path d="m113.117647 9.35294118v-9.35294118h8.426471c.794117 0 1.323529.13235294 1.67647.44117647.352941.26470588.529412.75.529412 1.36764706v2.07352941c0 .66176471-.176471 1.10294118-.529412 1.36764706s-.882353.44117647-1.67647.44117647h-6.176471v3.66176471zm7.455882-7.72058824h-5.205882v2.47058824h5.205882c.397059 0 .661765-.04411765.794118-.17647059s.220588-.30882353.220588-.57352941v-.97058824c0-.26470588-.088235-.48529412-.220588-.57352941-.132353-.13235294-.397059-.17647059-.794118-.17647059z"/><path d="m126.970588 9.35294118v-9.35294118h8.426471c.75 0 1.323529.13235294 1.67647.44117647.352942.26470588.529412.75.529412 1.36764706v2.20588235c0 .61764706-.17647 1.10294118-.529412 1.36764706-.352941.26470588-.882353.44117647-1.67647.44117647h-1.279412l4.455882 3.52941177h-3.264705l-3.926471-3.52941177h-2.161765v3.52941177zm7.455883-7.72058824h-5.205883v2.60294118h5.205883c.397058 0 .661764-.04411765.794117-.17647059s.220588-.30882353.220588-.57352941v-1.05882353c0-.26470588-.088235-.48529412-.220588-.57352941-.132353-.17647059-.397059-.22058824-.794117-.22058824z"/><path d="m141.132353 2.20588235c0-.83823529.176471-1.4117647.485294-1.72058823.308824-.30882353.970588-.48529412 1.941177-.48529412h7.235294c.970588 0 1.588235.13235294 1.941176.48529412.308824.30882353.485294.88235294.485294 1.72058823v4.94117647c0 .8382353-.17647 1.45588236-.485294 1.76470589-.352941.30882353-.970588.48529411-1.941176.48529411h-7.235294c-.970589 0-1.588236-.13235294-1.941177-.48529411-.308823-.30882353-.485294-.88235295-.485294-1.76470589zm2.25 5.3382353h7.544118v-5.82352941h-7.544118z"/></g><path d="m162.661765 1.67647059v7.67647059h-2.294118v-7.67647059h-4.5v-1.67647059h11.338235v1.67647059z"/><path d="m169.897059 2.20588235c0-.83823529.17647-1.4117647.485294-1.72058823.308823-.30882353.970588-.48529412 1.941176-.48529412h7.235295c.970588 0 1.588235.13235294 1.941176.48529412.308824.30882353.485294.88235294.485294 1.72058823v4.94117647c0 .8382353-.17647 1.45588236-.485294 1.76470589-.352941.30882353-.970588.48529411-1.941176.48529411h-7.235295c-.970588 0-1.588235-.13235294-1.941176-.48529411-.308824-.30882353-.485294-.88235295-.485294-1.76470589zm2.294117 5.3382353h7.544118v-5.82352941h-7.544118z" fill-rule="nonzero"/><path d="m194.073529 1.72058824h-6.132353v5.82352941h6.132353v-1.98529412l2.294118.48529412v1.10294117c0 .8382353-.176471 1.41176471-.485294 1.72058824-.352941.30882353-.970588.48529412-1.941177.48529412h-5.823529c-.926471 0-1.588235-.13235294-1.897059-.48529412-.352941-.30882353-.485294-.88235294-.485294-1.76470588v-4.89705883c0-.83823529.176471-1.4117647.485294-1.72058823.352941-.30882353.970588-.48529412 1.941177-.48529412h5.823529c.970588 0 1.632353.13235294 1.941177.48529412.352941.30882353.485294.88235294.485294 1.72058823v.92647059l-2.294118.35294118v-1.76470588z"/><path d="m199.897059 2.20588235c0-.83823529.17647-1.4117647.485294-1.72058823.308823-.30882353.970588-.48529412 1.941176-.48529412h7.235295c.970588 0 1.588235.13235294 1.941176.48529412.308824.30882353.485294.88235294.485294 1.72058823v4.94117647c0 .8382353-.17647 1.45588236-.485294 1.76470589-.352941.30882353-.970588.48529411-1.941176.48529411h-7.235295c-.970588 0-1.588235-.13235294-1.941176-.48529411-.308824-.30882353-.485294-.88235295-.485294-1.76470589zm2.294117 5.3382353h7.544118v-5.82352941h-7.544118z" fill-rule="nonzero"/><path d="m215.911765 9.35294118v-9.35294118h2.294117v7.58823529h7.32353v1.76470589z"/></g></g></svg>