<svg viewBox="0 0 800 158.104" xmlns="http://www.w3.org/2000/svg"><path d="m82.882 32.011c18.658 0 29.576 11.056 29.576 26.534a21.752 21.752 0 0 1 -14.65 21.144c11.192 2.765 17.692 12.711 17.692 23.633 0 15.478-12.3 26.673-30.265 26.673h-34.276v-97.984zm-1.52 42.842c10.918 0 17.414-6.5 17.414-15.617 0-9.259-6.772-15.34-17.967-15.34h-16.309v30.957zm1.938 43.256c10.918 0 18.381-6.081 18.381-15.617 0-9.4-5.943-16.031-17.827-16.031h-19.354v31.648z"/><path d="m149.3 129.994v-100.056h12.99v100.056z"/><path d="m259.849 96.688c0 20.316-14.095 35.379-34 35.379s-34-15.064-34-35.379c0-20.177 14.1-35.241 34-35.241s34 15.064 34 35.241zm-13.266 0c0-15.34-9.674-23.632-20.731-23.632s-20.729 8.292-20.729 23.632c0 15.478 9.674 23.771 20.729 23.771s20.731-8.292 20.731-23.771z"/><path d="m302.679 96.688c0 15.2 9.536 23.356 20.316 23.356 12.44 0 17-8.43 18.518-13.682l11.471 4.975c-3.177 9.536-12.713 20.73-29.989 20.73-19.347 0-33.582-15.2-33.582-35.379 0-20.73 14.51-35.241 33.444-35.241 17.69 0 26.81 11.056 29.574 21.144l-11.746 4.976c-1.657-6.5-6.494-14.1-17.827-14.1-10.503.004-20.179 7.743-20.179 23.221z"/><path d="m413.781 91.575 28.885 38.42h-16.307l-21.7-29.3-9.26 9.259v20.039h-12.851v-100.055h12.852v63.019l28.748-29.437h17.965z"/><path d="m497.936 75.267v54.727h-13.406v-54.727h-12.3v-11.747h12.3v-11.194c0-14.787 9.813-22.8 21.835-22.8 4.423 0 7.187.968 7.741 1.382v11.606a15 15 0 0 0 -5.666-.829c-4.561 0-10.5 2.211-10.5 11.332v10.5h16.032v11.75z"/><path d="m611.665 96.688c0 20.316-14.095 35.379-34 35.379s-34-15.064-34-35.379c0-20.177 14.1-35.241 34-35.241s34 15.064 34 35.241zm-13.266 0c0-15.34-9.674-23.632-20.731-23.632s-20.729 8.292-20.729 23.632c0 15.478 9.674 23.771 20.729 23.771s20.732-8.292 20.732-23.771z"/><path d="m641.229 129.994v-100.056h12.991v100.056z"/><path d="m693.065 29.938a6.425 6.425 0 1 1 -6.378 6.472 6.419 6.419 0 0 1 6.378-6.472z"/><path d="m686.685 63.52h12.853v66.474h-12.853z"/><path d="m800 96.688c0 20.316-14.095 35.379-34 35.379s-34-15.064-34-35.379c0-20.177 14.1-35.241 34-35.241s34 15.064 34 35.241zm-13.266 0c0-15.34-9.674-23.632-20.731-23.632s-20.729 8.292-20.729 23.632c0 15.478 9.674 23.771 20.729 23.771s20.731-8.292 20.731-23.771z"/><path d="m148.214 158.1h-138.323a9.9 9.9 0 0 1 -9.891-9.886v-138.324a9.9 9.9 0 0 1 9.891-9.89h138.323a9.9 9.9 0 0 1 9.891 9.89v9.734h-3.529v-9.734a6.369 6.369 0 0 0 -6.361-6.361h-138.324a6.369 6.369 0 0 0 -6.362 6.361v138.324a6.369 6.369 0 0 0 6.361 6.361h138.324a6.369 6.369 0 0 0 6.361-6.361v-7.675h3.529v7.675a9.9 9.9 0 0 1 -9.89 9.886z" fill="#a6a6a6"/></svg>