<svg height="55" viewBox="0 0 111 55" width="111" xmlns="http://www.w3.org/2000/svg" xmlns:xlink="http://www.w3.org/1999/xlink"><linearGradient id="a"><stop offset="0" stop-color="#282138"/><stop offset="1" stop-color="#282138" stop-opacity="0"/></linearGradient><linearGradient id="b" x1="-.000188%" x2="100.000049%" xlink:href="#a" y1="49.999977%" y2="49.999977%"/><linearGradient id="c" x1="99.999324%" x2="0%" xlink:href="#a" y1="49.999917%" y2="49.999917%"/><g fill="none" fill-rule="evenodd"><path d="m18.6699381.32770833c-9.89569916 0-17.91782306 8.36196429-17.91782306 18.67675597 0 10.3147917 8.0221239 18.6767559 17.91782306 18.6767559 9.8956991 0 17.9174955-8.3619642 17.9174955-18.6767559 0-10.31479168-8.0217964-18.67675597-17.9174955-18.67675597z" fill="url(#b)"/><path d="m0 36.0050298c0 10.315119 8.02212389 18.6770833 17.917823 18.6770833 9.8956991 0 17.917823-8.3619643 17.917823-18.6770833 0-10.3147917-8.0221239-18.676756-17.917823-18.676756-9.89569911 0-17.917823 8.3619643-17.917823 18.676756" fill="url(#c)"/><path d="m110.452138 37.1033274.395212.1316071c-.966256 3.2502381-3.601769 6.5001488-8.170123 6.5001488-4.1728146 0-6.0179031-2.6792857-6.0179031-6.3243452v-16.1618155h-2.1522212v-.2196726c3.3823893-2.898631 6.9841593-5.5775893 10.4539733-8.6081548h.044204v7.6859227h4.041185v1.0977083h-4.041185v15.0202381c0 1.8886607.834628 3.1183036 2.371929 3.1183036 1.713133 0 2.679389-1.1419048 3.074929-2.2399405m-26.6013628-16.29375c-1.8008849 0-2.8113451 2.3276786-2.8113451 6.2804762 0 .4390178 0 .834494.0442035 1.2296428h5.4462036c0-5.7972619-.9220531-7.510119-2.679062-7.510119m4.5680266 16.3818155c2.1964247 0 3.8218053-.6590179 5.0077699-2.328006l.3513363.0880655c-1.1859646 6.7633631-5.7543186 8.7836309-9.2683363 8.7836309-5.0513186 0-10.014885-4.0405357-10.014885-11.7264583 0-7.3781845 4.348646-12.6483631 10.3223452-12.6483631 3.7337256 0 9.0486283 1.9763988 9.0486283 10.3210119h-12.6503983c.6587965 4.9624405 3.2943098 7.5101191 7.2035399 7.5101191m-26.3377788 6.7633631c-4.9196903 0-8.9166726-1.1422322-12.079354-2.9428274l2.7674691-8.3884822h.2193805c1.5376283 6.1488691 6.3253628 9.3110417 10.761761 9.3110417 2.503885 0 4.3486461-1.4493155 4.3486461-3.7769941 0-1.4054464-.5710443-2.7231547-3.1188053-3.8650595l-7.2916195-3.3376488c-4.3047699-2.0202678-6.5447434-5.6214583-6.5447434-9.4861905 0-4.7872916 3.0307257-10.0136012 11.8157699-10.0136012 3.9534337 0 8.5214602 1.2738393 11.1130974 2.7231548l-3.1626814 7.202381h-.219708c-1.7566814-5.4017858-5.6659115-7.993006-9.4873894-7.993006-3.2065575 0-4.348646 1.6247917-4.348646 3.0741072 0 1.4493154.7465487 2.8108928 3.0746018 3.9527976l7.5113274 3.5573214c4.8316106 2.2399405 6.2811593 5.0069643 6.2811593 8.8278274 0 6.2359524-4.6557788 11.1551786-11.6402655 11.1551786" fill="#282138"/></g></svg>