<svg height="44" viewBox="0 0 198 44" width="198" xmlns="http://www.w3.org/2000/svg"><g fill="#282138" fill-rule="evenodd"><path d="m148.531981 28.2071716c-.370154-.9597361-.616025-1.5406701-.820542-2.1358985-1.431848-4.1654822-2.901229-8.3193503-4.25082-12.5109645-.363637-1.1283655-.966177-1.3796345-2.034388-1.3572995-1.068436.0223351-1.819757.1067615-2.218005 1.3691371-1.309586 4.1480609-2.765482 8.2505584-4.173732 12.3675736-.196651.5749036-.440949 1.1339492-.832229 2.1312081-.371053-.9671066-.590629-1.4763452-.764132-2.0003249-1.367571-4.1304162-2.707498-8.2699898-4.111702-12.3878984-.18092-.5304569-.621869-1.2851574-1.046187-1.3610965-1.08664-.194538-2.232163-.0649949-3.567595-.0649949 2.558043 7.1679797 5.013153 13.9808325 7.407807 20.8146802.428363 1.2221726 1.34577.832203 2.153727.901665.852681.0730355 1.537253.013401 1.882686-1.0399188 1.030229-3.141198 2.17373-6.2455432 3.274753-9.3635127.54568-1.5453604 1.094956-3.0891574 1.805823-5.0939492.403192 1.0149035.627038 1.5281624.812902 2.0548223 1.388921 3.9354315 2.801216 7.8630457 4.133952 11.8174619.370829 1.1002234.766829 1.7470457 2.143165 1.6813807 1.247557-.0598578 1.963593-.2572995 2.416004-1.5895837 2.088102-6.1508427 4.30813-12.2574619 6.47287-18.3826193.183166-.5181726.308349-1.0568934.494438-1.7043858-.65985-.052264-1.121925-.0513706-1.569841-.1306599-1.761324-.3117969-2.619174.4013604-3.04102 2.1479594-.515339 2.1341117-1.337904 4.1954112-2.034837 6.2855228-.801215 2.4025787-1.61052 4.8022538-2.533097 7.5516955"/><path d="m108.473884 28.5194152c-.414878.492264-1.08192 1.2840406-1.741995 2.06733 2.952694 3.1894416 9.118338 4.6320609 12.974506 3.0956345 2.640075-1.0519797 3.860438-3.092731 3.965843-5.8084467.101585-2.6259289-1.240815-4.4214416-3.641986-5.3800609-1.401058-.5592691-2.887294-.9050152-4.321389-1.3876751-1.045288-.352-2.260482-.5501117-3.043941-1.2250762-.719183-.6197969-1.398361-1.8437563-1.283966-2.693604.10136-.756264 1.216542-1.7139899 2.062706-1.9494011 1.045961-.2912487 2.3315-.1168121 3.412971.1981117 1.418588.413198 2.738738 1.1600812 4.18879 1.8022132.61153-.8516345 1.21025-1.6849543 1.798856-2.504203-2.820769-2.5493198-7.793918-3.599066-11.246445-2.4472488-2.538041.8469442-3.964495 2.6413401-4.164517 5.2386802-.201371 2.6158782.886842 4.5889544 3.381058 5.7342945 1.312508.6028223 2.746603.9449949 4.127659 1.3988426 1.104845.3631675 2.241153.6501726 3.312061 1.0939695 1.134511.470599 1.69907 1.3914721 1.543546 2.6442437-.161142 1.2969949-.926397 2.1265178-2.191035 2.3987817-.672436.144731-1.446007.2707005-2.07664.082863-2.248795-.6691574-4.456236-1.4763452-7.056082-2.3592488"/><path d="m77.3313834 12.4865076v21.3735026h3.6963746v-2.006132c0-5.5594112.0002247-11.1188224 0-16.6782335 0-3.2296447-.0584336-3.2810153-3.3259955-2.8731777-.1049557.0131777-.2009216.0973807-.3703791.1840406"/><path d="m30.9967989 35.0875208c-4.0460772 1.2692995-8.9300023 2.8010355-13.4215233 4.2101523 1.2907083 1.3235736 2.9549421 3.0308629 4.576025 4.6934822 3.1167582-3.1371776 6.3056594-6.3469441 8.8454983-8.9036345"/><path d="m38.3070443 22.6260284c-6.2580137-5.2598985-24.0395823-6.2080203-30.27646995-1.6565888.26879455.083533.46319864.1900711.66209761.1994518 6.41331214.3010761 12.41646534 1.9929543 17.98541204 5.1884264.3382406.1940913.7868309.404934 1.1356345.3421726 3.7406493-.6725077 7.2518343-1.9284061 10.4933258-4.073462m-38.3070443-.5123655c7.42219069-7.3815025 14.7601022-14.67924869 22.0110375-21.89033498 7.2781294 7.24548223 14.6430102 14.57762438 22.0056435 21.90730968-11.2001475 10.6960203-31.7804608 11.3276548-44.016681-.0169747"/><path d="m148.531981 28.2071716c.922577-2.7494417 1.731882-5.1491168 2.533097-7.5516955.696933-2.0901116 1.519498-4.1514111 2.034837-6.2855228.421846-1.746599 1.279696-2.4597563 3.04102-2.1479594.447916.0792893.909991.0783959 1.569841.1306599-.186089.6474924-.311272 1.1862132-.494438 1.7043858-2.16474 6.1251574-4.384768 12.2317766-6.47287 18.3826193-.452411 1.3322842-1.168447 1.5297259-2.416004 1.5895837-1.376336.065665-1.772336-.5811573-2.143165-1.6813807-1.332736-3.9544162-2.745031-7.8820304-4.133952-11.8174619-.185864-.5266599-.40971-1.0399188-.812902-2.0548223-.710867 2.0047918-1.260143 3.5485888-1.805823 5.0939492-1.101023 3.1179695-2.244524 6.2223147-3.274753 9.3635127-.345433 1.0533198-1.030005 1.1129543-1.882686 1.0399188-.807957-.069462-1.725364.3205076-2.153727-.901665-2.394654-6.8338477-4.849764-13.6467005-7.407807-20.8146802 1.335432 0 2.480955-.1295431 3.567595.0649949.424318.0759391.865267.8306396 1.046187 1.3610965 1.404204 4.1179086 2.744131 8.2574822 4.111702 12.3878984.173503.5239797.393079 1.0332183.764132 2.0003249.39128-.9972589.635578-1.5563045.832229-2.1312081 1.40825-4.1170152 2.864146-8.2195127 4.173732-12.3675736.398248-1.2623756 1.149569-1.346802 2.218005-1.3691371 1.068211-.022335 1.670751.228934 2.034388 1.3572995 1.349591 4.1916142 2.818972 8.3454823 4.25082 12.5109645.204517.5952284.450388 1.1761624.820542 2.1358985"/><path d="m94.0096808 23.4504142c1.3176777-.1608122 2.6791805-.1668426 3.9426947-.5195127 1.7628967-.4920406 2.7546945-2.1399188 2.5998455-3.8525685-.154849-1.7142132-1.2572212-2.951797-3.0864176-3.2685076-1.0223632-.1771168-2.0800113-.1990051-3.1226016-.2052589-4.1415936-.0256853-4.1418184-.013401-4.1418184 4.0216447 0 3.6881827 0 3.6881827 3.8082974 3.824203m10.3169012 10.2877361c-3.883587.7062335-4.085407.6247106-6.0166378-2.2982742-.4476913-.677868-1.0140477-1.3063756-1.3232963-2.0416446-1.0441635-2.4825381-2.9225789-3.0974213-5.4471351-2.8048325-1.0789988.1248528-1.3945403.4601015-1.3659977 1.4712081.053714 1.8966904.0155074 3.7960609.0155074 5.8015228h-3.6862611v-21.6421928c4.4775868.1322233 8.9677594-.6740711 13.337244.6264974 2.8454916.8469442 4.5209626 3.3837564 4.5870376 6.3447107.066075 2.9754721-1.272729 5.099533-4.010568 6.3348832-.313743.1413807-.629734.277401-1.2277794.5405076 1.7343544 2.5881828 3.4147694 5.0959594 5.1378864 7.6676143"/><path d="m58.9363519 26.2685584c2.4483677-.5416244 4.5250079-1.0008325 6.8081884-1.5060508-.9729194-2.5323452-1.9316799-5.0278375-2.8906652-7.5235533-.1472077-.0011167-.2946401-.0022335-.4420726-.0033502-1.1284427 2.9330355-2.2571101 5.8662944-3.4754506 9.0329543m14.3456731 7.5816243c-3.7159274.3756752-3.7159274.3756752-5.0702384-2.8709441-1.2017094-2.8809949-1.3931918-2.9911066-4.5317503-2.4834315-2.6133303.4225787-5.1340658 1.3430051-6.6333371 3.5054822-1.4347696 2.0697868-3.1542906 2.204467-5.3967923 1.851797.1283292-.4292792.2135074-.8561015.3798184-1.2485279 2.7158139-6.4070254 5.4785993-12.7946193 8.1332826-19.2264366.5119683-1.2398172 1.3531873-1.2286497 2.3613916-1.1967106.9596595.030599 1.9035869-.2010153 2.4267923 1.0937462 2.6940136 6.6661116 5.4797231 13.2960406 8.2276754 19.940934.0622543.1509847.0559614.3301116.1031578.6340913"/><path d="m169.853525 26.2665036c-1.223735-3.1744772-2.368134-6.142132-3.512309-9.1097868-.134622.009604-.268795.0189847-.403192.0285888-.961682 2.5256447-1.92314 5.0515127-2.886844 7.5822944 2.319813.5110254 4.39533.9684467 6.802345 1.4989036m7.371398 7.6133401c-2.131478.2119593-3.806275.3624974-5.31521-1.666863-2.176427-2.9274518-5.542876-3.942802-9.172277-3.7739492-.527476.0245685-1.120352.6008122-1.50871 1.065604-.35667.4268224-.478482 1.0475127-.702777 1.58333-1.321049 3.1532589-1.321049 3.1532589-5.021469 2.7617259.160693-.4989645.279358-.976934.465222-1.4278782 2.56456-6.2299086 5.183285-12.4383756 7.672781-18.6977665.518935-1.3050355 1.272054-1.5413401 2.506801-1.5274924 1.256547.0142944 2.089001.1565685 2.659852 1.562335 2.509723 6.1836752 5.184634 12.3007919 7.793469 18.4447107.220699.519736.394652 1.0593503.622318 1.6762437"/><path d="m187.317327 23.3569421c1.103496-.0527106 2.219802-.0192081 3.308241-.1764467 2.28363-.3296649 3.35656-1.6476548 3.328467-3.9182335-.027419-2.2169746-1.027982-3.274538-3.431625-3.5392081-.923026-.1016244-1.858413-.118599-2.788407-.1221726-4.12721-.0158578-4.12721-.0091573-4.12721 4.0826193 0 3.6314518 0 3.6314518 3.710534 3.6734416m-3.710309 10.5271675h-3.648279v-21.8630862c4.212838.1860507 8.425451.088 12.549289.6421319 3.44983.4634518 5.186656 2.9424163 5.368025 6.3469442.169907 3.1863147-1.554109 6.0757969-4.746606 6.9044264-2.436007.6325279-5.060574.6841218-7.605357.7180711-1.565571.0207715-2.050345.4777461-1.944715 1.9902741.119788 1.71667.027643 3.4480812.027643 5.2612385"/><path d="m108.473884 28.5194152c2.599846.8829036 4.807287 1.6900914 7.056082 2.3592488.630633.1878375 1.404204.061868 2.07664-.082863 1.264638-.2722639 2.029893-1.1017868 2.191035-2.3987817.155524-1.2527716-.409035-2.1736447-1.543546-2.6442437-1.070908-.4437969-2.207216-.730802-3.312061-1.0939695-1.381056-.4538477-2.815151-.7960203-4.127659-1.3988426-2.494216-1.1453401-3.582429-3.1184163-3.381058-5.7342945.200022-2.5973401 1.626476-4.391736 4.164517-5.2386802 3.452527-1.1518172 8.425676-.102071 11.246445 2.4472488-.588606.8192487-1.187326 1.6525685-1.798856 2.504203-1.450052-.642132-2.770202-1.3890152-4.18879-1.8022132-1.081471-.3149238-2.36701-.4893604-3.412971-.1981117-.846164.2354112-1.961346 1.1931371-2.062706 1.9494011-.114395.8498477.564783 2.0738071 1.283966 2.693604.783459.6749645 1.998653.8730762 3.043941 1.2250762 1.434095.4826599 2.920331.828406 4.321389 1.3876751 2.401171.9586193 3.743571 2.754132 3.641986 5.3800609-.105405 2.7157157-1.325768 4.756467-3.965843 5.8084467-3.856168 1.5364264-10.021812.0938071-12.974506-3.0956345.660075-.7832894 1.327117-1.575066 1.741995-2.06733"/><path d="m77.3313834 12.4865076c.1694575-.0866599.2654234-.1708629.3703791-.1840406 3.2675619-.4078376 3.3259955-.356467 3.3259955 2.8731777.0002247 5.5594111 0 11.1188223 0 16.6782335v2.006132h-3.6963746z"/><path d="m30.9967989 35.0875208c-2.5398389 2.5566904-5.7287401 5.7664569-8.8454983 8.9036345-1.6210829-1.6626193-3.2853167-3.3699086-4.576025-4.6934822 4.491521-1.4091168 9.3754461-2.9408528 13.4215233-4.2101523"/></g></svg>