<svg height="34" viewBox="0 0 200 34" width="200" xmlns="http://www.w3.org/2000/svg" xmlns:xlink="http://www.w3.org/1999/xlink"><mask id="a" fill="#fff"><path d="m0 33.8866667h199.885387v-33.8866667h-199.885387z" fill="#fff" fill-rule="evenodd"/></mask><g fill="#282138" fill-rule="evenodd"><path d="m114.498453 18.2182767v6.4036166c-1.776218 1.3313834-4.412321 2.2666667-6.819485 2.2666667-5.185959 0-9.2263606-3.8536167-9.2263606-8.81195s4.0977076-8.755 9.4269346-8.755c2.52149 0 5.014326.935 6.762177 2.4366667l-1.690258 2.1533333c-1.346991-1.2466667-3.237822-1.9833333-5.071919-1.9833333-3.581662 0-6.389399 2.6916666-6.389399 6.1483333 0 3.485 2.83639 6.1766667 6.418052 6.1766667 1.318338 0 2.779369-.4533334 4.040401-1.1897167v-4.8452833z"/><path d="m132.149054 26.74678-9.369627-12.4666667v12.4666667h-2.951289v-17.36833333h2.922636l9.426934 12.49500003v-12.49500003h2.922636v17.36833333z"/><path d="m142.378338 18.04839c0 3.4566667 2.893983 6.1766667 6.332378 6.1766667 3.438396 0 6.246132-2.72 6.246132-6.1766667s-2.807736-6.12-6.246132-6.12c-3.467048 0-6.332378 2.6916667-6.332378 6.12m15.616046 0c0 4.9583333-4.068768 8.8116667-9.312321 8.8116667-5.24384 0-9.312321-3.8533334-9.312321-8.8116667 0-4.9866667 4.068481-8.755 9.312321-8.755 5.27192 0 9.312321 3.7966667 9.312321 8.755"/><path d="m174.240573 11.0216383-1.232092 2.5783334c-1.91977-1.1333334-3.810888-1.615-5.157593-1.615-1.719197 0-2.865329.6516666-2.865329 1.8133333 0 3.7966667 9.484527 1.7566667 9.455587 8.0183333 0 3.1166667-2.75043 5.015-6.618625 5.015-2.751002 0-5.358452-1.105-7.192263-2.7483333l1.289398-2.5216667c1.805444 1.6433334 4.068768 2.5216667 5.960172 2.5216667 2.062751 0 3.295129-.765 3.295129-2.0966667 0-3.8816666-9.484527-1.7-9.484527-7.905 0-2.975 2.578796-4.84499997 6.389685-4.84499997 2.292263 0 4.527507.73666667 6.160458 1.78499997"/><path d="m179.054441 26.7466667h2.95129v-17.36833337h-2.95129z" mask="url(#a)"/><path d="m199.684928 11.0216383-1.232378 2.5783334c-1.919484-1.1333334-3.810888-1.615-5.157593-1.615-1.719198 0-2.865329.6516666-2.865329 1.8133333 0 3.7966667 9.484527 1.7566667 9.455587 8.0183333 0 3.1166667-2.75043 5.015-6.618625 5.015-2.750716 0-5.358452-1.105-7.191977-2.7483333l1.289398-2.5216667c1.805158 1.6433334 4.068482 2.5216667 5.959886 2.5216667 2.063037 0 3.295129-.765 3.295129-2.0966667 0-3.8816666-9.484527-1.7-9.484527-7.905 0-2.975 2.578796-4.84499997 6.389971-4.84499997 2.292264 0 4.527221.73666667 6.160458 1.78499997" mask="url(#a)"/><path d="m57.5072206 8.47163833-1.260745 1.24666667c1.0028654 1.5583333 1.3180516 3.5133333.6303725 5.3833333-1.1461318 3.1733334-4.6991404 4.845-7.9369627 3.7116667-.4584527-.17-.8882522-.3683333-1.260745-.6233333l-4.0401146 3.995-3.5243553-3.5133334c-1.6332378 1.0766667-3.7249284 1.3883334-5.7020057.7083334-3.3237823-1.19-5.04298-4.7883334-3.8395416-8.0466667.1719198-.51.4297994-.9633333.7163324-1.38833333l-1.5186247-1.50166667-.2865329.48166667c-1.5759312 2.55000003-2.4355301 5.49666663-2.4355301 8.52833333-.0286533 9.0383333 7.4212034 16.4333333 16.5616046 16.4333333h.0286533c9.1404011 0 16.5616046-7.3383333 16.5902579-16.3766666 0-3.0033334-.8309456-5.95-2.4068768-8.52833337z" mask="url(#a)"/><path d="m33.1519198 11.786695c-.4297995.5666667-.6876791 1.275-.6876791 2.04 0 1.8416667 1.5186246 3.3433333 3.3810888 3.3433333.773639 0 1.4899714-.255 2.0630373-.7083333z" mask="url(#a)"/><path d="m49.742149 16.1783617c.5444126.3683333 1.1747851.5666666 1.8911175.5666666 1.8624642 0 3.3810888-1.5016666 3.3810888-3.3433333 0-.68-.2005731-1.3316667-.5730659-1.87z" mask="url(#a)"/><path d="m32.234957 6.09166667 11.4613181 11.36166663 11.3180515-11.13499997c-3.0372492-3.00333333-7.1633237-4.73166666-11.461318-4.73166666h-.0286533c-4.269341 0-8.252149 1.58666666-11.2893983 4.505zm11.4613181 13.60000003-13.6962751-13.60000003.5444126-.56666667c3.3810888-3.54166667 7.9942693-5.525 12.9512894-5.525h.0286533c5.0143266 0 9.8280802 2.125 13.1805158 5.80833333l.5157593.56666667z" mask="url(#a)"/><path d="m28.5959312 28.44678-1.6045845-.1133333c-6.8194842-.425-16.217765-2.09695-22.29226361-7.5083334-3.75358166-3.3152833-4.46991404-6.46-4.49856733-6.6016666l-.20057307-.9636167h24.81375361l-.1432665.90695c-.1146132.8216667-.1719198 1.6716667-.1719198 2.49305 0 3.7402833 1.0888252 7.3666667 3.1805158 10.4552833z" mask="url(#a)"/><path d="m58.6246705 28.44678.8882521-1.3316667c2.0916906-3.0886166 3.1805158-6.68695 3.1805158-10.3983333 0-.85-.0573066-1.7283333-.1719198-2.55l-.1146132-.90695h24.8137536l-.200573.9636167c-.0286533.1416666-.7449857 3.2863833-4.4699141 6.6016666-6.0744985 5.4113834-15.5014326 7.0833334-22.3209169 7.5083334z" mask="url(#a)"/></g></svg>