<svg height="30" viewBox="0 0 141 30" width="141" xmlns="http://www.w3.org/2000/svg"><g fill="#282138" fill-rule="evenodd"><path d="m140.755923 29.6363182c-5.051579.9381818-8.432353-1.4381818-11.222402-5.2881818-1.293883-1.7854546-2.970216-3.3013637-4.694471-5.1804546-2.321431 2.5177273-4.826716 4.7518182-6.721 7.41-2.436167 3.4172727-5.589314 3.2440909-9.914696 2.6909091 4.539186-5.0031818 8.676569-9.5631818 12.868323-14.1840909-4.179313-4.6063636-8.287205-9.13409091-12.771558-14.07590909 3.981637-.40954546 7.138009-1.09045455 9.604127 2.32681818 1.931608 2.67590909 4.428137 4.95636364 6.892412 7.65181821 2.415892-2.61000003 4.856667-4.98000003 6.966137-7.60909094 1.662971-2.07272727 3.51302-3.07181818 6.190177-2.7040909.906362.12454545 1.867098-.13545455 2.802951-.21954546v1.53590909c-4.061353 4.31636364-8.122706 8.63272731-12.335197 13.11000001 4.268706 4.4986364 8.301951 8.7495454 12.335197 13z"/><path d="m42.0207647 24.0046364c3.8908628 0 7.584049.0054545 11.2772353-.0040909.7745784-.0022728 1.5597549.0090909 2.3237353-.1009091 4.4313627-.64 7.7287353-4.215 7.8766471-8.4940909.1502156-4.3313637-2.7822157-8.41681823-7.2522844-8.88363641-4.6516176-.48545454-9.3958529-.10818182-14.2253333-.10818182zm-5.6681078-8.9522728c0-3.9177272.0944607-7.83909087-.0387059-11.75272724-.0700392-2.06954545.7612157-2.655 2.732451-2.62136363 5.2653823.08909091 10.5353725-.06 15.7998333.05363636 7.7374902.16727273 13.783902 5.96272727 14.2534412 13.49000001.4653921 7.4790909-4.8506765 14.2409091-12.5333334 14.9813636-6.0749804.5854546-12.2398137.2772728-18.3654804.325-1.6615882.0131818-1.8661764-1.1413636-1.8574215-2.4659091.0267255-4.0036363.0096764-8.0068181.0092157-12.01z"/><path d="m5.76772941 6.2585v17.7463636c1.05058824 0 1.90303922.0031819 2.75502941-.0004545 3.45496078-.0159091 6.92098038.135 10.36119608-.0918182 4.576049-.3018182 8.1162549-4.0177273 8.2895098-8.3386364.1893824-4.7318181-2.9720588-8.81454541-7.808451-9.23363632-4.4364313-.385-8.934147-.08181818-13.59728429-.08181818m-5.74367647 8.8822727c.00046079-4.0031818.05068628-8.0072727-.02303921-12.00909088-.03225491-1.76227273.69117647-2.45090909 2.4467647-2.43681818 5.43955882.04409091 10.88372547-.11636364 16.31775487.04954545 7.9291765.24136364 13.9852647 6.47318182 14.0400981 14.19590911.0571372 8.0431818-6.005402 14.2422727-14.5271471 14.5668182-5.2593921.2009091-10.53260783.0090909-15.79937254.0618181-1.75512745.0172728-2.5025196-.6577272-2.47487254-2.4190909.06312745-4.0018181.01981372-8.0059091.01981372-12.0090909"/><path d="m94.6878588.70786364c2.5928334 0 5.1888922.08 7.7771172-.02590909 2.021922-.08227273 2.958236.46954545 2.984961 2.70727272.02949 2.37045455-.959813 2.87227273-3.103843 2.81909091-4.7497646-.11772727-9.5055195-.04909091-14.2585097-.03318182-5.8224706.02-9.8626274 3.68318182-9.8626274 8.91454544.0004607 5.2090909 4.0484509 8.8777273 9.8852058 8.9095455 5.011951.0268182 10.0243628.0445454 15.0363133-.0140909 1.726559-.0204546 2.339863.7518181 2.234344 2.3309091-.091696 1.3777272.439127 3.2154545-1.862491 3.2031818-6.2145976-.0327273-12.4688231.2177272-18.6331957-.3818182-7.4766862-.7268182-12.3527058-7.0063636-12.2024902-14.6831818.1377745-7.05181821 5.6376961-12.95227275 12.9411275-13.60045457 2.9983235-.26636364 6.0408823-.04409091 9.0640882-.04409091z"/><path d="m95.2629637 17.8591818c-2.5822353-.0013636-5.1649313.0136364-7.7471666-.0063636-1.8182549-.0140909-3.003853-.8527273-3.0305785-2.7259091-.0262647-1.8604546 1.0879118-2.7936364 2.9338138-2.8013636 5.2506372-.0222728 10.502196.0240909 15.7523726-.025 2.17398-.0204546 2.198863 1.3245454 2.231578 2.8895454.035481 1.6963636-.306421 2.7895455-2.393774 2.6972727-2.577628-.1131818-5.16401-.0268181-7.7462453-.0281818"/></g></svg>