<svg height="40" viewBox="0 0 161 40" width="161" xmlns="http://www.w3.org/2000/svg"><g fill="#282138" fill-rule="evenodd"><path d="m17.102064 39.924s-17.10177778-5.8114286-17.10177778-27.14v-7.67714286c0-.83714285.65258667-1.51142857 1.47690667-1.57142857 3.10264889-.14571428 10.46714671-.77714286 15.62487111-3.53428571 5.1577244 2.75714285 12.5222222 3.38857143 15.6277333 3.53428571.82432.06 1.4740445.73428572 1.4740445 1.57142857v7.67714286c0 21.3285714-17.1017778 27.14-17.1017778 27.14zm3.2323076-23.482c-.0171734 2.22-3.4718756 1.9371429-4.58528 1.9285714l-.0057245-3.9257143c1.1105422.0085715 4.6053156-.32 4.5910045 1.9971429zm.8729777 6.1142857c-.0171733 2.4428572-4.1645333 2.1342857-5.5011911 2.1285714l-.0057244-4.3314285c1.3366578.0114285 5.5240889-.3428572 5.5069155 2.2028571zm2.8049778-6.9685714c-.2089422-2.3285714-2.2039111-3.1257143-4.7484267-3.3657143l.0143112-3.25428571-1.9720712.00857142.0085867 3.14857139c-.5180622-.0057142-1.0761955.0028572-1.6028444.0085715l.0028622-3.18857146-1.9863822.00857143.0143111 3.22857143c-.4293334.0057143-3.97276447.0142857-3.97276447.0142857l-.00286222 2.0657143 2.52161779-.0057143-.0057245 10.3857143-2.2096355.0114286-.0171733 2.3657143s3.1198222-.0114286 3.58064-.0057143l.0085866 3.2657143 1.9491734.0114285.0114488-3.2285714c.54096.0142857 1.0618845.0228571 1.57136.0257143l-.0057244 3.22 1.9863822-.0028572-.0085866-3.2485714c3.3144533-.1657143 5.6385777-.98 5.9476977-4.0828571.2490134-2.5-.9187733-3.6228572-2.7963911-4.0885715 1.1448889-.5714285 1.8661689-1.5914285 1.7116089-3.2971428z"/><path d="m60.6739591 25.7597143c0-1.2885714-.4837155-2.1828572-1.4511467-2.68-.9674311-.4971429-2.2582933-.7457143-3.8725866-.7457143h-4.1788445v7.1142857h4.22464c.5838934 0 1.1935467-.0514286 1.8232356-.1542857.6325511-.1 1.2049955-.2857143 1.7173333-.5485714.5123378-.2628572.9302222-.6371429 1.2536534-1.12.3234311-.4828572.4837155-1.1028572.4837155-1.8657143m-1.0132267-12.3428572c0-1.0514285-.4007111-1.8228571-1.2078577-2.3028571-.8071467-.4857143-2.0035556-.7257143-3.5863645-.7257143h-3.6951289v6.4114286h4.0471823c1.4082133 0 2.5015822-.2857143 3.2772444-.8571429.7785244-.5714285 1.1649244-1.4114285 1.1649244-2.5257143m8.5380089 13.0457143c0 1.6971429-.3377422 3.1257143-1.0132266 4.2828572-.6726223 1.1542857-1.5684978 2.0857143-2.6847645 2.7885714-1.1134044.7028571-2.3813689 1.2085714-3.8038933 1.5142857-1.4225245.3057143-2.8822578.4628572-4.3763378.4628572h-12.4077333v-31.0971429h12.4077333c1.1992711 0 2.4328889.12571429 3.6951289.37428571 1.2593778.24857143 2.4042667.67428572 3.4318044 1.27142858 1.0246756.6 1.8604445 1.41428571 2.5073067 2.43714285.644 1.02571429.9674311 2.32857146.9674311 3.91142856 0 1.7285714-.4694044 3.1542857-1.4082133 4.2828572-.9388089 1.1257142-2.1695645 1.9371428-3.6951289 2.4371428v.0857143c.8815644.1485714 1.7087467.4171429 2.4872711.8142857.7756622.3942857 1.4511467.9 2.0235911 1.5142857.5695822.6142857 1.0246756 1.3342857 1.3624178 2.1514286.3377422.82.5066133 1.7428571.5066133 2.7685714"/><path d="m70.4564622 35.5094286h7.2156622v-21.8714286h-7.2156622zm7.7423111-28.85428574c0 .55428571-.1087644 1.07428571-.3291555 1.56-.2203911.48-.5123378.89714285-.8787022 1.24857143-.3692267.35428571-.8071467.63142861-1.3223467.83428571-.5123378.2057143-1.0475733.3085714-1.6057067.3085714-1.1735111 0-2.1552533-.3857143-2.9452266-1.16285711-.7928356-.77714286-1.1878223-1.70571429-1.1878223-2.78857143 0-.52857143.1001778-1.03428572.3062578-1.51714286s.4980267-.9.8815645-1.25142857c.3778133-.35142857.8185955-.63714286 1.3194844-.85428572.4980267-.22285714 1.0389867-.33142857 1.6257422-.33142857.5581334 0 1.0933689.10285715 1.6057067.30857143.5152.20571429.95312.48285714 1.3223467.83428572.3663644.35142857.6583111.76857142.8787022 1.25142857.2203911.48285714.3291555 1.00285714.3291555 1.56z"/><path d="m90.7510489 18.9962857v8.3771429c0 1.0285714.1974933 1.8.5953422 2.3142857.3949867.5142857 1.1048178.7714286 2.1323556.7714286.3520533 0 .7270044-.0285715 1.1219911-.0885715.3949866-.06.7270044-.1457143.9903289-.2628571l.0887289 5.2685714c-.5008889.1771429-1.1305778.3314286-1.8919289.4628572-.7642134.1314285-1.5284267.1971428-2.2897778.1971428-1.4654578 0-2.6990756-.1828571-3.6951289-.5514286-.9960533-.3657142-1.7974756-.8942857-2.3985422-1.5828571-.6010667-.6914286-1.0332622-1.5142857-1.2965867-2.4657143-.2661867-.9542857-.3949867-2.02-.3949867-3.1942857v-9.2457143h-3.5205333v-5.3571428h3.4747378v-5.75428576h7.084v5.75428576h5.1462755v5.3571428z"/><path d="m122.011954 35.5534286c-2.037902.4971428-4.261849.7457143-6.666116.7457143-2.492995 0-4.788498-.3942858-6.886506-1.1857143-2.098009-.7885715-3.901209-1.9028572-5.4096-3.3371429-1.511254-1.4342857-2.693352-3.1542857-3.5434316-5.16-.85008-2.0057143-1.2765511-4.2371428-1.2765511-6.6971428 0-2.4885715.4321956-4.7428572 1.2994489-6.7657143.8643908-2.02 2.0607998-3.74000003 3.5835018-5.16000003 1.525565-1.42 3.317316-2.50857143 5.369529-3.27142857 2.052214-.76285714 4.267574-1.14285714 6.643218-1.14285714 2.464373 0 4.751289.37428571 6.863609 1.12 2.11232.74571428 3.829653 1.74857143 5.149138 3.00857143l-4.751289 5.40285711c-.735591-.8485714-1.703022-1.5457143-2.905156-2.0857143-1.202133-.5428571-2.567413-.8142857-4.092977-.8142857-1.319485 0-2.535929.2428572-3.652196.7257143-1.113404.4828572-2.080836 1.1571429-2.902293 2.02-.821458.8657143-1.459734 1.8885714-1.914827 3.0742857s-.681209 2.4828572-.681209 3.8885715c0 1.4342857.20608 2.7514285.615378 3.9514285.41216 1.2028572 1.018951 2.2342857 1.826098 3.0971429.807146.8628571 1.806062 1.5371428 2.991022 2.02 1.187822.4828571 2.544515.7257143 4.072942.7257143.878702 0 1.714471-.0657143 2.507307-.2.789973-.1314286 1.522702-.3428572 2.198186-.6342857v-5.6657143h-5.939111v-6.0628572h12.848516v16.4714286c-1.528427.7914286-3.308729 1.4342857-5.346631 1.9314286"/><path d="m147.534389 24.486c0-.7028571-.117351-1.3914286-.352053-2.0657143-.234702-.6714286-.572444-1.2657143-1.010364-1.7771428-.440783-.5114286-.984605-.9285715-1.628605-1.2514286-.646862-.3228572-1.393902-.4828572-2.243982-.4828572s-1.599982.16-2.243982.4828572c-.644.3228571-1.182098.74-1.605707 1.2514286-.426471.5114285-.749902 1.1057142-.967431 1.7771428-.220391.6742857-.332018 1.3628572-.332018 2.0657143s.111627 1.3914286.332018 2.0628571c.217529.6742858.549547 1.2828572.987467 1.8228572.440782.5428571.984604.9742857 1.628604 1.2971428.644.3228572 1.393902.4828572 2.246844.4828572.847218 0 1.59712-.16 2.24112-.4828572.644-.3228571 1.187823-.7542857 1.628605-1.2971428.440782-.54.769938-1.1485714.990329-1.8228572.220391-.6714285.329155-1.36.329155-2.0628571m6.952338 0c0 1.7857143-.323431 3.4028571-.967431 4.8542857-.646862 1.4485714-1.525564 2.6771429-2.641831 3.6885714-1.113405 1.0085715-2.404267 1.7942858-3.869725 2.3485715-1.46832.5571428-3.036817.8342857-4.708355.8342857-1.642916 0-3.205689-.2771429-4.685458-.8342857-1.482631-.5542857-2.773493-1.34-3.872587-2.3485715-1.099093-1.0114285-1.972071-2.24-2.616071-3.6885714-.646862-1.4514286-.970293-3.0685714-.970293-4.8542857s.323431-3.3971429.970293-4.8314286c.644-1.4342857 1.516978-2.6485714 2.616071-3.6457143 1.099094-.9942857 2.389956-1.7571428 3.872587-2.2828571 1.479769-.5285714 3.042542-.7914286 4.685458-.7914286 1.671538 0 3.240035.2628572 4.708355.7914286 1.465458.5257143 2.75632 1.2885714 3.869725 2.2828571 1.116267.9971429 1.994969 2.2114286 2.641831 3.6457143.644 1.4342857.967431 3.0457143.967431 4.8314286"/><path d="m157.606549 33.5442857h.526649c.538098 0 .712694-.1542857.712694-.4714286 0-.2742857-.134525-.4285714-.641138-.4285714h-.598205zm0 1.6114286h-.443644v-2.8742857h1.101955c.689796 0 1.024676.2542857 1.024676.82 0 .5171428-.323431.74-.752764.7914285l.821457 1.2628572h-.486577l-.767076-1.2485714h-.498027zm.532374-3.5257143c-1.1592 0-2.055076.8914286-2.055076 2.0828571 0 1.2142858.895876 2.0942858 2.055076 2.0942858 1.144889 0 2.037902-.88 2.037902-2.0942858 0-1.1914285-.893013-2.0828571-2.037902-2.0828571zm0-.4057143c1.359555 0 2.52448 1.0571429 2.52448 2.4885714 0 1.4428572-1.164925 2.5-2.52448 2.5-1.373867 0-2.538791-1.0571428-2.538791-2.5 0-1.4314285 1.164924-2.4885714 2.538791-2.4885714z"/></g></svg>