<svg height="68" viewBox="0 0 129 68" width="129" xmlns="http://www.w3.org/2000/svg"><g fill="#282138" fill-rule="evenodd"><path d="m68.8445313 31.9202899c-.3634913.1992434-.7738714.2973445-1.1882813.2840579-.1625 0-.5179687 0-1.1070312-.0811594v1.6637681c.5072396.1312016 1.0300326.1926381 1.5539062.1826087.7273543.0267379 1.4426415-.1911815 2.03125-.6188406.6314061-.5208523 1.1234696-1.1901492 1.4320313-1.947826l4.5601562-10.2666667h-2.153125l-2.7625 6.7260869-2.68125-6.7260869h-2.1835937l3.7476562 8.8362319-.3859375.8623188c-.1704542.4411647-.4716274.819866-.8632812 1.0855073z"/><path d="m79.4984375 29.1304348c.3558788.4761655.8279038.8533645 1.3710937 1.0956522.5925861.2699915 1.2378126.4051301 1.8890625.3956521 1.2332248.0484163 2.4241442-.4534427 3.25-1.3695652.8822216-.9264287 1.3669728-2.1606199 1.3507813-3.4391304.0414535-1.2969362-.4503129-2.5543082-1.3609375-3.4797102-.8554972-.905363-2.0547227-1.4066332-3.3007813-1.3797101h.0710938c-1.2061653-.0488234-2.3675911.4601373-3.1484375 1.3797101v-5.9855072h-2.03125v14.1014493h1.86875v-1.3188406zm.853125-5.5289855c.5420468-.5284993 1.2739529-.8172799 2.03125-.8014493.7648042-.0134627 1.5007211.2916023 2.03125.842029.5553241.5755122.8523146 1.3519542.8226562 2.1507246.0361027.8118822-.2610194 1.6033245-.8226562 2.1913044-.5191412.5702355-1.2597909.8883598-2.03125.8724637-.7495339.0260818-1.479222-.2436018-2.03125-.7507246-.5949868-.5928848-.9026253-1.4148079-.8429688-2.2521739-.056948-.8369733.2502842-1.6578105.8429688-2.2521739z" fill-rule="nonzero"/><path d="m61.684375 43.1101449c-1.0518408-.0379782-2.0704934.3712406-2.803125 1.126087v-.9130435h-1.8789062v9.2623188h2.03125v-5.5289855c-.0283512-.5707014.1855224-1.1268896.5890625-1.531884.4109354-.4020766.9688588-.6183976 1.54375-.5985507.558915-.0142245 1.0989871.2022974 1.4929687.5985507.3935636.4223522.5987917.9861001.56875 1.5623188v5.4985507h2.03125v-5.7724637c.0469967-.975015-.2840162-1.9306121-.9242187-2.668116-.6897892-.7152361-1.6582681-1.0933002-2.6507813-1.0347826z"/><path d="m71.8507813 43.1c-1.2811453-.0000458-2.5092348.511081-3.4113189 1.4197796s-1.4034216 2.1396796-1.3925874 3.4193508c-.0338398 1.297605.486919 2.5482463 1.4320313 3.4391305.9559555.9184024 2.2388075 1.4185585 3.5648437 1.389855 1.3918041.0134798 2.7335069-.5182327 3.7375-1.4811594l-.9445312-1.3492753c-.7378863.6851885-1.7043327 1.0720592-2.7117188 1.0855072-.7293987.018526-1.4441639-.2063741-2.03125-.6391304-.5638086-.4444999-.9288716-1.0935876-1.015625-1.8057971h6.9773438c.0996265-.4047356.1440388-.8210634.1320312-1.2376812.0349808-1.1436103-.4149776-2.2488318-1.2390625-3.0434783-.820966-.8119598-1.943374-1.2457188-3.0976562-1.1971014zm-2.7726563 3.9565217c.1377816-.6515949.4965296-1.2357023 1.015625-1.6536231.480696-.404048 1.0881685-.6266593 1.7164063-.6289856.625036-.014407 1.2318981.2106439 1.6960937.6289856.439587.4355349.6754915 1.0356843.65 1.6536231z" fill-rule="nonzero"/><path d="m94.1742187 30.642029c1.3918042.0134798 2.7335069-.5182328 3.7375-1.4811594l-.9546875-1.3492754c-.7372168.6926436-1.7098026 1.0805192-2.721875 1.0855072-.7293986.018526-1.4441639-.206374-2.03125-.6391304-.5638085-.4444998-.9288715-1.0935875-1.015625-1.8057971h6.9367188c.1204323-.401582.1820089-.8184687.1828125-1.2376811.0349808-1.1436104-.4149776-2.2488319-1.2390625-3.0434783-.8128719-.7936286-1.9104063-1.2284986-3.046875-1.2072464-1.2865183-.0027311-2.5208355.5079491-3.4286343 1.4185458-.9077987.9105967-1.413869 2.1456683-1.4057407 3.4307296-.0288179 1.2946359.486921 2.5420687 1.421875 3.4391304.9534622.9222891 2.2380058 1.4231047 3.5648437 1.3898551zm-2.03125-7.3550725c.4847838-.4026294 1.0961029-.6217406 1.7265625-.6188406.6195128-.0105869 1.2206934.2100826 1.6859375.6188406.4540255.4296156.7080212 1.0289657.7007813 1.6536232h-5.078125c.1247007-.6469001.4690883-1.2309897.975-1.6536232z" fill-rule="nonzero"/><path d="m82.8703125 50.9623188c-.4828718.0424695-.9659633-.0790623-1.3710937-.3449275-.3316268-.3219317-.4964462-.7784215-.446875-1.2376812v-4.3420289h2.7726562v-1.7144928h-2.7726562v-2.4144927h-2.03125v2.4144927h-1.503125v1.7144928h1.5132812v4.5043478c-.0659414.8969897.268681 1.7771796.9140625 2.4043478.7192363.5609421 1.6178232.8421134 2.5289063.7913044.5609389-.0152585 1.1189352-.0866296 1.665625-.2130435v-1.6637681c-.5585938.0608695-.9445313.1014492-1.2390625.1014492z"/><path d="m96.3679688 49.2681159-2.884375-6.157971h-.6804688l-2.8335937 6.2391305-2.4679688-6.026087h-2.1226563l4.1539063 9.4144928h.6804688l2.9351562-6.1275363 2.925 6.1275363h.7007812l4.1437503-9.4144928h-2.1226565z"/><path d="m106.422656 43.1101449c-1.307929-.0282956-2.571717.472997-3.503906 1.3898551-.917386.9036585-1.43385 2.1369322-1.43385 3.423913s.516464 2.5202546 1.43385 3.4239131c1.961671 1.867956 5.046141 1.867956 7.007813 0 .93089-.8984424 1.456585-2.1359947 1.456585-3.4289855 0-1.2929909-.525695-2.5305431-1.456585-3.4289855-.935773-.9102021-2.198063-1.4072458-3.503907-1.3797102zm2.03125 6.9391305c-1.152166 1.1237734-2.991583 1.1237734-4.14375 0-.550604-.5661609-.847495-1.331359-.822656-2.1202899-.034068-.7964846.263769-1.5714687.822656-2.1405797.536096-.5460073 1.265733-.8594013 2.03125-.8724638.763295.0043976 1.493723.3108353 2.03125.8521739.55375.5723952.850707 1.3450886.822657 2.1405798.037782.7822339-.227763 1.5489107-.741407 2.1405797z" fill-rule="nonzero"/><path d="m115.075781 44.5202899v-1.2072464h-1.858593v9.2521739h2.03125v-4.9507246c-.033933-.7089622.248797-1.3964201.771875-1.8768116.540135-.4574779 1.232185-.696349 1.939843-.6695653h.599219v-1.7449275c-.241685-.0647123-.491223-.095443-.741406-.0913043-1.070487-.0467598-2.095632.4349003-2.742188 1.2884058z"/><path d="m102.157031 25.5086957c-.035362-.709208.247608-1.3972488.771875-1.8768116.540614-.4577027 1.231452-.6997684 1.939844-.6797102h.609375v-1.7347826c-.245281-.0639999-.498074-.0947107-.751563-.0913043-1.065619-.0393974-2.082794.4458759-2.721875 1.2985507v-1.2072464h-1.86875v9.2318841h2.03125v-4.9405797z"/><path d="m120.397656 38.4536232h2.000781v14.1217391h-2.000781z"/><path d="m124.815625 47.3710145 3.767969-4.0478261h-2.467969l-3.65625 4.0376812 4.072656 5.2043478h2.407032z"/><path d="m65.1882812 21.1971014h-2.478125l-3.6460937 4.0478261 4.0726562 5.2144928h2.4070313l-4.1234375-5.1942029z"/><path d="m57.0023438 16.3376812h2.0007812v14.1217391h-2.0007812z"/><path d="m20.328125 34.0101449 25.390625 14.5275363c.4154725.2494516.9333956.2554378 1.3545353.0156558s.6798899-.6879785.6767147-1.1721776v-26.7623188c.0061227-.4851838-.2529598-.9351365-.6758871-1.1738241-.4229274-.2386875-.9424679-.2281664-1.3553629.0274473z"/><path d="m45.1804687 13.0405797-17.3570312-12.7521739c-.3663669-.27974502-.8483305-.35840607-1.2847827-.2096888-.4364523.14871726-.7698154.50519371-.8886548.95026851l-6.3375 28.40579709 25.715625-14.2028985c.3979574-.2044864.6600602-.6017766.6912071-1.0477182.0311469-.4459415-.1731878-.8757376-.5388634-1.1334413"/><path d="m27.803125 67.7217391 17.3773438-12.7521739c.3657239-.2609905.5705345-.6921728.5415967-1.140209s-.2875182-.8493556-.6837842-1.0612403l-25.7257813-14.2028985 6.3375 28.4057971c.1067922.4483223.4321459.8129394.8657819.9702637s.9174089.0862604 1.2873431-.1891043"/><path d="m13.7265625 33.4927536 6.6015625-30.85072461c.1031361-.52278444-.1213357-1.05583218-.5675672-1.34778793-.4462314-.29195574-1.0251154-.28451942-1.4636828.01880242l-16.91015625 12.95507242c-.86798097.6651567-1.37513321 1.6970929-1.37109375 2.7898551v32.8695652c-.02008774 1.1105353.48872432 2.1646727 1.37109375 2.8405797l16.82890625 12.9043479c.4385674.3033218 1.0174514.3107581 1.4636828.0188024.4462315-.2919558.6707033-.8250035.5675672-1.3477879z"/></g></svg>