<svg id="Layer_1" data-name="Layer 1" xmlns="http://www.w3.org/2000/svg" viewBox="0 0 800 158.104"><defs><style>.cls-1{fill:#a6a6a6;}</style></defs><title>Black</title><path d="M82.882,32.011c18.658,0,29.576,11.056,29.576,26.534a21.752,21.752,0,0,1-14.65,21.144C109,82.454,115.5,92.4,115.5,103.322c0,15.478-12.3,26.673-30.265,26.673H50.959V32.011Zm-1.52,42.842c10.918,0,17.414-6.5,17.414-15.617,0-9.259-6.772-15.34-17.967-15.34H64.5V74.853ZM83.3,118.109c10.918,0,18.381-6.081,18.381-15.617,0-9.4-5.943-16.031-17.827-16.031H64.5v31.648Z"/><path d="M149.3,129.994V29.938H162.29V129.994Z"/><path d="M259.849,96.688c0,20.316-14.095,35.379-34,35.379s-34-15.064-34-35.379c0-20.177,14.1-35.241,34-35.241S259.849,76.511,259.849,96.688Zm-13.266,0c0-15.34-9.674-23.632-20.731-23.632s-20.729,8.292-20.729,23.632c0,15.478,9.674,23.771,20.729,23.771S246.583,112.167,246.583,96.688Z"/><path d="M302.679,96.688c0,15.2,9.536,23.356,20.316,23.356,12.44,0,17-8.43,18.518-13.682l11.471,4.975c-3.177,9.536-12.713,20.73-29.989,20.73-19.347,0-33.582-15.2-33.582-35.379,0-20.73,14.51-35.241,33.444-35.241,17.69,0,26.81,11.056,29.574,21.144l-11.746,4.976c-1.657-6.5-6.494-14.1-17.827-14.1C312.355,73.471,302.679,81.21,302.679,96.688Z"/><path d="M413.781,91.575l28.885,38.42H426.359l-21.7-29.3-9.26,9.259v20.039H382.548V29.938H395.4V92.957L424.148,63.52h17.965Z"/><path d="M497.936,75.267v54.727H484.53V75.267h-12.3V63.52h12.3V52.326c0-14.787,9.813-22.8,21.835-22.8,4.423,0,7.187.968,7.741,1.382V42.514a15,15,0,0,0-5.666-.829c-4.561,0-10.5,2.211-10.5,11.332v10.5h16.032V75.267Z"/><path d="M611.665,96.688c0,20.316-14.095,35.379-34,35.379s-34-15.064-34-35.379c0-20.177,14.1-35.241,34-35.241S611.665,76.511,611.665,96.688Zm-13.266,0c0-15.34-9.674-23.632-20.731-23.632s-20.729,8.292-20.729,23.632c0,15.478,9.674,23.771,20.729,23.771S598.4,112.167,598.4,96.688Z"/><path d="M641.229,129.994V29.938h12.991V129.994Z"/><path d="M693.065,29.938a6.425,6.425,0,1,1-6.378,6.472A6.419,6.419,0,0,1,693.065,29.938Z"/><rect x="686.685" y="63.52" width="12.853" height="66.474"/><path d="M800,96.688c0,20.316-14.095,35.379-34,35.379s-34-15.064-34-35.379c0-20.177,14.1-35.241,34-35.241S800,76.511,800,96.688Zm-13.266,0c0-15.34-9.674-23.632-20.731-23.632s-20.729,8.292-20.729,23.632c0,15.478,9.674,23.771,20.729,23.771S786.734,112.167,786.734,96.688Z"/><path class="cls-1" d="M148.214,158.1H9.891A9.9,9.9,0,0,1,0,148.214V9.89A9.9,9.9,0,0,1,9.891,0H148.214a9.9,9.9,0,0,1,9.891,9.89v9.734h-3.529V9.89a6.369,6.369,0,0,0-6.361-6.361H9.891A6.369,6.369,0,0,0,3.529,9.89V148.214a6.369,6.369,0,0,0,6.361,6.361H148.214a6.369,6.369,0,0,0,6.361-6.361v-7.675h3.529v7.675A9.9,9.9,0,0,1,148.214,158.1Z"/></svg>