<svg height="70" viewBox="0 0 99 70" width="99" xmlns="http://www.w3.org/2000/svg"><g fill="#282138" fill-rule="evenodd"><path d="m1.6117398 54.2524821 7.2686988 12.0464143.0133452.0134263v.0134263c.0198792.0205976.0377388.0430677.0533412.0671315l.0533412.0536653.0533808.0559363c.0249876.0150996.048114.0331075.0689436.0536653.0444708.0268526.0533808.0313148.0266904.0134263-.0400356-.0268526.0155628 0 .0155628.0134263h.0244332c.0262944.0163347.0537768.0305578.0822888.0424701l.066726.0268526c.0266508.008008.0544104.0117132.0822492.0112351.0210276.0116733.044946.0170916.068904.0156175.0519156.0178884.1082268.0178884.1601028 0 .0239976.0014741.047916-.0039442.0689436-.0156175.027126.0006374.0541332-.0031474.0800316-.0112351.028908 0 .0511632-.0201195.0689436-.0268526.028512-.0119123.0559944-.0261354.0822888-.0424701.0355608-.0178884.048906-.0223506.0377784-.0134263-.0111276.0089641-.0177804.0134263.028908-.0134263.0204732-.02.0428076-.0379681.066726-.0536653.019602-.0175299.0381744-.036255.0555588-.0559363l.0533808-.0536653c.0156024-.0240638.033462-.0465339.0533412-.0671315v-.0134263l.0133452-.0134263 7.2686988-12.0464143v14.8963745c-.0060588.2166534.0739728.4267729.222354.5839044.152064.1472111.356004.2276892.5669928.2236653.4470048.0012351.8103348-.3623108.811602-.8120319v-.0044621-17.7933466c.0264924-.3731076-.2302344-.7065737-.5959404-.7740239-.3503808-.1232271-.737352.0336653-.9049392.3668924l-8.0646984 13.3752191-8.0602632-13.3752191c-.1684584-.3335458-.5561424-.4903586-.907236-.3668924-.3647952.068486-.620334.4016334-.5936436.7740239v17.8022709c-.006336.2166932.0737352.4269322.2223144.5839044.1574892.1485657.3667356.2289243.5825952.2237051.2110284.0042231.4150872-.0762549.5669928-.2237051.1483812-.1571315.2284128-.367251.222354-.5839044zm27.9207324 9.531992 4.2669396-10.346255 4.27581 10.3485259zm-3.086226 6.1786853c.3323232.0191235.636768-.1865737.744876-.5033467l1.6787232-4.0467729h9.8791308l1.6787628 4.0467729c.1072368.3164144.4108896.5222311.7426584.5033467.4481928-.0050598.807444-.3747012.8023752-.8256574-.0011088-.1003187-.0206316-.1996016-.0574992-.2928287l-1.8899892-4.5546215v-.0156574l-5.4809964-13.2678486c-.0177804-.044741-.039996-.0939442-.0666864-.1476494-.0400356-.0805179-.0177804 0-.0555984-.0558964l-.0533808-.0671315s-.0311256-.0178884-.068904-.0536653l-.0533808-.0425498c-.0889416-.0624303-.1908324-.103745-.2979504-.1207968h-.066726l-.0822492-.0022311-.0955944.0134263h-.066726c-.1017324.0192032-.1980792.0604382-.2823876.1208366l-.0555588.0424702-.066726.0537051-.0555984.0670917-.0533808.0559761c-.0266508.0536653-.0511236.1028685-.068904.1476095l-5.4809568 13.2566534v.0156574l-1.8811188 4.5478884c-.0890208.1984064-.0890208.4256973 0 .6241435.1306008.2986055.4207104.4946215.744876.5033466zm22.8577932-.3825498c.1603404-.1441833.2497572-.3518725.2445696-.5681674v-5.1854581l2.408076-2.5524702 8.0046648 8.4448208c.31185.3239442.8256204.332231 1.147608.018486.1512324-.1474103.2396592-.3481275.2465496-.5598406.0075636-.2129482-.0729432-.4194423-.2223936-.5704383l-8.0513532-8.5007569 7.7823108-8.2031873c.1526976-.1543426.233442-.3663745.2223936-.5838645.0028116-.2125897-.0864864-.4159363-.2446092-.557012-.1563804-.1488844-.365112-.2293227-.5802984-.2237052-.2121768.0070917-.4125132.0998008-.5559048.257251l-10.1370456 10.7019522v-10.2321912c-.0072468-.4453387-.368874-.8021116-.8115624-.8008367-.4321548-.0086852-.7895448.3367331-.7982172.771514-.000198.0097609-.000198.0195617-.0000396.0293227v17.7486056c-.0074844.212231.073062.4180876.222354.568247.1472328.1584462.353628.2476494.56925.2460558.2155428.0046613.4224528-.0851395.5669928-.2460558zm29.8151568.3825498c.4476384-.0235857.7914456-.407769.7680024-.8580877-.0217404-.4173705-.3531924-.7508366-.7680024-.7727092h-9.932472v-7.3016733h7.4288016c.4469652-.0002788.8091468-.3650597.8088696-.814741-.0002772-.4493625-.3622608-.8135458-.8088696-.8138247h-7.4288016v-7.3084064l9.932472.0268526c.2129292.0075697.419562-.0733466.571428-.2236653.156618-.1532271.244134-.3641434.2423916-.5838646-.0000396-.2154581-.0875952-.4215139-.2423916-.570478-.1468368-.1600399-.3549744-.2488845-.571428-.2438247l-10.744074-.0268526c-.21681-.0105976-.4265316.079243-.5692104.2438645-.1584.1463347-.2466684.3541036-.242352.5704383v17.8694023c.0105732.4464542.3678048.8058965.8115624.8164941zm17.1210996-11.6639044c-.763884.7037052-1.7637048 1.0911952-2.7994032 1.0850199h-5.41431v-7.2636653h5.3187156c1.0571616-.0229084 2.0831184.3611952 2.8683468 1.073745 1.407978 1.1834263 1.5958404 3.2910358.4196412 4.7076095-.119592.1440638-.251064.2776893-.3929904.3995618zm-9.0252756-7.7826295c-.2115036-.0031474-.4158396.0771713-.5692104.223745-.1489752.1512749-.2294028.3575697-.222354.5704383v17.7083665c-.0037224.2122311.07623.4172908.222354.5703984.1533708.1465737.3577068.2268128.5692104.2237052.2113452.0060558.4160376-.0747411.5670324-.2237052.1570932-.1474104.2457972-.3543028.24453-.5703984v-8.0175697h4.5204588l4.177998 8.5141434c.1222452.2850199.4078008.4634661.715968.4474104.3420252-.0001594.6463908-.2184064.7582212-.5436255.0727848-.2001196.0582516-.4218725-.0400356-.6106773l-3.857832-7.8900399c1.2821292-.1796812 2.461734-.8039043 3.33531-1.7650199 1.869318-1.9793625 1.7898012-5.1086454-.1776456-6.9893227-.0402336-.0384462-.0810612-.0761753-.1225224-.1132271-1.0863072-1.0136255-2.5210548-1.563745-4.0023324-1.5346215z"/><path d="m43.8319372 45.2869004c-.4374216 0-.792-.3567331-.792-.7968128v-22.9094422l-25.1048952-19.14039839v42.04984059c0 .4400797-.354618.7968128-.792.7968128-.4374216 0-.792-.3567331-.792-.7968128v-43.65342624c0-.30250997.17028-.57896415.43956-.71358566.26928-.13458168.5911092-.10418327.8307684.07852589l26.6889348 20.34804781c.1975644.1505976.313632.3856175.313632.6350598v23.3053784c0 .4400797-.3545784.7968128-.792.7968128"/><path d="m78.7345218 45.2869004c-.4374216 0-.792-.3567331-.792-.7968128v-42.04984059l-25.1048952 19.14039839v22.9094422c0 .4400797-.3545784.7968128-.792.7968128s-.792-.3567331-.792-.7968128v-23.3053784c0-.2494423.1160676-.4844622.3136716-.6350598l26.6888952-20.34804781c.23958-.182749.5614488-.21322709.8307288-.07852589.2693196.13462151.4395996.41107569.4395996.71358566v43.65342624c0 .4400797-.3545784.7968128-.792.7968128"/><path d="m1.6117398 54.2524821 7.2686988 12.0464143.0133452.0134263v.0134263c.0198792.0205976.0377388.0430677.0533412.0671315l.0533412.0536653.0533808.0559363c.0249876.0150996.048114.0331075.0689436.0536653.0444708.0268526.0533808.0313148.0266904.0134263-.0400356-.0268526.0155628 0 .0155628.0134263h.0244332c.0262944.0163347.0537768.0305578.0822888.0424701l.066726.0268526c.0266508.008008.0544104.0117132.0822492.0112351.0210276.0116733.044946.0170916.068904.0156175.0519156.0178884.1082268.0178884.1601028 0 .0239976.0014741.047916-.0039442.0689436-.0156175.027126.0006374.0541332-.0031474.0800316-.0112351.028908 0 .0511632-.0201195.0689436-.0268526.028512-.0119123.0559944-.0261354.0822888-.0424701.0355608-.0178884.048906-.0223506.0377784-.0134263-.0111276.0089641-.0177804.0134263.028908-.0134263.0204732-.02.0428076-.0379681.066726-.0536653.019602-.0175299.0381744-.036255.0555588-.0559363l.0533808-.0536653c.0156024-.0240638.033462-.0465339.0533412-.0671315v-.0134263l.0133452-.0134263 7.2686988-12.0464143v14.8963745c-.0060588.2166534.0739728.4267729.222354.5839044.152064.1472111.356004.2276892.5669928.2236653.4470048.0012351.8103348-.3623108.811602-.8120319v-.0044621-17.7933466c.0264924-.3731076-.2302344-.7065737-.5959404-.7740239-.3503808-.1232271-.737352.0336653-.9049392.3668924l-8.0646984 13.3752191-8.0602632-13.3752191c-.1684584-.3335458-.5561424-.4903586-.907236-.3668924-.3647952.068486-.620334.4016334-.5936436.7740239v17.8022709c-.006336.2166932.0737352.4269322.2223144.5839044.1574892.1485657.3667356.2289243.5825952.2237051.2110284.0042231.4150872-.0762549.5669928-.2237051.1483812-.1571315.2284128-.367251.222354-.5839044zm27.9207324 9.531992 4.2669396-10.346255 4.27581 10.3485259zm-3.086226 6.1786853c.3323232.0191235.636768-.1865737.744876-.5033467l1.6787232-4.0467729h9.8791308l1.6787628 4.0467729c.1072368.3164144.4108896.5222311.7426584.5033467.4481928-.0050598.807444-.3747012.8023752-.8256574-.0011088-.1003187-.0206316-.1996016-.0574992-.2928287l-1.8899892-4.5546215v-.0156574l-5.4809964-13.2678486c-.0177804-.044741-.039996-.0939442-.0666864-.1476494-.0400356-.0805179-.0177804 0-.0555984-.0558964l-.0533808-.0671315s-.0311256-.0178884-.068904-.0536653l-.0533808-.0425498c-.0889416-.0624303-.1908324-.103745-.2979504-.1207968h-.066726l-.0822492-.0022311-.0955944.0134263h-.066726c-.1017324.0192032-.1980792.0604382-.2823876.1208366l-.0555588.0424702-.066726.0537051-.0555984.0670917-.0533808.0559761c-.0266508.0536653-.0511236.1028685-.068904.1476095l-5.4809568 13.2566534v.0156574l-1.8811188 4.5478884c-.0890208.1984064-.0890208.4256973 0 .6241435.1306008.2986055.4207104.4946215.744876.5033466zm22.8577932-.3825498c.1603404-.1441833.2497572-.3518725.2445696-.5681674v-5.1854581l2.408076-2.5524702 8.0046648 8.4448208c.31185.3239442.8256204.332231 1.147608.018486.1512324-.1474103.2396592-.3481275.2465496-.5598406.0075636-.2129482-.0729432-.4194423-.2223936-.5704383l-8.0513532-8.5007569 7.7823108-8.2031873c.1526976-.1543426.233442-.3663745.2223936-.5838645.0028116-.2125897-.0864864-.4159363-.2446092-.557012-.1563804-.1488844-.365112-.2293227-.5802984-.2237052-.2121768.0070917-.4125132.0998008-.5559048.257251l-10.1370456 10.7019522v-10.2321912c-.0072468-.4453387-.368874-.8021116-.8115624-.8008367-.4321548-.0086852-.7895448.3367331-.7982172.771514-.000198.0097609-.000198.0195617-.0000396.0293227v17.7486056c-.0074844.212231.073062.4180876.222354.568247.1472328.1584462.353628.2476494.56925.2460558.2155428.0046613.4224528-.0851395.5669928-.2460558zm29.8151568.3825498c.4476384-.0235857.7914456-.407769.7680024-.8580877-.0217404-.4173705-.3531924-.7508366-.7680024-.7727092h-9.932472v-7.3016733h7.4288016c.4469652-.0002788.8091468-.3650597.8088696-.814741-.0002772-.4493625-.3622608-.8135458-.8088696-.8138247h-7.4288016v-7.3084064l9.932472.0268526c.2129292.0075697.419562-.0733466.571428-.2236653.156618-.1532271.244134-.3641434.2423916-.5838646-.0000396-.2154581-.0875952-.4215139-.2423916-.570478-.1468368-.1600399-.3549744-.2488845-.571428-.2438247l-10.744074-.0268526c-.21681-.0105976-.4265316.079243-.5692104.2438645-.1584.1463347-.2466684.3541036-.242352.5704383v17.8694023c.0105732.4464542.3678048.8058965.8115624.8164941zm17.1210996-11.6639044c-.763884.7037052-1.7637048 1.0911952-2.7994032 1.0850199h-5.41431v-7.2636653h5.3187156c1.0571616-.0229084 2.0831184.3611952 2.8683468 1.073745 1.407978 1.1834263 1.5958404 3.2910358.4196412 4.7076095-.119592.1440638-.251064.2776893-.3929904.3995618zm-9.0252756-7.7826295c-.2115036-.0031474-.4158396.0771713-.5692104.223745-.1489752.1512749-.2294028.3575697-.222354.5704383v17.7083665c-.0037224.2122311.07623.4172908.222354.5703984.1533708.1465737.3577068.2268128.5692104.2237052.2113452.0060558.4160376-.0747411.5670324-.2237052.1570932-.1474104.2457972-.3543028.24453-.5703984v-8.0175697h4.5204588l4.177998 8.5141434c.1222452.2850199.4078008.4634661.715968.4474104.3420252-.0001594.6463908-.2184064.7582212-.5436255.0727848-.2001196.0582516-.4218725-.0400356-.6106773l-3.857832-7.8900399c1.2821292-.1796812 2.461734-.8039043 3.33531-1.7650199 1.869318-1.9793625 1.7898012-5.1086454-.1776456-6.9893227-.0402336-.0384462-.0810612-.0761753-.1225224-.1132271-1.0863072-1.0136255-2.5210548-1.563745-4.0023324-1.5346215z"/></g></svg>