<svg height="209" viewBox="0 0 196 209" width="196" xmlns="http://www.w3.org/2000/svg" xmlns:xlink="http://www.w3.org/1999/xlink"><defs><linearGradient id="a" x1="17.801339%" x2="91.081394%" y1="12.322624%" y2="94.559152%"><stop offset="0" stop-color="#282138"/><stop offset="1" stop-color="#8c4398"/></linearGradient><circle id="b" cx="98" cy="98" r="98"/><linearGradient id="c" x1="45.134162%" x2="11.403573%" y1="44.760893%" y2="26.329008%"><stop offset="0" stop-opacity="0"/><stop offset="1"/></linearGradient><mask id="d" fill="#fff"><use fill="#fff" fill-rule="evenodd" xlink:href="#b"/></mask></defs><g fill="none" fill-rule="evenodd"><g transform="translate(0 13)"><g fill-rule="nonzero"><use fill="#282138" xlink:href="#b"/><use fill="url(#a)" xlink:href="#b"/></g><path d="m316.78769 396.59922-226.0537934-226.136151v-181.8268827l226.0537934 226.1361507z" fill="url(#c)" mask="url(#d)" opacity=".4"/></g><g transform="translate(35 .31939)"><path d="m55.7338966.40061757-55.7338966 92.50958033 55.7338966 32.9522821 55.7338964-32.9522821z" fill="#6276ae"/><path d="m55.7338966 136.402833-55.7338966-32.921478 55.7338966 78.556944 55.7646894-78.556944z" fill="#6276ae"/><g fill="#fff"><path d="m.00016207 92.9106843 55.73389653 32.9506607v-125.46186231z" opacity=".2"/><path d="m.00016207 103.481517 55.73389653 78.556944v-45.635466z" opacity=".1"/><path d="m55.7335724 118.005651v-20.7117052l-36.4233793-36.4363882-7.7841724 12.9231312z" opacity=".15"/><path d="m55.7335724 80.5097637v-11.7347414l-25.7008965-25.711697-4.413138 7.3216485z" opacity=".25"/></g></g></g></svg>