<svg height="259" viewBox="0 0 260 259" width="260" xmlns="http://www.w3.org/2000/svg" xmlns:xlink="http://www.w3.org/1999/xlink"><defs><linearGradient id="a" x1="20.920331%" x2="101.999998%" y1="13.113468%" y2="100.999999%"><stop offset="0" stop-color="#282138"/><stop offset="1" stop-color="#8c4398"/></linearGradient><path id="b" d="m141.155418 14.3108351 121.055728 242.1114559c1.975914 3.951828.374119 8.757213-3.577709 10.733127-1.110844.555421-2.335748.844582-3.577709.844582h-242.1114561c-4.41827799 0-7.99999999-3.581722-7.99999999-8 0-1.241961.28916073-2.466865.84458247-3.577709l121.05572762-242.1114559c1.975914-3.951828 6.781299-5.5536228 10.733127-3.5777088 1.548219.7741096 2.803599 2.0294895 3.577709 3.5777088z"/><linearGradient id="c" x1="50%" x2="17.017629%" y1="43.849395%" y2="10.939498%"><stop offset="0" stop-color="#282138" stop-opacity="0"/><stop offset="1" stop-color="#282138"/></linearGradient><mask id="d" fill="#fff"><use fill="#fff" fill-rule="evenodd" xlink:href="#b"/></mask><mask id="e" fill="#fff"><path d="m0 .53640671h127.774743v166.69059029h-127.774743z" fill="#fff" fill-rule="evenodd"/></mask><mask id="f" fill="#fff"><path d="m.00078023.00023493h41.12672867v32.35505617h-41.12672867z" fill="#fff" fill-rule="evenodd"/></mask></defs><g fill="none" fill-rule="evenodd"><g transform="translate(-4 -9)"><g fill-rule="nonzero"><use fill="#282138" xlink:href="#b"/><use fill="url(#a)" xlink:href="#b"/></g><path d="m264.708472 482.494652-240.8021041-241.115077 123.4921981-162.5867247 240.802104 241.1168057z" fill="url(#c)" mask="url(#d)" opacity=".6"/></g><g transform="translate(19 62)"><path d="m120.869083 167.226997h-113.96411319c-3.81365094 0-6.90566038-3.09605-6.90566038-6.914685v-152.86121997c0-3.81863497 3.09200944-6.91468532 6.90566038-6.91468532h113.96411319c3.813651 0 6.90566 3.09605035 6.90566 6.91468532v152.86121997c0 3.818635-3.092009 6.914685-6.90566 6.914685" fill="#f1f2f2" mask="url(#e)" transform="translate(0 5.25689)"/><g fill="#b3b3b3"><path d="m39.1039539 9.83121921c-1.1944232 1.89554879-3.2054419 3.13018399-5.0876161 4.23751929-2.0214656 1.1858079-4.1630699 2.2652418-6.376061 3.0447361-.1984902.0714973-.663375.1900781-1.2501398.3260972.0034823-.0139507.0052234-.0261575.0069646-.0401082.7486909-4.2968097 1.535687-9.26150828 4.0272608-12.94100037 3.7887244-5.59771071 12.6232776-.88935591 8.6795915 5.37275598zm-25.429375 8.99121389c-.2646535.7882134-.6581515 1.6130474-1.1735295 2.3594089-.2159016-.0819603-.4614025-.0383644-.5937293.23193-1.8926211 3.9183975-6.00171557-.1464821-7.66450593-2.6279595 1.2222815-2.1414295 2.19906201-4.4049275 2.87636614-6.863735.18281989-.6678888-.85315944-.9538778-1.03772047-.2859889-.59721161 2.1693308-1.41903051 4.1782289-2.44630413 6.080753-.01915256-.0401082-.04352854-.0906794-.05745768-.1290438-.56064764-1.5694516-.66859842-3.2923607-.57109449-4.9455164.08531595-1.4927228.4004626-3.46325652 1.19268209-4.7885712 2.05977067-3.43884285 6.14274807-2.68550608 8.32962207.0697534 2.2008031 2.7744417 2.2373671 7.6083526 1.1456712 10.8989695zm-10.80900784 2.1693308c.233313-.338304.46488485-.6783518.68252756-1.025375.84793603 1.3898366 2.03365355 2.5477431 3.57804626 3.236558.54149508.242393 1.12129528.4202642 1.70109547.5161751-2.5159498.4254958-4.43817027-.9765476-5.96166929-2.7273581zm-1.46255905.1953096c-.01392914-.1150932-.02437599-.2284424-.03656398-.3417917.04875197.062778.09750394.1255561.14799705.1883342zm30.89133659-20.27208322c-3.6442096 2.28616784-5.0092647 7.39909238-5.933811 11.28610082-.4143917 1.7403475-.8514183 3.6079949-1.2240226 5.5192382-1.7411418.3766683-3.7103731.7533367-3.6964439.6591696.0800925-.4743231-.3482284-.8178586-.7887372-.6068546-2.0841467.9992175-3.562376 1.3601914-5.87113 1.4543585-.0470108.0017438-.087057.0191822-.1288445.031389 1.7759646-5.1373382.8688298-12.99680306-4.89957279-14.61682588-6.37606102-1.78917483-8.33136318 5.94822158-7.75156299 10.72981748.14277362 1.1910393.46488484 2.3873102.96633366 3.4911579-.25768897.4289834-.51537795.8614545-.79918405 1.2799749-.36389862-.4690916-.71038583-.9416709-1.02901477-1.3933242-.23853641-.3400479-.89146456-.3679492-.98026279.1272999-.27335925 1.5014421-.20893701 2.4588075.33952264 3.8765455.12884449.3365602.61636417.5841848.89842913.2371616.29947638-.3662054.55020079-.7533368.82878347-1.1282613 1.46255905 1.6113036 3.2211122 2.8965101 5.51245472 3.0011402 2.73359247.1255561 4.96921847-1.628742 6.21761717-3.9619934.1410324-.2633191.2681358-.5440766.3900157-.8318093.0818337.1395068.221125.242393.4352854.2336739 1.9953485-.0819603 3.7451959-.4830424 5.5263839-1.2259161.06094.221467.2315718.4045697.4962254.3941067 1.2344695-.0488274 2.6343474-.2197232 4.1056122-.5057122-.5554242 3.1266964-.8897234 6.3231461-.5989528 9.24407.7034213 7.074739 6.4161073 3.9619933 8.0475571-.931208.2193839-.6574258-.8183366-.9399271-1.0359793-.2859889-.4822963 2.7883923-2.4045167 3.6219455-5.7596969 2.5024033-.2280895-1.3880927-.2838061-2.7796731-.1688907-4.1747412.0870571-2.2111829.4143917-4.4345727.7852549-6.6248296 5.8328248-1.3723982 12.383-4.5304836 14.446253-9.43240413 2.1572746-5.13210674-2.9895404-11.70113361-8.3296221-8.34773869z" mask="url(#f)" transform="translate(70.606299 112.363636)"/><path d="m56.4370274 42.7483133h-38.0260189c-.9529811 0-1.7264151-.7744448-1.7264151-1.7286713v-.484028c0-.9559553.773434-1.7286713 1.7264151-1.7286713h38.0260189c.9529811 0 1.7264151.772716 1.7264151 1.7286713v.484028c0 .9542265-.773434 1.7286713-1.7264151 1.7286713"/><path d="m56.4370274 50.9130008h-38.0260189c-.9529811 0-1.7264151-.7744447-1.7264151-1.7286713v-.484028c0-.9559552.773434-1.7286713 1.7264151-1.7286713h38.0260189c.9529811 0 1.7264151.7727161 1.7264151 1.7286713v.484028c0 .9542266-.773434 1.7286713-1.7264151 1.7286713"/><path d="m109.433137 67.2425488h-91.0235096c-.9512548 0-1.7264151-.7744447-1.7264151-1.7286713v-.484028c0-.9559552.7751603-1.7286713 1.7264151-1.7286713h91.0235096c.954707 0 1.726415.7727161 1.726415 1.7286713v.484028c0 .9542266-.771708 1.7286713-1.726415 1.7286713"/><path d="m109.433137 75.4072364h-91.0235096c-.9512548 0-1.7264151-.7744448-1.7264151-1.7286714v-.4840279c0-.9559553.7751603-1.7286714 1.7264151-1.7286714h91.0235096c.954707 0 1.726415.7727161 1.726415 1.7286714v.4840279c0 .9542266-.771708 1.7286714-1.726415 1.7286714"/><path d="m109.433137 83.5720968h-91.0235096c-.9512548 0-1.7264151-.7744448-1.7264151-1.7286713v-.484028c0-.9559553.7751603-1.7286713 1.7264151-1.7286713h91.0235096c.954707 0 1.726415.772716 1.726415 1.7286713v.484028c0 .9542265-.771708 1.7286713-1.726415 1.7286713"/><path d="m109.433137 91.7367843h-91.0235096c-.9512548 0-1.7264151-.7744447-1.7264151-1.7286713v-.484028c0-.9559552.7751603-1.7286713 1.7264151-1.7286713h91.0235096c.954707 0 1.726415.7727161 1.726415 1.7286713v.484028c0 .9542266-.771708 1.7286713-1.726415 1.7286713"/><path d="m56.4370274 99.9016448h-38.0260189c-.9529811 0-1.7264151-.7744448-1.7264151-1.7286714v-.4840279c0-.9559553.773434-1.7286714 1.7264151-1.7286714h38.0260189c.9529811 0 1.7264151.7727161 1.7264151 1.7286714v.4840279c0 .9542266-.773434 1.7286714-1.7264151 1.7286714"/><path d="m56.4370274 108.066332h-38.0260189c-.9529811 0-1.7264151-.774444-1.7264151-1.728671v-.484028c0-.955955.773434-1.728671 1.7264151-1.728671h38.0260189c.9529811 0 1.7264151.772716 1.7264151 1.728671v.484028c0 .954227-.773434 1.728671-1.7264151 1.728671"/><path d="m109.433137 99.9016448h-38.0242927c-.9547075 0-1.7264151-.7744448-1.7264151-1.7286714v-.4840279c0-.9559553.7717076-1.7286714 1.7264151-1.7286714h38.0242927c.954707 0 1.726415.7727161 1.726415 1.7286714v.4840279c0 .9542266-.771708 1.7286714-1.726415 1.7286714"/><path d="m109.433137 108.066332h-38.0242927c-.9547075 0-1.7264151-.774444-1.7264151-1.728671v-.484028c0-.955955.7717076-1.728671 1.7264151-1.728671h38.0242927c.954707 0 1.726415.772716 1.726415 1.728671v.484028c0 .954227-.771708 1.728671-1.726415 1.728671"/></g><path d="m34.445434 125.239126 2.4929434 2.214428c.6007924.532431 1.3966698.791732 2.1942735.713941l3.3181699-.32499c1.4536415-.140022 2.7829811.826305 3.0971886 2.254188l.7181887 3.260274c.1726415.783088.6629434 1.460727 1.3552359 1.868693l2.8744811 1.690641c1.2585566.739871 1.7661226 2.306048 1.1825943 3.645768l-1.3327924 3.059748c-.3211132.736414-.3211132 1.573091 0 2.309505l1.3327924 3.059748c.5835283 1.33972.0759623 2.904168-1.1825943 3.645768l-2.8744811 1.690641c-.6922925.406237-1.1825944 1.083877-1.3552359 1.868693l-.7181887 3.258546c-.3142075 1.429611-1.6435471 2.395938-3.0971886 2.254187l-3.3181699-.323261c-.7976037-.077791-1.5934811.18151-2.1942735.713941l-2.4929434 2.214428c-1.0928208.969784-2.736368.969784-3.8291887 0l-2.4946698-2.214428c-.6007925-.532431-1.3949434-.791732-2.1942736-.713941l-3.3164434.323261c-1.4536415.141751-2.7847076-.824576-3.0971887-2.254187l-.7181887-3.258546c-.1726415-.784816-.6646698-1.462456-1.3569622-1.868693l-2.8744812-1.690641c-1.2568302-.7416-1.7661226-2.306048-1.1825943-3.645768l1.3327924-3.059748c.3211133-.736414.3211133-1.573091 0-2.309505l-1.3327924-3.059748c-.5835283-1.33972-.0742359-2.905897 1.1825943-3.645768l2.8744812-1.690641c.6922924-.407966 1.1843207-1.085605 1.3569622-1.868693l.7181887-3.260274c.3124811-1.427883 1.6435472-2.39421 3.0971887-2.254188l4.5698207.447726 3.4355661-3.051105c1.0928207-.969784 2.7363679-.969784 3.8291887 0" fill="#000" opacity=".2"/><path d="m32.7190189 123.510455 2.4929434 2.214428c.6007924.532431 1.3966698.791731 2.1942735.713941l3.3181699-.32499c1.4536415-.140023 2.7829811.826305 3.0971886 2.254187l.7181887 3.260274c.1726415.783088.6629434 1.460728 1.3552359 1.868694l2.8744811 1.690641c1.2585566.739871 1.7661226 2.306047 1.1825943 3.645767l-1.3327924 3.059749c-.3211132.736414-.3211132 1.573091 0 2.309505l1.3327924 3.059748c.5835283 1.33972.0759623 2.904168-1.1825943 3.645768l-2.8744811 1.69064c-.6922925.406238-1.1825944 1.083877-1.3552359 1.868694l-.7181887 3.258545c-.3142075 1.429612-1.6435471 2.395939-3.0971886 2.254188l-3.3181699-.323262c-.7976037-.07779-1.5934811.181511-2.1942735.713942l-2.4929434 2.214428c-1.0928208.969784-2.736368.969784-3.8291887 0l-2.4946698-2.214428c-.6007925-.532431-1.3949434-.791732-2.1942736-.713942l-3.3164434.323262c-1.4536415.141751-2.7847076-.824576-3.0971887-2.254188l-.7181887-3.258545c-.1726415-.784817-.6646698-1.462456-1.3569622-1.868694l-2.8744812-1.69064c-1.2568301-.7416-1.7661226-2.306048-1.1825943-3.645768l1.3327925-3.059748c.3211132-.736414.3211132-1.573091 0-2.309505l-1.3327925-3.059749c-.5835283-1.33972-.0742358-2.905896 1.1825943-3.645767l2.8744812-1.690641c.6922924-.407966 1.1843207-1.085606 1.3569622-1.868694l.7181887-3.260274c.3124811-1.427882 1.6435472-2.39421 3.0971887-2.254187l4.5698208.447726 3.435566-3.051105c1.0928207-.969785 2.7363679-.969785 3.8291887 0" fill="#f09242"/><path d="m22.0502915 144.047762 5.1706132 5.175642 12.3369623-12.351357" stroke="#fff" stroke-linecap="round" stroke-linejoin="round" stroke-width="2.887488"/><path d="m49.9527849 147.26188-1.331066-3.059748c-.3228397-.736414-.3228397-1.573091 0-2.309505l1.331066-3.059748c.5835283-1.33972.0759623-2.905897-1.1843207-3.645768l-2.8727548-1.690641c-.6922924-.407966-1.1825943-1.083876-1.3569622-1.868693l-.7181887-3.260274c-.3124811-1.426154-1.6435472-2.39421-3.0971887-2.252459l-3.3181698.323261c-.7976038.077791-1.5917547-.179781-2.1925472-.713941l-2.4929434-2.214428c-1.0928207-.969784-2.7380943-.969784-3.8309151 0l-3.4338396 3.051105-4.5715472-.445997c-1.4536415-.141751-2.7812547.826305-3.0971886 2.252459l-.2192547.992257 26.6299528 26.663027.3418302-1.555805c.1743679-.784816.6646698-1.460727 1.3569622-1.868693l2.8727548-1.690641c1.260283-.739871 1.767849-2.306047 1.1843207-3.645768" fill="#fff" opacity=".2"/><path d="m120.869083.53675245h-113.96411319c-3.81365094 0-6.90566038 3.09605035-6.90566038 6.91468531v13.61328674l127.77543357 127.9424225v-141.55570924c0-3.81863496-3.092009-6.91468531-6.90566-6.91468531" fill="#fff" opacity=".2" transform="translate(0 5.25689)"/><path d="m92.4826755 16.1489018c-1.6124717 1.614579-4.2245378 1.614579-5.8370095 0-1.6107452-1.614579-1.6107452-4.2317874 0-5.8446377 1.6124717-1.61457907 4.2245378-1.61457907 5.8370095 0 1.6124717 1.6128503 1.6124717 4.2300587 0 5.8446377zm35.2913775 41.2218965v-11.1101706h-3.041944v-4.2646322l-.626688-.625779h-2.815783v-3.6336671l-12.371491-12.3893874c3.062661-6.1091245 2.049255-13.7446658-3.041943-18.8442462-.253783-.25238601-.521378-.47711328-.785519-.70875524h-21.4558869c-.2624151.23164196-.5334623.45636923-.7837924.70875524-6.3583868 6.3684252-6.3583868 16.688593 0 23.0552895 5.0911981 5.0995804 12.7167735 6.1143105 18.8179243 3.0459189l24.734349 24.7666741z" fill="#000" opacity=".2"/><path d="m90.7562604 14.4193662c-1.6124717 1.614579-4.2245378 1.614579-5.8370095 0-1.6107452-1.6145791-1.6107452-4.2300588 0-5.84463781 1.6124717-1.61285035 4.2245378-1.61285035 5.8370095 0 1.6124717 1.61457901 1.6124717 4.23005871 0 5.84463781m-9.6316698-9.64425739c-6.3583868 6.36669649-6.3583868 16.68859299 0 23.05528949 5.0911981 5.0995804 12.7167736 6.1125818 18.8179245 3.0441902l24.7343489 24.7666742h7.247491l.012085-.0103721v-7.2344895l-.599066-.5981203h-4.026v-2.1591105l-1.104906-1.1063496h-3.200774v-4.2646322l-.626688-.625779h-2.815783v-3.6353958l-12.371491-12.3876587c3.06266-6.1091245 2.049255-13.74466577-3.041943-18.84424619-6.3583871-6.3666965-16.6668116-6.3666965-23.0251984 0" fill="#f0c362"/><path d="m127.813415 55.6416084h2.855491l-25.604463-25.6379245-1.427745 1.4296112z" fill="#000" opacity=".2"/><path d="m127.311028 47.7975894v-2.1591105l-1.104905-1.1063497h-3.200774v-4.2646321l-.624962-.6257791h-2.81751v-3.6336671l-12.37149-12.3893874c3.06266-6.1091245 2.049255-13.74466574-3.041944-18.84424616-6.1425845-6.14888391-15.9589807-6.34076643-22.3518958-.60849231l3.8360943 3.84283637c1.596934-1.01127273 3.7325094-.82803357 5.1222736.56700419 1.3914906 1.39158042 1.5744906 3.52994681.5645377 5.12723921l40.6139152 40.666993v-5.9742881l-.59734-.5981203z" fill="#fff" opacity=".2"/></g></g></svg>