<?xml version="1.0" encoding="UTF-8"?>
<svg width="260px" height="259px" viewBox="0 0 260 259" version="1.1" xmlns="http://www.w3.org/2000/svg" xmlns:xlink="http://www.w3.org/1999/xlink">
    <!-- Generator: Sketch 52.2 (67145) - http://www.bohemiancoding.com/sketch -->
    <title>Image</title>
    <desc>Created with Sketch.</desc>
    <defs>
        <linearGradient x1="20.9203312%" y1="13.1134683%" x2="101.999998%" y2="100.999999%" id="linearGradient-1">
            <stop stop-color="#282138" offset="0%"></stop>
            <stop stop-color="#8C4398" offset="100%"></stop>
        </linearGradient>
        <path d="M141.155418,14.3108351 L262.211146,256.422291 C264.18706,260.374119 262.585265,265.179504 258.633437,267.155418 C257.522593,267.710839 256.297689,268 255.055728,268 L12.9442719,268 C8.52599391,268 4.94427191,264.418278 4.94427191,260 C4.94427191,258.758039 5.23343264,257.533135 5.78885438,256.422291 L126.844582,14.3108351 C128.820496,10.3590071 133.625881,8.7572123 137.577709,10.7331263 C139.125928,11.5072359 140.381308,12.7626158 141.155418,14.3108351 Z" id="path-2"></path>
        <linearGradient x1="50%" y1="43.8493949%" x2="17.0176292%" y2="10.9394983%" id="linearGradient-4">
            <stop stop-color="#282138" stop-opacity="0" offset="0%"></stop>
            <stop stop-color="#282138" offset="100%"></stop>
        </linearGradient>
        <polygon id="path-5" points="0 0.536406713 127.774743 0.536406713 127.774743 167.226997 0 167.226997"></polygon>
        <polygon id="path-7" points="0.000780227676 0.000234927652 41.1275089 0.000234927652 41.1275089 32.3552911 0.000780227676 32.3552911"></polygon>
    </defs>
    <g id="Designs" stroke="none" stroke-width="1" fill="none" fill-rule="evenodd">
        <g id="Home" transform="translate(-892.000000, -1333.000000)">
            <g id="WHY-DO-WE-NEED-WBTC?" transform="translate(250.000000, 923.000000)">
                <g id="2.-Smart-Contracts" transform="translate(0.000000, 401.000000)">
                    <g id="Image" transform="translate(638.000000, 0.000000)">
                        <g id="BG">
                            <mask id="mask-3" fill="white">
                                <use xlink:href="#path-2"></use>
                            </mask>
                            <g id="Mask" fill-rule="nonzero">
                                <use fill="#282138" xlink:href="#path-2"></use>
                                <use fill="url(#linearGradient-1)" xlink:href="#path-2"></use>
                            </g>
                            <polygon id="Fill-1" fill="url(#linearGradient-4)" opacity="0.6" mask="url(#mask-3)" points="264.708472 482.494652 23.9063679 241.379575 147.398566 78.7928503 388.20067 319.909656"></polygon>
                        </g>
                        <g id="Image---Smart-Contract" transform="translate(23.000000, 71.000000)">
                            <g id="Group-6" transform="translate(0.000000, 5.256890)">
                                <mask id="mask-6" fill="white">
                                    <use xlink:href="#path-5"></use>
                                </mask>
                                <g id="Clip-5"></g>
                                <path d="M120.869083,167.226997 L6.90496981,167.226997 C3.09131887,167.226997 -0.000690566038,164.130947 -0.000690566038,160.312312 L-0.000690566038,7.45109203 C-0.000690566038,3.63245706 3.09131887,0.536406713 6.90496981,0.536406713 L120.869083,0.536406713 C124.682734,0.536406713 127.774743,3.63245706 127.774743,7.45109203 L127.774743,160.312312 C127.774743,164.130947 124.682734,167.226997 120.869083,167.226997" id="Fill-4" fill="#F1F2F2" mask="url(#mask-6)"></path>
                            </g>
                            <g id="Group-3" transform="translate(70.606299, 112.363636)">
                                <mask id="mask-8" fill="white">
                                    <use xlink:href="#path-7"></use>
                                </mask>
                                <g id="Clip-2"></g>
                                <path d="M39.1039539,9.83121921 C37.9095307,11.726768 35.898512,12.9614032 34.0163378,14.0687385 C31.9948722,15.2545464 29.8532679,16.3339803 27.6402768,17.1134746 C27.4417866,17.1849719 26.9769018,17.3035527 26.390137,17.4395718 C26.3936193,17.4256211 26.3953604,17.4134143 26.3971016,17.3994636 C27.1457925,13.1026539 27.9327886,8.13795532 30.4243624,4.45846323 C34.2130868,-1.13924748 43.04764,3.56910732 39.1039539,9.83121921 Z M13.6745789,18.8224331 C13.4099254,19.6106465 13.0164274,20.4354805 12.5010494,21.181842 C12.2851478,21.0998817 12.0396469,21.1434776 11.9073201,21.413772 C10.014699,25.3321695 5.90560453,21.2672899 4.24281417,18.7858125 C5.46509567,16.644383 6.44187618,14.380885 7.11918031,11.9220775 C7.3020002,11.2541887 6.26602087,10.9681997 6.08145984,11.6360886 C5.48424823,13.8054194 4.66242933,15.8143175 3.63515571,17.7168416 C3.61600315,17.6767334 3.59162717,17.6261622 3.57769803,17.5877978 C3.01705039,16.0183462 2.90909961,14.2954371 3.00660354,12.6422814 C3.09191949,11.1495586 3.40706614,9.17902488 4.19928563,7.8537102 C6.2590563,4.41486735 10.3420337,5.16820412 12.5289077,7.9234636 C14.7297108,10.6979053 14.7662748,15.5318162 13.6745789,18.8224331 Z M2.86557106,20.9917639 C3.09888406,20.6534599 3.33045591,20.3134121 3.54809862,19.9663889 C4.39603465,21.3562255 5.58175217,22.514132 7.12614488,23.2029469 C7.66763996,23.4453399 8.24744016,23.6232111 8.82724035,23.719122 C6.31129055,24.1446178 4.38907008,22.7425744 2.86557106,20.9917639 Z M1.40301201,21.1870735 C1.38908287,21.0719803 1.37863602,20.9586311 1.36644803,20.8452818 C1.4152,20.9080598 1.46395197,20.9708379 1.51444508,21.033616 L1.40301201,21.1870735 Z M32.2943486,0.914990283 C28.650139,3.20115812 27.2850839,8.31408266 26.3605376,12.2010911 C25.9461459,13.9414386 25.5091193,15.809086 25.136515,17.7203293 C23.3953732,18.0969976 21.4261419,18.473666 21.4400711,18.3794989 C21.5201636,17.9051758 21.0918427,17.5616403 20.6513339,17.7726443 C18.5671872,18.7718618 17.0889579,19.1328357 14.7802039,19.2270028 C14.7331931,19.2287466 14.6931469,19.246185 14.6513594,19.2583918 C16.427324,14.1210536 15.5201892,6.26158874 9.75178661,4.64156592 C3.37572559,2.85239109 1.42042343,10.5897875 2.00022362,15.3713834 C2.14299724,16.5624227 2.46510846,17.7586936 2.96655728,18.8625413 C2.70886831,19.2915247 2.45117933,19.7239958 2.16737323,20.1425162 C1.80347461,19.6734246 1.4569874,19.2008453 1.13835846,18.749192 C0.899822047,18.4091441 0.246893898,18.3812428 0.158095669,18.8764919 C-0.115263583,20.377934 -0.0508413386,21.3352994 0.497618307,22.7530374 C0.626462795,23.0895976 1.11398248,23.3372222 1.39604744,22.990199 C1.69552382,22.6239936 1.94624823,22.2368622 2.22483091,21.8619377 C3.68738996,23.4732413 5.44594311,24.7584478 7.73728563,24.8630779 C10.4708781,24.988634 12.7065041,23.2343359 13.9549028,20.9010845 C14.0959352,20.6377654 14.2230386,20.3570079 14.3449185,20.0692752 C14.4267522,20.208782 14.5660435,20.3116682 14.7802039,20.3029491 C16.7755524,20.2209888 18.5253998,19.8199067 20.3065878,19.077033 C20.3675278,19.2985 20.5381596,19.4816027 20.8028132,19.4711397 C22.0372827,19.4223123 23.4371606,19.2514165 24.9084254,18.9654275 C24.3530012,22.0921239 24.018702,25.2885736 24.3094726,28.2094975 C25.0128939,35.2842365 30.7255799,32.1714908 32.3570297,27.2782895 C32.5764136,26.6208637 31.5386931,26.3383624 31.3210504,26.9923006 C30.8387541,29.7806929 28.9165337,30.6142461 25.5613535,29.4947039 C25.333264,28.1066112 25.2775474,26.7150308 25.3924628,25.3199627 C25.4795199,23.1087798 25.8068545,20.88539 26.1777177,18.6951331 C32.0105425,17.3227349 38.5607177,14.1646495 40.6239707,9.26272897 C42.7812453,4.13062223 37.6344303,-2.43840464 32.2943486,0.914990283 Z" id="Fill-1" fill="#B3B3B3" mask="url(#mask-8)"></path>
                            </g>
                            <path d="M56.4370274,42.7483133 L18.4110085,42.7483133 C17.4580274,42.7483133 16.6845934,41.9738685 16.6845934,41.019642 L16.6845934,40.535614 C16.6845934,39.5796587 17.4580274,38.8069427 18.4110085,38.8069427 L56.4370274,38.8069427 C57.3900085,38.8069427 58.1634425,39.5796587 58.1634425,40.535614 L58.1634425,41.019642 C58.1634425,41.9738685 57.3900085,42.7483133 56.4370274,42.7483133" id="Fill-11" fill="#B3B3B3"></path>
                            <path d="M56.4370274,50.9130008 L18.4110085,50.9130008 C17.4580274,50.9130008 16.6845934,50.1385561 16.6845934,49.1843295 L16.6845934,48.7003015 C16.6845934,47.7443463 17.4580274,46.9716302 18.4110085,46.9716302 L56.4370274,46.9716302 C57.3900085,46.9716302 58.1634425,47.7443463 58.1634425,48.7003015 L58.1634425,49.1843295 C58.1634425,50.1385561 57.3900085,50.9130008 56.4370274,50.9130008" id="Fill-13" fill="#B3B3B3"></path>
                            <path d="M109.433137,67.2425488 L18.4096274,67.2425488 C17.4583726,67.2425488 16.6832123,66.4681041 16.6832123,65.5138775 L16.6832123,65.0298495 C16.6832123,64.0738943 17.4583726,63.3011782 18.4096274,63.3011782 L109.433137,63.3011782 C110.387844,63.3011782 111.159552,64.0738943 111.159552,65.0298495 L111.159552,65.5138775 C111.159552,66.4681041 110.387844,67.2425488 109.433137,67.2425488" id="Fill-15" fill="#B3B3B3"></path>
                            <path d="M109.433137,75.4072364 L18.4096274,75.4072364 C17.4583726,75.4072364 16.6832123,74.6327916 16.6832123,73.678565 L16.6832123,73.1945371 C16.6832123,72.2385818 17.4583726,71.4658657 18.4096274,71.4658657 L109.433137,71.4658657 C110.387844,71.4658657 111.159552,72.2385818 111.159552,73.1945371 L111.159552,73.678565 C111.159552,74.6327916 110.387844,75.4072364 109.433137,75.4072364" id="Fill-17" fill="#B3B3B3"></path>
                            <path d="M109.433137,83.5720968 L18.4096274,83.5720968 C17.4583726,83.5720968 16.6832123,82.797652 16.6832123,81.8434255 L16.6832123,81.3593975 C16.6832123,80.4034422 17.4583726,79.6307262 18.4096274,79.6307262 L109.433137,79.6307262 C110.387844,79.6307262 111.159552,80.4034422 111.159552,81.3593975 L111.159552,81.8434255 C111.159552,82.797652 110.387844,83.5720968 109.433137,83.5720968" id="Fill-19" fill="#B3B3B3"></path>
                            <path d="M109.433137,91.7367843 L18.4096274,91.7367843 C17.4583726,91.7367843 16.6832123,90.9623396 16.6832123,90.008113 L16.6832123,89.524085 C16.6832123,88.5681298 17.4583726,87.7954137 18.4096274,87.7954137 L109.433137,87.7954137 C110.387844,87.7954137 111.159552,88.5681298 111.159552,89.524085 L111.159552,90.008113 C111.159552,90.9623396 110.387844,91.7367843 109.433137,91.7367843" id="Fill-21" fill="#B3B3B3"></path>
                            <path d="M56.4370274,99.9016448 L18.4110085,99.9016448 C17.4580274,99.9016448 16.6845934,99.1272 16.6845934,98.1729734 L16.6845934,97.6889455 C16.6845934,96.7329902 17.4580274,95.9602741 18.4110085,95.9602741 L56.4370274,95.9602741 C57.3900085,95.9602741 58.1634425,96.7329902 58.1634425,97.6889455 L58.1634425,98.1729734 C58.1634425,99.1272 57.3900085,99.9016448 56.4370274,99.9016448" id="Fill-23" fill="#B3B3B3"></path>
                            <path d="M56.4370274,108.066332 L18.4110085,108.066332 C17.4580274,108.066332 16.6845934,107.291888 16.6845934,106.337661 L16.6845934,105.853633 C16.6845934,104.897678 17.4580274,104.124962 18.4110085,104.124962 L56.4370274,104.124962 C57.3900085,104.124962 58.1634425,104.897678 58.1634425,105.853633 L58.1634425,106.337661 C58.1634425,107.291888 57.3900085,108.066332 56.4370274,108.066332" id="Fill-25" fill="#B3B3B3"></path>
                            <path d="M109.433137,99.9016448 L71.4088443,99.9016448 C70.4541368,99.9016448 69.6824292,99.1272 69.6824292,98.1729734 L69.6824292,97.6889455 C69.6824292,96.7329902 70.4541368,95.9602741 71.4088443,95.9602741 L109.433137,95.9602741 C110.387844,95.9602741 111.159552,96.7329902 111.159552,97.6889455 L111.159552,98.1729734 C111.159552,99.1272 110.387844,99.9016448 109.433137,99.9016448" id="Fill-27" fill="#B3B3B3"></path>
                            <path d="M109.433137,108.066332 L71.4088443,108.066332 C70.4541368,108.066332 69.6824292,107.291888 69.6824292,106.337661 L69.6824292,105.853633 C69.6824292,104.897678 70.4541368,104.124962 71.4088443,104.124962 L109.433137,104.124962 C110.387844,104.124962 111.159552,104.897678 111.159552,105.853633 L111.159552,106.337661 C111.159552,107.291888 110.387844,108.066332 109.433137,108.066332" id="Fill-29" fill="#B3B3B3"></path>
                            <path d="M34.445434,125.239126 L36.9383774,127.453554 C37.5391698,127.985985 38.3350472,128.245286 39.1326509,128.167495 L42.4508208,127.842505 C43.9044623,127.702483 45.2338019,128.66881 45.5480094,130.096693 L46.2661981,133.356967 C46.4388396,134.140055 46.9291415,134.817694 47.621434,135.22566 L50.4959151,136.916301 C51.7544717,137.656172 52.2620377,139.222349 51.6785094,140.562069 L50.345717,143.621817 C50.0246038,144.358231 50.0246038,145.194908 50.345717,145.931322 L51.6785094,148.99107 C52.2620377,150.33079 51.7544717,151.895238 50.4959151,152.636838 L47.621434,154.327479 C46.9291415,154.733716 46.4388396,155.411356 46.2661981,156.196172 L45.5480094,159.454718 C45.2338019,160.884329 43.9044623,161.850656 42.4508208,161.708905 L39.1326509,161.385644 C38.3350472,161.307853 37.5391698,161.567154 36.9383774,162.099585 L34.445434,164.314013 C33.3526132,165.283797 31.709066,165.283797 30.6162453,164.314013 L28.1215755,162.099585 C27.520783,161.567154 26.7266321,161.307853 25.9273019,161.385644 L22.6108585,161.708905 C21.157217,161.850656 19.8261509,160.884329 19.5136698,159.454718 L18.7954811,156.196172 C18.6228396,155.411356 18.1308113,154.733716 17.4385189,154.327479 L14.5640377,152.636838 C13.3072075,151.895238 12.7979151,150.33079 13.3814434,148.99107 L14.7142358,145.931322 C15.0353491,145.194908 15.0353491,144.358231 14.7142358,143.621817 L13.3814434,140.562069 C12.7979151,139.222349 13.3072075,137.656172 14.5640377,136.916301 L17.4385189,135.22566 C18.1308113,134.817694 18.6228396,134.140055 18.7954811,133.356967 L19.5136698,130.096693 C19.8261509,128.66881 21.157217,127.702483 22.6108585,127.842505 L27.1806792,128.290231 L30.6162453,125.239126 C31.709066,124.269342 33.3526132,124.269342 34.445434,125.239126" id="Fill-31" fill="#000000" opacity="0.2"></path>
                            <path d="M32.7190189,123.510455 L35.2119623,125.724883 C35.8127547,126.257314 36.6086321,126.516614 37.4062358,126.438824 L40.7244057,126.113834 C42.1780472,125.973811 43.5073868,126.940139 43.8215943,128.368021 L44.539783,131.628295 C44.7124245,132.411383 45.2027264,133.089023 45.8950189,133.496989 L48.7695,135.18763 C50.0280566,135.927501 50.5356226,137.493677 49.9520943,138.833397 L48.6193019,141.893146 C48.2981887,142.62956 48.2981887,143.466237 48.6193019,144.202651 L49.9520943,147.262399 C50.5356226,148.602119 50.0280566,150.166567 48.7695,150.908167 L45.8950189,152.598807 C45.2027264,153.005045 44.7124245,153.682684 44.539783,154.467501 L43.8215943,157.726046 C43.5073868,159.155658 42.1780472,160.121985 40.7244057,159.980234 L37.4062358,159.656972 C36.6086321,159.579182 35.8127547,159.838483 35.2119623,160.370914 L32.7190189,162.585342 C31.6261981,163.555126 29.9826509,163.555126 28.8898302,162.585342 L26.3951604,160.370914 C25.7943679,159.838483 25.000217,159.579182 24.2008868,159.656972 L20.8844434,159.980234 C19.4308019,160.121985 18.0997358,159.155658 17.7872547,157.726046 L17.069066,154.467501 C16.8964245,153.682684 16.4043962,153.005045 15.7121038,152.598807 L12.8376226,150.908167 C11.5807925,150.166567 11.0715,148.602119 11.6550283,147.262399 L12.9878208,144.202651 C13.308934,143.466237 13.308934,142.62956 12.9878208,141.893146 L11.6550283,138.833397 C11.0715,137.493677 11.5807925,135.927501 12.8376226,135.18763 L15.7121038,133.496989 C16.4043962,133.089023 16.8964245,132.411383 17.069066,131.628295 L17.7872547,128.368021 C18.0997358,126.940139 19.4308019,125.973811 20.8844434,126.113834 L25.4542642,126.56156 L28.8898302,123.510455 C29.9826509,122.54067 31.6261981,122.54067 32.7190189,123.510455" id="Fill-33" fill="#F09242"></path>
                            <polyline id="Stroke-35" stroke="#FFFFFF" stroke-width="2.887488" stroke-linecap="round" stroke-linejoin="round" points="22.0502915 144.047762 27.2209047 149.223404 39.557867 136.872047"></polyline>
                            <path d="M49.9527849,147.26188 L48.6217189,144.202132 C48.2988792,143.465718 48.2988792,142.629041 48.6217189,141.892627 L49.9527849,138.832879 C50.5363132,137.493159 50.0287472,135.926982 48.7684642,135.187111 L45.8957094,133.49647 C45.203417,133.088504 44.7131151,132.412594 44.5387472,131.627777 L43.8205585,128.367503 C43.5080774,126.941349 42.1770113,125.973293 40.7233698,126.115044 L37.4052,126.438305 C36.6075962,126.516096 35.8134453,126.258524 35.2126528,125.724364 L32.7197094,123.509936 C31.6268887,122.540152 29.9816151,122.540152 28.8887943,123.509936 L25.4549547,126.561041 L20.8834075,126.115044 C19.429766,125.973293 18.1021528,126.941349 17.7862189,128.367503 L17.5669642,129.35976 L44.196917,156.022787 L44.5387472,154.466982 C44.7131151,153.682166 45.203417,153.006255 45.8957094,152.598289 L48.7684642,150.907648 C50.0287472,150.167777 50.5363132,148.601601 49.9527849,147.26188" id="Fill-37" fill="#FFFFFF" opacity="0.2"></path>
                            <g id="Group-41" transform="translate(0.000000, 5.256890)" fill="#FFFFFF" opacity="0.2">
                                <path d="M120.869083,0.536752448 L6.90496981,0.536752448 C3.09131887,0.536752448 -0.000690566038,3.6328028 -0.000690566038,7.45143776 L-0.000690566038,21.0647245 L127.774743,149.007147 L127.774743,7.45143776 C127.774743,3.6328028 124.682734,0.536752448 120.869083,0.536752448" id="Fill-39"></path>
                            </g>
                            <path d="M92.4826755,16.1489018 C90.8702038,17.7634808 88.2581377,17.7634808 86.645666,16.1489018 C85.0349208,14.5343228 85.0349208,11.9171144 86.645666,10.3042641 C88.2581377,8.68968503 90.8702038,8.68968503 92.4826755,10.3042641 C94.0951472,11.9171144 94.0951472,14.5343228 92.4826755,16.1489018 Z M127.774053,57.3707983 L127.774053,46.2606277 L124.732109,46.2606277 L124.732109,41.9959955 L124.105421,41.3702165 L121.289638,41.3702165 L121.289638,37.7365494 L108.918147,25.347162 C111.980808,19.2380375 110.967402,11.6024962 105.876204,6.5029158 C105.622421,6.25052979 105.354826,6.02580252 105.090685,5.79416056 L83.6347981,5.79416056 C83.372383,6.02580252 83.1013358,6.25052979 82.8510057,6.5029158 C76.4926189,12.871341 76.4926189,23.1915088 82.8510057,29.5582053 C87.9422038,34.6577857 95.5677792,35.6725158 101.66893,32.6041242 L126.403279,57.3707983 L127.774053,57.3707983 Z" id="Fill-42" fill="#000000" opacity="0.2"></path>
                            <path d="M90.7562604,14.4193662 C89.1437887,16.0339452 86.5317226,16.0339452 84.9192509,14.4193662 C83.3085057,12.8047871 83.3085057,10.1893074 84.9192509,8.57472839 C86.5317226,6.96187804 89.1437887,6.96187804 90.7562604,8.57472839 C92.3687321,10.1893074 92.3687321,12.8047871 90.7562604,14.4193662 M81.1245906,4.77510881 C74.7662038,11.1418053 74.7662038,21.4637018 81.1245906,27.8303983 C86.2157887,32.9299787 93.8413642,33.9429801 99.9425151,30.8745885 L124.676864,55.6412627 L131.924355,55.6412627 L131.93644,55.6308906 L131.93644,48.3964011 L131.337374,47.7982808 L127.311374,47.7982808 L127.311374,45.6391703 L126.206468,44.5328207 L123.005694,44.5328207 L123.005694,40.2681885 L122.379006,39.6424095 L119.563223,39.6424095 L119.563223,36.0070137 L107.191732,23.619355 C110.254392,17.5102305 109.240987,9.87468923 104.149789,4.77510881 C97.7914019,-1.59158769 87.4829774,-1.59158769 81.1245906,4.77510881" id="Fill-44" fill="#F0C362"></path>
                            <polygon id="Fill-46" fill="#000000" opacity="0.2" points="127.813415 55.6416084 130.668906 55.6416084 105.064443 30.0036839 103.636698 31.4332951"></polygon>
                            <path d="M127.311028,47.7975894 L127.311028,45.6384789 L126.206123,44.5321292 L123.005349,44.5321292 L123.005349,40.2674971 L122.380387,39.641718 L119.562877,39.641718 L119.562877,36.0080509 L107.191387,23.6186635 C110.254047,17.509539 109.240642,9.87399776 104.149443,4.77441734 C98.0068585,-1.37446657 88.1904623,-1.56634909 81.7975472,4.16592503 L85.6336415,8.0087614 C87.2305755,6.99748867 89.3661509,7.18072783 90.7559151,8.57576559 C92.1474057,9.96734601 92.3304057,12.1057124 91.3204528,13.7030048 L131.934368,54.3699978 L131.934368,48.3957097 L131.337028,47.7975894 L127.311028,47.7975894 Z" id="Fill-48" fill="#FFFFFF" opacity="0.2"></path>
                        </g>
                    </g>
                </g>
            </g>
        </g>
    </g>
</svg>