<svg height="250" viewBox="0 0 250 250" width="250" xmlns="http://www.w3.org/2000/svg" xmlns:xlink="http://www.w3.org/1999/xlink"><defs><linearGradient id="a" x1="39.120157%" x2="144.40376%" y1="10.302659%" y2="76.035256%"><stop offset="0" stop-color="#282138"/><stop offset="1" stop-color="#8c4398"/></linearGradient><path id="b" d="m130.643182 2.65685425 116.672619 116.67261875c3.124194 3.124194 3.124194 8.189514 0 11.313709l-116.672619 116.672619c-3.124195 3.124194-8.189515 3.124194-11.313709 0l-116.67261875-116.672619c-3.12419434-3.124195-3.12419434-8.189515 0-11.313709l116.67261875-116.67261875c3.124194-3.12419434 8.189514-3.12419434 11.313709 0z"/><linearGradient id="c" x1="45.134162%" x2="13.280368%" y1="44.760893%" y2="12.689442%"><stop offset="0" stop-opacity="0"/><stop offset="1"/></linearGradient><mask id="d" fill="#fff"><use fill="#fff" fill-rule="evenodd" xlink:href="#b"/></mask></defs><g fill="none" fill-rule="evenodd"><g><g fill-rule="nonzero"><use fill="#282138" xlink:href="#b"/><use fill="url(#a)" xlink:href="#b"/></g><path d="m300.765212 406.098673-250.7957697-251.198009 100.6617407-107.4859721 250.797567 251.1980091z" fill="url(#c)" mask="url(#d)" opacity=".6"/></g><g transform="translate(30 29)"><path d="m72.6667615 144.07619c-39.6601827 0-71.92307688-32.316209-71.92307688-72.0379151 0-39.7235071 32.26289418-72.03791471 71.92307688-72.03791471 39.6601825 0 71.9230765 32.31440761 71.9230765 72.03791471 0 39.7217061-32.262894 72.0379151-71.9230765 72.0379151" fill="#e6e6e6"/><g fill="#5a5564"><path d="m118.041772 30.2470995-3.998923 4.0053081c9.092875 9.9790521 14.645337 23.2430332 14.645337 37.7856872 0 14.5408531-5.552462 27.808436-14.645337 37.7874882l3.998923 4.003507c10.114183-11.009194 16.303164-25.6887203 16.303164-41.7909952 0-16.1040758-6.188981-30.7836019-16.303164-41.7909953"/><path d="m34.9404106 30.5963033c9.9631442-9.1073933 23.2077788-14.6687204 37.7254519-14.6687204 14.5194712 0 27.7641055 5.5613271 37.7272495 14.6687204l3.998924-4.005308c-10.991645-10.1303318-25.6459716-16.3291944-41.7261735-16.3291944-16.0784038 0-30.7327308 6.1988626-41.724375 16.3291944z"/><path d="m31.2915731 109.824863c-9.092875-9.9790526-14.6471346-23.2448346-14.6471346-37.7874886 0-14.5408531 5.5542596-27.8066351 14.6471346-37.7856872l-3.9989231-4.0053081c-10.1141827 11.0073934-16.3031635 25.6869195-16.3031635 41.7909953s6.1889808 30.7836016 16.3031635 41.7927966z"/><path d="m110.392933 113.479526c-9.963145 9.107393-23.2077792 14.670521-37.7254522 14.670521-14.5194712 0-27.7641058-5.563128-37.72725-14.670521l-3.9989231 4.005308c10.9916442 10.130332 25.6459711 16.330995 41.7261731 16.330995 16.0784038 0 30.7327312-6.200663 41.7243752-16.330995z"/><path d="m118.041772 30.2470995-3.998923 4.0053081c9.092875 9.9790521 14.645337 23.2430332 14.645337 37.7856872 0 14.5408531-5.552462 27.808436-14.645337 37.7874882l3.998923 4.003507c10.114183-11.009194 16.303164-25.6887203 16.303164-41.7909952 0-16.1040758-6.188981-30.7836019-16.303164-41.7909953"/><path d="m31.2915731 109.824863c-9.092875-9.9790526-14.6471346-23.2448346-14.6471346-37.7874886 0-14.5408531 5.5542596-27.8066351 14.6471346-37.7856872l-3.9989231-4.0053081c-10.1141827 11.0073934-16.3031635 25.6869195-16.3031635 41.7909953s6.1889808 30.7836016 16.3031635 41.7927966z"/><path d="m110.392933 113.479526c-9.963145 9.107393-23.2077792 14.670521-37.7254522 14.670521-14.5194712 0-27.7641058-5.563128-37.72725-14.670521l-3.9989231 4.005308c10.9916442 10.130332 25.6459711 16.330995 41.7261731 16.330995 16.0784038 0 30.7327312-6.200663 41.7243752-16.330995z"/></g><path d="m84.6351212 61.9554882c-.0071924 7.875545-12.3473943 6.9480568-16.2761924 6.9462559l.0089904-13.9159242c3.9287981.001801 16.2707981-1.244455 16.267202 6.9696683m3.22575 21.6509952c-.0017981 8.6553555-14.7999712 7.6630332-19.516327 7.6648341l.0107885-15.3440758c4.7181538.0036019 19.5109327-1.347109 19.5055385 7.6792417m9.7509711-24.7594313c-.7875577-8.255545-7.9025481-11.0272038-16.8857404-11.8196208l.0071923-11.4504266-6.9603557-.0036019-.0053943 11.1496683c-1.8304423-.001801-3.7022404.034218-5.5596538.070237l.0089904-11.2235072-6.9567596-.0036018-.0089904 11.4486255c-1.5067885.0288152-2.9866058.0558294-4.4304616.0558294v-.034218l-9.5999327-.0090047-.0035961 7.4451185s5.1407019-.0954503 5.0561923-.001801c2.8175865.0036019 3.7346058 1.6424645 4.0025192 3.0580095l-.0071923 13.0442654v.0486256l-.0125865 18.2760189c-.1258654.8896683-.6473077 2.3052133-2.6162019 2.3088152.0899038.0792417-5.0597885-.0054028-5.0597885-.0054028l-1.3881154 8.323981 9.0569135.0036019c1.684798.0036019 3.344423.0324171 4.9734807.0450237l-.0035961 11.5800948 6.9513654.005403.0071923-11.4594314c1.8520192.0396208 3.7058365.0576303 5.5578557.0558293l-.0071923 11.4072041 6.9585577.003602.0089904-11.5620857c11.7000866-.6663507 19.8921254-3.6145024 20.9152304-14.6182938.827116-8.8606635-3.3318362-12.817346-9.9739323-14.4165877 4.0366827-2.0548815 6.5611827-5.6801896 5.9750096-11.7223697" fill="#f09242"/><path d="m72.6667615 5.66614218c-36.5387211 0-66.26632688 29.77507112-66.26632688 66.37213272 0 36.5970611 29.72760578 66.3721331 66.26632688 66.3721331 36.5387215 0 66.2663265-29.775072 66.2663265-66.3721331 0-36.5970616-29.727605-66.37213272-66.2663265-66.37213272m0 138.41004782c-39.6601827 0-71.92307688-32.316209-71.92307688-72.0379151 0-39.7235071 32.26289418-72.03791471 71.92307688-72.03791471 39.6601825 0 71.9230765 32.31440761 71.9230765 72.03791471 0 39.7217061-32.262894 72.0379151-71.9230765 72.0379151" fill="#282138"/><path d="m72.6667615.00036019c-14.5194711 0-28.0410096 4.3456872-39.3581057 11.78720381l4.092423 4.0989573c10.2202693-6.46360187 22.3105385-10.22037912 35.2656827-10.22037912 36.5387215 0 66.2663265 29.77507112 66.2663265 66.37213272 0 12.9758294-3.74899 25.0854028-10.204086 35.3219901l4.090625 4.098958c7.431452-11.335166 11.770211-24.8782941 11.770211-39.4209481 0-39.7235071-32.264692-72.03791471-71.9230765-72.03791471" fill="#fff" opacity=".1"/><path d="m.00089904 93.9583318c9.39495192 31.2896682 38.36736536 54.0860662 72.66568266 54.0860662 37.1051153 0 67.9691063-26.677441 74.5662503-61.9237914-3.245529 1.9846446-6.31125 4.3690996-9.11625 7.1803792l-.005394.0036019c-18.9805 19.0090043-49.7509909 19.0090043-68.7296928 0-18.9787019-19.0090048-49.7491923-19.0090048-68.72969231 0z" fill="#0071bc" opacity=".75"/><path d="m117.527342 105.572104c-7.515961 2.216967-15.461663 2.580759-23.1160766 1.087773l25.1065476 25.146635c4.496991-3.544266 8.582222-7.587394 12.176577-12.04654z" fill="#fff" opacity=".15"/><path d="m106.958426 139.837659c1.943721-.988721 3.838894-2.058484 5.681923-3.203886l-43.2581346-43.3272043v-.0018009c-6.1404327-6.150237-13.5197404-10.2996209-21.3323846-12.4697631z" fill="#fff" opacity=".1"/><path d="m63.8274154 147.524284-58.34759617-58.4425589c-1.67580769 1.2894787-3.29407692 2.6870142-4.82783654 4.2232228l-.65090384.653744c.10968269.3691944.23734615.7311849.35242307 1.0985782l49.35181728 49.4288149c4.5365481 1.44256 9.2582981 2.472702 14.1220962 3.038199" fill="#fff" opacity=".2"/><path d="m74.9161558 147.994692c9.4327115-.275545 18.4302884-2.265592 26.6942502-5.685592l-63.0154041-63.1160194c-9.1324327-.6717536-18.4123077 1.2282464-26.6762692 5.7018009z" fill="#fff" opacity=".1"/><path d="m91.6361135 70.5688815c4.0366827-2.0548815 6.5611827-5.6801896 5.9750096-11.7205687-.7875577-8.255545-7.90075-11.0272038-16.8839423-11.8214218l.0053942-11.4504265-6.9603558-.0036019-.0053942 11.1496682c-1.8286442-.0018009-3.7004423.034218-5.5578558.070237l.0071923-11.2235071-6.9567596-.0036019-.0071923 11.4486256c-1.5067884.0288151-2.9884038.0576303-4.4304615.0576303v-.036019l-2.7654423-.0018009 14.307298 14.3319431.0053943-6.3807583c3.927.001801 16.2707981-1.242654 16.2654038 6.9696683-.0035961 4.7509004-4.4969904 6.2907109-8.9202596 6.7715639l23.5224423 23.56c1.2694424-1.9180094 2.0965574-4.3024644 2.3752594-7.3010426.827116-8.8606635-3.3354325-12.815545-9.9757305-14.4165877" fill="#fff" opacity=".2"/><path d="m40.7350731 19.226019 4.1193942 4.1277725c8.2028269-4.7202844 17.6966731-7.427109 27.8126539-7.427109 14.5194711 0 27.7623078 5.5631279 37.7254518 14.6687203l4.000721-4.0035071c-10.991644-10.1303317-25.647769-16.3309952-41.7261728-16.3309952-11.685702 0-22.6090193 3.2867298-31.9320481 8.9651185" fill="#fff" opacity=".1"/><path d="m114.043568 34.2518673c9.092875 9.9790521 14.647135 23.2448341 14.647135 37.7856872 0 10.1321327-2.704308 19.6429384-7.417067 27.8570616l4.119394 4.1259719c5.671134-9.3361141 8.952625-20.2804743 8.952625-31.9830335 0-16.1040758-6.188981-30.7818009-16.303164-41.7909953z" fill="#fff" opacity=".1"/></g></g></svg>